<svg xmlns="http://www.w3.org/2000/svg" xmlns:xlink="http://www.w3.org/1999/xlink" width="65" height="65" viewBox="0 0 65 65">
  <defs>
    <clipPath id="clip-path">
      <circle id="楕円形_40" data-name="楕円形 40" cx="32.5" cy="32.5" r="32.5" transform="translate(463 667)" fill="#fff" stroke="#ef7606" stroke-width="1"/>
    </clipPath>
    <clipPath id="clip-path-2">
      <rect id="長方形_123" data-name="長方形 123" width="59.161" height="160.49" transform="translate(24 47)" fill="#fff"/>
    </clipPath>
  </defs>
  <g id="mem02" transform="translate(-424 -736)">
    <g id="楕円形_48" data-name="楕円形 48" transform="translate(424 736)" fill="#ef7606" stroke="#ef7606" stroke-width="1">
      <circle cx="32.5" cy="32.5" r="32.5" stroke="none"/>
      <circle cx="32.5" cy="32.5" r="32" fill="none"/>
    </g>
    <g id="マスクグループ_3" data-name="マスクグループ 3" transform="translate(-39 69)" clip-path="url(#clip-path)">
      <g id="グループ_48" data-name="グループ 48" transform="translate(0 102.143)">
        <g id="mem02-2" data-name="mem02" transform="translate(436 527.383)">
          <g id="グループ_46" data-name="グループ 46" clip-path="url(#clip-path-2)">
            <path id="パス_929" data-name="パス 929" d="M66.563,83.339a16.554,16.554,0,0,0,2.1-1.3A184.678,184.678,0,0,0,66.791,102c-.1,5.175-.114,10.574-.072,14.706H54.4c.014-.287.028-.58.042-.882l.109-18.787c-.318-7.272-.91-13.6-1.015-15.255,2.893,2.817,5,2.808,7.735,2.808A11.067,11.067,0,0,0,66.563,83.339Z" fill="#fff"/>
            <path id="パス_930" data-name="パス 930" d="M61.131,116.708H49.469c-.507,1.755-1.143,4.742-1.555,7.079-1.987,11.263-.066,22.759.8,33.782.894,11.432,1.441,22.865,2.335,34.3a51.849,51.849,0,0,0,10.082.073,51.913,51.913,0,0,0,10.088-.073c.894-11.432,1.441-22.864,2.335-34.3.862-11.023,2.784-22.519.8-33.782-.413-2.337-1.048-5.323-1.555-7.079Z" fill="#fff"/>
            <path id="パス_931" data-name="パス 931" d="M48.749,116.585a64.848,64.848,0,0,0-2.271,13.141,98.724,98.724,0,0,0,.32,14.887c.41,4.924.956,9.834,1.327,14.761.382,5.081.7,10.167,1.023,15.253.362,5.748.725,11.5,1.173,17.238a.749.749,0,0,0,.725.725,55.928,55.928,0,0,0,9.6.111c.924-.069.932-1.519,0-1.449a55.926,55.926,0,0,1-9.6-.112l.725.725c-.793-10.161-1.316-20.34-2.051-30.505-.355-4.922-.851-9.828-1.3-14.742a116.659,116.659,0,0,1-.6-14.789,63.394,63.394,0,0,1,2.329-14.857.725.725,0,0,0-1.4-.385Z" fill="#211715"/>
            <path id="パス_932" data-name="パス 932" d="M72.114,116.972a62.88,62.88,0,0,1,2.242,13.106A100.874,100.874,0,0,1,74,144.789c-.411,4.9-.951,9.778-1.319,14.676-.382,5.081-.7,10.167-1.022,15.253-.36,5.718-.722,11.436-1.168,17.148l.725-.725a56.03,56.03,0,0,1-9.6.112c-.931-.07-.926,1.38,0,1.449a56.03,56.03,0,0,0,9.6-.111.751.751,0,0,0,.725-.725c.8-10.221,1.322-20.461,2.064-30.686.359-4.949.863-9.882,1.308-14.823a114.008,114.008,0,0,0,.57-14.791,65,65,0,0,0-2.371-14.981.725.725,0,0,0-1.4.386Z" fill="#211715"/>
            <path id="パス_933" data-name="パス 933" d="M49.449,117.433h23.22a.725.725,0,0,0,0-1.45H49.449A.725.725,0,0,0,49.449,117.433Z" fill="#211715"/>
            <path id="パス_934" data-name="パス 934" d="M74.41,120.47c-1.443.9-5.755,1.728-7.454,1.752-.143,0-.13-.753-.15-.94-.129-3.942-.157-11.843-.016-19.28.179-9.431,1.784-18.368,1.9-20.29.181.1.316.176.316.176,3.507,1.937,7.6,4.616,9.527,8.145,2.3,4.481,3.461,11.628,3.772,14.505a21.33,21.33,0,0,1-.032,5.044c-.829,4.272-5.611,3.244-7.057,3.195a13.544,13.544,0,0,1-1.554-.2A64.245,64.245,0,0,1,74.41,120.47Z" fill="#659ad6"/>
            <path id="パス_935" data-name="パス 935" d="M52.554,80.905c-2.135-.278-4.416-1.467-5.23-2.971a9.832,9.832,0,0,1-.637-6.663,64.8,64.8,0,0,0,1.548-6.555c.128-1.134.109-2.283.28-3.411s.524-10.442,7.377-12.457a12.958,12.958,0,0,1,5.29-1.125,15.911,15.911,0,0,1,3.088.394,11.271,11.271,0,0,1,5.556,3.449,13.793,13.793,0,0,1,2.433,4.08A49.589,49.589,0,0,1,75.045,69.8a16.542,16.542,0,0,1-.244,4.732,7.642,7.642,0,0,1-2.355,4.2,6.813,6.813,0,0,1-5.054,1.9" fill="#ad7b59"/>
            <path id="パス_936" data-name="パス 936" d="M65.8,77.009a12.3,12.3,0,0,0,.243,2.169c.138.789.095,1.494,1.191,1.89.054.019.455.229.885.442-.025.46-.057,1.1-.094,1.875a8.844,8.844,0,0,1-13.842.187c-.047-1-.087-1.781-.116-2.283.221-.1.442-.206.489-.223,1.1-.4,1.053-1.1,1.191-1.89a12.651,12.651,0,0,0,.238-2.536,10.412,10.412,0,0,1-4.19-7.247,2,2,0,0,1-1.48-.533,3.68,3.68,0,0,1-.877-1.259,6.31,6.31,0,0,1-.544-3.1,2.078,2.078,0,0,1,.185-.785,1.237,1.237,0,0,1,1.972-.318c.866-.688,7.623-7.325,8.252-8.091,2.237-.592,4.123.785,5.639,2.011a12.9,12.9,0,0,1,3.481,4.638A17.321,17.321,0,0,1,70,71.5a8.719,8.719,0,0,1-4.209,5.544" fill="#fff"/>
            <path id="パス_937" data-name="パス 937" d="M58.519,72.742a4.73,4.73,0,0,0,5.363,0,.73.73,0,0,0,0-1.025.741.741,0,0,0-1.025,0c-.1.1-.051.025.019-.01-.052.025-.1.067-.151.1s-.114.061-.173.09c-.145.073.006-.012.01,0l-.114.042a3.634,3.634,0,0,1-.576.148c-.017,0-.223.026-.07.012l-.177.017q-.212.016-.423.016c-.129,0-.259,0-.387-.013-.073-.005-.142-.012-.214-.02.1.011.017,0-.038-.007a3.713,3.713,0,0,1-.584-.145c-.005,0-.138-.05-.137-.051s.167.079.029.012c-.065-.032-.129-.063-.192-.1-.047-.028-.091-.061-.139-.088-.1-.054.123.121.059.047-.014-.017-.036-.03-.052-.046a.726.726,0,1,0-1.027,1.025Z" fill="#211715"/>
            <path id="パス_938" data-name="パス 938" d="M60.417,66.768a16.414,16.414,0,0,1,.366,1.679l-.026-.193a.71.71,0,0,1,0,.186l.026-.193a.4.4,0,0,1-.021.07l.072-.173a.218.218,0,0,1-.024.04l.113-.147a.17.17,0,0,1-.033.033l.147-.113a.748.748,0,0,1-.089.049l.173-.072a.758.758,0,0,1-.186.052l.193-.026a.815.815,0,0,1-.183,0l.192.026c-.055-.008-.111-.02-.166-.028a.8.8,0,0,0-.558.073.725.725,0,0,0-.26.992.694.694,0,0,0,.433.333,1.721,1.721,0,0,0,.906-.014,1.028,1.028,0,0,0,.668-.635,1.017,1.017,0,0,0,.044-.449c-.039-.328-.114-.652-.181-.976-.063-.3-.132-.6-.21-.895a.725.725,0,1,0-1.4.385Z" fill="#211715"/>
            <path id="パス_939" data-name="パス 939" d="M66.161,77.663a8.784,8.784,0,0,0,3.971-4.445.744.744,0,0,0-.26-.991.733.733,0,0,0-.992.26,10.637,10.637,0,0,1-.737,1.4c-.132.208-.273.409-.419.608-.1.137.051-.06-.046.059-.04.05-.08.1-.121.149q-.111.133-.228.262-.225.248-.471.477-.119.109-.243.215c-.044.036-.09.073-.134.111-.105.088.059-.041-.011.01a6.65,6.65,0,0,1-1.041.64.729.729,0,0,0-.26.991.744.744,0,0,0,.992.26Z" fill="#211715"/>
            <path id="パス_940" data-name="パス 940" d="M50.921,67.68c.1,4.657,2.609,9.765,7.558,10.724.911.177,1.3-1.22.386-1.4-4.312-.833-6.4-5.277-6.494-9.326A.725.725,0,0,0,50.921,67.68Z" fill="#211715"/>
            <path id="パス_941" data-name="パス 941" d="M55.924,64.81c-.162.526-.056,1.736.938,1.839,1.315-.008,1.385-1.47.942-2.158A1.04,1.04,0,0,0,55.924,64.81Z" fill="#211916"/>
            <path id="パス_942" data-name="パス 942" d="M66.221,64.811c.162.527.056,1.739-.938,1.841-1.315-.008-1.385-1.473-.942-2.161A1.04,1.04,0,0,1,66.221,64.811Z" fill="#211916"/>
            <path id="パス_943" data-name="パス 943" d="M51.56,62.889a1.993,1.993,0,0,0-2.79.029,3.5,3.5,0,0,0-.58,2.832c.221,1.877,1.273,4.413,3.527,4.372a.725.725,0,0,0,0-1.449c-1.281.023-1.836-1.656-2.033-2.667a3.844,3.844,0,0,1,0-1.859.515.515,0,0,1,.853-.233.74.74,0,0,0,1.025,0,.732.732,0,0,0,0-1.025Z" fill="#211715"/>
            <path id="パス_944" data-name="パス 944" d="M65.07,77.009a14.108,14.108,0,0,0,.224,2.1,6.048,6.048,0,0,0,.345,1.5,1.845,1.845,0,0,0,.438.606,2.443,2.443,0,0,0,.419.308,2.67,2.67,0,0,0,.54.24c-.007.01-.23-.109-.1-.038.035.019.073.036.105.052l.3.154c.281.142.562.283.846.417a.745.745,0,0,0,.992-.26.731.731,0,0,0-.26-.992c-.431-.2-.851-.433-1.283-.637-.069-.033-.139-.062-.211-.091-.036-.014-.137-.058-.051-.019-.052-.024-.1-.051-.154-.079-.02-.012-.181-.119-.109-.064s-.043-.041-.058-.055c-.061-.059-.092-.111-.025-.013-.029-.042-.057-.083-.081-.128s-.061-.176-.01-.007a10.687,10.687,0,0,1-.254-1.285q-.038-.22-.073-.44c-.01-.063-.02-.127-.028-.19.017.125-.009-.085-.012-.109-.036-.326-.054-.65-.06-.978a.725.725,0,0,0-1.45,0Z" fill="#211715"/>
            <path id="パス_945" data-name="パス 945" d="M55.257,76.955c-.006.287-.019.575-.045.861q-.02.218-.048.438c.013-.1,0,.025-.01.065-.009.063-.019.126-.029.188-.067.425-.113.87-.22,1.285-.01.036-.02.075-.032.112-.049.154-.021,0,.008,0-.006,0-.12.211-.126.224-.031.067.1-.1.006-.014-.038.034-.075.073-.113.109.09-.084.028-.021-.036.019-.044.028-.09.053-.136.076s-.137.062-.047.026c-.094.038-.154.059-.258.105-.06.027-.119.055-.179.083l-.277.128c-.177.081.136-.048-.036.016-.046.017-.093.034-.139.05a.725.725,0,1,0,.385,1.4,6.662,6.662,0,0,0,.754-.318l.145-.068c.135-.067-.055.054-.079.031.034.036.412-.17.492-.213a2.138,2.138,0,0,0,1.027-1.242,8.8,8.8,0,0,0,.247-1.343,14.4,14.4,0,0,0,.195-2.014.725.725,0,1,0-1.449,0Z" fill="#211715"/>
            <path id="パス_946" data-name="パス 946" d="M57.29,52.544a3.992,3.992,0,0,1,.284.541q.1.207.188.417c.034.077.067.154.1.232.017.04.072.188-.005-.012.016.041.034.082.051.123a19.865,19.865,0,0,1,.693,1.863.725.725,0,1,0,1.4-.386,20.21,20.21,0,0,0-.71-1.9c-.145-.346-.29-.692-.45-1.032a4.18,4.18,0,0,0-.3-.573.725.725,0,0,0-1.252.732Z" fill="#211715"/>
            <path id="パス_947" data-name="パス 947" d="M58.788,54.8c-.852,1.027-1.876,1.94-2.821,2.877q-2.05,2.033-4.135,4.026c-.423.4-.84.823-1.3,1.188a.73.73,0,0,0,0,1.025.742.742,0,0,0,1.025,0c1.062-.851,2.016-1.872,2.99-2.819q2.061-2,4.088-4.042c.4-.4.814-.795,1.174-1.23a.745.745,0,0,0,0-1.025.73.73,0,0,0-1.025,0Z" fill="#211715"/>
            <path id="パス_948" data-name="パス 948" d="M59.493,56.009c1.639-.4,3.114.432,4.385,1.391a12.278,12.278,0,0,1,3.3,3.723,16.768,16.768,0,0,1,2.156,9.926A14.4,14.4,0,0,1,67.483,76.7a.725.725,0,0,0,1.251.731,16.484,16.484,0,0,0,1.792-11.362,15.929,15.929,0,0,0-5.6-9.679c-1.69-1.311-3.624-2.315-5.813-1.776-.906.222-.522,1.62.386,1.4Z" fill="#211715"/>
            <path id="パス_949" data-name="パス 949" d="M50.921,76.52a6.532,6.532,0,0,0,2.242,4.9.725.725,0,1,0,1.025-1.025,5.869,5.869,0,0,1-.429-.4q-.109-.113-.209-.231c-.03-.036-.059-.073-.089-.106s-.061-.077-.015-.017a5.716,5.716,0,0,1-.625-1.036c-.02-.042-.038-.084-.057-.126-.048-.109.036.091-.008-.019s-.075-.194-.109-.292a5.876,5.876,0,0,1-.161-.566c-.021-.09-.039-.181-.055-.271-.01-.057-.019-.114-.028-.171.012.076,0,.045,0-.013-.021-.207-.033-.414-.033-.622a.725.725,0,0,0-1.449,0Z" fill="#211715"/>
            <path id="パス_950" data-name="パス 950" d="M55.7,48.15c-4.519,1.359-6.707,5.792-7.5,10.131-.134.73-.235,1.467-.315,2.2-.024.217-.047.435-.069.652,0,.033-.01.065-.012.1.026-.388-.024.162-.034.239-.063.481-.1.964-.128,1.45a21.163,21.163,0,0,1-.313,2.929c-.187.936-.445,1.857-.7,2.776a19.129,19.129,0,0,0-.952,5.444,7.682,7.682,0,0,0,1.776,5.218,8.626,8.626,0,0,0,4.916,2.315.749.749,0,0,0,.892-.507.73.73,0,0,0-.507-.891,7.631,7.631,0,0,1-4.05-1.725,5.767,5.767,0,0,1-1.563-4.025,15.671,15.671,0,0,1,.774-5.035,27.686,27.686,0,0,0,1.114-5.386c.078-1.067.16-2.126.271-3.189.025-.246.051-.492.081-.738.009-.072.018-.148.028-.223l.015-.117c.014-.109-.017.124,0,.012q.038-.276.082-.55a17.71,17.71,0,0,1,1.547-5.149,8.45,8.45,0,0,1,5.042-4.532.725.725,0,0,0-.386-1.4Z" fill="#211715"/>
            <path id="パス_951" data-name="パス 951" d="M56.085,49.548a11.644,11.644,0,0,1,8.948-.406,11.221,11.221,0,0,1,6.239,6A27.988,27.988,0,0,1,72.851,60a49.515,49.515,0,0,1,1.006,5.138c.245,1.711.409,3.439.491,5.166a13.481,13.481,0,0,1-.51,4.964,7.168,7.168,0,0,1-1.1,2.131,7.3,7.3,0,0,1-1.723,1.5,6.534,6.534,0,0,1-3.624,1c-.929.036-.934,1.486,0,1.449a8.172,8.172,0,0,0,3.877-.906,8.447,8.447,0,0,0,3.211-3.059c1.816-3.2,1.426-7.087,1.039-10.6a47.684,47.684,0,0,0-2.468-11.1,12.915,12.915,0,0,0-6.373-7.415,13.543,13.543,0,0,0-2.431-.917,14.718,14.718,0,0,0-2.585-.326,10.457,10.457,0,0,0-2.954.179,23.4,23.4,0,0,0-3.005.94c-.87.313-.5,1.714.386,1.4Z" fill="#211715"/>
            <path id="パス_952" data-name="パス 952" d="M53.032,82.3a9.8,9.8,0,0,0,5.924,2.944,14.726,14.726,0,0,0,6.506-.633,15.829,15.829,0,0,0,3.91-2.2.748.748,0,0,0,.26-.992.73.73,0,0,0-.992-.26,14.067,14.067,0,0,1-4.022,2.21,12.313,12.313,0,0,1-3.885.495A11.007,11.007,0,0,1,57.5,83.5a8.865,8.865,0,0,1-3.438-2.222c-.672-.647-1.7.376-1.025,1.025Z" fill="#211715"/>
            <path id="パス_953" data-name="パス 953" d="M73.027,113.207a52.538,52.538,0,0,1,.657,7.264.725.725,0,0,0,1.45,0,54.825,54.825,0,0,0-.709-7.649.731.731,0,0,0-.892-.508.745.745,0,0,0-.507.892Z" fill="#211715"/>
            <path id="パス_954" data-name="パス 954" d="M67.967,81.7c-.049.8-.181,1.637-.283,2.38-.195,1.441-.39,2.883-.567,4.326-.491,3.984-.865,7.985-1.007,12-.149,4.2-.145,8.421-.137,12.628q0,2.612.041,5.224.016,1.082.043,2.16a8.841,8.841,0,0,0,.109,1.825c.214.872,1.083.712,1.769.638.816-.088,1.631-.219,2.435-.379a13.673,13.673,0,0,0,4.408-1.4.725.725,0,0,0-.732-1.252,11.456,11.456,0,0,1-3.457,1.131q-1.024.225-2.062.379-.391.057-.784.1c-.133.013-.267.024-.4.032-.066,0-.134,0-.2.011-.085.011-.167-.04-.022.019l.435.333c.073.1.013.044.008-.021-.008-.112-.013-.224-.018-.336-.01-.208-.017-.417-.023-.625q-.023-.793-.036-1.589-.036-1.886-.047-3.773-.033-4.695.021-9.391c.036-3.378.1-6.752.35-10.122.217-2.924.535-5.839.908-8.747.236-1.839.59-3.689.7-5.54.057-.932-1.392-.928-1.45,0Z" fill="#211715"/>
            <path id="パス_955" data-name="パス 955" d="M53.5,81.7a37.125,37.125,0,0,0-7.12,3.813,10.583,10.583,0,0,0-3.424,3.169l-.32.529c-.162.393-.306.795-.457,1.191-.338,1.315-1.22,3.127-1.3,4.491-.279,4.727.485,7.987.424,13.2,3.787,0,5.532.407,7.544.4.161-.928-.652,13.582-.435,12.54a16.527,16.527,0,0,0,5.638,1.183c.143,0,.131-.753.15-.94.126-3.871.674-11.129.539-18.407-.178-9.6-1.087-19.226-1.2-21.177" fill="#659ad6"/>
            <path id="パス_956" data-name="パス 956" d="M46.9,93.3a96.6,96.6,0,0,0,.8,10.316,32.244,32.244,0,0,1,.41,4.589,48.5,48.5,0,0,1-.551,4.977,54.49,54.49,0,0,0-.585,7.343.725.725,0,0,0,1.45,0,50.033,50.033,0,0,1,.475-6.54c.232-1.736.527-3.469.633-5.218a26.193,26.193,0,0,0-.317-4.551c-.2-1.827-.394-3.656-.555-5.487-.158-1.8-.313-3.618-.317-5.43a.725.725,0,0,0-1.449,0Z" fill="#211715"/>
            <path id="パス_957" data-name="パス 957" d="M53.721,115.826c-.059,1.257-.123,2.514-.181,3.771-.022.5-.044,1.007-.062,1.51-.006.168-.013.335-.021.5,0,.094-.008.189-.019.283.013-.083.013-.086,0-.008q-.06.2.121-.182l.32-.186c.2-.057-.06-.026-.152-.032-.117-.007-.233-.016-.349-.028-.266-.025-.4-.044-.664-.086-.585-.1-1.166-.22-1.739-.369a10.5,10.5,0,0,1-2.9-1.1c-.8-.488-1.527.765-.732,1.252a10.537,10.537,0,0,0,2.355.995,18.9,18.9,0,0,0,2.769.644c.758.116,2.14.5,2.378-.547a5.907,5.907,0,0,0,.086-1.047c.021-.48.036-.96.058-1.44.058-1.31.125-2.62.187-3.929.044-.932-1.406-.93-1.449,0Z" fill="#211715"/>
            <path id="パス_958" data-name="パス 958" d="M52.813,81.7c.1,1.773.278,3.544.41,5.315.242,3.234.444,6.471.587,9.711.041.929,1.491.934,1.449,0-.143-3.24-.344-6.477-.587-9.711-.133-1.772-.306-3.542-.411-5.315C54.207,80.772,52.758,80.766,52.813,81.7Z" fill="#211715"/>
            <path id="パス_959" data-name="パス 959" d="M53.307,81a37.177,37.177,0,0,0-8.446,4.687A9.668,9.668,0,0,0,42,88.865c-.381.725-.725,1.475-1.062,2.219a10.615,10.615,0,0,0-1.153,3.431c-.072.93,1.377.925,1.449,0,.009-.113-.018.055.014-.11.018-.091.036-.181.06-.27.06-.238.137-.473.217-.705.169-.48.366-.951.573-1.416.344-.769.715-1.525,1.087-2.28,1.18-2.391,3.718-3.779,5.93-5.082A33.758,33.758,0,0,1,53.691,82.4a.747.747,0,0,0,.507-.892A.729.729,0,0,0,53.307,81Z" fill="#211715"/>
            <path id="パス_960" data-name="パス 960" d="M26.84,105.594q-1.185-6.817-2.131-13.673c5.2-.064,24.142,1.137,25.945,1.191.426,2.916,1.2,7.214,1.993,11.677,2.757.155,4.759.22,10.658.544a.6.6,0,0,1,.352,1.057c-2.351,1.945-6.932,5.766-8.14,6.745a1.73,1.73,0,0,1-1.558.5l-25.921-1.494Q27.411,108.873,26.84,105.594Z" fill="#e2e2e2"/>
            <path id="パス_961" data-name="パス 961" d="M28.389,112.888l13.324.768,6.662.384,3.241.187,1.621.093a6.389,6.389,0,0,0,1.551.006,3.883,3.883,0,0,0,1.649-1.012q.63-.518,1.258-1.039,1.7-1.4,3.391-2.814l1.791-1.488a7.741,7.741,0,0,0,1.48-1.291,1.328,1.328,0,0,0-.574-1.967,4.391,4.391,0,0,0-1.411-.158l-1.347-.072c-1.878-.1-3.757-.172-5.634-.277-.932-.052-.929,1.4,0,1.45,1.386.077,2.772.132,4.158.2q.968.048,1.936.1l1.295.07c.08,0,.4.072.443.018-.005.007-.177-.181-.08-.17-.111-.011-.516.427-.611.507l-.769.639-1.6,1.333q-1.641,1.363-3.284,2.726-.616.511-1.234,1.02a4.27,4.27,0,0,1-1.032.782,3.5,3.5,0,0,1-1.282-.007l-1.62-.093-3.153-.181-6.122-.353-14.044-.81c-.932-.054-.929,1.4,0,1.45Z" fill="#211715"/>
            <path id="パス_962" data-name="パス 962" d="M42.7,106.831a1.559,1.559,0,0,0-.885-1.349,1.146,1.146,0,0,0-1.3.318l-.254.31-.025-.855a1.31,1.31,0,0,0-.923-1.294,1.293,1.293,0,0,0-.563-.047c-.989.029-1.17,1.272-1.173,1.489,0,.13,0,.359,0,.646a1.454,1.454,0,0,0-1.341-.735,1.265,1.265,0,0,0-1.061,1.127c.018.624.086,2.978.115,3.953-.023,1.347.518,3.413,1.757,4.282.646.455.957.442,1.829.063a4.246,4.246,0,0,0,2.9.086,2.534,2.534,0,0,0,2.931-.893,6.434,6.434,0,0,0,.413-3.185c-.011-.384.009-1.2-.586-1.588a1.133,1.133,0,0,0-1.742.866C42.806,110.577,42.721,107.66,42.7,106.831Z" fill="#fff"/>
            <path id="パス_963" data-name="パス 963" d="M34.567,110.394a6.876,6.876,0,0,0,1.089,3.851,3.694,3.694,0,0,0,1.525,1.338,2.5,2.5,0,0,0,2.062-.218h-.731a4.532,4.532,0,0,0,3.455.159h-.386a3.638,3.638,0,0,0,3.283-.649,4.3,4.3,0,0,0,1-3.254c0-1.082.078-2.478-1-3.11a1.862,1.862,0,0,0-1.478-.176,2.015,2.015,0,0,0-1.232,1.292.73.73,0,0,0,.507.892.743.743,0,0,0,.892-.507c.126-.317.438-.427.657-.188.277.3.191.957.2,1.326a6.327,6.327,0,0,1-.185,2.069,1.1,1.1,0,0,1-.689.817,3,3,0,0,1-1.661.076,3.917,3.917,0,0,0-.866.151,4.819,4.819,0,0,1-.914.04,2.391,2.391,0,0,1-.7-.115c-.095-.033-.211-.119-.318-.148a1.02,1.02,0,0,0-.672.118.9.9,0,0,1-1.147-.25,4.913,4.913,0,0,1-1.235-3.515.725.725,0,0,0-1.449,0Z" fill="#211715"/>
            <path id="パス_964" data-name="パス 964" d="M36.022,110.573q-.054-1.767-.1-3.536a3.754,3.754,0,0,0-.017-.6c0-.072,0-.045-.016.082a.835.835,0,0,1,.02-.085c.009-.031.019-.062.03-.092-.041.092-.043.1-.008.027.03-.049.059-.1.087-.149q.07-.1-.006,0,.039-.046.083-.09c.029-.029.059-.057.091-.083-.065.051-.063.054,0,.008s.072-.039,0,0a1,1,0,0,1,.121-.032c-.221.04.2.025.076.008a1.436,1.436,0,0,1,.214.054c-.125-.037.092.052.123.069.068.048.068.047,0,0q.044.038.085.078c.028.027.181.218.063.058.039.052.075.106.111.16a.722.722,0,0,0,1.324-.183.733.733,0,0,0-.072-.549,2.3,2.3,0,0,0-1.774-1.12,1.862,1.862,0,0,0-1.812,1.119,2.989,2.989,0,0,0-.169,1.427q.025.87.05,1.739.025.848.05,1.693a.725.725,0,0,0,1.45,0Z" fill="#211715"/>
            <path id="パス_965" data-name="パス 965" d="M38.389,109.359c-.04-.725-.05-1.45-.066-2.177-.009-.418-.018-.836-.023-1.255,0-.126,0-.253,0-.379V105.4c0-.019,0-.039,0-.058,0-.089.066-.058-.012.078a2.362,2.362,0,0,0,.1-.409.977.977,0,0,1,.036-.092c-.069.181-.008.021.013-.014s.036-.061.053-.092a.84.84,0,0,1,.059-.088c-.054.069-.064.083-.029.043l.095-.1c-.1.1-.058.036-.016.015s.187-.066.031-.024l.116-.032c-.167.043.053,0,.085,0a1.522,1.522,0,0,1,.165.008c-.129-.013.095.023.1.025.036.01.206.088.075.019.036.02.073.042.109.061.149.075-.067-.091.038.03.024.028.052.055.078.082-.115-.121-.007,0,.015.035s.034.065.051.1c-.083-.156-.005-.014,0,.03s.018.071.027.1c.024.092.011.137.007.02.011.355.024.709.034,1.064l.082,2.808a.725.725,0,0,0,1.45,0l-.082-2.808a10.6,10.6,0,0,0-.065-1.309,2,2,0,0,0-.833-1.355,2.228,2.228,0,0,0-1.839-.28,1.974,1.974,0,0,0-1.2,1.22,5.055,5.055,0,0,0-.189,2.023c.017.949.028,1.9.08,2.847a.725.725,0,0,0,1.449,0Z" fill="#211715"/>
            <path id="パス_966" data-name="パス 966" d="M41.023,106.312a.484.484,0,0,1,.286-.184c.04-.009.136-.009.084-.015.023,0,.212.066.124.028a.807.807,0,0,1,.454.637c-.015-.087,0,.045,0,.078s0,.083,0,.124l.008.287.022.749.092,3.149a.725.725,0,0,0,1.449,0l-.082-2.795c-.032-1.11.115-2.429-.843-3.218a1.893,1.893,0,0,0-2.626.135.74.74,0,0,0,0,1.025.73.73,0,0,0,1.025,0Z" fill="#211715"/>
            <path id="パス_967" data-name="パス 967" d="M73,95.964c-.282,2.965-.458,5.979-.462,8.959a.725.725,0,0,0,1.45,0c0-2.979.181-5.994.462-8.959a.73.73,0,0,0-.725-.725.74.74,0,0,0-.725.725Z" fill="#211715"/>
            <path id="パス_968" data-name="パス 968" d="M66.214,104.537a39.557,39.557,0,0,0-5.029-1.819L59.7,100.141a2.253,2.253,0,0,0-2.462-1.456,13.243,13.243,0,0,0-5.349.79c.084.507.755,5.073.868,5.922,1.214-.538,2.611-.254,1.971-1.178.843,1.337,1.97,2.795,3.9,2.128a12.336,12.336,0,0,1,2.57.992l3.572,1.7" fill="#fff"/>
            <path id="パス_969" data-name="パス 969" d="M54.1,104.584a6.96,6.96,0,0,0,1.848,2.108,3.254,3.254,0,0,0,2.868.354H58.43a14.531,14.531,0,0,1,2.884,1.149l3.086,1.467c.838.4,1.574-.851.732-1.251L61.964,106.9a15.322,15.322,0,0,0-2.992-1.22c-.471-.111-.86.117-1.33.1a1.711,1.711,0,0,1-.87-.285,5.059,5.059,0,0,1-1.422-1.649C54.852,103.067,53.6,103.794,54.1,104.584Z" fill="#211715"/>
            <path id="パス_970" data-name="パス 970" d="M66.58,103.911a42.675,42.675,0,0,0-5.2-1.893l.433.333-1.094-1.894a10.059,10.059,0,0,0-1.018-1.6,3.544,3.544,0,0,0-2.851-.912,16.185,16.185,0,0,0-5.154.827.725.725,0,0,0,.386,1.4,16.278,16.278,0,0,1,3.6-.761c.349-.023.7-.025,1.049-.016a4.726,4.726,0,0,1,1.446.119c.647.232.972,1.124,1.29,1.674l.656,1.137c.209.362.389.867.784,1.054a10.018,10.018,0,0,0,1.243.388q.616.2,1.226.416,1.253.447,2.473.978a.747.747,0,0,0,.992-.26.73.73,0,0,0-.26-.991Z" fill="#211715"/>
            <path id="パス_971" data-name="パス 971" d="M72.338,103.857c-1.175-.423-9.308-2.478-9.23-2.355,0,1.772-1.836,6.743-2.36,7.675.81.766,12.343,3.732,14.573,3.808,1.446.048,6.228.666,7.057-3.606a19.644,19.644,0,0,0,.032-4.838" fill="#659ad6"/>
            <path id="パス_972" data-name="パス 972" d="M28.724,111.894q-1.918-10.04-3.316-20.167l-.7.917c3.511-.04,7.034.186,10.54.36,4.027.2,8.053.429,12.078.656,1.108.063,2.217.141,3.327.176l-.7-.532c.831,5.663,1.946,11.285,2.91,16.926a.731.731,0,0,0,.891.507.74.74,0,0,0,.507-.891c-.964-5.641-2.079-11.263-2.91-16.927a.729.729,0,0,0-.7-.532c-2.7-.085-5.41-.295-8.112-.445-4.252-.236-8.505-.469-12.761-.632-1.689-.065-3.381-.134-5.073-.115a.738.738,0,0,0-.7.918q1.4,10.125,3.317,20.167c.175.915,1.572.528,1.4-.385Z" fill="#211715"/>
            <path id="パス_973" data-name="パス 973" d="M62.279,101.5A7.16,7.16,0,0,1,62,103.174c-.192.771-.426,1.532-.676,2.287a20.379,20.379,0,0,1-1.3,3.349.738.738,0,0,0,.114.878,6.192,6.192,0,0,0,2.315.968c1.327.408,2.672.761,4.018,1.1a69.94,69.94,0,0,0,8.091,1.689c2.1.267,4.7.561,6.546-.7a4.233,4.233,0,0,0,1.469-1.727,8.469,8.469,0,0,0,.574-3.216,27.881,27.881,0,0,0-.384-5.328,41.753,41.753,0,0,0-3.6-12.8c-.423-.831-1.674-.1-1.251.732a38.713,38.713,0,0,1,3.222,11.007,37.1,37.1,0,0,1,.558,4.459,20.3,20.3,0,0,1-.1,3.37,3.316,3.316,0,0,1-.833,1.916,4.255,4.255,0,0,1-3.139,1.043c-.887.008-1.784-.082-2.667-.16-.078-.007-.157-.016-.234-.025l-.156-.019c.023,0,.164.023.026,0q-.384-.054-.766-.12c-.584-.1-1.166-.212-1.747-.33-1.415-.288-2.824-.608-4.228-.947-1.5-.362-3-.747-4.488-1.183-.547-.161-1.093-.326-1.631-.523l-.285-.108c-.186-.07.115.064-.1-.043-.059-.029-.118-.061-.178-.089-.137-.063-.1-.078,0,.011l.113.878a22,22,0,0,0,1.449-3.7,14.909,14.909,0,0,0,1.009-4.345.725.725,0,0,0-1.449,0Z" fill="#211715"/>
            <path id="パス_974" data-name="パス 974" d="M27.765,95.663q6.675.341,13.348.7l2.1.109c.932.048.93-1.4,0-1.449q-6.45-.329-12.9-.675l-2.543-.132c-.932-.047-.929,1.4,0,1.449Z" fill="#211715"/>
            <path id="パス_975" data-name="パス 975" d="M46.156,96.806c.645.041,1.291.054,1.937.086a.73.73,0,0,0,.725-.725.741.741,0,0,0-.725-.725c-.645-.033-1.292-.045-1.937-.086a.725.725,0,0,0-.725.725.741.741,0,0,0,.725.725Z" fill="#211715"/>
            <path id="パス_976" data-name="パス 976" d="M68.643,82.514c3.5,1.94,7.272,4.284,9.267,7.886.452.816,1.7.086,1.251-.732-2.115-3.819-6.067-6.346-9.786-8.407-.817-.452-1.549.8-.732,1.252Z" fill="#211715"/>
            <path id="パス_977" data-name="パス 977" d="M63,102.226c.157.016-.051-.01,0,0s.1.015.152.024c.142.025.284.051.426.079.355.07.708.15,1.06.231.9.209,1.791.435,2.681.668,1.542.4,3.067.857,4.6,1.291a6.784,6.784,0,0,0,1.881.109c.712-.009,1.424-.041,2.138-.043a.725.725,0,0,0,0-1.449c-.614,0-1.228.026-1.842.036-.314.006-.629.01-.944.005a7.433,7.433,0,0,1-.761-.03c-.6-.136-1.2-.365-1.79-.533-1.789-.507-3.587-.986-5.4-1.412a17.647,17.647,0,0,0-2.2-.425.725.725,0,0,0,0,1.45Z" fill="#211715"/>
          </g>
        </g>
      </g>
    </g>
    <g id="楕円形_42" data-name="楕円形 42" transform="translate(424 736)" fill="none" stroke="#ef7606" stroke-width="1">
      <circle cx="32.5" cy="32.5" r="32.5" stroke="none"/>
      <circle cx="32.5" cy="32.5" r="32" fill="none"/>
    </g>
  </g>
</svg>
