<svg xmlns="http://www.w3.org/2000/svg" xmlns:xlink="http://www.w3.org/1999/xlink" width="65" height="65" viewBox="0 0 65 65">
  <defs>
    <clipPath id="clip-path">
      <circle id="楕円形_39" data-name="楕円形 39" cx="32.5" cy="32.5" r="32.5" transform="translate(347 665)" fill="#fff" stroke="#001794" stroke-width="1"/>
    </clipPath>
  </defs>
  <g id="mem01" transform="translate(-347 -665)">
    <circle id="楕円形_47" data-name="楕円形 47" cx="32.5" cy="32.5" r="32.5" transform="translate(347 665)" fill="#001794"/>
    <g id="マスクグループ_2" data-name="マスクグループ 2" clip-path="url(#clip-path)">
      <g id="グループ_47" data-name="グループ 47" transform="translate(-0.318 102.143)">
        <g id="mem01-2" data-name="mem01" transform="translate(320 530.383)">
          <path id="パス_904" data-name="パス 904" d="M68.683,55.4a14.512,14.512,0,0,0-6.711-4.041c-1.548.783-4.043,2.235-4.271,2.13a4.11,4.11,0,0,1-.677-1.523,5.978,5.978,0,0,1-.244-1.086,116.837,116.837,0,0,0-8.735,8.531,1.433,1.433,0,0,0-2.249.4,2.4,2.4,0,0,0-.214.909A7.3,7.3,0,0,0,46.21,64.3a4.26,4.26,0,0,0,1.015,1.457,2.313,2.313,0,0,0,1.715.617c.495,3.26,2.075,6.665,4.977,8.474a16.021,16.021,0,0,1-.14,2.376c1.214,1.009,3.75,3.1,4.069,3.488.132.444.36,1.031.743,2.236.309.733.864,2.1,1.162,2.741.427-.9.984-2.22,1.427-3.284.214-.651.385-1.379.479-1.692.3-.37,2.6-2.269,3.869-3.323a17.326,17.326,0,0,1-.159-2.269c2.364-1.239,4.556-4.219,5.193-8.757a2.282,2.282,0,0,0,1.815-.605A4.26,4.26,0,0,0,73.391,64.3a7.31,7.31,0,0,0,.628-3.585,2.4,2.4,0,0,0-.214-.909,1.433,1.433,0,0,0-2.349-.3A14.813,14.813,0,0,0,68.683,55.4Z" fill="#fff"/>
          <path id="パス_905" data-name="パス 905" d="M53.179,75.349a16.7,16.7,0,0,1-.16,2.056,15.515,15.515,0,0,1-.257,1.535c-.012.046-.024.092-.037.138-.007.02-.059.174-.02.071s-.022.046-.033.066c-.027.051-.058.1-.089.148.052-.085.04-.043-.014.013l-.111.111c-.123.116.092-.037-.069.048-.056.03-.108.065-.164.094-.125.065-.279.119-.45.19q-.338.14-.675.284a.744.744,0,0,0-.265,1.012.759.759,0,0,0,1.012.265l-.014.006L52,81.314l.323-.133a5.6,5.6,0,0,0,.753-.333,2.391,2.391,0,0,0,1.088-1.4,11.6,11.6,0,0,0,.279-1.595,19.8,19.8,0,0,0,.22-2.5.739.739,0,1,0-1.478,0Z" fill="#211715"/>
          <path id="パス_906" data-name="パス 906" d="M64.63,75.349a19.816,19.816,0,0,0,.241,2.637,8.483,8.483,0,0,0,.3,1.592,2.4,2.4,0,0,0,1.253,1.378c.227.107.465.19.7.282l.357.142.168.068c.18.074-.088-.039.007,0a.764.764,0,0,0,1.012-.265.744.744,0,0,0-.265-1.011c-.384-.166-.773-.322-1.164-.47a2.073,2.073,0,0,1-.308-.153c-.04-.024-.136-.091-.05-.025a1.34,1.34,0,0,1-.141-.129c-.015-.015-.118-.146-.058-.063s-.042-.076-.052-.095c-.023-.041-.044-.083-.063-.127.076.169.006,0,0-.037a10.383,10.383,0,0,1-.267-1.485,16.886,16.886,0,0,1-.188-2.244.739.739,0,1,0-1.478,0Z" fill="#211715"/>
          <path id="パス_907" data-name="パス 907" d="M47.082,51.09c-.989,2.281-1.488,5.611-.583,8a1.368,1.368,0,0,1,1.58.354,98.032,98.032,0,0,1,8.7-8.564,6.665,6.665,0,0,0,.921,2.609c.227.1,2.717-1.344,4.265-2.127a14.341,14.341,0,0,1,9.466,8.131,2.429,2.429,0,0,1,1.474-.46c.19-3.007-.366-6.92-1.45-8.616-1.012-1.583-3.848-4.115-5.736-4.432L64.036,45.7l-.256-.333c-1.732-2.252-4.544-2.592-6.928-2.641s-6.528,1.382-7.046,1.927a6.2,6.2,0,0,1,2.442.758A12.059,12.059,0,0,0,47.082,51.09Z" fill="#89705d"/>
          <path id="パス_908" data-name="パス 908" d="M51.861,44.769A13.124,13.124,0,0,0,45.3,57.009c.068.944,1.547.951,1.478,0a11.657,11.657,0,0,1,5.826-10.963.74.74,0,0,0-.746-1.277Z" fill="#211715"/>
          <path id="パス_909" data-name="パス 909" d="M59.022,63.773a18.96,18.96,0,0,1,.424,1.943l-.027-.2a.825.825,0,0,1,0,.215l.027-.2a.469.469,0,0,1-.024.081l.074-.177a.223.223,0,0,1-.028.047l.116-.15a.216.216,0,0,1-.037.037l.15-.116a.821.821,0,0,1-.1.056l.177-.074a.892.892,0,0,1-.215.061l.2-.027a.932.932,0,0,1-.213,0l.2.027c-.064-.01-.128-.024-.193-.033a.817.817,0,0,0-.57.074.739.739,0,0,0-.265,1.011.709.709,0,0,0,.444.34,1.889,1.889,0,0,0,.995-.016,1.083,1.083,0,0,0,.7-.665,1.107,1.107,0,0,0,.047-.493c-.044-.37-.131-.739-.208-1.1-.074-.348-.152-.693-.243-1.035a.739.739,0,1,0-1.425.393Z" fill="#211715"/>
          <path id="パス_910" data-name="パス 910" d="M64.632,76.233c5.06-1.7,6.833-7.824,6.852-12.6a.74.74,0,0,0-1.478,0,15.24,15.24,0,0,1-1.845,7.67,7.732,7.732,0,0,1-3.921,3.511c-.9.3-.512,1.73.393,1.426Z" fill="#211715"/>
          <path id="パス_911" data-name="パス 911" d="M48.032,64.395c.09,4.1,1.717,8.506,5.208,10.895a9.261,9.261,0,0,0,3.47,1.427c.93.179,1.328-1.246.393-1.426-5.035-.97-7.489-6.169-7.593-10.9A.74.74,0,0,0,48.032,64.395Z" fill="#211715"/>
          <path id="パス_912" data-name="パス 912" d="M48.6,58.919a2.206,2.206,0,0,0-3.088.033,3.966,3.966,0,0,0-.639,3.209c.25,2.119,1.435,5.01,3.984,4.963a.74.74,0,0,0,0-1.479c-1.536.028-2.213-1.94-2.45-3.162a4.619,4.619,0,0,1,0-2.2.7.7,0,0,1,1.154-.314c.7.639,1.751-.4,1.045-1.045Z" fill="#211715"/>
          <path id="パス_913" data-name="パス 913" d="M72.045,59.963a.7.7,0,0,1,1.137.259,2.987,2.987,0,0,1,.12,1.087,6.293,6.293,0,0,1-.107,1.174c-.237,1.22-.914,3.19-2.45,3.162a.74.74,0,0,0,0,1.478c2.545.047,3.737-2.844,3.984-4.963a3.979,3.979,0,0,0-.641-3.208A2.206,2.206,0,0,0,71,58.919c-.705.641.343,1.684,1.046,1.045Z" fill="#211715"/>
          <path id="パス_914" data-name="パス 914" d="M65.524,46.694a7.67,7.67,0,0,1,3.442,1.878A8.567,8.567,0,0,1,71.148,51.4,12.7,12.7,0,0,1,72,54.768a21.7,21.7,0,0,1,.179,4.083c-.047.951,1.432.948,1.478,0a23.365,23.365,0,0,0-.232-4.476,13.252,13.252,0,0,0-1.044-3.814,9.88,9.88,0,0,0-2.608-3.238,9.011,9.011,0,0,0-3.855-2.055C64.987,45.095,64.588,46.519,65.524,46.694Z" fill="#211715"/>
          <path id="パス_915" data-name="パス 915" d="M61.827,50.6c-1.139.564-2.239,1.2-3.37,1.779-.212.109-.425.217-.643.314-.114.051.092-.034-.007,0a.606.606,0,0,0-.1.037c-.021.013-.067.009-.083.026.047-.046.27.056.352.093.383.173.214.123.156-.035-.027-.074-.07-.145-.1-.218-.082-.193-.148-.394-.214-.594a5.721,5.721,0,0,1-.3-1.134.75.75,0,0,0-1.261-.523c-3.043,2.716-5.942,5.556-8.734,8.531-.65.693.393,1.741,1.046,1.045,2.792-2.975,5.692-5.815,8.734-8.531l-1.262-.523a6.979,6.979,0,0,0,.889,2.831c.428.681,1.013.54,1.63.264,1.375-.617,2.661-1.425,4.013-2.093.853-.422.1-1.7-.746-1.277Z" fill="#211715"/>
          <path id="パス_916" data-name="パス 916" d="M64.3,44.841c-1.552-1.969-3.994-2.651-6.4-2.813a16.044,16.044,0,0,0-6.31.992,6.171,6.171,0,0,0-2.311,1.107.748.748,0,0,0,.523,1.262,5.58,5.58,0,0,1,2.07.657c.837.453,1.584-.823.746-1.277a7.453,7.453,0,0,0-2.815-.859l.523,1.262c.129-.127-.12.062.009-.01.066-.037.129-.079.2-.116a5.876,5.876,0,0,1,.549-.262c.414-.175.935-.355,1.4-.5a16.322,16.322,0,0,1,3.686-.8c2.528-.185,5.443.315,7.09,2.4a.744.744,0,0,0,1.046,0,.758.758,0,0,0,0-1.045Z" fill="#211715"/>
          <path id="パス_917" data-name="パス 917" d="M53.879,61.1c-.187.609-.065,2.01,1.087,2.129,1.522-.009,1.6-1.7,1.091-2.5A1.205,1.205,0,0,0,53.879,61.1Z" fill="#211916"/>
          <path id="パス_918" data-name="パス 918" d="M65.986,61.1c.187.61.065,2.013-1.087,2.132-1.523-.009-1.6-1.705-1.091-2.5A1.2,1.2,0,0,1,65.986,61.1Z" fill="#211916"/>
          <path id="パス_919" data-name="パス 919" d="M64.273,53.021a14.4,14.4,0,0,1,6.535,6.841.746.746,0,0,0,1.012.265.757.757,0,0,0,.265-1.012,15.686,15.686,0,0,0-7.066-7.372C64.174,51.311,63.425,52.587,64.273,53.021Z" fill="#211715"/>
          <path id="パス_920" data-name="パス 920" d="M57.095,70.44a5.038,5.038,0,0,0,5.71,0,.745.745,0,0,0,0-1.046.756.756,0,0,0-1.046,0,.491.491,0,0,0-.056.049l-.021.017c.108-.082.138-.105.09-.071s-.108.074-.163.1-.123.066-.185.1l-.063.029q-.074.033.064-.027c-.016.023-.1.037-.122.046a3.945,3.945,0,0,1-.62.159c-.009,0-.229.031-.086.015-.064.007-.127.013-.191.018-.151.012-.3.017-.455.018s-.278,0-.417-.014c-.077-.006-.153-.013-.23-.021.1.011-.005,0-.052-.009a4.029,4.029,0,0,1-.628-.156.638.638,0,0,1-.148-.054c.019.032.144.068.022.008-.07-.034-.139-.068-.207-.106-.051-.03-.1-.066-.148-.1s-.034-.024.026.022.068.053.03.023c0-.013-.047-.041-.056-.049A.739.739,0,0,0,57.1,70.44Z" fill="#211715"/>
          <path id="パス_921" data-name="パス 921" d="M82.176,88.977c-1.1-2.55-3.629-4.183-6.164-5.322-2.8-1.261-5.831-2.136-8.18-4.168-.37-.795-.979-1.978-1.234-2.635-.025-.066-.059-.139-.126-.159a.235.235,0,0,0-.2.082c-.652.559-4.227,3.472-4.611,3.942-.093.313-.265,1.042-.479,1.692-.444,1.064-1,2.388-1.427,3.284-.3-.641-.853-2.007-1.162-2.741-.383-1.2-.611-1.792-.743-2.236-.384-.47-3.96-3.383-4.611-3.942-.058-.05-.131-.1-.2-.082s-.1.093-.126.159c-.364.939-1.451,2.957-1.534,3.372a64.565,64.565,0,0,0-9.874,5.085,7.8,7.8,0,0,0-2.415,2.435,10.74,10.74,0,0,0-2.1,6.063,149.1,149.1,0,0,1-.921,17.346l7.133,6.071c0,2.34.526,8.692.526,10.755,2.016-.106,29.478-.248,32.491-.127,0-4.145.135-7.7.113-10.766a15.934,15.934,0,0,0,1.885.245c1.764.06,7.6,1.19,8.609-4.021a25.708,25.708,0,0,0,.037-6.112c-.379-3.511-1.873-12.767-4.682-18.233" fill="#6dbf6b"/>
          <path id="パス_922" data-name="パス 922" d="M68.15,80.677c2.366,1.72,5.19,2.537,7.812,3.761,2.283,1.067,4.517,2.531,5.576,4.91a.745.745,0,0,0,1.011.265.757.757,0,0,0,.265-1.011c-2.483-5.579-9.477-5.972-13.919-9.2a.745.745,0,0,0-1.012.265.756.756,0,0,0,.265,1.011Z" fill="#211715"/>
          <path id="パス_923" data-name="パス 923" d="M51.174,79.5a64.178,64.178,0,0,0-7.214,3.485,32.756,32.756,0,0,0-3.321,2.006,9.72,9.72,0,0,0-2.063,2.192,11.412,11.412,0,0,0-2.337,6.474c-.037,2.735-.034,5.46-.174,8.191-.159,3.107-.417,6.207-.747,9.3a.744.744,0,0,0,.739.739.758.758,0,0,0,.739-.739,152.456,152.456,0,0,0,.927-15.814,14.463,14.463,0,0,1,.22-3.407,10.7,10.7,0,0,1,1.284-3.08,10.359,10.359,0,0,1,1.8-2.286,16.807,16.807,0,0,1,2.92-1.869,61.988,61.988,0,0,1,7.616-3.765.762.762,0,0,0,.518-.909.744.744,0,0,0-.909-.517Z" fill="#211715"/>
          <path id="パス_924" data-name="パス 924" d="M60.389,85.318a27.758,27.758,0,0,1-1.212-2.95c-.153-.47-.316-.937-.475-1.4a2.154,2.154,0,0,0-.433-.877,41.373,41.373,0,0,0-3.553-3.036c-.5-.411-1.274-1.328-1.97-1.035-.493.207-.615.8-.813,1.226s-.42.875-.632,1.311c-.262.54-.819,1.339-.631,1.97a9.03,9.03,0,0,0,1.084,1.967q.483.786,1,1.552a7.317,7.317,0,0,0,1.038,1.373,1,1,0,0,0,1.131.121,1.959,1.959,0,0,0,.662-.924q.52-1.015,1.052-2.022c.444-.84-.831-1.589-1.277-.746q-.345.652-.685,1.307-.15.291-.3.581L54.24,84c0,.006-.19.318-.1.279l.373-.1h0l.326.19a4.929,4.929,0,0,1-.772-1.023q-.421-.614-.816-1.246c-.4-.633-.784-1.275-1.133-1.937-.019-.037-.035-.074-.054-.111-.069-.128.039.157.024.055.039.256-.046.419.052.137,0-.008.078-.19.03-.074.033-.078.069-.154.1-.231q.125-.272.259-.541c.191-.408.391-.809.584-1.216.082-.173.163-.345.241-.52.045-.1.088-.2.13-.3l.071-.168q.064-.161,0,.019l-.523.216.108.014-.373-.1c-.067-.047.086.071.111.09l.2.168.561.466q.742.615,1.481,1.233a17.616,17.616,0,0,1,2.205,1.938l-.19-.326a40.347,40.347,0,0,0,1.98,5.153.745.745,0,0,0,1.011.265.756.756,0,0,0,.265-1.011Z" fill="#211715"/>
          <path id="パス_925" data-name="パス 925" d="M60.39,86.064c.409-.863.781-1.744,1.152-2.624a22.227,22.227,0,0,0,.828-2.528l-.19.326A17.553,17.553,0,0,1,64.385,79.3q.722-.605,1.447-1.2c.273-.226.714-.618.906-.752l-.373.1.108-.014-.523-.216q-.068-.18,0-.019l.033.079c.049.115.1.231.148.345.084.19.172.377.259.564.192.407.392.809.587,1.213.131.271.324.665.38.818.1.269,0,.226.066-.118-.023.121.074-.148.03-.065-.022.043-.04.087-.063.13-.353.66-.734,1.3-1.132,1.937q-.4.631-.816,1.246a4.958,4.958,0,0,1-.772,1.023l.326-.19H65l.373.1c.114.052-.05-.171-.07-.21l-.14-.272q-.166-.324-.333-.648-.339-.655-.685-1.307c-.445-.841-1.722-.1-1.277.746q.447.844.883,1.693c.291.566.535,1.37,1.3,1.378.618.006.933-.538,1.257-.981.3-.411.585-.833.863-1.259.491-.754.971-1.522,1.4-2.315a2.865,2.865,0,0,0,.289-.628,1.612,1.612,0,0,0-.222-1.016c-.347-.8-.758-1.567-1.121-2.357-.2-.427-.343-1.053-.935-1.135a1.385,1.385,0,0,0-1.072.492c-1.187.994-2.391,1.969-3.559,2.986-.234.2-.477.407-.693.628a2.6,2.6,0,0,0-.518,1.237,24.616,24.616,0,0,1-1.618,4.009c-.406.855.869,1.606,1.277.746Z" fill="#211715"/>
          <path id="パス_926" data-name="パス 926" d="M59.013,86.057v12.69a.74.74,0,0,0,1.478,0V86.057A.74.74,0,0,0,59.013,86.057Z" fill="#211715"/>
        </g>
      </g>
    </g>
    <g id="楕円形_41" data-name="楕円形 41" transform="translate(347 665)" fill="none" stroke="#001794" stroke-width="1">
      <circle cx="32.5" cy="32.5" r="32.5" stroke="none"/>
      <circle cx="32.5" cy="32.5" r="32" fill="none"/>
    </g>
  </g>
</svg>
