<svg xmlns="http://www.w3.org/2000/svg" width="40" height="40" viewBox="0 0 40 40">
  <g id="icon04" transform="translate(-535 -304)">
    <circle id="楕円形_27" data-name="楕円形 27" cx="20" cy="20" r="20" transform="translate(535 304)" fill="#fff"/>
    <path id="icon04-2" data-name="icon04" d="M48,28A20,20,0,1,1,28,8,20,20,0,0,1,48,28ZM25.687,38.59,40.525,23.751a1.29,1.29,0,0,0,0-1.825L38.7,20.1a1.29,1.29,0,0,0-1.825,0l-12.1,12.1-5.65-5.65a1.29,1.29,0,0,0-1.825,0l-1.825,1.825a1.29,1.29,0,0,0,0,1.825l8.387,8.387a1.29,1.29,0,0,0,1.825,0Z" transform="translate(527 296)" fill="#eac563"/>
  </g>
</svg>
