<svg width="29" height="29" viewBox="0 0 29 29" fill="none" xmlns="http://www.w3.org/2000/svg">
<path d="M28.9263 10.9791C28.7218 10.3153 28.1314 9.86515 27.4653 9.86515H18.6467L15.9608 1.1147C15.757 0.450908 15.1668 0 14.5 0C13.8332 0 13.243 0.450908 13.0392 1.1147L10.3534 9.86509H1.53477C0.868617 9.86509 0.278195 10.3152 0.0737217 10.979C-0.130128 11.6428 0.098417 12.3688 0.640072 12.775L7.79073 18.1471L5.03811 26.8915C4.82888 27.5549 5.05385 28.2825 5.59324 28.6931C6.13297 29.1036 6.86426 29.1019 7.40235 28.6897L14.5 23.2475L21.5977 28.6897C22.1358 29.102 22.8671 29.1037 23.4069 28.6932C23.9462 28.2826 24.1712 27.5549 23.9626 26.8915L21.2093 18.1472L28.36 12.775C28.9016 12.3689 29.1302 11.6428 28.9263 10.9791Z" fill="#EAC61E"/>
</svg>
