<svg width="26" height="23" viewBox="0 0 26 23" fill="none" xmlns="http://www.w3.org/2000/svg">
<path d="M12.5781 22.9999C9.21932 22.9999 6.05974 21.802 3.68236 19.6331C1.31021 17.4595 0 14.5708 0 11.4999C0 8.42909 1.31021 5.54033 3.68236 3.36673C6.05974 1.19791 9.21932 0 12.5781 0C15.9368 0 19.0964 1.19791 21.4738 3.36673C23.8511 5.54033 25.1561 8.4243 25.1561 11.4999C25.1561 14.5708 23.8459 17.4595 21.4738 19.6331C19.0964 21.802 15.9368 22.9999 12.5781 22.9999ZM12.5781 1.08471C6.29689 1.08471 1.1864 5.75716 1.1864 11.4999C1.1864 17.2427 6.29689 21.9152 12.5781 21.9152C18.8592 21.9152 23.9697 17.2427 23.9697 11.4999C23.9697 5.75716 18.8592 1.08471 12.5781 1.08471ZM20.1314 10.7411C20.7243 10.2134 20.3954 9.29638 19.5812 9.18797L15.8778 8.69503C15.5542 8.65071 15.2738 8.46863 15.1284 8.1973L13.4729 5.12646C13.1067 4.45083 12.0553 4.45083 11.6884 5.12646L10.0277 8.20209C9.88229 8.46863 9.6019 8.6555 9.27828 8.70042L5.57496 9.19276C4.76066 9.30177 4.4318 10.2182 5.02467 10.7459L7.70406 13.1363C7.93597 13.3435 8.04406 13.6442 7.98969 13.9401L7.35947 17.3116C7.21928 18.0561 8.07092 18.6227 8.80398 18.2729L12.1195 16.6803C12.411 16.5425 12.7562 16.5425 13.0471 16.6803L16.3626 18.2729C17.0904 18.6227 17.948 18.0561 17.8078 17.3116L17.1769 13.9401C17.1232 13.6442 17.2306 13.3435 17.4625 13.1363L20.1314 10.7411Z" fill="#F7941E"/>
</svg>
