<svg width="53" height="53" viewBox="0 0 53 53" fill="none" xmlns="http://www.w3.org/2000/svg">
<path fill-rule="evenodd" clip-rule="evenodd" d="M0 0L52.1426 52.1426V23.8574L28.2852 0H0Z" fill="#FF0000"/>
<path d="M22.9738 14.1371L23.9678 15.123L26.0593 13.0144C26.6579 12.4109 27.2348 11.6732 27.7484 11.0559L27.7839 11.0911L27.1967 12.7481L25.9273 17.0667L26.9923 18.123L32.2106 12.8621L31.2166 11.8762L29.1321 13.9777C28.5406 14.5741 27.9356 15.3544 27.4431 15.9504L27.4076 15.9151L28.009 14.2581L29.2642 9.93956L28.1921 8.87618L22.9738 14.1371ZM28.2917 19.4119L31.5931 22.6866L32.4663 21.8062L30.2157 19.5738L31.6101 18.1681L33.456 19.999L34.3293 19.1187L32.4833 17.2877L33.6875 16.0736L35.8601 18.2286L36.7333 17.3482L33.51 14.151L28.2917 19.4119ZM33.1567 24.2375L34.4418 25.5122L37.5943 23.4841C38.088 23.1568 38.5604 22.8225 39.0328 22.4883L39.0612 22.5164C38.7237 22.9845 38.4003 23.4667 38.0771 23.9629L36.0889 27.146L37.3953 28.4417L43.5862 24.1456L42.5923 23.1597L39.6241 25.3143C39.0037 25.7835 38.3693 26.2669 37.7278 26.7575L37.6923 26.7223C38.1421 26.0416 38.599 25.368 39.0206 24.7157L40.9664 21.547L40.0648 20.6526L36.9049 22.6171C36.249 23.0511 35.5791 23.4993 34.9092 23.9617L34.8808 23.9335C35.3661 23.2881 35.8302 22.6498 36.3014 22.0185L38.4318 19.0329L37.3669 17.9766L33.1567 24.2375Z" fill="white"/>
</svg>
