<svg width="58" height="117" viewBox="0 0 58 117" fill="none" xmlns="http://www.w3.org/2000/svg">
<path d="M58 117L29 76.6563L0 117V0H58V117Z" fill="#F1443D"/>
<path d="M14.092 52H15.772V48.436C15.772 47.416 15.64 46.3 15.556 45.34H15.616L16.516 47.248L19.084 52H20.884V43.108H19.204V46.66C19.204 47.668 19.348 48.844 19.432 49.768H19.372L18.484 47.848L15.904 43.108H14.092V52ZM24.2803 52H29.8603V50.512H26.0563V48.136H29.1763V46.648H26.0563V44.596H29.7283V43.108H24.2803V52ZM33.7031 52H35.8751L36.8471 47.608C36.9911 46.912 37.1111 46.228 37.2311 45.544H37.2791C37.3871 46.228 37.5191 46.912 37.6631 47.608L38.6591 52H40.8671L42.5111 43.108H40.8311L40.1231 47.452C39.9911 48.376 39.8591 49.324 39.7271 50.284H39.6671C39.4751 49.324 39.2951 48.364 39.1031 47.452L38.0831 43.108H36.5591L35.5271 47.452C35.3351 48.376 35.1431 49.324 34.9631 50.284H34.9151C34.7831 49.324 34.6391 48.388 34.5071 47.452L33.7991 43.108H31.9991L33.7031 52Z" fill="white"/>
</svg>
