<svg width="53" height="53" viewBox="0 0 53 53" fill="none" xmlns="http://www.w3.org/2000/svg">
<path fill-rule="evenodd" clip-rule="evenodd" d="M0.000976562 0L52.1427 52.1417V23.8574L28.2852 0H0.000976562Z" fill="#EAC61E"/>
<path d="M27.0454 6.67464L26.1637 5.79999C26.0687 5.93402 25.7837 6.27247 25.6506 6.40666C25.5429 6.51528 25.3591 6.70059 25.1309 6.91789C24.9967 6.79752 24.8626 6.67715 24.7476 6.56306C24.5176 6.3349 24.2491 6.05597 23.9165 5.6373L23.1624 6.42314C23.3543 6.66419 23.5971 6.91776 24.0253 7.34241C24.1275 7.44382 24.2488 7.55152 24.3766 7.66555C24.1991 7.84446 24.0217 8.02338 23.8442 8.20229C23.6984 8.34926 23.5463 8.50261 23.4006 8.6623C22.2787 8.22138 21.063 8.16905 20.5116 8.72496C19.8397 9.40228 20.1828 10.8073 20.8026 11.4221C21.2243 11.8404 21.7146 11.9084 22.5005 11.1161C22.716 10.8989 23.1976 10.3878 23.6855 9.87031C24.1894 10.1419 24.6681 10.49 25.0643 10.8829C25.6202 11.4344 25.75 12.0702 25.319 12.5047C24.8564 12.9712 24.1939 12.8211 23.5813 12.4036C23.3196 12.2201 23.0385 11.954 22.751 11.6688L22.2273 12.7846C22.5083 13.0253 22.8084 13.285 23.1657 13.5126C24.4352 14.2648 25.3955 14.0891 26.1434 13.3351C27.018 12.4533 26.7519 11.1752 25.7679 10.1991C25.4164 9.85054 24.9185 9.47072 24.3763 9.14836C24.4586 9.0653 24.5347 8.98862 24.6108 8.91194C24.7946 8.72664 24.991 8.52856 25.1876 8.3432C25.6536 8.70405 26.1579 9.07748 26.6045 9.35568L27.3712 8.54433C26.9439 8.3106 26.4398 7.97536 25.9674 7.60817C26.1322 7.45476 26.2907 7.30774 26.4365 7.17351C26.6141 7.02005 26.9122 6.77064 27.0454 6.67464ZM28.182 9.17107L27.2158 9.44229C27.4218 10.0269 27.7835 11.3365 27.8304 11.9027L28.8603 11.6312C28.7624 11.0525 28.4395 9.89552 28.182 9.17107ZM21.3292 9.47259C21.551 9.24895 22.0729 9.24683 22.6718 9.42258C22.3423 9.78031 22.0572 10.0806 21.8987 10.2403C21.6832 10.4576 21.5431 10.42 21.4281 10.3059C21.2619 10.1411 21.1327 9.67068 21.3292 9.47259ZM34.7838 14.4264L33.8573 13.5073C33.8004 13.603 33.6104 13.8456 33.3698 14.1266C33.3254 14.1841 33.2621 14.248 33.1861 14.3374C32.3044 13.4882 31.1161 12.3602 30.3876 11.6377L29.6399 12.4299C30.4702 13.1647 31.5051 14.1151 32.4826 15.0594C32.3495 15.2063 32.2038 15.3533 32.0643 15.4938C31.9939 15.3987 31.9172 15.3099 31.8278 15.2212C31.1313 14.5303 30.0808 14.4264 29.3646 15.1484C28.5913 15.928 28.8054 16.9263 29.2974 17.4143C29.3997 17.5157 29.5082 17.598 29.6167 17.6676C28.8849 17.7024 28.1135 17.3555 27.335 16.8495L27.3469 18.205C29.337 19.317 30.8747 18.738 31.6987 17.9073C32.0282 17.575 32.2495 17.1986 32.3369 16.8037C32.6158 16.5226 32.958 16.1648 33.2813 15.8389C34.1503 16.7009 34.7318 17.3031 35.0962 17.7026L35.8505 16.9549C35.5246 16.6189 34.6365 15.7634 33.9911 15.1233C34.0736 15.0529 34.1433 14.9826 34.194 14.9315C34.3018 14.8356 34.6696 14.5159 34.7838 14.4264ZM30.144 15.8962C30.48 15.5576 30.8939 15.6259 31.1431 15.8731C31.3156 16.0442 31.3929 16.273 31.3366 16.5087C30.8683 17.1597 30.4291 17.1297 30.1607 16.8635C29.9051 16.61 29.8525 16.1902 30.144 15.8962ZM41.1736 20.7644L40.2471 19.8454C40.1902 19.9411 40.0002 20.1837 39.7595 20.4647C39.7152 20.5221 39.6519 20.586 39.5758 20.6754C38.6942 19.8262 37.5059 18.6983 36.7774 17.9757L36.0297 18.7679C36.86 19.5028 37.8948 20.4532 38.8724 21.3974C38.7393 21.5443 38.5936 21.6913 38.4541 21.8319C38.3837 21.7367 38.307 21.6479 38.2175 21.5592C37.5211 20.8683 36.4706 20.7644 35.7544 21.4865C34.9811 22.266 35.1952 23.2643 35.6872 23.7523C35.7895 23.8537 35.898 23.936 36.0064 24.0056C35.2747 24.0404 34.5033 23.6935 33.7248 23.1875L33.7367 24.543C35.7268 25.655 37.2645 25.076 38.0885 24.2453C38.418 23.9131 38.6392 23.5367 38.7267 23.1418C39.0056 22.8606 39.3478 22.5028 39.671 22.1769C40.5401 23.0389 41.1216 23.6411 41.486 24.0406L42.2403 23.2929C41.9144 22.957 41.0263 22.1014 40.3809 21.4613C40.4634 21.3909 40.5331 21.3207 40.5838 21.2695C40.6916 21.1736 41.0594 20.8539 41.1736 20.7644ZM36.5338 22.2343C36.8697 21.8956 37.2837 21.9639 37.5329 22.2111C37.7054 22.3822 37.7827 22.611 37.7264 22.8467C37.2581 23.4977 36.8189 23.4677 36.5505 23.2015C36.2949 22.948 36.2423 22.5282 36.5338 22.2343ZM47.7179 27.5345L46.9185 26.5768C46.7727 26.7238 46.481 26.9795 46.2652 27.1332C46.1574 27.2163 46.0368 27.2995 45.9035 27.3828C45.3925 26.914 44.7992 26.5664 44.0727 26.3275C44.1611 26.1489 44.2559 25.9767 44.3443 25.8236C44.4834 25.5812 44.6414 25.3196 44.8122 25.0708L43.7153 24.5025C43.6021 24.8466 43.4696 25.1208 43.3117 25.4205C43.1981 25.6501 43.0781 25.8733 42.9709 26.1092C41.8824 26.0436 40.7449 26.4619 40.0224 27.1904C39.2048 28.0146 39.2467 28.9436 39.7771 29.4697C40.2499 29.9387 40.8169 30.0828 41.7077 30.0409C41.6892 30.1874 41.6835 30.3465 41.6778 30.5056L42.8302 30.6346C42.8228 30.3992 42.8409 30.1509 42.859 29.9026C43.7746 29.708 44.7847 29.252 45.7435 28.7326C46.2114 29.539 46.0815 30.4623 45.378 31.1715C44.5857 31.9703 43.3136 32.1409 41.8001 30.8679L41.5506 32.0908C43.0825 33.2046 44.8142 33.3885 46.1579 32.0339C47.267 30.9157 47.4074 29.445 46.6324 28.2199C46.734 28.1559 46.8292 28.0982 46.9307 28.0341C47.1275 27.9124 47.4956 27.6564 47.7179 27.5345ZM40.8333 27.868C41.2263 27.4718 41.8488 27.1893 42.4977 27.1357C42.2077 27.7988 41.9812 28.4361 41.8751 28.952C41.3535 29.0051 40.9206 28.9686 40.6905 28.7405C40.4605 28.5123 40.5228 28.1811 40.8333 27.868ZM43.6119 27.2521C44.0897 27.3711 44.5615 27.5728 44.9956 27.9147C44.3796 28.2418 43.6936 28.5501 43.0579 28.7308C43.1581 28.3231 43.3659 27.7941 43.6119 27.2521Z" fill="white"/>
</svg>
