<svg width="46" height="46" viewBox="0 0 46 46" fill="none" xmlns="http://www.w3.org/2000/svg">
<path d="M0 0H46L23.5476 23L0 46V0Z" fill="#FF0000"/>
<path d="M10.863 14.9647L7.86489 17.9628L7.57498 17.6729L10.5731 14.6748L10.863 14.9647ZM11.6691 15.7708L8.671 18.7689L8.37401 18.4719L11.3721 15.4738L11.6691 15.7708ZM10.8772 13.2959L6.23148 17.9416L8.4023 20.1124L13.048 15.4667L10.8772 13.2959ZM14.4763 17.7012C14.6036 18.083 14.6743 18.479 14.6885 18.875C14.2925 18.8608 13.8965 18.7901 13.5217 18.6558L14.4763 17.7012ZM11.5701 22.2903L12.4894 21.3711L12.7651 21.6468C12.4823 21.9863 12.1924 22.3186 11.9166 22.6368L11.5701 22.2903ZM10.6933 21.4135L11.6126 20.4943L11.9095 20.7912L10.9903 21.7105L10.6933 21.4135ZM10.7428 19.6245L11.0257 19.9074L10.1064 20.8266L9.82358 20.5438L10.7428 19.6245ZM14.2996 16.5345L14.1864 16.7042L11.9873 18.9033L12.6308 19.5467L13.2813 18.8962L12.9419 19.4902C13.5005 19.7094 14.0733 19.8437 14.6319 19.8932C14.5541 20.4094 14.3773 20.9256 14.1369 21.4064L11.5489 18.8184L14.7875 15.5799L14.1228 14.9152L7.83661 21.2014L8.50129 21.8661L9.05283 21.3145L11.2024 23.4641C11.0044 23.7045 10.7994 23.9237 10.6297 24.1217L11.4146 24.7793C11.9803 24.1005 12.7156 23.2237 13.451 22.3327L14.0238 22.9055L14.8299 22.0994L14.2571 21.5266C14.5683 21.5549 14.9572 21.6327 15.1976 21.7176C15.4734 21.1165 15.6572 20.4943 15.7421 19.8579C16.4067 19.773 17.0644 19.5538 17.7149 19.2003C17.63 18.8891 17.5452 18.3659 17.5523 18.0477C16.9724 18.4012 16.3714 18.6487 15.7845 18.7689C15.735 17.9275 15.4875 17.0719 15.0137 16.2163L14.2996 16.5345ZM15.7279 10.7645C15.9118 11.0615 16.1239 11.4999 16.2441 11.8039L16.8098 11.4362L15.4239 12.8222L15.6784 12.3696C15.438 12.1858 15.0208 11.9524 14.6602 11.8322L15.7279 10.7645ZM18.4574 13.6778L19.6241 12.511L18.917 11.8039L17.7502 12.9706L17.2058 12.4262L18.4361 11.1958L17.7432 10.5028L17.029 11.217C16.9159 10.9059 16.7462 10.5099 16.5694 10.0786L16.0815 10.4109L16.8098 9.6826L16.1239 8.99671L14.9501 10.1705L14.3066 9.52704L13.4935 10.3402L14.1369 10.9837L12.949 12.1716L13.6349 12.8575L14.4268 12.0656L14.0945 12.5959C14.4339 12.7373 14.8228 12.9565 15.0845 13.1616L14.4339 13.8121L15.1269 14.5051L16.3926 13.2393L16.9371 13.7838L15.6926 15.0283L16.3997 15.7354L17.4745 14.6606C17.6795 15.5162 17.722 16.5345 17.5664 17.2981C17.8775 17.2557 18.3937 17.2911 18.7048 17.3476C18.7614 16.7961 18.7261 16.1243 18.6058 15.4526L20.0271 16.8739L20.8403 16.0607L19.3342 14.5546C19.7372 14.5475 20.1473 14.5616 20.4019 14.5899L20.2888 13.501C19.9988 13.5363 18.9453 13.6565 18.5139 13.7343L18.4574 13.6778ZM21.0171 7.35622L18.8109 9.56239L17.821 8.57244C18.4079 7.67442 18.9948 6.64911 19.3412 5.75109L18.0543 5.80766C17.8563 6.47234 17.3826 7.39865 16.8734 8.23303L16.2512 8.58659L18.6978 11.0332C19.6736 12.009 20.7908 13.2959 20.8403 14.9718C21.1302 14.8798 21.7242 14.8657 22.0141 14.9435C21.9787 13.0414 20.6352 11.4009 19.5887 10.3402L20.31 9.61896L23.7677 13.0767L24.5809 12.2635L21.1231 8.80579L21.7949 8.13404L21.0171 7.35622Z" fill="white"/>
</svg>
