<svg width="30" height="37" viewBox="0 0 30 37" fill="none" xmlns="http://www.w3.org/2000/svg">
<path d="M0 36.1106L14.6634 26.9071L29.3267 36.1106V0H0V36.1106Z" fill="#8F61F9"/>
<path d="M24.6341 0V28.3092L14.6632 22.003L4.6933 28.3092V0H3.0166V31.2526L14.6632 23.707L26.3098 31.2526V0H24.6341Z" fill="#FEBE01"/>
<path d="M15.4359 7.87098L16.5042 9.99436C16.6283 10.2417 16.8775 10.4204 17.1512 10.4589L19.5049 10.8003C20.214 10.9009 20.4952 11.7764 19.9808 12.2644L18.273 13.9223C18.0709 14.1161 17.9853 14.4029 18.0314 14.6812L18.4367 17.0134C18.5617 17.7102 17.8207 18.2453 17.1822 17.9199L15.0767 16.8037C14.8275 16.672 14.5238 16.672 14.2745 16.8037L12.1615 17.9274C11.5305 18.2603 10.7895 17.7262 10.907 17.0209L11.3124 14.6887C11.3584 14.4104 11.2653 14.1311 11.0707 13.9299L9.36294 12.272C8.85608 11.7764 9.12879 10.9084 9.83877 10.8078L12.1925 10.4664C12.4737 10.4279 12.7154 10.2501 12.8395 10.0019L13.9078 7.87945C14.1965 7.24375 15.1162 7.24375 15.4359 7.87098Z" fill="#FEE37C"/>
<path d="M19.5046 10.8229L17.1508 10.4825C16.8696 10.4439 16.628 10.2652 16.5038 10.017L16.1211 9.26562L10.9688 17.5711C11.1709 17.982 11.6853 18.1908 12.1612 17.9585L14.2657 16.8432C14.5159 16.7116 14.8196 16.7116 15.0688 16.8432L17.1734 17.9585C17.8053 18.2914 18.5454 17.7573 18.4288 17.052L18.0235 14.7198C17.9765 14.4415 18.0705 14.1622 18.2652 13.9609L19.972 12.3031C20.4873 11.7915 20.2136 10.9235 19.5046 10.8229Z" fill="#FEBE01"/>
</svg>
