<svg xmlns="http://www.w3.org/2000/svg" width="60" height="60" viewBox="0 0 60 60">
  <g id="icon01" transform="translate(-650 -937)">
    <rect id="長方形_83" data-name="長方形 83" width="60" height="60" transform="translate(650 937)" fill="none"/>
    <g id="カレンダーのフリーアイコン2" transform="translate(651 937)">
      <path id="パス_506" data-name="パス 506" d="M123.615,12.132a3.4,3.4,0,0,0,3.394-3.4V3.394a3.395,3.395,0,0,0-6.789,0V8.737A3.4,3.4,0,0,0,123.615,12.132Z" transform="translate(-106.961)" fill="#58b5c9"/>
      <path id="パス_507" data-name="パス 507" d="M337.238,12.132a3.4,3.4,0,0,0,3.394-3.4V3.394a3.395,3.395,0,0,0-6.789,0V8.737A3.4,3.4,0,0,0,337.238,12.132Z" transform="translate(-295.55)" fill="#58b5c9"/>
      <path id="パス_508" data-name="パス 508" d="M57.24,41.287h-2.1v3.9a6.378,6.378,0,1,1-12.756,0v-3.9H30.105v3.9a6.378,6.378,0,1,1-12.756,0v-3.9h-2.1a8.175,8.175,0,0,0-8.175,8.175V88.273a8.176,8.176,0,0,0,8.175,8.175H57.24a8.175,8.175,0,0,0,8.175-8.175V49.462A8.176,8.176,0,0,0,57.24,41.287Zm1.741,45.551a3.793,3.793,0,0,1-3.789,3.789H17.3a3.793,3.793,0,0,1-3.789-3.789V56.473H58.981V86.838Z" transform="translate(-7.073 -36.449)" fill="#58b5c9"/>
      <rect id="長方形_71" data-name="長方形 71" width="5.999" height="5.999" transform="translate(21.522 43.567)" fill="#58b5c9"/>
      <rect id="長方形_72" data-name="長方形 72" width="5.999" height="5.999" transform="translate(21.522 34.268)" fill="#58b5c9"/>
      <rect id="長方形_73" data-name="長方形 73" width="5.999" height="5.999" transform="translate(12.224 43.567)" fill="#58b5c9"/>
      <rect id="長方形_74" data-name="長方形 74" width="5.999" height="5.999" transform="translate(12.224 34.268)" fill="#58b5c9"/>
      <rect id="長方形_75" data-name="長方形 75" width="5.999" height="5.999" transform="translate(40.119 24.969)" fill="#58b5c9"/>
      <rect id="長方形_76" data-name="長方形 76" width="6" height="5.999" transform="translate(30.821 24.969)" fill="#58b5c9"/>
      <rect id="長方形_77" data-name="長方形 77" width="6" height="5.999" transform="translate(30.821 34.268)" fill="#58b5c9"/>
      <rect id="長方形_78" data-name="長方形 78" width="5.999" height="5.999" transform="translate(40.119 43.567)" fill="#58b5c9"/>
      <rect id="長方形_79" data-name="長方形 79" width="5.999" height="5.999" transform="translate(40.119 34.268)" fill="#58b5c9"/>
      <rect id="長方形_80" data-name="長方形 80" width="6" height="5.999" transform="translate(30.821 43.567)" fill="#58b5c9"/>
      <rect id="長方形_81" data-name="長方形 81" width="5.999" height="5.999" transform="translate(21.522 24.969)" fill="#58b5c9"/>
      <rect id="長方形_82" data-name="長方形 82" width="5.999" height="5.999" transform="translate(12.224 24.969)" fill="#58b5c9"/>
    </g>
  </g>
</svg>
