<svg xmlns="http://www.w3.org/2000/svg" width="60" height="60" viewBox="0 0 60 60">
  <g id="icon02" transform="translate(-746 -937)">
    <rect id="長方形_84" data-name="長方形 84" width="60" height="60" transform="translate(746 937)" fill="none"/>
    <g id="リロードアイコン" transform="translate(751 937)">
      <path id="パス_509" data-name="パス 509" d="M197.037,12.668a24.434,24.434,0,0,0-12.007-6.6L185.348,0,173.368,6.313l-3.2,1.694-.594.311.946.508,4.472,2.407,9.5,5.11.267-5.023a19.368,19.368,0,0,1,12.7,26.379l4.731,2.055a24.533,24.533,0,0,0-5.152-27.085Z" transform="translate(-155.194)" fill="#58b5c9"/>
      <path id="パス_510" data-name="パス 510" d="M76.091,201.3l-9.5-5.111-.266,5.024a19.368,19.368,0,0,1-12.7-26.379l-4.731-2.054a24.494,24.494,0,0,0,17.159,33.671l-.318,6.082L77.7,206.216l3.217-1.694.585-.31-.937-.508Z" transform="translate(-46.865 -152.53)" fill="#58b5c9"/>
    </g>
  </g>
</svg>
