<svg xmlns="http://www.w3.org/2000/svg" width="60.518" height="60.52" viewBox="0 0 60.518 60.52">
  <g id="link_icon01" transform="translate(-0.005 0.002)">
    <path id="パス_515" data-name="パス 515" d="M225.73,12.149A15.047,15.047,0,0,0,216.641,1.1a15,15,0,0,0-16.268,3.3L188.721,16.052a2.249,2.249,0,0,0-.17.181.335.335,0,0,1,.059-.011,17.919,17.919,0,0,1,10.18.925c.017,0,.035.015.052.02L206,10.014a7.075,7.075,0,0,1,11.545,2.336,7.086,7.086,0,0,1,.386,4.013A6.994,6.994,0,0,1,215.985,20L204.33,31.662A6.991,6.991,0,0,1,202,33.217a7.151,7.151,0,0,1-4.017.386A7.07,7.07,0,0,1,193,29.8c-.033-.007-.068-.018-.1-.024a4.112,4.112,0,0,0-3.7,1.154l-.227.231a4.575,4.575,0,0,0-.249,6.126,15.009,15.009,0,0,0,21.226-.007l11.656-11.654a15,15,0,0,0,4.122-13.477Z" transform="translate(-165.48 0)" fill="#454b54"/>
    <path id="パス_516" data-name="パス 516" d="M27.221,183.893a.6.6,0,0,0-.055-.022l-7.153,7.155a7.061,7.061,0,0,1-11.927-6.35,6.979,6.979,0,0,1,1.939-3.64l11.658-11.66a6.98,6.98,0,0,1,2.333-1.55,7.074,7.074,0,0,1,8.994,3.415c.031.009.067.017.1.026a4.219,4.219,0,0,0,2.336-.242,4.155,4.155,0,0,0,1.361-.92l.227-.227a4.579,4.579,0,0,0,.249-6.126,15.009,15.009,0,0,0-21.23.007L4.4,175.418a14.815,14.815,0,0,0-3.3,4.968,15.011,15.011,0,0,0,24.527,16.258l11.656-11.66c.061-.054.116-.118.172-.172-.018,0-.041.007-.059.007A17.947,17.947,0,0,1,27.221,183.893Z" transform="translate(0 -140.526)" fill="#454b54"/>
  </g>
</svg>
