<svg xmlns="http://www.w3.org/2000/svg" width="33.074" height="51.692" viewBox="0 0 33.074 51.692">
  <g id="point_icon01" transform="translate(-92.203)">
    <path id="パス_517" data-name="パス 517" d="M108.74,0a16.538,16.538,0,0,0-9.107,30.342,6.325,6.325,0,0,1,1.12.9,2.2,2.2,0,0,1,.595,1.126,11.152,11.152,0,0,1,.153,2.306v1.574h14.48V34.67c0-.71.014-1.284.06-1.729a4.233,4.233,0,0,1,.151-.806,2.141,2.141,0,0,1,.451-.806,5.907,5.907,0,0,1,1.2-.987A16.538,16.538,0,0,0,108.74,0Zm7.37,27.714a9.467,9.467,0,0,0-1.677,1.366,5.415,5.415,0,0,0-1.371,2.587,9.245,9.245,0,0,0-.192,1.429H104.6c-.009-.161-.013-.325-.028-.481a7.283,7.283,0,0,0-.278-1.412,5.307,5.307,0,0,0-1.077-1.934,8.861,8.861,0,0,0-1.847-1.555,13.387,13.387,0,1,1,14.74,0Z" fill="#fff"/>
    <path id="パス_518" data-name="パス 518" d="M197.414,383.125H186.136a1.574,1.574,0,0,0,0,3.149h11.278a1.574,1.574,0,0,0,0-3.149Z" transform="translate(-83.034 -344.445)" fill="#fff"/>
    <path id="パス_519" data-name="パス 519" d="M197.414,434.516H186.136a1.575,1.575,0,0,0,0,3.15h11.278a1.575,1.575,0,0,0,0-3.15Z" transform="translate(-83.034 -390.647)" fill="#fff"/>
    <path id="パス_520" data-name="パス 520" d="M224.824,493.162a4.024,4.024,0,0,0,3.543-2.115h-7.086A4.028,4.028,0,0,0,224.824,493.162Z" transform="translate(-116.046 -441.471)" fill="#fff"/>
  </g>
</svg>
