<svg xmlns="http://www.w3.org/2000/svg" width="100" height="75" viewBox="0 0 100 75">
  <path id="sample_icon03" d="M90.625,64H9.375A9.375,9.375,0,0,0,0,73.375v56.25A9.375,9.375,0,0,0,9.375,139h81.25A9.375,9.375,0,0,0,100,129.625V73.375A9.375,9.375,0,0,0,90.625,64Zm0,9.375v7.97c-4.379,3.566-11.361,9.112-26.287,20.8-3.289,2.587-9.8,8.8-14.338,8.731-4.533.073-11.051-6.144-14.338-8.731C20.738,90.458,13.755,84.912,9.375,81.345v-7.97Zm-81.25,56.25V93.375c4.475,3.565,10.822,8.567,20.5,16.142C34.14,112.877,41.616,120.295,50,120.25c8.343.045,15.724-7.265,20.128-10.732,9.673-7.575,16.022-12.578,20.5-16.143v36.25Z" transform="translate(0 -64)" fill="#fff"/>
</svg>
