<svg id="mem02" xmlns="http://www.w3.org/2000/svg" width="70" height="70.003" viewBox="0 0 70 70.003">
  <path id="パス_555" data-name="パス 555" d="M65.362,25.382a16.8,16.8,0,0,1,2.069-10.495A9.045,9.045,0,0,0,55.122,2.463,16.843,16.843,0,0,1,44.7,4.605,16.636,16.636,0,0,1,35.071.072L35.036,0h-.143l-.071.072a17.321,17.321,0,0,1-9.633,4.534A16.745,16.745,0,0,1,14.77,2.463a8.867,8.867,0,0,0-6.85-.893A8.931,8.931,0,0,0,2.426,5.784a9.051,9.051,0,0,0,.036,9.067A16.615,16.615,0,0,1,4.531,25.346,16.837,16.837,0,0,1,.072,34.841L0,34.913v.143l.072.072A17.341,17.341,0,0,1,4.6,44.765a16.776,16.776,0,0,1-2.14,10.423A9.044,9.044,0,0,0,14.878,67.5a16.6,16.6,0,0,1,10.49-2.071,17.231,17.231,0,0,1,9.49,4.5l.072.072h.143l.072-.036a17.338,17.338,0,0,1,9.633-4.534,16.755,16.755,0,0,1,10.418,2.143,9.02,9.02,0,0,0,12.344-3.32,9.117,9.117,0,0,0-.036-9.1,16.608,16.608,0,0,1-2.069-10.495,17.233,17.233,0,0,1,4.5-9.5L70,35.091v-.143l-.072-.071A16.517,16.517,0,0,1,65.362,25.382Z" fill="#4bbdb0"/>
  <path id="パス_556" data-name="パス 556" d="M50,38.641c.036-3.93-2.8-4.941-2.463-10.273.171-2.732-1.5-8.523-4.6-12.166-2.9-3.407-9.672-6.346-12.993-2.086a.811.811,0,0,1-.5.3c-6.72,1.216-7.405,11.558-7.114,16.245,0,0-.008,1.639-.019,1.955-.342,3.931-2.4,5.932-2.31,9.087.1,3.45,2.774,4.956,3.152,7.13a7.451,7.451,0,0,0,1.532,4.485c3.853,4.427,10.452,3.847,18.248,3.218,2.169,1.979,6.793-1.077,6.708-4.128-.093-3.508-1.338-4.72-1.4-6.432C48.1,42.509,49.966,42.124,50,38.641Z" fill="#f03b3c"/>
  <path id="パス_557" data-name="パス 557" d="M25.243,29.333c.822.563,1.239.666,1.55,2.537a2.876,2.876,0,0,1-.874,2.826,2.906,2.906,0,0,1-3.539-1.812c-.027-.091-.049-.18-.066-.27v0a3.7,3.7,0,0,1,.018-1.991,1.7,1.7,0,0,1,.824-1.063A3.439,3.439,0,0,1,25.243,29.333Z" fill="#f8a58c"/>
  <path id="パス_558" data-name="パス 558" d="M25.462,32.254a.374.374,0,0,1-.336-.209c-.327-.59-1.226-.354-1.235-.351a.372.372,0,0,1-.193-.719,1.858,1.858,0,0,1,2.086.722.115.115,0,0,0,.009.018.38.38,0,0,1,.04.167A.372.372,0,0,1,25.462,32.254Z" fill="#f2585b"/>
  <path id="パス_559" data-name="パス 559" d="M39.306,45.125a2.111,2.111,0,0,1-.9-.29A3.987,3.987,0,0,1,36.7,41.511a18.555,18.555,0,0,0,2.9-1.49,7.438,7.438,0,0,0-.74,2.692A5.109,5.109,0,0,0,39.306,45.125Z" fill="#da262f"/>
  <path id="パス_560" data-name="パス 560" d="M42.936,56.535a35.811,35.811,0,0,1-8.56.962c-6.927,0-11.251-1.648-12.668-2.431-1.379-.765-2.267-1.6-1.3-3.139a17.552,17.552,0,0,1,6.785-5.817c1.768-.956,3.938-.735,4.542-3.37a6.671,6.671,0,0,0,.152-1.168s2.477-.128,4.98-.128A6.43,6.43,0,0,0,37,42.522a3.278,3.278,0,0,0,2.3,2.6,9,9,0,0,0,.993,1.644,8.229,8.229,0,0,0,1.085,1.141C44.5,50.629,41.216,54.969,42.936,56.535Z" fill="#f8a58c"/>
  <path id="パス_561" data-name="パス 561" d="M35.14,52.407a.906.906,0,1,1-.9-.91A.906.906,0,0,1,35.14,52.407Z" fill="#fff"/>
  <path id="パス_562" data-name="パス 562" d="M41.384,47.91c3.112,2.719-.167,7.059,1.552,8.625a35.844,35.844,0,0,1-8.56.962A33.362,33.362,0,0,1,23.9,55.984a56.3,56.3,0,0,1,1.6-8.878q.774-.5,1.69-1a6.369,6.369,0,0,1,.88-.385c-.066,3.327,4.33,4.192,6.154,4.192,1.666,0,5.489-.516,6.075-3.148A8.223,8.223,0,0,0,41.384,47.91Z" fill="#f8dfa6"/>
  <path id="パス_563" data-name="パス 563" d="M37,42.522a5.617,5.617,0,0,1-2.836.727,5.854,5.854,0,0,1-2.436-.51,6.681,6.681,0,0,0,.152-1.168s2.477-.128,4.98-.128A6.44,6.44,0,0,0,37,42.522Z" fill="#f2585b"/>
  <path id="パス_564" data-name="パス 564" d="M25.458,31.873c-.086-.779-.155-1.623-.215-2.54-.092-5.995,3.3-10.652,5.553-10.328,4.835-1.3,7.658,2.744,9.908,7.395l.345.727c2.534,5.24.06,9.732-1.448,12.894a15.032,15.032,0,0,1-2.738,1.423,8.3,8.3,0,0,1-2.64.68,8.069,8.069,0,0,1-2.321-.488,10.5,10.5,0,0,1-2.863-1.515,8.681,8.681,0,0,1-3.12-5.424A27.512,27.512,0,0,1,25.458,31.873Z" fill="#fbc2a6"/>
  <path id="パス_565" data-name="パス 565" d="M35.14,52.407a.906.906,0,1,1-.9-.91A.906.906,0,0,1,35.14,52.407Z" fill="#fff"/>
  <path id="パス_566" data-name="パス 566" d="M29.424,30.726h.114a.78.78,0,0,0,.778-.781v-.433a.78.78,0,0,0-.778-.781h-.114a.779.779,0,0,0-.778.781v.433A.779.779,0,0,0,29.424,30.726Z" fill="#4ca1a4"/>
  <path id="パス_567" data-name="パス 567" d="M39.048,30.726h-.114a.78.78,0,0,1-.778-.781v-.433a.78.78,0,0,1,.778-.781h.114a.78.78,0,0,1,.778.781v.433A.78.78,0,0,1,39.048,30.726Z" fill="#4ca1a4"/>
  <path id="パス_568" data-name="パス 568" d="M34.218,33.506c-.01,0-1.054-.026-1.054-.621a.372.372,0,0,1,.372-.373.367.367,0,0,1,.315.176.966.966,0,0,0,.736,0,.365.365,0,0,1,.314-.176.372.372,0,0,1,.372.373C35.273,33.481,34.23,33.506,34.218,33.506Z" fill="#f2585b"/>
  <path id="パス_569" data-name="パス 569" d="M34.219,36.389a2.618,2.618,0,0,1-1.891-.566.372.372,0,0,1,.581-.464,2.047,2.047,0,0,0,1.31.285,2.051,2.051,0,0,0,1.315-.285.369.369,0,0,1,.521-.059.373.373,0,0,1,.06.522A2.626,2.626,0,0,1,34.219,36.389Z" fill="#f2585b"/>
  <path id="パス_570" data-name="パス 570" d="M34.223,50.291c-1.239,0-3.979-.41-5.487-1.955A3.53,3.53,0,0,1,27.7,45.718a.382.382,0,0,1,.379-.365.374.374,0,0,1,.364.381,2.8,2.8,0,0,0,.827,2.081,7.715,7.715,0,0,0,4.956,1.73c1.886,0,5.21-.6,5.712-2.855a.372.372,0,1,1,.726.162C39.915,50.192,34.8,50.291,34.223,50.291Z" fill="#fff"/>
  <path id="パス_571" data-name="パス 571" d="M30.527,29.188a2.55,2.55,0,0,0-.661-.276,4.6,4.6,0,0,0-.814-.151,2.912,2.912,0,0,0-.8.026,1.689,1.689,0,0,0-.717.393.126.126,0,0,1-.18-.023.128.128,0,0,1-.014-.135l.006-.01a2.385,2.385,0,0,1,.256-.425,1.358,1.358,0,0,1,.441-.349,2.49,2.49,0,0,1,1.023-.229,3.355,3.355,0,0,1,1.018.109,1.953,1.953,0,0,1,.98.556.369.369,0,0,1-.482.555Z" fill="#443252"/>
  <path id="パス_572" data-name="パス 572" d="M37.406,28.673a1.959,1.959,0,0,1,.979-.556,3.376,3.376,0,0,1,1.021-.109,2.494,2.494,0,0,1,1.023.229,1.339,1.339,0,0,1,.439.349,2.4,2.4,0,0,1,.257.425l.005.01a.13.13,0,0,1-.06.174.125.125,0,0,1-.133-.015,1.7,1.7,0,0,0-.717-.393,2.924,2.924,0,0,0-.8-.026,4.641,4.641,0,0,0-.814.151,2.567,2.567,0,0,0-.66.276l-.055.04a.369.369,0,0,1-.482-.555Z" fill="#443252"/>
  <path id="パス_573" data-name="パス 573" d="M31.31,27.353a13.965,13.965,0,0,0-2.47-.327,7.042,7.042,0,0,0-1.22.063,4.319,4.319,0,0,0-.561.128,5.967,5.967,0,0,1-.621.173A.116.116,0,0,1,26.3,27.3a.133.133,0,0,1,.022-.089,1.9,1.9,0,0,1,1.165-.747,5.725,5.725,0,0,1,1.352-.174,9.348,9.348,0,0,1,2.649.344.374.374,0,0,1-.176.726Z" fill="#f03b3c"/>
  <path id="パス_574" data-name="パス 574" d="M36.978,26.629a9.336,9.336,0,0,1,2.649-.344,5.752,5.752,0,0,1,1.353.174,2.089,2.089,0,0,1,.664.272,2.031,2.031,0,0,1,.5.475.114.114,0,0,1-.022.161.112.112,0,0,1-.088.022,5.625,5.625,0,0,1-.621-.173,4.315,4.315,0,0,0-.563-.128,7.011,7.011,0,0,0-1.217-.063,13.98,13.98,0,0,0-2.471.327h0a.373.373,0,0,1-.443-.286A.379.379,0,0,1,36.978,26.629Z" fill="#f03b3c"/>
</svg>
