<svg id="mem01" xmlns="http://www.w3.org/2000/svg" width="70" height="70.003" viewBox="0 0 70 70.003">
  <path id="パス_537" data-name="パス 537" d="M65.362,25.382a16.8,16.8,0,0,1,2.069-10.495A9.045,9.045,0,0,0,55.122,2.463,16.843,16.843,0,0,1,44.7,4.605,16.636,16.636,0,0,1,35.071.072L35.036,0h-.143l-.071.072a17.321,17.321,0,0,1-9.633,4.534A16.745,16.745,0,0,1,14.77,2.463a8.867,8.867,0,0,0-6.85-.893A8.931,8.931,0,0,0,2.426,5.784a9.051,9.051,0,0,0,.036,9.067A16.615,16.615,0,0,1,4.531,25.346,16.837,16.837,0,0,1,.072,34.841L0,34.913v.143l.072.072A17.341,17.341,0,0,1,4.6,44.765a16.776,16.776,0,0,1-2.14,10.423A9.044,9.044,0,0,0,14.878,67.5a16.6,16.6,0,0,1,10.49-2.071,17.231,17.231,0,0,1,9.49,4.5l.072.072h.143l.072-.036a17.338,17.338,0,0,1,9.633-4.534,16.755,16.755,0,0,1,10.418,2.143,9.02,9.02,0,0,0,12.344-3.32,9.117,9.117,0,0,0-.036-9.1,16.608,16.608,0,0,1-2.069-10.495,17.233,17.233,0,0,1,4.5-9.5L70,35.091v-.143l-.072-.071A16.517,16.517,0,0,1,65.362,25.382Z" fill="#ff6868"/>
  <path id="パス_538" data-name="パス 538" d="M42.758,40.292c-.155-.212-.323-.413-.491-.618a5.835,5.835,0,0,0-2.385-1.946h-.005a9.758,9.758,0,0,0,.416,2.564,3.553,3.553,0,0,1-.032,2.365c-.237.634-.5,1.305-.789,2.007,0,0,0,.005-.008.005-1.447,3.536-3.435,7.708-4.918,10.534l.008.121c.1,0,.2-.008.3-.013.237-.013.474-.034.716-.048C42.577,54.722,50,52.512,50,49.877,49.993,46.471,46.593,42.508,42.758,40.292Z" fill="#3a9999"/>
  <path id="パス_539" data-name="パス 539" d="M27.243,42.32a5.037,5.037,0,0,0-.452.647,15.382,15.382,0,0,0-6.434,6.266c-.518,1.156-.558,2.5.457,3.258a15.435,15.435,0,0,0,7.061,2.582c.324.048.66.091,1.011.13-.921-5.044-.613-8.525.4-10.534v-.005a4.87,4.87,0,0,1,.566-.887c.653-.8.866-3.762.7-4.335A14.435,14.435,0,0,0,27.243,42.32Z" fill="#3a9999"/>
  <path id="パス_540" data-name="パス 540" d="M44.719,30.216a12.809,12.809,0,0,0-.49-5.49c-.9-2.8-2.61-7.373-8.51-8.387-3.9-.668-8.879.338-10.466,3.663-.815,1.708-1.345,3.874-.757,4.8-.276,1.753.168,3.232.176,4.869.006,3.7.753,6.53,2.208,8.144a5.559,5.559,0,0,0,3.668,1.665c.169.573-.036,3.5-.689,4.3a4.87,4.87,0,0,0-.566.887v.005c-.457,3.016,8.284,2.854,10.172,0,.008,0,.008-.005.008-.005.285-.7.552-1.373.789-2.007a3.553,3.553,0,0,0,.032-2.365,9.759,9.759,0,0,1-.416-2.564A19.042,19.042,0,0,1,39.9,35.78v0a6.16,6.16,0,0,0,1.131-2.044,2.127,2.127,0,0,0,.889.48c1.361.3,2.5-.987,2.8-2.352A3.643,3.643,0,0,0,44.719,30.216Z" fill="#fab485"/>
  <path id="パス_541" data-name="パス 541" d="M45.61,20.678c1.347,2.9.081,4.374-.795,4.36a5.9,5.9,0,0,1-.1,5.178,2.011,2.011,0,0,0-1.5-1.609,2.326,2.326,0,0,0-1.852.507,3,3,0,0,0-.642.763c-3.159.121-1.777-5.5-1.777-5.5-3.537-.356-3.061-2.337-3.061-3.689-2.208,1.371-4.884,1.1-4.715-.393-2.532,2.387-4.763,2.136-5.145,1.117h-.008A5.8,5.8,0,0,0,24.5,24.8c-3.335-1.352-2.245-4.461-.587-5.28,0,0-1.455-.676-.086-2.1s4.116-1.46,4.116-1.46-.714-.087-.264-.906C28.1,14.3,30.485,13.979,33.693,14a17.466,17.466,0,0,1,5.888,1.552c-.069-.092-.7-.972-.142-1.362.923-.658,1.292,1.352,1.292,1.352s1.852-.651,1.947.417c.1,1.014-.955.7-1.069.662A9.253,9.253,0,0,1,45.61,20.678Z" fill="#903841"/>
  <path id="パス_542" data-name="パス 542" d="M39.465,44.669c-1.447,3.536-4.911,10.655-4.911,10.655l-.41.021c-.087.006-.177.006-.263.006a34.044,34.044,0,0,1-4.993-.147c-.921-5.044-.613-8.524.4-10.534C28.836,47.685,37.577,47.524,39.465,44.669Z" fill="#efece9"/>
  <path id="パス_543" data-name="パス 543" d="M29.291,44.669c-1.018,2.009-1.326,5.49-.405,10.534-.35-.039-.687-.082-1.011-.13a22.435,22.435,0,0,1-1.953-9.8,5.462,5.462,0,0,1,.869-2.305,5.027,5.027,0,0,1,.452-.647,14.437,14.437,0,0,1,3.312-2.878c.168.573-.045,3.539-.7,4.335a4.87,4.87,0,0,0-.566.887Z" fill="#4bbdb0"/>
  <path id="パス_544" data-name="パス 544" d="M43.843,42.858c-.276,2.024-3.732,7.484-8.271,12.406-.242.014-.479.035-.716.048-.1.006-.2.013-.3.013,0,0,3.463-7.119,4.911-10.655.008,0,.008-.005.008-.005.285-.7.552-1.373.789-2.007a3.553,3.553,0,0,0,.032-2.365,9.758,9.758,0,0,1-.416-2.564h.006a5.835,5.835,0,0,1,2.385,1.946c.168.205.336.406.491.618A4.216,4.216,0,0,1,43.843,42.858Z" fill="#4bbdb0"/>
  <path id="パス_545" data-name="パス 545" d="M37.979,37.422c.2-.129.65-.46.792-.568a6.644,6.644,0,0,0,1.132-1.08,19.114,19.114,0,0,0-.027,1.952,9.759,9.759,0,0,0,.416,2.564,3.553,3.553,0,0,1-.032,2.365c-.237.634-.5,1.305-.789,2.007,0,0,0,.006-.008.006-1.887,2.854-10.629,3.016-10.172,0v-.006a4.873,4.873,0,0,1,.566-.887c.653-.8.858-3.725.689-4.3a12.218,12.218,0,0,0,1.33,0,11.4,11.4,0,0,0,2.669-.43A12.561,12.561,0,0,0,37.979,37.422Z" fill="#f7986d"/>
  <path id="パス_546" data-name="パス 546" d="M30.529,34.853a3.632,3.632,0,0,1-.375-.019,2.187,2.187,0,0,1-1.611-.726.337.337,0,1,1,.556-.38,1.64,1.64,0,0,0,1.115.432,2.274,2.274,0,0,0,1.75-.454.338.338,0,0,1,.477.478A2.7,2.7,0,0,1,30.529,34.853Z" fill="#f25757"/>
  <path id="パス_547" data-name="パス 547" d="M29.982,32.308a1.5,1.5,0,0,1-1.056-.428.858.858,0,0,1-.192-.964.338.338,0,0,1,.616.277c-.015.029-.047.1.063.219a.828.828,0,0,0,.845.166.338.338,0,1,1,.25.629A1.436,1.436,0,0,1,29.982,32.308Z" fill="#f25757"/>
  <path id="パス_548" data-name="パス 548" d="M24.867,26a.309.309,0,0,1-.174-.05.333.333,0,0,1-.116-.462A1.586,1.586,0,0,1,25.6,24.85a3.106,3.106,0,0,1,2.287.327.339.339,0,0,1,.108.465.336.336,0,0,1-.466.108,2.432,2.432,0,0,0-1.771-.24.984.984,0,0,0-.6.324A.336.336,0,0,1,24.867,26Z" fill="#903841"/>
  <path id="パス_549" data-name="パス 549" d="M35.382,25.857a.332.332,0,0,1-.276-.146,1.534,1.534,0,0,0-.828-.266,3.247,3.247,0,0,0-1.984.243.338.338,0,1,1-.437-.515,3.719,3.719,0,0,1,2.507-.4,1.945,1.945,0,0,1,1.3.551.34.34,0,0,1-.085.47A.326.326,0,0,1,35.382,25.857Z" fill="#903841"/>
  <path id="パス_550" data-name="パス 550" d="M41.956,31.655a.332.332,0,0,1-.071-.008.338.338,0,0,1-.258-.4,1.483,1.483,0,0,1,1.584-1.08.335.335,0,0,1,.293.374.332.332,0,0,1-.374.3.824.824,0,0,0-.844.554A.333.333,0,0,1,41.956,31.655Z" fill="#f25757"/>
  <path id="パス_551" data-name="パス 551" d="M35.24,28.386V28.8a.737.737,0,1,1-1.473,0v-.413a.737.737,0,1,1,1.473,0Z" fill="#af6b4b"/>
  <path id="パス_552" data-name="パス 552" d="M27.709,28.392V28.8a.737.737,0,1,1-1.474,0v-.413a.737.737,0,1,1,1.474,0Z" fill="#af6b4b"/>
  <path id="パス_553" data-name="パス 553" d="M25.206,28.424a.352.352,0,0,1-.334-.356c0-.307.263-.608.72-.83a2.258,2.258,0,0,1,2.327.14.338.338,0,0,1-.421.528,1.471,1.471,0,0,0-1.234-.193,1.284,1.284,0,0,0-.724.389A.321.321,0,0,1,25.206,28.424Z" fill="#7b3037"/>
  <path id="パス_554" data-name="パス 554" d="M32.746,28.415a.351.351,0,0,1-.335-.357c0-.306.263-.607.722-.828a2.216,2.216,0,0,1,2.318.142.337.337,0,0,1-.421.526,1.449,1.449,0,0,0-1.231-.191,1.257,1.257,0,0,0-.718.386A.321.321,0,0,1,32.746,28.415Z" fill="#7b3037"/>
</svg>
