<?xml version="1.0" encoding="UTF-8"?> <svg xmlns="http://www.w3.org/2000/svg" width="70" height="70" viewBox="0 0 70 70"><g id="icon04" transform="translate(-768 -484)"><rect id="長方形_43" data-name="長方形 43" width="70" height="70" transform="translate(768 484)" fill="none"></rect><g id="東京タワーの無料アイコン素材" transform="translate(690.701 489.687)"><rect id="長方形_44" data-name="長方形 44" width="2.836" height="9.319" transform="translate(110.745)" fill="#454b54"></rect><path id="パス_416" data-name="パス 416" d="M120.421,358.406c1.786,5.221,7.072,14.234,10.341,17.587H119.031c-.215-2.566-3.4-5.951-6.868-5.951s-6.654,3.385-6.868,5.951H93.563c3.269-3.353,8.555-12.366,10.341-17.587Z" transform="translate(0 -317.368)" fill="#454b54"></path><path id="パス_417" data-name="パス 417" d="M211.422,222.831h10.209c-.351-2.036-.573-3.975-.71-5.768h-8.788C211.995,218.856,211.773,220.795,211.422,222.831Z" transform="translate(-104.364 -192.209)" fill="#454b54"></path><path id="パス_418" data-name="パス 418" d="M219.368,101.368h8.373c-.027-1.9.009-3.492.009-4.68h-8.391C219.359,97.876,219.395,99.468,219.368,101.368Z" transform="translate(-111.392 -85.617)" fill="#c7d7e2"></path><rect id="長方形_45" data-name="長方形 45" width="13.724" height="4.75" transform="translate(105.301 17.927)" fill="#454b54"></rect><rect id="長方形_46" data-name="長方形 46" width="21.185" height="6.425" transform="translate(101.571 32.799)" fill="#454b54"></rect><path id="パス_423" data-name="パス 423" d="M120.421,358.406c1.786,5.221,7.072,14.234,10.341,17.587H119.031c-.215-2.566-3.4-5.951-6.868-5.951s-6.654,3.385-6.868,5.951H93.563c3.269-3.353,22.9-17.587,22.9-17.587Z" transform="translate(0 -317.368)" fill="#7ca5c6"></path><path id="パス_424" data-name="パス 424" d="M0,0H13.724L3.735,4.75H0Z" transform="translate(105.301 17.927)" fill="#c7d7e2"></path></g></g></svg> 