<?xml version="1.0" encoding="UTF-8"?> <svg xmlns="http://www.w3.org/2000/svg" width="70" height="70" viewBox="0 0 70 70"><g id="icon11" transform="translate(-771 -572)"><rect id="長方形_52" data-name="長方形 52" width="70" height="70" transform="translate(771 572)" fill="none"></rect><circle id="楕円形_20" data-name="楕円形 20" cx="24" cy="24" r="24" transform="translate(782 583)" fill="#fff"></circle><g id="グループ_14" data-name="グループ 14" transform="translate(145 -108)"><g id="地球アイコン9" transform="translate(636 690)"><path id="パス_437" data-name="パス 437" d="M48.449,16.322a24.7,24.7,0,0,0-1.562-3.4,25.027,25.027,0,0,0-4.212-5.592l-.114-.115h0c-.047-.046-.092-.091-.141-.137l0,0c-.142-.141-.288-.281-.435-.412A25.006,25.006,0,0,0,14.358,2.375c-.222.1-.443.212-.66.323A25.075,25.075,0,0,0,1.276,17.1c-.062.188-.124.378-.182.568l-.007.021c-.04.129-.077.262-.115.394-.092.315-.176.631-.253.953-.03.111-.055.222-.08.336A25.028,25.028,0,0,0,16.413,48.487c.107.04.217.079.328.115.659.233,1.333.436,2.017.612.119.03.241.06.363.087a25,25,0,0,0,23.554-6.624,24.456,24.456,0,0,0,2.3-2.649,25.016,25.016,0,0,0,3.473-23.707ZM9.257,40.746A22.3,22.3,0,0,1,2.985,21.661c.758.53,2.142,1.272,2.159,1.276a.607.607,0,0,0,.184.025,2.587,2.587,0,0,0,.386-.043,3.11,3.11,0,0,1,.415-.043.561.561,0,0,1,.1.007c.051.023.136.219.181.323a.958.958,0,0,0,.381.525,4.359,4.359,0,0,0,1.144.2c.19.021.383.044.483.06a2.081,2.081,0,0,1,.112.351,1.268,1.268,0,0,0,.423.81A13.246,13.246,0,0,1,10.209,26.3a.252.252,0,0,0,.177.073.226.226,0,0,0,.124-.035c.03-.017.686-.4.915-.545a.76.76,0,0,1,.209.135c.012.36.058,1.552.06,1.793A5.237,5.237,0,0,1,10.6,28.855a.243.243,0,0,0-.09.179c0,.068-.062,1.642,0,2.275a6.562,6.562,0,0,0,1.4,2.219A12.7,12.7,0,0,0,12.48,34.9a24.589,24.589,0,0,0,2.2,1.732v3.729a1.677,1.677,0,0,0,.293.912.731.731,0,0,1,.142.33v2.612a1.66,1.66,0,0,0,.236.853A22.381,22.381,0,0,1,9.257,40.746ZM44.279,15.8a3.313,3.313,0,0,0-1.12-.435l-.5-.064c-.248-.5-.124-1.616-.994-1.368s-3.732.746-4.354.871-1.368,1.118-1.865,1.865-1.866,3.11-2.115,3.483a13.886,13.886,0,0,0-.373,3.358c0,.623,2.737,3.235,3.607,3.359a17.9,17.9,0,0,0,3.856-.622c.622-.126.995.746,1.492.746s1.12.249.622,1-.5,1.118,0,1.615a4.154,4.154,0,0,1,.87,3.857,2.685,2.685,0,0,0,.249,2.86,3.786,3.786,0,0,1,.226.48,22.6,22.6,0,0,1-3.14,3.946,22.312,22.312,0,0,1-21.674,5.722c.008-.031.015-.066.021-.1a.673.673,0,0,0-.165-.529.741.741,0,0,0,.331-.316,1.249,1.249,0,0,0,.12-.7l.121,0a1.573,1.573,0,0,0,.921-.219,1.448,1.448,0,0,0,.365-1.435,1,1,0,0,0,.095.039.288.288,0,0,0,.11.017c.4,0,.838-.715.957-1.189a9.631,9.631,0,0,1,.374-.932,4.7,4.7,0,0,0,.565-1.714,2.109,2.109,0,0,1,1.3-.839c.719-.143.975-.408,1.247-1.292a9.146,9.146,0,0,0,.319-2.835,3.763,3.763,0,0,1,.689-1.188c.462-.653.744-1.07.744-1.4a2.053,2.053,0,0,0-1.108-1.576,4.351,4.351,0,0,0-1.851-.434c-.154-.013-.288-.025-.351-.038s-.157-.12-.236-.2a1.29,1.29,0,0,0-.779-.483,1.013,1.013,0,0,0-.129-.007,1.958,1.958,0,0,0-.654.146,1.616,1.616,0,0,1-.532.13.739.739,0,0,1-.287-.064A.614.614,0,0,1,21.529,29c.19-.126.369-.405.162-1.038a4.544,4.544,0,0,0-.527-1.048,1.536,1.536,0,0,0-1.336-.587c-.214,0-.423.021-.638.039l-.046,0c-.217,0-.343-.191-.59-.594a6.111,6.111,0,0,0-.514-.748,2.075,2.075,0,0,0-1.722-.643c-.078,0-.152,0-.224,0l-.179,0a1.657,1.657,0,0,1-.215-.01,3.112,3.112,0,0,1-.82-.337,3.057,3.057,0,0,0-.853-.346l-.062,0c-.356,0-.758.413-1.333,1.039-.143.155-.326.356-.424.44-.019-.022-.045-.051-.064-.076a1.058,1.058,0,0,0-.5-.394.525.525,0,0,0-.164-.028.777.777,0,0,0-.471.211.575.575,0,0,1-.328.157.522.522,0,0,1-.241-.074c-.343-.187-.229-.906-.139-1.483a4.9,4.9,0,0,0,.083-.725c0-.477-.282-.529-.4-.529a.987.987,0,0,0-.356.091,1.475,1.475,0,0,1-.493.115A.688.688,0,0,1,8.91,22.4c-.142-.046-.2-.1-.214-.126-.035-.1.149-.376.283-.583.062-.095.127-.194.189-.3.259-.432.394-.75.256-.991a.5.5,0,0,0-.465-.222,1.554,1.554,0,0,0-.3.033,1.347,1.347,0,0,1-.244.023,1.432,1.432,0,0,1-.261-.027,1.154,1.154,0,0,0-.165-.021c-.343,0-.385.341-.4.488a.82.82,0,0,1-.92.781c-.04,0-.079,0-.122,0-.58-.037-.827-.449-.827-1.369a1.241,1.241,0,0,1,.249-.819c.092-.151.207-.343.346-.623a1.512,1.512,0,0,1,.863-.873c.092-.043.187-.087.284-.143a.376.376,0,0,1,.181-.064.445.445,0,0,1,.127.033.925.925,0,0,0,.341.071.948.948,0,0,0,.136-.008.735.735,0,0,0,.639-.583c.011-.025.02-.051.033-.084a.508.508,0,0,0,.074.019,3.6,3.6,0,0,0,1.08.152c.179,0,.308,0,.4.008a2.052,2.052,0,0,0,.609,1.766.86.86,0,0,0,.615.368c.637,0,.691-1.074.691-2.269,0-.722.274-.92,1.085-1.5l.053-.039a3.954,3.954,0,0,0,.955-1.042A3.429,3.429,0,0,1,15.5,13.4a17.018,17.018,0,0,1,1.854-.912,10.787,10.787,0,0,0,1.893-.967,1.217,1.217,0,0,0,.258-1.242c-.085-.529-.06-.638.152-.7a9.663,9.663,0,0,1,1.117-.219,8.61,8.61,0,0,0,1.757-.408c.625-.233.77-.567.783-.808a1.034,1.034,0,0,0-.636-.888c-.135-.067-.15-.4-.16-.691a1.444,1.444,0,0,0-.271-1,.694.694,0,0,0-.513-.209,2.411,2.411,0,0,0-.875.255,6.951,6.951,0,0,1-.719.263.287.287,0,0,1-.072.013c-.1,0-.167-.2-.253-.486-.133-.419-.329-1.047-1.018-1.047a1.287,1.287,0,0,0-.251.025c-.878.176-1.085,1.118-1.233,1.806a2.073,2.073,0,0,1-.207.672c-.517,0-.684.33-.846.651a2.328,2.328,0,0,1-.445.662.591.591,0,0,1-.263.181c-.042-.04-.107-.343.164-.884a.887.887,0,0,0,.085-.829c-.187-.316-.629-.337-1.139-.356-.2-.01-.415-.018-.627-.045-.4-.05-.51-.153-.515-.174s.005-.08.115-.215A22.28,22.28,0,0,1,38.407,7.227a4.161,4.161,0,0,1-.41.859.769.769,0,0,0-.124.685A10.247,10.247,0,0,0,39.3,8.46a.605.605,0,0,0,.225-.328c.127.107.251.215.372.328-.3.268-.613.549-.721.622-.186.123-.808.311-1.057.434s.746.56.746.746,0,1.057-.373,1.118-2.114.063-2.114.063a10.35,10.35,0,0,0-.436,2.176,2.173,2.173,0,0,0,1.431.561,8.1,8.1,0,0,0,1.617-.622l.5-1.119.995-1.06s.746.311,1,.063a3.569,3.569,0,0,1,.746-.5s.5.932.808,1.056l.06.027,0,0q.539.742,1.008,1.529l0,0v0l0,.011a.3.3,0,0,0,.057.09,22.574,22.574,0,0,1,1.358,2.69A2.751,2.751,0,0,1,44.279,15.8Z" transform="translate(0 -0.002)" fill="#c7d7e2"></path></g><g id="楕円形_16" data-name="楕円形 16" transform="translate(636 690)" fill="none" stroke="#454b54" stroke-width="3"><circle cx="25" cy="25" r="25" stroke="none"></circle><circle cx="25" cy="25" r="23.5" fill="none"></circle></g></g></g></svg> 