<?xml version="1.0" encoding="UTF-8"?> <svg xmlns="http://www.w3.org/2000/svg" width="70" height="70" viewBox="0 0 70 70"><g id="icon10" transform="translate(-689 -572)"><rect id="長方形_51" data-name="長方形 51" width="70" height="70" transform="translate(689 572)" fill="none"></rect><g id="グループ_13" data-name="グループ 13" transform="translate(3 -82.934)"><path id="長方形_65" data-name="長方形 65" d="M8,0H34a8,8,0,0,1,8,8V20a8,8,0,0,1-8,8H0a0,0,0,0,1,0,0V8A8,8,0,0,1,8,0Z" transform="translate(701 670.934)" fill="#fff"></path><path id="パス_435" data-name="パス 435" d="M719.393,672.9l14.742,5.979-5.749,18.593h9.292l3.914-4.578V682.61l-1.024-7.73-3.612-2.6Z" fill="#7ca5c6"></path><g id="長方形_54" data-name="長方形 54" transform="translate(701 670.934)" fill="none" stroke="#454b54" stroke-width="3"><path d="M8,0H34a8,8,0,0,1,8,8V20a8,8,0,0,1-8,8H0a0,0,0,0,1,0,0V8A8,8,0,0,1,8,0Z" stroke="none"></path><path d="M8,1.5H34A6.5,6.5,0,0,1,40.5,8V20A6.5,6.5,0,0,1,34,26.5H3A1.5,1.5,0,0,1,1.5,25V8A6.5,6.5,0,0,1,8,1.5Z" fill="none"></path></g><circle id="楕円形_15" data-name="楕円形 15" cx="6.5" cy="6.5" r="6.5" transform="translate(702 667.934)" fill="#fff"></circle><path id="パス_436" data-name="パス 436" d="M6.5,0c3.59,0,1.668,5.3,1.668,5.3S4.816,7.9,1.226,7.9,0,10.09,0,6.5A6.5,6.5,0,0,1,6.5,0Z" transform="translate(702 667.934)" fill="#c7d7e2"></path><g id="楕円形_11" data-name="楕円形 11" transform="translate(702 667.934)" fill="none" stroke="#454b54" stroke-width="3"><circle cx="6.5" cy="6.5" r="6.5" stroke="none"></circle><circle cx="6.5" cy="6.5" r="5" fill="none"></circle></g><g id="合体_13" data-name="合体 13" transform="translate(701 682.934)" fill="#fff"><path d="M 12.4995002746582 14.50020027160645 L 1.500000357627869 14.50020027160645 L 1.500000357627869 5.000400066375732 C 1.500000357627869 3.07027006149292 3.069870471954346 1.50000011920929 4.999500274658203 1.50000011920929 L 13.9995002746582 1.50000011920929 L 25.66710090637207 1.50000011920929 C 26.12631034851074 1.50000011920929 26.49990081787109 1.85260009765625 26.49990081787109 2.28600025177002 L 26.49990081787109 2.996100187301636 C 26.49990081787109 3.429500102996826 26.12631034851074 3.782100200653076 25.66710090637207 3.782100200653076 L 25.56945037841797 3.782100200653076 L 25.47262954711914 3.794760227203369 L 13.80503082275391 5.320340156555176 L 12.4995002746582 5.491040229797363 L 12.4995002746582 6.807680130004883 L 12.4995002746582 14.50020027160645 Z" stroke="none"></path><path d="M 10.9995002746582 13.00020027160645 L 10.9995002746582 6.807680130004883 L 10.9995002746582 4.174400329589844 L 13.61055088043213 3.833000183105469 L 19.98131561279297 3.000000238418579 L 13.9995002746582 3.000000238418579 L 4.999500274658203 3.000000238418579 C 3.896970510482788 3.000000238418579 3.000000476837158 3.897380113601685 3.000000476837158 5.000400066375732 L 3.000000476837158 13.00020027160645 L 10.9995002746582 13.00020027160645 M 13.9995002746582 16.00020027160645 L 4.089355343239731e-07 16.00020027160645 L 4.089355343239731e-07 5.000400066375732 C 4.089355343239731e-07 2.238300085067749 2.238300323486328 1.358032193365943e-07 4.999500274658203 1.358032193365943e-07 L 13.9995002746582 1.358032193365943e-07 L 25.66710090637207 1.358032193365943e-07 C 26.95499992370605 1.358032193365943e-07 27.99990081787109 1.023300170898438 27.99990081787109 2.28600025177002 L 27.99990081787109 2.996100187301636 C 27.99990081787109 4.258800029754639 26.95499992370605 5.282100200653076 25.66710090637207 5.282100200653076 L 13.9995002746582 6.807680130004883 L 13.9995002746582 16.00020027160645 Z" stroke="none" fill="#454b54"></path></g><g id="楕円形_12" data-name="楕円形 12" transform="translate(700 701.934)" fill="none" stroke="#454b54" stroke-width="3"><circle cx="5.5" cy="5.5" r="5.5" stroke="none"></circle><circle cx="5.5" cy="5.5" r="4" fill="none"></circle></g><g id="楕円形_13" data-name="楕円形 13" transform="translate(716 701.934)" fill="none" stroke="#454b54" stroke-width="3"><circle cx="5.5" cy="5.5" r="5.5" stroke="none"></circle><circle cx="5.5" cy="5.5" r="4" fill="none"></circle></g><g id="楕円形_14" data-name="楕円形 14" transform="translate(732 701.934)" fill="none" stroke="#454b54" stroke-width="3"><circle cx="5.5" cy="5.5" r="5.5" stroke="none"></circle><circle cx="5.5" cy="5.5" r="4" fill="none"></circle></g></g></g></svg> 