<?xml version="1.0" encoding="UTF-8"?> <svg xmlns="http://www.w3.org/2000/svg" width="70" height="70" viewBox="0 0 70 70"><g id="icon01" transform="translate(-443 -484)"><rect id="長方形_38" data-name="長方形 38" width="70" height="70" transform="translate(443 484)" fill="none"></rect><g id="グループ_9" data-name="グループ 9" transform="translate(-61.085 0.3)"><circle id="楕円形_17" data-name="楕円形 17" cx="5" cy="5" r="5" transform="translate(544.085 503.7)" fill="#fff"></circle><path id="icons8-太陽" d="M9.9.186a.834.834,0,0,0-.731.835v1.67a.835.835,0,1,0,1.67,0V1.021a.829.829,0,0,0-.281-.63A.839.839,0,0,0,9.9.186ZM3.325,2.848a.83.83,0,0,0-.653.587.839.839,0,0,0,.235.848L4.082,5.459A.835.835,0,1,0,5.256,4.284L4.082,3.109a.835.835,0,0,0-.6-.261H3.325Zm13.1,0a.839.839,0,0,0-.5.261L14.757,4.284a.835.835,0,1,0,1.175,1.175l1.175-1.175a.836.836,0,0,0-.6-1.436ZM10.006,4.362a5.846,5.846,0,1,0,5.846,5.846A5.87,5.87,0,0,0,10.006,4.362Zm0,1.67A4.176,4.176,0,1,1,5.83,10.209,4.184,4.184,0,0,1,10.006,6.033ZM.662,9.374a.839.839,0,1,0,.157,1.67h1.67a.835.835,0,1,0,0-1.67H.662Zm16.7,0a.839.839,0,0,0,.157,1.67h1.67a.835.835,0,1,0,0-1.67H17.367ZM4.551,14.724a.826.826,0,0,0-.47.261L2.907,16.134a.84.84,0,1,0,1.175,1.2L5.256,16.16a.836.836,0,0,0-.7-1.436Zm10.623,0a.83.83,0,0,0-.653.587.839.839,0,0,0,.235.848l1.175,1.175a.84.84,0,0,0,1.175-1.2l-1.175-1.148a.838.838,0,0,0-.679-.261ZM9.9,16.89a.834.834,0,0,0-.731.835V19.4a.835.835,0,1,0,1.67,0v-1.67a.829.829,0,0,0-.281-.63A.839.839,0,0,0,9.9,16.89Z" transform="translate(539.119 498.82)" fill="#454b54"></path><g id="グループ_8" data-name="グループ 8" transform="translate(518.441 503.942)"><circle id="楕円形_6" data-name="楕円形 6" cx="9.061" cy="9.061" r="9.061" transform="translate(4.579)" fill="#fff"></circle><g id="楕円形_5" data-name="楕円形 5" transform="translate(4.579)" fill="none" stroke="#454b54" stroke-width="3"><circle cx="9.061" cy="9.061" r="9.061" stroke="none"></circle><circle cx="9.061" cy="9.061" r="7.561" fill="none"></circle></g><path id="合体_16" data-name="合体 16" d="M13.64,13.5C4.015,13.6,1.24,9.373.587,7.946a9.144,9.144,0,0,1-.3-5.528C.747.54,1.937.25,3.832.077s9.808,0,9.808,0,7.914-.173,9.809,0S26.533.54,27,2.418a9.138,9.138,0,0,1-.305,5.528c-.645,1.411-3.368,5.559-12.731,5.56Z" transform="translate(0 21.743)" fill="#fff" stroke="#454b54" stroke-width="3"></path><path id="パス_413" data-name="パス 413" d="M1990.063,533.733c0,.2,19.495.021,19.474,0s5.372.314,5.413,0c.021-.155-18.615,5.98-18.615,5.98v6.446a5.967,5.967,0,0,1-3.327-1.154c-.572-.484-.694-3-4.448-3.045" transform="translate(-1988.463 -511.685)" fill="#7ca5c6"></path><path id="合体_11" data-name="合体 11" d="M13.64,13.5C4.015,13.6,1.24,9.373.587,7.946a9.144,9.144,0,0,1-.3-5.528C.747.54,1.937.25,3.832.077s9.808,0,9.808,0,7.914-.173,9.809,0S26.533.54,27,2.418a9.138,9.138,0,0,1-.305,5.528c-.645,1.411-3.368,5.559-12.731,5.56Z" transform="translate(0 21.743)" fill="none" stroke="#454b54" stroke-width="3"></path></g></g></g></svg> 