<?xml version="1.0" encoding="UTF-8"?> <svg xmlns="http://www.w3.org/2000/svg" width="70" height="70" viewBox="0 0 70 70"><g id="icon08" transform="translate(-525 -572)"><rect id="長方形_49" data-name="長方形 49" width="70" height="70" transform="translate(525 572)" fill="none"></rect><g id="介護のピクトグラム" transform="translate(528.896 586)"><path id="パス_429" data-name="パス 429" d="M168.044,79.56a3.586,3.586,0,1,0-4.362-2.586A3.585,3.585,0,0,0,168.044,79.56Z" transform="translate(-139.835 -66.493)" fill="#454b54"></path><path id="パス_430" data-name="パス 430" d="M114.5,285.288l-.242,2.538a7.718,7.718,0,0,1,1.168.951,7.595,7.595,0,1,1-12.662,7.475l-1.294,2.854A9.916,9.916,0,1,0,114.5,285.288Z" transform="translate(-82.877 -261.656)" fill="#d9d9d9"></path><path id="パス_431" data-name="パス 431" d="M29.251,188.1l.911-9.539a2.755,2.755,0,0,0-2.432-3.166,3.629,3.629,0,0,0-2.787,1.112l-4.479,4.409-4.687.394a1.454,1.454,0,0,0-1.333,1.448v.088A1.455,1.455,0,0,0,15.9,184.3h4.829a2.117,2.117,0,0,0,1.26-.415l1.953-1.441-.42,4.652-6.123.447a3.2,3.2,0,0,0-3.23,2.379l-2.89,7.94a1.934,1.934,0,0,0,3.527,1.586l3.257-6.956H24.3C27.444,192.456,28.928,191.137,29.251,188.1Z" transform="translate(0 -160.855)" fill="#454b54"></path><path id="パス_432" data-name="パス 432" d="M375.788,7.062a3.587,3.587,0,1,0-4.363-2.586A3.585,3.585,0,0,0,375.788,7.062Z" transform="translate(-330.369 0)" fill="#7ca5c6"></path><path id="パス_433" data-name="パス 433" d="M290.687,117.93l-1.63-12.682c-.417-3.16-4.075-3.908-6.155-2l-5.073,4.574-4.854,1.826a1.493,1.493,0,0,0-.911,1.846l.018.058a1.5,1.5,0,0,0,1.764,1.012l3.738-1.025a6.7,6.7,0,0,0,2.242-.974l1.829-1.122,1.023,7.983a17.7,17.7,0,0,1-.874,2.869l-4.1,12.775a1.91,1.91,0,0,0,1.222,2.4l.069.022a1.911,1.911,0,0,0,2.356-1.071l4.6-11.155,1.11,11.14a1.911,1.911,0,0,0,2.061,1.736l.073-.006a1.911,1.911,0,0,0,1.753-1.9Z" transform="translate(-239.28 -93.742)" fill="#7ca5c6"></path></g></g></svg> 