<svg xmlns="http://www.w3.org/2000/svg" xmlns:xlink="http://www.w3.org/1999/xlink" width="102" height="67" viewBox="0 0 102 67">
  <defs>
    <clipPath id="clip-path">
      <rect id="長方形_32" data-name="長方形 32" width="102" height="67" transform="translate(209 157)" fill="#fff" stroke="#707070" stroke-width="1"/>
    </clipPath>
    <clipPath id="clip-path-2">
      <rect id="長方形_29" data-name="長方形 29" width="96.429" height="67" fill="#fff"/>
    </clipPath>
  </defs>
  <g id="pic02" transform="translate(-209 -157)" clip-path="url(#clip-path)">
    <g id="pic02-2" data-name="pic02" transform="translate(212 157)" clip-path="url(#clip-path-2)">
      <path id="パス_328" data-name="パス 328" d="M92.325,56.993a.046.046,0,0,1-.017.026.047.047,0,0,1-.075-.026,5.88,5.88,0,0,0-1.125-2.551,4.594,4.594,0,0,0-2.3-1.036.047.047,0,0,1-.033-.015.046.046,0,0,1-.01-.016.045.045,0,0,1,0-.018.045.045,0,0,1,0-.018.046.046,0,0,1,.011-.015.05.05,0,0,1,.016-.01.049.049,0,0,1,.018,0,3.6,3.6,0,0,0,2.5-1.249,4.229,4.229,0,0,0,.872-2.369.047.047,0,0,1,.093-.007,7.635,7.635,0,0,0,1.009,2.429,3.75,3.75,0,0,0,2.548,1.192.048.048,0,0,1,.033.015.047.047,0,0,1-.037.079,4.01,4.01,0,0,0-2.491,1.132A5.621,5.621,0,0,0,92.325,56.993Z" fill="#fff"/>
      <path id="パス_329" data-name="パス 329" d="M4.125,7.907a.047.047,0,0,1-.092,0A5.876,5.876,0,0,0,2.908,5.356,4.6,4.6,0,0,0,.6,4.32a.047.047,0,1,1,0-.095A3.6,3.6,0,0,0,3.1,2.976,4.241,4.241,0,0,0,3.977.607.047.047,0,0,1,4.07.6,7.637,7.637,0,0,0,5.079,3.029,3.75,3.75,0,0,0,7.627,4.22a.047.047,0,0,1,0,.095A4.01,4.01,0,0,0,5.131,5.447,5.627,5.627,0,0,0,4.125,7.907Z" fill="#fff"/>
      <path id="パス_330" data-name="パス 330" d="M91.922,56.592l-.027.032.4-.166h-.039l.4.166-.026-.033.146.251a6.478,6.478,0,0,0-1.106-2.619,3.465,3.465,0,0,0-1.157-.857,6.247,6.247,0,0,0-.752-.31q-.2-.068-.409-.118c-.064-.016-.3-.05-.3-.047l.281.491V53.34l-.281.491s.213-.02.263-.03c.116-.024.232-.047.347-.079a4.819,4.819,0,0,0,.7-.248,3.546,3.546,0,0,0,1.189-.836A4.963,4.963,0,0,0,92.744,49.7l-.078.287.024-.038-.491.281.041,0-.4-.166.028.034-.146-.251a6.558,6.558,0,0,0,1.255,2.8,4.567,4.567,0,0,0,2.7,1.22l-.251-.146.036.028-.166-.4,0,.042.282-.491-.038.024.287-.078A4.548,4.548,0,0,0,92.8,54.272a6.128,6.128,0,0,0-1.021,2.572c-.173.71.923,1.013,1.1.3a7.465,7.465,0,0,1,.586-1.835,2.9,2.9,0,0,1,1.676-1.2c.421-.125,1.129-.053,1.273-.577a.631.631,0,0,0-.294-.712,2.782,2.782,0,0,0-.746-.184,2.684,2.684,0,0,1-1.689-.931,4.746,4.746,0,0,1-.5-1.007q-.113-.3-.208-.6a5.557,5.557,0,0,0-.183-.629.614.614,0,0,0-.588-.379c-.417.015-.558.349-.6.7a4.551,4.551,0,0,1-.28,1.158,2.766,2.766,0,0,1-1.7,1.6,5.115,5.115,0,0,1-.6.151c-.262.051-.517.062-.694.291a.6.6,0,0,0,.1.832,1.647,1.647,0,0,0,.677.218,4.294,4.294,0,0,1,1.322.576,2.062,2.062,0,0,1,.713.867,7.015,7.015,0,0,1,.45,1.268,1.4,1.4,0,0,0,.259.657.607.607,0,0,0,.882-.016.585.585,0,0,0,0-.8.572.572,0,0,0-.8,0Z" fill="#211715"/>
      <path id="パス_331" data-name="パス 331" d="M3.722,7.5,3.7,7.537l.4-.166H4.059l.4.166L4.435,7.5l.146.251A6.477,6.477,0,0,0,3.476,5.136,3.465,3.465,0,0,0,2.318,4.28a6.253,6.253,0,0,0-.752-.31q-.2-.068-.409-.118c-.064-.016-.3-.05-.3-.047l.281.49V4.252l-.281.491s.213-.02.263-.03c.116-.024.232-.049.347-.079a4.83,4.83,0,0,0,.7-.248,3.548,3.548,0,0,0,1.189-.835A4.952,4.952,0,0,0,4.543.608L4.466.894,4.49.857,4,1.137l.041,0-.4-.166L3.667,1,3.52.751a6.564,6.564,0,0,0,1.255,2.8,4.567,4.567,0,0,0,2.7,1.22l-.251-.146.036.028-.166-.4,0,.042.281-.49-.038.024.287-.078A4.547,4.547,0,0,0,4.6,5.183,6.123,6.123,0,0,0,3.577,7.754c-.173.71.923,1.013,1.1.3a7.457,7.457,0,0,1,.586-1.835,2.89,2.89,0,0,1,1.677-1.2c.421-.125,1.129-.053,1.273-.577a.631.631,0,0,0-.3-.712,2.785,2.785,0,0,0-.746-.184,2.683,2.683,0,0,1-1.689-.931,4.765,4.765,0,0,1-.5-1.008q-.113-.3-.208-.6A5.588,5.588,0,0,0,4.589.381.614.614,0,0,0,4,0c-.417.015-.558.349-.6.7a4.549,4.549,0,0,1-.28,1.158,2.766,2.766,0,0,1-1.7,1.6,5.119,5.119,0,0,1-.6.151c-.262.051-.517.061-.694.291a.6.6,0,0,0,.1.832A1.648,1.648,0,0,0,.9,4.957a4.3,4.3,0,0,1,1.322.575,2.062,2.062,0,0,1,.712.867,7.031,7.031,0,0,1,.45,1.267,1.4,1.4,0,0,0,.26.657.607.607,0,0,0,.882-.016.585.585,0,0,0,0-.8.573.573,0,0,0-.8,0Z" fill="#211715"/>
      <path id="パス_332" data-name="パス 332" d="M12.721,7.164a3.933,3.933,0,0,1,2.144-.631l64.862.011a3.949,3.949,0,0,1,3.951,3.949c0,7.966.017,26.721.022,37.359h-.08c-1.1.064-67.033.125-72.6.125h-.016c-.026-10.4-.079-28.8-.095-37.484a3.95,3.95,0,0,1,1.807-3.329Z" fill="#fff"/>
      <path id="パス_333" data-name="パス 333" d="M38.65,66.415h-2.9c-.615,0-.673-1.636-.485-2.042a1.488,1.488,0,0,1,1.2-.789c2.225-.424,2.776-1.625,2.961-3.754.079-.913.161-1.479.206-2.388.029-.588.08-1.244.168-2.138,4.927,0,10.048-.012,14.983-.019.088.9.14,1.565.169,2.157.045.909.127,1.475.206,2.388.185,2.129.736,3.331,2.961,3.754a1.488,1.488,0,0,1,1.2.789c.188.406.216,2.046-.416,2.046Z" fill="#fff"/>
      <path id="パス_334" data-name="パス 334" d="M13.191,54.874a3.936,3.936,0,0,0,1.76.42c12.652.049,51.86-.03,64.807-.053A3.949,3.949,0,0,0,83.7,51.289c0-1.008,0-2.166,0-3.439h-.08c-1.1.064-67.033.125-72.6.125h-.016c0,1.251.005,2.386.007,3.375a3.953,3.953,0,0,0,2.176,3.524Z" fill="#d9d9d9"/>
      <path id="パス_335" data-name="パス 335" d="M40.54,66.415H35.753c-.615,0-.673-1.636-.485-2.041a1.488,1.488,0,0,1,1.2-.789,4.379,4.379,0,0,0,1.474-.523H56.651a4.346,4.346,0,0,0,1.473.524,1.488,1.488,0,0,1,1.2.789c.188.406.216,2.046-.416,2.046Z" fill="#fff"/>
      <path id="パス_336" data-name="パス 336" d="M54.244,55.554c.131,1.387.215,2.777.34,4.164a5.908,5.908,0,0,0,.8,2.916,3.991,3.991,0,0,0,2.585,1.5,1.7,1.7,0,0,1,.631.225.738.738,0,0,1,.184.213c.036.05.055.175.012.014.01.039.024.077.032.116s.019.093.026.14c-.017-.113,0,.008,0,.037.007.109.014.218.013.328a2.043,2.043,0,0,1-.067.568c-.014.058-.016.144-.06.146l.037-.043-.028.031.053-.037q-.081.047.029-.01c.068-.047.071-.007-.02-.011-.108-.005-.217,0-.325,0H53.407l-10.454,0h-4.5c-.86,0-1.725-.024-2.585,0-.089,0-.134-.037-.046.011.069.038.067,0,.087.059-.015-.044-.051-.086-.071-.129.041.093-.011-.047-.017-.07a1.864,1.864,0,0,1-.08-.513c0-.1-.005-.2,0-.3,0-.055.007-.11.011-.165.013-.145-.021.077.007-.04.01-.043.076-.2.025-.1a.572.572,0,0,1,.175-.22,1.773,1.773,0,0,1,.741-.263,4.873,4.873,0,0,0,1.5-.546,3.521,3.521,0,0,0,1.57-2.244,11.213,11.213,0,0,0,.247-1.717c.063-.685.142-1.368.181-2.055q.055-1,.149-2a.572.572,0,0,0-.568-.568.581.581,0,0,0-.568.568c-.134,1.424-.22,2.852-.35,4.277a6.887,6.887,0,0,1-.267,1.476,2.269,2.269,0,0,1-.561.968,1.636,1.636,0,0,1-.408.313,2.909,2.909,0,0,1-.682.3,4.376,4.376,0,0,0-1.759.669,2.453,2.453,0,0,0-.4,2.624,1.1,1.1,0,0,0,1.006.8c.124,0,.248,0,.372,0h5.4l10.8,0h4.361c.722,0,1.45.029,2.171,0,1.06-.042,1.184-1.381,1.1-2.192a1.788,1.788,0,0,0-.635-1.284,5.075,5.075,0,0,0-1.775-.65,2.508,2.508,0,0,1-1.059-.627,2.369,2.369,0,0,1-.54-.988,7.57,7.57,0,0,1-.257-1.528c-.063-.7-.147-1.4-.187-2.11-.039-.687-.088-1.37-.153-2.055a.583.583,0,0,0-.568-.568.572.572,0,0,0-.568.568Z" fill="#211715"/>
      <path id="パス_337" data-name="パス 337" d="M40.667,63.628H53.948a.568.568,0,0,0,0-1.136H40.667A.568.568,0,0,0,40.667,63.628Z" fill="#211715"/>
      <path id="パス_338" data-name="パス 338" d="M10.345,10.493q.011,5.756.027,11.513.018,7.011.037,14.022.017,6.224.032,12.447l.006,2.375a5.11,5.11,0,0,0,.78,3.028,4.559,4.559,0,0,0,2.733,1.873,10.548,10.548,0,0,0,2.241.118q4.549.013,9.1.011,5.918,0,11.838,0l13.051-.016,12.734-.019,10.924-.019,4.255-.008c.634,0,1.278.029,1.912-.012a4.557,4.557,0,0,0,3.037-1.42,4.616,4.616,0,0,0,1.222-3.153c0-.763,0-1.526,0-2.29q0-2.792,0-5.584l-.011-13.526q0-6.547-.008-13.094,0-2.571,0-5.142a7.273,7.273,0,0,0-.3-2.7,4.545,4.545,0,0,0-2.225-2.45c-1.432-.689-3.172-.467-4.722-.467H72.336l-11.455,0-13.035,0-13.072,0-11.564,0H16.42c-.648,0-1.315-.043-1.961.02a4.574,4.574,0,0,0-4.115,4.507.568.568,0,0,0,1.136,0,3.433,3.433,0,0,1,1.3-2.683,3.878,3.878,0,0,1,2.525-.71h3.92l10.316,0,12.373,0,13.051,0,12.166,0,9.9,0h1.934a4.628,4.628,0,0,1,2.438.446,3.418,3.418,0,0,1,1.67,2.435,15.3,15.3,0,0,1,.035,2.26q0,5.741.007,11.481l.008,13.614q0,5.9.007,11.807c0,.776.034,1.563,0,2.337a3.388,3.388,0,0,1-1.373,2.527c-1.238.9-2.918.655-4.368.658l-9.527.017-11.9.02L43.1,54.73q-6.207.007-12.414.01-5.23,0-10.46,0L16.2,54.729a8.69,8.69,0,0,1-2.034-.1A3.426,3.426,0,0,1,11.9,52.768a5.888,5.888,0,0,1-.315-2.579q0-1.2-.006-2.408-.007-2.924-.015-5.847-.018-6.815-.036-13.629-.017-6.467-.033-12.935-.006-2.438-.01-4.878A.568.568,0,0,0,10.345,10.493Z" fill="#211715"/>
      <path id="パス_339" data-name="パス 339" d="M11.008,48.544l3.225,0,6.01-.005,8.052-.008,9.447-.01,10.069-.013,10.023-.014,9.276-.016,7.828-.017q2.848-.007,5.7-.018c.939,0,1.878,0,2.817-.018.084,0,.167,0,.251,0a.569.569,0,0,0,0-1.136c-.7,0-1.393.015-2.089.018q-2.53.013-5.061.018l-7.368.017-9.023.016-9.907.015-10.122.013-9.635.011-8.448.008-6.581.006-3.96,0h-.5a.568.568,0,0,0,0,1.136Z" fill="#211715"/>
      <path id="パス_340" data-name="パス 340" d="M48.881,51.67a1.576,1.576,0,0,1-3.147,0,1.509,1.509,0,0,1,1.53-1.53,1.592,1.592,0,0,1,1.618,1.53Z" fill="#211715"/>
      <path id="パス_341" data-name="パス 341" d="M26.5,29.87c0,2.087.015,6.88.015,7.557l6.8-.014v-8.5H26.5C26.5,28.972,26.5,29.331,26.5,29.87Z" fill="#fff"/>
      <path id="パス_342" data-name="パス 342" d="M37.9,25.909c0-.732,0-1.2,0-1.258h6.818V37.388l-6.8.015C37.908,36.567,37.9,28.965,37.9,25.909Z" fill="#fff"/>
      <path id="パス_343" data-name="パス 343" d="M49.289,21.774V20.39h6.816V37.362l-6.8.016C49.3,36.3,49.293,25.636,49.289,21.774Z" fill="#fff"/>
      <path id="パス_344" data-name="パス 344" d="M60.684,18.921c0-1.645,0-2.727,0-2.793H67.5V37.335l-6.8.015C60.7,36.11,60.688,24.4,60.684,18.921Z" fill="#3f88c9"/>
      <path id="パス_345" data-name="パス 345" d="M27.082,37.429c0-2.478-.01-4.956-.014-7.433q0-.542,0-1.083l-.568.568h6.818l-.568-.568v8.5a.569.569,0,0,0,1.136,0v-8.5a.577.577,0,0,0-.568-.568H26.5a.576.576,0,0,0-.568.568c0,2.384.01,4.767.014,7.151q0,.683,0,1.367A.568.568,0,0,0,27.082,37.429Z" fill="#211715"/>
      <path id="パス_346" data-name="パス 346" d="M38.476,37.405q0-2.336,0-4.671l-.008-6.5q0-.79,0-1.58l-.568.568h6.818l-.568-.568V37.391a.568.568,0,0,0,1.136,0V24.65a.576.576,0,0,0-.568-.568H37.894a.577.577,0,0,0-.568.568q0,2.074,0,4.149,0,3.325.008,6.649,0,.978,0,1.957A.568.568,0,0,0,38.476,37.405Z" fill="#211715"/>
      <path id="パス_347" data-name="パス 347" d="M49.873,37.379q0-3.125-.006-6.25,0-4.334-.009-8.667,0-1.036,0-2.073l-.568.568h6.817l-.568-.568V37.363a.568.568,0,0,0,1.136,0V20.389a.577.577,0,0,0-.568-.568H49.287a.577.577,0,0,0-.568.568q0,2.766.006,5.532,0,4.434.009,8.868,0,1.295,0,2.59a.568.568,0,0,0,1.136,0Z" fill="#211715"/>
      <path id="パス_348" data-name="パス 348" d="M61.266,37.353q0-3.908-.006-7.816,0-5.424-.009-10.848,0-1.281,0-2.562l-.568.568H67.5l-.568-.568V37.337a.569.569,0,0,0,1.136,0V16.128a.577.577,0,0,0-.568-.568H60.681a.577.577,0,0,0-.568.568q0,3.437.006,6.875,0,5.555.009,11.111,0,1.619,0,3.239A.568.568,0,0,0,61.266,37.353Z" fill="#211715"/>
      <path id="パス_349" data-name="パス 349" d="M73.086,36.758l-2.167,0-3.9.008-5.205.011-6.155.014-6.674.015-6.788.015-6.5.014-5.773.012-4.7.009-3.194,0h-.5a.568.568,0,0,0,0,1.136l2.764,0,4.371-.008,5.542-.011,6.364-.014,6.754-.015,6.739-.016,6.318-.014,5.467-.012,4.265-.009,2.628,0h.347a.568.568,0,0,0,0-1.136Z" fill="#211715"/>
    </g>
  </g>
</svg>
