<svg xmlns="http://www.w3.org/2000/svg" xmlns:xlink="http://www.w3.org/1999/xlink" width="102" height="67" viewBox="0 0 102 67">
  <defs>
    <clipPath id="clip-path">
      <rect id="長方形_34" data-name="長方形 34" width="102" height="67" transform="translate(493 154)" fill="#fff" stroke="#707070" stroke-width="1"/>
    </clipPath>
    <clipPath id="clip-path-2">
      <rect id="長方形_31" data-name="長方形 31" width="56" height="58.754" fill="#fff"/>
    </clipPath>
  </defs>
  <g id="pic04" transform="translate(-493 -154)" clip-path="url(#clip-path)">
    <g id="pic04-2" data-name="pic04" transform="translate(516 158)" clip-path="url(#clip-path-2)">
      <path id="パス_378" data-name="パス 378" d="M2.333,50.535C2.325,40.124,2.3,20.486,2.3,18.1,5.325,16,22.137,4.814,28.955.4c6.793,4.4,23.508,15.514,26.62,17.678,0,2.292.033,32.817.033,37.784H2.336C2.336,54.756,2.335,52.879,2.333,50.535Z" fill="#fff"/>
      <path id="パス_379" data-name="パス 379" d="M28.759.739q2.477,1.6,4.939,3.227,3.083,2.027,6.158,4.064,3.166,2.1,6.326,4.2,2.724,1.815,5.444,3.639c1.17.786,2.341,1.571,3.5,2.371l.251.174a.395.395,0,0,0,.535-.14.4.4,0,0,0-.14-.535c-1.06-.737-2.133-1.455-3.2-2.176Q49.94,13.8,47.3,12.042q-3.134-2.09-6.275-4.171-3.114-2.064-6.234-4.118Q32.234,2.068,29.666.4L29.153.064C28.73-.21,28.337.467,28.759.739Z" fill="#211916"/>
      <path id="パス_380" data-name="パス 380" d="M28.759.064q-2.477,1.6-4.939,3.227-3.083,2.027-6.158,4.065-3.166,2.1-6.326,4.2Q8.612,13.372,5.893,15.2c-1.17.786-2.342,1.571-3.5,2.371l-.251.174a.4.4,0,0,0-.14.535.394.394,0,0,0,.535.14c1.06-.737,2.133-1.455,3.2-2.176Q8.367,14.472,11,12.717q3.134-2.09,6.275-4.171,3.114-2.065,6.234-4.118,2.56-1.685,5.128-3.356l.513-.333C29.574.466,29.183-.211,28.759.064Z" fill="#211916"/>
      <path id="パス_381" data-name="パス 381" d="M28.759,3.048q2.477,1.6,4.939,3.227Q36.78,8.3,39.855,10.339q3.166,2.1,6.326,4.2,2.724,1.815,5.444,3.639c1.17.786,2.341,1.571,3.5,2.371l.251.174a.394.394,0,0,0,.535-.14.4.4,0,0,0-.14-.535c-1.06-.737-2.133-1.455-3.2-2.176Q49.94,16.107,47.3,14.351q-3.134-2.09-6.275-4.171-3.114-2.064-6.234-4.118-2.56-1.685-5.128-3.356l-.513-.332C28.73,2.1,28.337,2.775,28.759,3.048Z" fill="#211916"/>
      <path id="パス_382" data-name="パス 382" d="M28.759,2.372Q26.282,4,23.816,5.652,20.723,7.714,17.633,9.78L11.3,14.007q-2.722,1.815-5.45,3.623C4.7,18.393,3.547,19.16,2.378,19.9l-.239.149c-.427.265-.035.941.395.675,1.067-.662,2.112-1.361,3.159-2.052q2.638-1.74,5.265-3.5,3.14-2.093,6.277-4.191L23.5,6.8q2.573-1.716,5.153-3.424l.5-.333c.418-.276.027-.953-.395-.675Z" fill="#211916"/>
      <path id="パス_383" data-name="パス 383" d="M55.186,18.079V19.51l0,2.734,0,3.762q0,2.239,0,4.477,0,2.434,0,4.869,0,2.5,0,5l0,4.8q0,2.165,0,4.329,0,1.77,0,3.54,0,1.22,0,2.44v.4a.391.391,0,0,0,.782,0V53.722l0-3.287,0-4.164q0-2.363,0-4.726,0-2.482,0-4.964t0-4.946l0-4.585q0-1.982,0-3.965,0-1.511,0-3.022,0-.886,0-1.772V18.08a.391.391,0,0,0-.782,0Z" fill="#211916"/>
      <path id="パス_384" data-name="パス 384" d="M1.911,18.079q0,.761,0,1.523,0,1.368,0,2.736,0,1.849,0,3.7,0,2.177,0,4.354l0,4.752q0,2.451.005,4.9,0,2.378,0,4.754,0,2.155,0,4.311,0,1.809,0,3.618,0,1.332,0,2.664v.471a.391.391,0,0,0,.782,0q0-1.192,0-2.385,0-1.7,0-3.407,0-2.094,0-4.187,0-2.327,0-4.655l0-4.868q0-2.416-.005-4.832,0-2.248,0-4.5l0-3.869q0-1.5,0-2.992,0-.924,0-1.848v-.244a.391.391,0,0,0-.782,0Z" fill="#211916"/>
      <path id="パス_385" data-name="パス 385" d="M52.752,52.531V39.442H44.825c.011,3.232,0,10.608,0,13.088" fill="#ac9d91"/>
      <path id="パス_386" data-name="パス 386" d="M53.143,52.531V39.443a.4.4,0,0,0-.391-.391H44.825a.4.4,0,0,0-.391.391q.009,2.566,0,5.132,0,2.849,0,5.7,0,1.129,0,2.259a.391.391,0,0,0,.782,0q0-2.3,0-4.6,0-2.923,0-5.847,0-1.323,0-2.647l-.391.391h7.927l-.391-.391V52.531a.391.391,0,0,0,.782,0Z" fill="#211916"/>
      <path id="パス_387" data-name="パス 387" d="M55.576,34.079v2.678c-5.023,0-10.152,0-14.006,0V34.079Z" fill="#fff"/>
      <path id="パス_388" data-name="パス 388" d="M55.185,34.079v2.678l.391-.391q-5.631,0-11.263,0H41.57l.391.391V34.079l-.391.391H55.575a.391.391,0,0,0,0-.782H41.57a.4.4,0,0,0-.391.391v2.678a.4.4,0,0,0,.391.391l10.657,0,3.349,0a.4.4,0,0,0,.391-.391V34.079A.391.391,0,0,0,55.185,34.079Z" fill="#211916"/>
      <path id="パス_389" data-name="パス 389" d="M41.96,55.738V36.757a.391.391,0,0,0-.782,0V55.738A.391.391,0,0,0,41.96,55.738Z" fill="#211916"/>
      <path id="パス_390" data-name="パス 390" d="M41.57,54.649H55.576a.391.391,0,0,0,0-.782H41.57A.391.391,0,0,0,41.57,54.649Z" fill="#211916"/>
      <path id="パス_391" data-name="パス 391" d="M41.57,53.045H55.576a.391.391,0,0,0,0-.782H41.57A.391.391,0,0,0,41.57,53.045Z" fill="#211916"/>
      <path id="パス_392" data-name="パス 392" d="M46.671,45.895c.01.6,0,1.2,0,1.806a.391.391,0,1,0,.782,0c0-.6.009-1.2,0-1.806a.391.391,0,1,0-.782,0Z" fill="#211916"/>
      <path id="パス_393" data-name="パス 393" d="M2.337,56.253H55.576a.391.391,0,0,0,0-.782H2.337A.391.391,0,0,0,2.337,56.253Z" fill="#211916"/>
      <path id="パス_394" data-name="パス 394" d="M22.635,34.079H.391c.033,8.71,0,17.6,0,24.285H22.635Z" fill="#d6bdac"/>
      <path id="パス_395" data-name="パス 395" d="M22.636,33.688H.391A.4.4,0,0,0,0,34.079q.019,5.069.014,10.138,0,4.726-.01,9.452,0,2.348,0,4.7a.4.4,0,0,0,.391.391H22.636a.4.4,0,0,0,.391-.391V34.079a.391.391,0,0,0-.782,0V58.364l.391-.391H.391l.391.391q0-4.345.009-8.691.006-4.928,0-9.857,0-2.868-.013-5.737l-.391.391H22.636A.391.391,0,0,0,22.636,33.688Z" fill="#211916"/>
      <path id="パス_396" data-name="パス 396" d="M11.893,58.294V34.078a.391.391,0,0,0-.782,0V58.294A.391.391,0,0,0,11.893,58.294Z" fill="#211916"/>
      <path id="パス_397" data-name="パス 397" d="M15.586,58.294V34.078a.391.391,0,0,0-.782,0V58.294A.391.391,0,0,0,15.586,58.294Z" fill="#211916"/>
      <path id="パス_398" data-name="パス 398" d="M19.28,58.294V34.078a.391.391,0,0,0-.782,0V58.294A.391.391,0,0,0,19.28,58.294Z" fill="#211916"/>
      <path id="パス_399" data-name="パス 399" d="M8.2,58.294V34.078a.391.391,0,0,0-.782,0V58.294A.391.391,0,0,0,8.2,58.294Z" fill="#211916"/>
      <path id="パス_400" data-name="パス 400" d="M4.507,58.294V34.078a.391.391,0,0,0-.782,0V58.294A.391.391,0,0,0,4.507,58.294Z" fill="#211916"/>
      <path id="パス_401" data-name="パス 401" d="M27.939,21.795H22.746c.007,1.748,0,3.533,0,4.874h5.193Z" fill="#9fc0e5"/>
      <path id="パス_402" data-name="パス 402" d="M27.94,21.4H22.746a.4.4,0,0,0-.391.391c.007,1.625,0,3.249,0,4.874a.4.4,0,0,0,.391.391H27.94a.4.4,0,0,0,.391-.391V21.795a.391.391,0,0,0-.782,0v4.874l.391-.391H22.746l.391.391c0-1.625.007-3.249,0-4.874l-.391.391H27.94A.391.391,0,0,0,27.94,21.4Z" fill="#211916"/>
      <path id="パス_403" data-name="パス 403" d="M35.166,21.795H29.973c.007,1.748,0,3.533,0,4.874h5.193Z" fill="#9fc0e5"/>
      <path id="パス_404" data-name="パス 404" d="M35.166,21.4H29.973a.4.4,0,0,0-.391.391c.007,1.625,0,3.249,0,4.874a.4.4,0,0,0,.391.391h5.193a.4.4,0,0,0,.391-.391V21.795a.391.391,0,0,0-.782,0v4.874l.391-.391H29.973l.391.391c0-1.625.007-3.249,0-4.874l-.391.391h5.193A.391.391,0,0,0,35.166,21.4Z" fill="#211916"/>
      <path id="パス_405" data-name="パス 405" d="M27.939,14.893H22.746c.007,1.748,0,3.533,0,4.874h5.193Z" fill="#9fc0e5"/>
      <path id="パス_406" data-name="パス 406" d="M27.94,14.5H22.746a.4.4,0,0,0-.391.391c.007,1.625,0,3.249,0,4.874a.4.4,0,0,0,.391.391H27.94a.4.4,0,0,0,.391-.391V14.894a.391.391,0,0,0-.782,0v4.874l.391-.391H22.746l.391.391c0-1.625.007-3.249,0-4.874l-.391.391H27.94A.391.391,0,0,0,27.94,14.5Z" fill="#211916"/>
      <path id="パス_407" data-name="パス 407" d="M35.166,14.893H29.973c.007,1.748,0,3.533,0,4.874h5.193Z" fill="#9fc0e5"/>
      <path id="パス_408" data-name="パス 408" d="M35.166,14.5H29.973a.4.4,0,0,0-.391.391c.007,1.625,0,3.249,0,4.874a.4.4,0,0,0,.391.391h5.193a.4.4,0,0,0,.391-.391V14.894a.391.391,0,0,0-.782,0v4.874l.391-.391H29.973l.391.391c0-1.625.007-3.249,0-4.874l-.391.391h5.193A.391.391,0,0,0,35.166,14.5Z" fill="#211916"/>
    </g>
  </g>
</svg>
