<svg xmlns="http://www.w3.org/2000/svg" xmlns:xlink="http://www.w3.org/1999/xlink" width="102" height="67" viewBox="0 0 102 67">
  <defs>
    <clipPath id="clip-path">
      <rect id="長方形_33" data-name="長方形 33" width="102" height="67" transform="translate(366 157)" fill="#fff" stroke="#707070" stroke-width="1"/>
    </clipPath>
    <clipPath id="clip-path-2">
      <rect id="長方形_30" data-name="長方形 30" width="101.674" height="42" fill="#fff"/>
    </clipPath>
  </defs>
  <g id="pic03" transform="translate(-366 -157)" clip-path="url(#clip-path)">
    <g id="pic03-2" data-name="pic03" transform="translate(366 170)" clip-path="url(#clip-path-2)">
      <path id="パス_350" data-name="パス 350" d="M101.092,20.1l-.026-.044a1.322,1.322,0,0,0-.19-.575,5.055,5.055,0,0,0-2.884-1.916,38.947,38.947,0,0,0-10.968-1.3c-1.817,0-7.108.059-10.968,1.3a5.053,5.053,0,0,0-2.883,1.916,1.31,1.31,0,0,0-.19.575l-.026.044V36.867a2.546,2.546,0,0,0,1.519,2.541,18.386,18.386,0,0,0,5.947,1.648c1.706.193,4.743.389,6.6.389,1.889,0,4.889-.2,6.595-.389a18.385,18.385,0,0,0,5.947-1.648,2.809,2.809,0,0,0,1.53-2.541Z" fill="#ffe176"/>
      <path id="パス_351" data-name="パス 351" d="M87.024,15.7c-1.705,0-3.412.062-5.11.22a24.447,24.447,0,0,0-6.577,1.306,5.029,5.029,0,0,0-2.645,1.97,2.193,2.193,0,0,0,.82,2.835A8.748,8.748,0,0,0,76.4,23.4a21.848,21.848,0,0,0,3.266.729,54.047,54.047,0,0,0,6.313.472,56.165,56.165,0,0,0,6.362-.248,22.68,22.68,0,0,0,6.265-1.286,5.581,5.581,0,0,0,2.584-1.707,1.978,1.978,0,0,0,.4-1.556,2.732,2.732,0,0,0-.855-1.373,7.163,7.163,0,0,0-2.947-1.51,24.459,24.459,0,0,0-3.418-.738,47.009,47.009,0,0,0-6.3-.471q-.523-.007-1.047-.007a.557.557,0,0,0,0,1.113c1.721,0,3.442.054,5.156.213a22.794,22.794,0,0,1,6.274,1.288,5.32,5.32,0,0,1,1.227.667,2.029,2.029,0,0,1,.821,1.035c.146.773-.917,1.379-1.487,1.663a13.535,13.535,0,0,1-2.865.969,21.576,21.576,0,0,1-2.8.491c-2,.21-4.015.338-6.024.358a59.532,59.532,0,0,1-5.958-.293,20.642,20.642,0,0,1-5.714-1.248,3.574,3.574,0,0,1-2.045-1.492c-.354-.8.757-1.532,1.35-1.853a11.117,11.117,0,0,1,2.784-.936,28.688,28.688,0,0,1,3.1-.531,50.792,50.792,0,0,1,5.378-.327q.4,0,.8,0A.557.557,0,0,0,87.024,15.7Z" fill="#211715"/>
      <path id="パス_352" data-name="パス 352" d="M72.4,20.082c0,1.739-.007,3.477,0,5.216a3.376,3.376,0,0,0,.616,2.095,4.624,4.624,0,0,0,1.89,1.3,19.546,19.546,0,0,0,5.581,1.385c1.835.2,3.686.317,5.532.366a54.482,54.482,0,0,0,5.547-.187,29.093,29.093,0,0,0,5.409-.824c1.719-.464,3.792-1.1,4.474-2.931a8.675,8.675,0,0,0,.2-2.919V20.193a.556.556,0,0,0-1.112,0c0,1.7.007,3.392,0,5.089a2.279,2.279,0,0,1-.646,1.656,5.337,5.337,0,0,1-2.075,1.082,21.915,21.915,0,0,1-5.11,1.034c-1.814.167-3.64.282-5.462.3-1.8.013-3.6-.1-5.393-.251a24.334,24.334,0,0,1-5.067-.9,9.367,9.367,0,0,1-2.3-.974,1.888,1.888,0,0,1-.943-1.434,7.785,7.785,0,0,1-.023-.984V20.082a.557.557,0,0,0-1.113,0Z" fill="#211715"/>
      <path id="パス_353" data-name="パス 353" d="M72.4,25.851c0,1.739-.007,3.477,0,5.216a3.375,3.375,0,0,0,.616,2.095,4.626,4.626,0,0,0,1.89,1.3,19.554,19.554,0,0,0,5.581,1.385c1.835.2,3.686.317,5.532.367a54.512,54.512,0,0,0,5.547-.187,29.1,29.1,0,0,0,5.409-.824c1.719-.462,3.792-1.1,4.474-2.93a8.676,8.676,0,0,0,.2-2.919V25.963a.556.556,0,0,0-1.112,0c0,1.7.007,3.392,0,5.088a2.279,2.279,0,0,1-.646,1.656,5.337,5.337,0,0,1-2.075,1.082,21.9,21.9,0,0,1-5.11,1.034c-1.814.166-3.64.282-5.462.3-1.8.013-3.6-.1-5.393-.251a24.334,24.334,0,0,1-5.067-.9,9.367,9.367,0,0,1-2.3-.974,1.888,1.888,0,0,1-.943-1.434,7.786,7.786,0,0,1-.023-.984V25.851a.557.557,0,0,0-1.113,0Z" fill="#211715"/>
      <path id="パス_354" data-name="パス 354" d="M72.4,31.622c0,1.739-.007,3.477,0,5.216a3.376,3.376,0,0,0,.616,2.095,4.623,4.623,0,0,0,1.89,1.3,19.543,19.543,0,0,0,5.581,1.385c1.835.2,3.686.317,5.532.367a54.482,54.482,0,0,0,5.547-.187,29.092,29.092,0,0,0,5.409-.824c1.719-.462,3.792-1.1,4.474-2.931a8.673,8.673,0,0,0,.2-2.919V31.732a.556.556,0,0,0-1.112,0c0,1.7.007,3.392,0,5.089a2.279,2.279,0,0,1-.646,1.656,5.337,5.337,0,0,1-2.075,1.082,21.9,21.9,0,0,1-5.11,1.034c-1.814.166-3.64.282-5.462.3-1.8.013-3.6-.1-5.393-.251a24.334,24.334,0,0,1-5.067-.9,9.367,9.367,0,0,1-2.3-.974,1.888,1.888,0,0,1-.943-1.434,7.786,7.786,0,0,1-.023-.984V31.622a.557.557,0,0,0-1.113,0Z" fill="#211715"/>
      <path id="パス_355" data-name="パス 355" d="M86.441,6.239c-.051,3.537-.119,7.075-.178,10.612q-.027,1.653-.051,3.306a.557.557,0,0,0,1.113,0c.05-3.538.119-7.075.178-10.612q.027-1.653.051-3.307A.557.557,0,0,0,86.441,6.239Z" fill="#211715"/>
      <path id="パス_356" data-name="パス 356" d="M99.844,2.555a.953.953,0,0,0-.514-.867A7.484,7.484,0,0,0,95.572.565a8.779,8.779,0,0,0-4.91,1.219A7.418,7.418,0,0,0,87.43,6.615a.286.286,0,0,0,.144.3c.788.485,4.1,2.277,7.47,1.21a7.508,7.508,0,0,0,3.89-2.682A6.229,6.229,0,0,0,99.844,2.555Z" fill="#6dbf6b"/>
      <path id="パス_357" data-name="パス 357" d="M74.205,2.555a.953.953,0,0,1,.514-.867A7.483,7.483,0,0,1,78.477.565a8.779,8.779,0,0,1,4.91,1.219,7.416,7.416,0,0,1,3.231,4.831.286.286,0,0,1-.144.3c-.788.485-4.1,2.277-7.47,1.21a7.508,7.508,0,0,1-3.89-2.682A6.227,6.227,0,0,1,74.205,2.555Z" fill="#6dbf6b"/>
      <path id="パス_358" data-name="パス 358" d="M100.4,2.555c.033-.781-.579-1.253-1.2-1.591a7.578,7.578,0,0,0-1.818-.7A9.49,9.49,0,0,0,93.037.24,7.884,7.884,0,0,0,87.929,3.8,8.55,8.55,0,0,0,86.951,6.2a2.411,2.411,0,0,0-.077.411.9.9,0,0,0,.5.828,8.652,8.652,0,0,0,.962.5,9.554,9.554,0,0,0,7.271.576A8.221,8.221,0,0,0,98.69,6.6a5.639,5.639,0,0,0,1.29-2.012,8.182,8.182,0,0,0,.42-2.037A.56.56,0,0,0,99.844,2a.568.568,0,0,0-.556.556,5.234,5.234,0,0,1-1.143,3,6.88,6.88,0,0,1-2.428,1.731c-.056.025-.049.023-.153.064q-.1.042-.211.081-.2.074-.4.139a6.786,6.786,0,0,1-1.774.323,9.053,9.053,0,0,1-3.426-.563,10.273,10.273,0,0,1-1.18-.5q-.222-.111-.44-.232l-.153-.088a.48.48,0,0,0-.072-.043c-.2-.072.365-.1.065.273a1.1,1.1,0,0,0,.07-.31q.052-.21.116-.417a7.074,7.074,0,0,1,.379-.988,6.647,6.647,0,0,1,1.8-2.336,6.878,6.878,0,0,1,1.915-1.052,8.515,8.515,0,0,1,3.943-.464,7.168,7.168,0,0,1,1.909.49,5.931,5.931,0,0,1,.749.381c.2.122.451.245.44.512C99.257,3.271,100.37,3.27,100.4,2.555Z" fill="#211715"/>
      <path id="パス_359" data-name="パス 359" d="M74.762,2.555c-.018-.417.7-.669,1.013-.815a6.83,6.83,0,0,1,1.648-.5,8.252,8.252,0,0,1,3.695.175,6.746,6.746,0,0,1,4.106,3.024,6.868,6.868,0,0,1,.793,1.967c.013.054.023.107.036.161.026.1-.023.06.013-.009.059-.116.157-.124.035-.067-.063.029-.122.071-.183.105a10.817,10.817,0,0,1-1,.5,8.345,8.345,0,0,1-6.195.348A7.114,7.114,0,0,1,77.564,6.9a6.461,6.461,0,0,1-1.357-1.02A4.392,4.392,0,0,1,75.142,4.3a7.045,7.045,0,0,1-.381-1.742A.572.572,0,0,0,74.205,2a.56.56,0,0,0-.556.556,6.529,6.529,0,0,0,1.41,3.72,7.589,7.589,0,0,0,2.767,2,8.492,8.492,0,0,0,3.293.742,10.223,10.223,0,0,0,3.83-.742,12.753,12.753,0,0,0,1.327-.6c.435-.232.868-.464.894-1.026a2.986,2.986,0,0,0-.189-.933,8.891,8.891,0,0,0-.48-1.233,7.743,7.743,0,0,0-4.643-4A9.5,9.5,0,0,0,77.127.166a7.777,7.777,0,0,0-2.135.722c-.668.342-1.378.825-1.343,1.667C73.679,3.268,74.792,3.272,74.762,2.555Z" fill="#211715"/>
      <path id="パス_360" data-name="パス 360" d="M64.894,25.7v-.352l-.216-.362a5.057,5.057,0,0,0-2.883-1.916,38.956,38.956,0,0,0-10.968-1.3c-1.817,0-7.108.059-10.968,1.3a5.054,5.054,0,0,0-2.884,1.916l-.216.362V36.61a2.545,2.545,0,0,0,1.519,2.541A18.373,18.373,0,0,0,44.224,40.8c1.706.193,4.743.389,6.6.389,1.889,0,4.889-.2,6.595-.389a18.376,18.376,0,0,0,5.946-1.648,2.812,2.812,0,0,0,1.53-2.541V25.7Z" fill="#ffe176"/>
      <path id="パス_361" data-name="パス 361" d="M50.826,21.215c-1.705,0-3.412.062-5.11.22a24.446,24.446,0,0,0-6.577,1.306,5.028,5.028,0,0,0-2.645,1.97,2.193,2.193,0,0,0,.82,2.835,8.739,8.739,0,0,0,2.892,1.363,21.828,21.828,0,0,0,3.266.729,54.049,54.049,0,0,0,6.313.472,56.235,56.235,0,0,0,6.362-.248,22.691,22.691,0,0,0,6.265-1.286A5.575,5.575,0,0,0,65,26.869a1.98,1.98,0,0,0,.4-1.556,2.733,2.733,0,0,0-.854-1.373,7.171,7.171,0,0,0-2.947-1.51,24.512,24.512,0,0,0-3.419-.737,47.058,47.058,0,0,0-6.3-.471q-.523-.007-1.047-.007a.557.557,0,0,0,0,1.113c1.721,0,3.442.054,5.156.213a22.806,22.806,0,0,1,6.274,1.288,5.318,5.318,0,0,1,1.227.667,2.027,2.027,0,0,1,.821,1.035c.146.772-.917,1.379-1.487,1.663a13.526,13.526,0,0,1-2.865.969,21.559,21.559,0,0,1-2.8.49c-2,.211-4.015.338-6.023.358a59.592,59.592,0,0,1-5.958-.293,20.641,20.641,0,0,1-5.714-1.249,3.575,3.575,0,0,1-2.045-1.492c-.354-.8.757-1.532,1.35-1.853a11.124,11.124,0,0,1,2.784-.935,28.686,28.686,0,0,1,3.1-.531,50.8,50.8,0,0,1,5.378-.328q.4,0,.8,0A.557.557,0,0,0,50.826,21.215Z" fill="#211715"/>
      <path id="パス_362" data-name="パス 362" d="M36.2,25.594c0,1.739-.007,3.477,0,5.217a3.374,3.374,0,0,0,.616,2.095,4.622,4.622,0,0,0,1.89,1.3,19.546,19.546,0,0,0,5.581,1.385c1.835.2,3.686.317,5.532.367a54.511,54.511,0,0,0,5.547-.187,29.107,29.107,0,0,0,5.409-.824c1.719-.462,3.792-1.1,4.474-2.931a8.669,8.669,0,0,0,.2-2.919V25.7a.557.557,0,0,0-1.113,0c0,1.7.007,3.392,0,5.088a2.278,2.278,0,0,1-.646,1.656,5.338,5.338,0,0,1-2.075,1.082,21.9,21.9,0,0,1-5.11,1.034c-1.814.166-3.639.282-5.462.3-1.8.013-3.6-.1-5.393-.251a24.334,24.334,0,0,1-5.067-.9,9.367,9.367,0,0,1-2.3-.974,1.888,1.888,0,0,1-.943-1.434,7.789,7.789,0,0,1-.023-.984V25.594a.557.557,0,0,0-1.113,0Z" fill="#211715"/>
      <path id="パス_363" data-name="パス 363" d="M36.2,31.365c0,1.739-.007,3.477,0,5.216a3.374,3.374,0,0,0,.616,2.095,4.622,4.622,0,0,0,1.89,1.3,19.546,19.546,0,0,0,5.581,1.385c1.835.2,3.686.317,5.532.367a54.51,54.51,0,0,0,5.547-.187,29.1,29.1,0,0,0,5.409-.824c1.719-.464,3.792-1.1,4.474-2.931a8.668,8.668,0,0,0,.2-2.919V31.474a.557.557,0,0,0-1.113,0c0,1.7.007,3.393,0,5.089a2.278,2.278,0,0,1-.646,1.656A5.338,5.338,0,0,1,61.616,39.3a21.912,21.912,0,0,1-5.11,1.035c-1.814.166-3.639.282-5.462.3-1.8.013-3.6-.1-5.393-.251a24.332,24.332,0,0,1-5.067-.9,9.358,9.358,0,0,1-2.3-.974,1.887,1.887,0,0,1-.944-1.434,7.787,7.787,0,0,1-.023-.984V31.365a.557.557,0,0,0-1.113,0Z" fill="#211715"/>
      <path id="パス_364" data-name="パス 364" d="M50.249,14.842c-.052,3.609-.126,7.218-.178,10.827a.557.557,0,0,0,1.113,0c.052-3.609.126-7.218.178-10.827A.557.557,0,0,0,50.249,14.842Z" fill="#211715"/>
      <path id="パス_365" data-name="パス 365" d="M60.8,11.977a.742.742,0,0,0-.4-.675,5.823,5.823,0,0,0-2.923-.873,6.829,6.829,0,0,0-3.82.948,5.768,5.768,0,0,0-2.513,3.758.222.222,0,0,0,.112.233,7.549,7.549,0,0,0,5.811.942,5.837,5.837,0,0,0,3.026-2.086A4.839,4.839,0,0,0,60.8,11.977Z" fill="#6dbf6b"/>
      <path id="パス_366" data-name="パス 366" d="M40.853,11.977a.742.742,0,0,1,.4-.675,5.823,5.823,0,0,1,2.923-.873,6.829,6.829,0,0,1,3.82.948,5.769,5.769,0,0,1,2.513,3.758.222.222,0,0,1-.112.233,7.549,7.549,0,0,1-5.811.942,5.837,5.837,0,0,1-3.026-2.086A4.843,4.843,0,0,1,40.853,11.977Z" fill="#6dbf6b"/>
      <path id="パス_367" data-name="パス 367" d="M61.354,11.977c.03-1.131-1.467-1.651-2.361-1.882a7.488,7.488,0,0,0-3.535-.036,6.252,6.252,0,0,0-4.04,2.828,6.76,6.76,0,0,0-.767,1.879.908.908,0,0,0,.345,1.1,5.975,5.975,0,0,0,.759.4,7.571,7.571,0,0,0,5.764.477,6.571,6.571,0,0,0,2.438-1.5,5.135,5.135,0,0,0,1.4-3.267.56.56,0,0,0-.556-.556.569.569,0,0,0-.556.556,3.946,3.946,0,0,1-.858,2.252,5.283,5.283,0,0,1-1.85,1.318,1.051,1.051,0,0,1-.1.043l-.164.063c-.1.036-.2.07-.3.1a5.169,5.169,0,0,1-1.371.251,6.96,6.96,0,0,1-2.629-.436A7.569,7.569,0,0,1,52.1,15.2q-.159-.079-.315-.165c-.046-.026-.093-.059-.141-.08-.017-.007-.043-.033-.06-.035-.167-.017.2.288.1.339a2.533,2.533,0,0,0,.143-.561,5.11,5.11,0,0,1,.269-.711A5.037,5.037,0,0,1,54.861,11.4a6.545,6.545,0,0,1,2.979-.39,5.572,5.572,0,0,1,1.494.36,4.332,4.332,0,0,1,.58.285c.129.075.332.154.328.319A.557.557,0,0,0,61.354,11.977Z" fill="#211715"/>
      <path id="パス_368" data-name="パス 368" d="M41.41,11.977c-.007-.261.6-.475.8-.562a5.472,5.472,0,0,1,1.25-.356,6.3,6.3,0,0,1,2.793.166A5.082,5.082,0,0,1,49.35,13.56a4.935,4.935,0,0,1,.537,1.4c.009.041.02.082.027.123.01.06,0,.042,0,.042v.032l.178-.257c-.007,0-.045.03-.056.033a.844.844,0,0,0-.153.088,8.179,8.179,0,0,1-.759.374,6.389,6.389,0,0,1-4.719.263,5.531,5.531,0,0,1-1.894-1.173,3.93,3.93,0,0,1-1.1-2.511.572.572,0,0,0-.556-.556.56.56,0,0,0-.556.556,5.251,5.251,0,0,0,1.1,2.936,5.979,5.979,0,0,0,2.245,1.631,7.3,7.3,0,0,0,5.656-.02,10.164,10.164,0,0,0,1.051-.483c.36-.194.654-.392.679-.847a4.145,4.145,0,0,0-.5-1.785,6.072,6.072,0,0,0-3.671-3.163A7.524,7.524,0,0,0,43.118,10a6.179,6.179,0,0,0-1.73.586c-.561.289-1.111.7-1.093,1.4A.558.558,0,0,0,41.41,11.977Z" fill="#211715"/>
      <path id="パス_369" data-name="パス 369" d="M1.56,38.361a2.469,2.469,0,0,1-1-2.214V30.659L.775,30.3a5.056,5.056,0,0,1,2.883-1.916c3.86-1.245,9.151-1.3,10.968-1.3a38.942,38.942,0,0,1,10.968,1.3A5.054,5.054,0,0,1,28.478,30.3l.216.362v5.488a2.812,2.812,0,0,1-1.53,2.541,18.375,18.375,0,0,1-5.946,1.648c-1.706.193-4.706.389-6.6.389-1.855,0-4.891-.2-6.6-.389a18.374,18.374,0,0,1-5.946-1.648A4.658,4.658,0,0,1,1.56,38.361Z" fill="#ffe176"/>
      <path id="パス_370" data-name="パス 370" d="M14.628,26.521c-1.705,0-3.412.062-5.11.219A24.447,24.447,0,0,0,2.94,28.047,5.026,5.026,0,0,0,.3,30.018a2.193,2.193,0,0,0,.82,2.835,8.739,8.739,0,0,0,2.892,1.363,21.831,21.831,0,0,0,3.266.729,54.05,54.05,0,0,0,6.313.472,56.213,56.213,0,0,0,6.362-.248,22.691,22.691,0,0,0,6.265-1.286A5.575,5.575,0,0,0,28.8,32.175a1.979,1.979,0,0,0,.4-1.556,2.732,2.732,0,0,0-.854-1.373,7.172,7.172,0,0,0-2.947-1.51A24.47,24.47,0,0,0,21.974,27a47.059,47.059,0,0,0-6.3-.471q-.523-.007-1.047-.007a.557.557,0,0,0,0,1.113c1.721,0,3.442.054,5.156.213a22.8,22.8,0,0,1,6.274,1.288,5.323,5.323,0,0,1,1.226.667,2.027,2.027,0,0,1,.821,1.035c.146.772-.917,1.379-1.487,1.663a13.53,13.53,0,0,1-2.865.968,21.6,21.6,0,0,1-2.8.491c-2,.21-4.015.338-6.023.358a59.592,59.592,0,0,1-5.958-.292,20.65,20.65,0,0,1-5.714-1.248,3.574,3.574,0,0,1-2.045-1.492c-.354-.8.757-1.533,1.35-1.853A11.126,11.126,0,0,1,5.346,28.5a28.686,28.686,0,0,1,3.1-.531,50.793,50.793,0,0,1,5.378-.328q.4,0,.8,0A.557.557,0,0,0,14.628,26.521Z" fill="#211715"/>
      <path id="パス_371" data-name="パス 371" d="M0,30.9C0,32.64,0,34.379,0,36.117A3.375,3.375,0,0,0,.62,38.212a4.622,4.622,0,0,0,1.89,1.3A19.545,19.545,0,0,0,8.09,40.9c1.835.2,3.686.317,5.532.366a54.481,54.481,0,0,0,5.547-.187,29.1,29.1,0,0,0,5.409-.824c1.719-.464,3.791-1.1,4.474-2.931a8.669,8.669,0,0,0,.2-2.919V31.011a.557.557,0,0,0-1.113,0c0,1.7.007,3.393,0,5.089a2.279,2.279,0,0,1-.646,1.656,5.338,5.338,0,0,1-2.075,1.082,21.916,21.916,0,0,1-5.11,1.035c-1.814.166-3.639.282-5.462.3-1.8.013-3.6-.1-5.393-.251a24.342,24.342,0,0,1-5.067-.9,9.361,9.361,0,0,1-2.3-.974,1.887,1.887,0,0,1-.943-1.434,7.778,7.778,0,0,1-.023-.984V30.9A.557.557,0,0,0,0,30.9Z" fill="#211715"/>
      <path id="パス_372" data-name="パス 372" d="M22.3,37.28c.016.921.036,1.841.055,2.762a.556.556,0,0,0,1.113,0c-.019-.92-.039-1.841-.055-2.762a.556.556,0,1,0-1.113,0Z" fill="#211715"/>
      <path id="パス_373" data-name="パス 373" d="M24.452,19.666a.742.742,0,0,0-.4-.675,5.822,5.822,0,0,0-2.923-.874,6.831,6.831,0,0,0-3.82.948A5.77,5.77,0,0,0,14.8,22.824a.223.223,0,0,0,.112.233A7.55,7.55,0,0,0,20.718,24a5.834,5.834,0,0,0,3.026-2.086A4.84,4.84,0,0,0,24.452,19.666Z" fill="#6dbf6b"/>
      <path id="パス_374" data-name="パス 374" d="M14.149,22.882c-.039,2.7-.118,5.4-.156,8.093a.557.557,0,0,0,1.113,0c.039-2.7.117-5.4.156-8.093A.557.557,0,0,0,14.149,22.882Z" fill="#211715"/>
      <path id="パス_375" data-name="パス 375" d="M25.008,19.666c.03-1.131-1.467-1.651-2.361-1.882a7.489,7.489,0,0,0-3.535-.036,6.255,6.255,0,0,0-4.039,2.828,6.765,6.765,0,0,0-.767,1.879.908.908,0,0,0,.345,1.1,6,6,0,0,0,.759.4,7.572,7.572,0,0,0,5.764.477,6.568,6.568,0,0,0,2.438-1.5,5.133,5.133,0,0,0,1.4-3.267.56.56,0,0,0-.556-.556.569.569,0,0,0-.556.556,3.946,3.946,0,0,1-.858,2.253,5.283,5.283,0,0,1-1.85,1.318.981.981,0,0,1-.1.043l-.164.063c-.1.036-.2.069-.3.1a5.181,5.181,0,0,1-1.371.251,6.965,6.965,0,0,1-2.629-.436,7.64,7.64,0,0,1-.869-.371q-.159-.079-.315-.165c-.046-.026-.093-.059-.141-.08-.017-.007-.043-.034-.059-.035-.167-.017.195.288.1.339a2.527,2.527,0,0,0,.143-.561,5.124,5.124,0,0,1,.27-.711,5.037,5.037,0,0,1,2.767-2.583,6.543,6.543,0,0,1,2.978-.39,5.592,5.592,0,0,1,1.494.361,4.336,4.336,0,0,1,.58.285c.129.075.332.154.328.319A.557.557,0,0,0,25.008,19.666Z" fill="#211715"/>
      <path id="パス_376" data-name="パス 376" d="M58.5,37.743c.016.921.036,1.841.055,2.762a.556.556,0,1,0,1.113,0c-.019-.92-.039-1.841-.055-2.762a.556.556,0,0,0-1.113,0Z" fill="#211715"/>
      <path id="パス_377" data-name="パス 377" d="M94.7,38c.016.921.036,1.841.055,2.762a.556.556,0,0,0,1.113,0c-.019-.921-.039-1.841-.055-2.762A.556.556,0,0,0,94.7,38Z" fill="#211715"/>
    </g>
  </g>
</svg>
