<svg width="17" height="17" viewBox="0 0 17 17" fill="none" xmlns="http://www.w3.org/2000/svg">
<circle cx="8.5" cy="8.5" r="8.5" fill="#A0A400"/>
<path d="M8.64 13.13C9.94 13.13 10.99 12.35 10.99 11.04C10.99 10.04 10.3 9.38 9.44 9.18V9.14C10.21 8.85 10.74 8.26 10.74 7.37C10.74 6.21 9.84 5.53 8.61 5.53C7.76 5.53 7.11 5.9 6.56 6.41L7.05 6.99C7.46 6.57 7.98 6.28 8.57 6.28C9.33 6.28 9.81 6.74 9.81 7.44C9.81 8.23 9.29 8.84 7.78 8.84V9.54C9.47 9.54 10.06 10.13 10.06 11C10.06 11.85 9.44 12.37 8.57 12.37C7.74 12.37 7.18 11.98 6.75 11.53L6.29 12.13C6.77 12.65 7.49 13.13 8.64 13.13Z" fill="black"/>
</svg>
