<svg width="17" height="17" viewBox="0 0 17 17" fill="none" xmlns="http://www.w3.org/2000/svg">
<circle cx="8.5" cy="8.5" r="8.5" fill="#FF7272"/>
<path d="M8.61 13.13C9.85 13.13 11.01 12.22 11.01 10.61C11.01 9 10.02 8.28 8.8 8.28C8.36 8.28 8.04 8.39 7.71 8.57L7.89 6.45H10.66V5.66H7.09L6.86 9.1L7.35 9.4C7.77 9.12 8.08 8.97 8.57 8.97C9.49 8.97 10.09 9.59 10.09 10.64C10.09 11.71 9.39 12.37 8.53 12.37C7.68 12.37 7.15 11.98 6.73 11.56L6.28 12.16C6.77 12.65 7.47 13.13 8.61 13.13Z" fill="black"/>
</svg>
