<svg xmlns="http://www.w3.org/2000/svg" xmlns:xlink="http://www.w3.org/1999/xlink" width="45" height="45" viewBox="0 0 45 45">
  <defs>
    <clipPath id="clip-path">
      <rect id="長方形_145" data-name="長方形 145" width="30" height="40" transform="translate(1015 281)" fill="#fff" stroke="#707070" stroke-width="1"/>
    </clipPath>
  </defs>
  <g id="mem01" transform="translate(-991 -400)">
    <rect id="長方形_147" data-name="長方形 147" width="45" height="45" rx="3" transform="translate(991 400)" fill="#92d3df"/>
    <g id="mem01-2" data-name="mem01" transform="translate(-16 124)" clip-path="url(#clip-path)">
      <g id="mem01-3" data-name="mem01" transform="translate(1015 282.827)">
        <path id="パス_1294" data-name="パス 1294" d="M11.551,48.145a3.942,3.942,0,0,0-1.652,0l-.27.066a3.7,3.7,0,0,0-2.9,3.818L8.989,90.948v.231L3.358,94.1l1.485.729,7.584-1.925.1-1.927,1.617-34,.336-4.883A3.7,3.7,0,0,0,11.551,48.145Z" fill="#2d3c58"/>
        <path id="パス_1295" data-name="パス 1295" d="M12.528,90.948l-.1,1.959L4.843,94.832,3.358,94.1l5.631-2.89v-.265Z" fill="#3f5272"/>
        <path id="パス_1296" data-name="パス 1296" d="M18.461,48.379a3.9,3.9,0,0,1,1.652,0l.27.066a3.7,3.7,0,0,1,2.9,3.817L21.023,91.18v.233l5.628,2.89-1.483.729-7.584-1.925-.1-1.927-1.62-34L15.528,52.3A3.662,3.662,0,0,1,18.461,48.379Z" fill="#2d3c58"/>
        <path id="パス_1297" data-name="パス 1297" d="M17.483,91.213l.1,1.924,7.584,1.927,1.448-.731-5.628-2.886.034-.233Z" fill="#3f5272"/>
        <path id="パス_1298" data-name="パス 1298" d="M7.371,51.666a.69.69,0,0,0-.675.928c.876,2.59.741,4.252,6.237,4.451l4.617.066a6.043,6.043,0,0,0,6.136-5.445Z" fill="#2d3c58"/>
        <path id="パス_1299" data-name="パス 1299" d="M23.552,51.963l-2.261.6a23.723,23.723,0,0,1-11.526.165l-3.338-.764L6.9,28.687a1.578,1.578,0,0,1,1.046-1.429l2.528-.864,1.956-.663a9.047,9.047,0,0,1,6.067.1l1.011.363,2.8,1.031a1.536,1.536,0,0,1,1.011,1.426Z" fill="#a56052"/>
        <path id="パス_1300" data-name="パス 1300" d="M16.1,53.624H13.876a.494.494,0,0,1-.506-.5V51.9a.494.494,0,0,1,.506-.5H16.1a.494.494,0,0,1,.506.5v1.23A.476.476,0,0,1,16.1,53.624Z" fill="#fdcd09"/>
        <path id="パス_1301" data-name="パス 1301" d="M23.552,50.338l-2.261.6A23.752,23.752,0,0,1,9.765,51.1l-3.338-.764L6.9,27.059a1.578,1.578,0,0,1,1.046-1.429l2.528-.862,1.956-.665a9.062,9.062,0,0,1,6.067.1l1.011.366L22.3,25.6a1.539,1.539,0,0,1,1.011,1.426Z" fill="#7da8ff"/>
        <path id="パス_1302" data-name="パス 1302" d="M19.032,27.425a4.006,4.006,0,0,0-4.146-3.852,4.006,4.006,0,0,0-4.146,3.852A3.842,3.842,0,0,0,12.9,30.811a2.051,2.051,0,0,0-.3,1.031V47.88a.912.912,0,0,0,.27.631l1.011,1.029a.845.845,0,0,0,1.247,0l1.011-1.029a.9.9,0,0,0,.27-.631V31.842a1.9,1.9,0,0,0-.169-.764A3.916,3.916,0,0,0,19.032,27.425Z" fill="rgba(125,168,255,0.5)"/>
        <path id="パス_1303" data-name="パス 1303" d="M16.91,28.82a2.106,2.106,0,0,1-1.483,1.959,2.137,2.137,0,0,1-1.821-1.694,2.176,2.176,0,0,1,1.551-1.959C15.933,27.06,16.876,28.123,16.91,28.82Z" fill="#e56d4e"/>
        <path id="パス_1304" data-name="パス 1304" d="M17.114,48.379l-1.011.994a.9.9,0,0,1-1.249,0l-1.011-.994a.91.91,0,0,1-.268-.631V32.34a1.921,1.921,0,0,1,3.841,0V47.78A.952.952,0,0,1,17.114,48.379Z" fill="#e56d4e"/>
        <path id="パス_1305" data-name="パス 1305" d="M15.257,22.744a3.745,3.745,0,0,0-3.876,3.42,3.235,3.235,0,0,0,2.224,3.187l1.787-1.858,1.483,1.76a3.548,3.548,0,0,0,2.261-3.088A3.748,3.748,0,0,0,15.257,22.744Z" fill="#b0dbff"/>
        <path id="パス_1306" data-name="パス 1306" d="M17.72,19.123v5.312a2.465,2.465,0,0,1-.069.5,2.322,2.322,0,0,1-4.582-.5V19.123a2.311,2.311,0,0,1,2.324-2.29,2.446,2.446,0,0,1,1.652.665A2.372,2.372,0,0,1,17.72,19.123Z" fill="#eda280"/>
        <path id="パス_1307" data-name="パス 1307" d="M17.72,19.123v5.313a2.458,2.458,0,0,1-.069.5h-.3a6.319,6.319,0,0,1-4.315-1.694V19.123a2.313,2.313,0,0,1,2.324-2.29,2.446,2.446,0,0,1,1.652.665A2.259,2.259,0,0,1,17.72,19.123Z" fill="rgba(255,85,109,0.22)"/>
        <path id="パス_1308" data-name="パス 1308" d="M9.291,2.355a4.2,4.2,0,0,1,2.091-.764H18.36l3.606.066a3.117,3.117,0,0,1,.842,2.19,2.892,2.892,0,0,1-.2,1.1c.135.432.2.331.2.8V15.6a2.354,2.354,0,0,1-.638,1.625v.034h-.034c-.405.4-1.451,1.36-2.023,1.36V15.57l.471-.034.54-3.717H19.641V7.633A1.3,1.3,0,0,0,18.392,6.3h-6.74a1.279,1.279,0,0,0-1.247,1.328v4.186H8.92l.54,3.717.471.034v3.054c-.606,0-1.652-.962-2.022-1.36H7.877v-.034A2.346,2.346,0,0,1,7.236,15.6V5.74A3.9,3.9,0,0,1,9.291,2.355Z" fill="#a4434c"/>
        <path id="パス_1309" data-name="パス 1309" d="M9.325,4.544a2.056,2.056,0,0,1-.037.4,1.479,1.479,0,0,1-.11.334.677.677,0,0,1-.164.223.3.3,0,0,1-.194.079A.308.308,0,0,1,8.625,5.5a.674.674,0,0,1-.162-.223,1.269,1.269,0,0,1-.11-.334,2,2,0,0,1,0-.788,1.269,1.269,0,0,1,.11-.334.674.674,0,0,1,.162-.223.308.308,0,0,1,.194-.079.3.3,0,0,1,.194.079.678.678,0,0,1,.164.223,1.479,1.479,0,0,1,.11.334A2.049,2.049,0,0,1,9.325,4.544Z" fill="#a4434c"/>
        <path id="パス_1310" data-name="パス 1310" d="M9.966,4.578a.308.308,0,0,1-.083.2.734.734,0,0,1-.243.172,1.52,1.52,0,0,1-.361.115,2.168,2.168,0,0,1-.425.039,2.211,2.211,0,0,1-.427-.039,1.6,1.6,0,0,1-.361-.115.748.748,0,0,1-.241-.172.29.29,0,0,1,0-.407A.748.748,0,0,1,8.066,4.2a1.6,1.6,0,0,1,.361-.115,2.211,2.211,0,0,1,.427-.039,2.168,2.168,0,0,1,.425.039,1.52,1.52,0,0,1,.361.115.734.734,0,0,1,.243.172A.308.308,0,0,1,9.966,4.578Z" fill="#a4434c"/>
        <path id="パス_1311" data-name="パス 1311" d="M15.157,22.378A5.741,5.741,0,0,0,20.92,16.7V8.961a4.1,4.1,0,0,0-4.111-4.051H13.3A4.1,4.1,0,0,0,9.19,8.961v7.5A5.962,5.962,0,0,0,15.157,22.378Z" fill="#ffaa83"/>
        <path id="パス_1312" data-name="パス 1312" d="M10.977,14.706a2.549,2.549,0,0,1-.049.493,2.511,2.511,0,0,1-.145.474,2.668,2.668,0,0,1-.238.435,2.281,2.281,0,0,1-.319.383,2.386,2.386,0,0,1-.388.314,2.53,2.53,0,0,1-.442.233,2.776,2.776,0,0,1-.481.145,2.7,2.7,0,0,1-1,0,2.713,2.713,0,0,1-.481-.145,2.607,2.607,0,0,1-.832-.547,2.39,2.39,0,0,1-.317-.383,2.342,2.342,0,0,1-.238-.435A2.51,2.51,0,0,1,5.9,15.2a2.493,2.493,0,0,1,0-.984,2.457,2.457,0,0,1,.145-.474,2.361,2.361,0,0,1,.238-.437,2.621,2.621,0,0,1,.317-.383,2.648,2.648,0,0,1,.39-.312,2.378,2.378,0,0,1,.442-.233,2.52,2.52,0,0,1,.481-.145,2.565,2.565,0,0,1,1,0,2.574,2.574,0,0,1,.481.145,2.378,2.378,0,0,1,.442.233,2.507,2.507,0,0,1,.707.695,2.691,2.691,0,0,1,.238.437,2.458,2.458,0,0,1,.145.474A2.544,2.544,0,0,1,10.977,14.706Z" fill="#ffaa83"/>
        <path id="パス_1313" data-name="パス 1313" d="M9.09,14.706a.913.913,0,0,1-.277.658.9.9,0,0,1-.3.2.956.956,0,0,1-.361.071.968.968,0,0,1-.363-.071.9.9,0,0,1-.3-.2.913.913,0,0,1-.277-.658.946.946,0,0,1,.582-.859.964.964,0,0,1,.363-.069.92.92,0,0,1,.665.273.9.9,0,0,1,.277.655Z" fill="rgba(255,85,109,0.33)"/>
        <path id="パス_1314" data-name="パス 1314" d="M9.46,13.977V5.907a2.084,2.084,0,0,0-2.089,2.06v3.984A2.1,2.1,0,0,0,9.46,13.977Z" fill="#a4434c"/>
        <path id="パス_1315" data-name="パス 1315" d="M24.157,14.706a2.549,2.549,0,0,1-.049.493,2.519,2.519,0,0,1-.147.474,2.486,2.486,0,0,1-.236.435,2.281,2.281,0,0,1-.319.383,2.386,2.386,0,0,1-.388.314,2.467,2.467,0,0,1-.444.233,2.686,2.686,0,0,1-.479.145,2.713,2.713,0,0,1-1,0,2.686,2.686,0,0,1-.479-.145,2.467,2.467,0,0,1-.444-.233,2.5,2.5,0,0,1-.388-.314,2.407,2.407,0,0,1-.319-.383,2.479,2.479,0,0,1-.236-.435,2.716,2.716,0,0,1-.147-.474,2.492,2.492,0,0,1,0-.984,2.654,2.654,0,0,1,.147-.474,2.5,2.5,0,0,1,.236-.437,2.507,2.507,0,0,1,.707-.695,2.323,2.323,0,0,1,.444-.233,2.5,2.5,0,0,1,.479-.145,2.578,2.578,0,0,1,1,0,2.5,2.5,0,0,1,.479.145,2.323,2.323,0,0,1,.444.233,2.5,2.5,0,0,1,.943,1.132,2.465,2.465,0,0,1,.147.474A2.544,2.544,0,0,1,24.157,14.706Z" fill="#ffaa83"/>
        <path id="パス_1316" data-name="パス 1316" d="M22.807,14.706a.924.924,0,0,1-.275.658.91.91,0,0,1-.307.2.95.95,0,0,1-.722,0,.91.91,0,0,1-.307-.2.94.94,0,0,1-.277-.658.9.9,0,0,1,.074-.356.888.888,0,0,1,.2-.3.948.948,0,0,1,1.335,0,.912.912,0,0,1,.275.655Z" fill="rgba(255,85,109,0.33)"/>
        <path id="パス_1317" data-name="パス 1317" d="M20.518,13.977V5.907a2.084,2.084,0,0,1,2.089,2.06v3.984A2.078,2.078,0,0,1,20.518,13.977Z" fill="#a4434c"/>
        <path id="パス_1318" data-name="パス 1318" d="M13.033,16.8a.234.234,0,0,0-.236.3,2.294,2.294,0,0,0,.437,1.063,2.36,2.36,0,0,0,1.856.93,2.605,2.605,0,0,0,.707-.1A2.267,2.267,0,0,0,17.38,17.1a.25.25,0,0,0-.236-.3Z" fill="#fff"/>
        <path id="パス_1319" data-name="パス 1319" d="M17.82,14.109a.554.554,0,0,0,.572-.5v-.7a.579.579,0,0,0-1.146,0v.7A.556.556,0,0,0,17.82,14.109Z" fill="#754040"/>
        <path id="パス_1320" data-name="パス 1320" d="M17.348,10.589h1.178a.4.4,0,1,0,0-.8H17.348a.386.386,0,0,0-.4.4A.405.405,0,0,0,17.348,10.589Z" fill="rgba(117,64,64,0.57)"/>
        <path id="パス_1321" data-name="パス 1321" d="M12.359,14.109a.555.555,0,0,1-.572-.5v-.7a.579.579,0,0,1,1.146,0v.7A.556.556,0,0,1,12.359,14.109Z" fill="#754040"/>
        <path id="パス_1322" data-name="パス 1322" d="M11.583,10.589h1.181a.4.4,0,1,0,0-.8H11.583a.384.384,0,0,0-.4.4A.4.4,0,0,0,11.583,10.589Z" fill="rgba(117,64,64,0.57)"/>
        <path id="パス_1323" data-name="パス 1323" d="M9.495,8.929V8.8a1.578,1.578,0,0,1,1.617-1.561H19A1.6,1.6,0,0,1,20.618,8.8h1.888V3.383H8.449Z" fill="#a4434c"/>
        <path id="パス_1324" data-name="パス 1324" d="M18.156,4.114a2.937,2.937,0,0,0,5.866,0Z" fill="#a4434c"/>
        <path id="パス_1325" data-name="パス 1325" d="M14.651.793a4.964,4.964,0,0,0,9.911,0Z" fill="#a4434c"/>
        <path id="パス_1326" data-name="パス 1326" d="M16.369,11.154H6.9v.763H8.92l.069,2.359,1.281,1.161,2.393.167,1.887-1.129V11.951h1.684A6.827,6.827,0,0,1,16.369,11.154Zm-2.594,2.854-1.316.8-1.853-.133-.842-.763L9.7,11.917h4.045v2.091Z" fill="#57729f"/>
        <path id="パス_1327" data-name="パス 1327" d="M13.741,11.917h1.686V14.44l1.887,1.129,2.393-.167,1.281-1.161.066-2.356h2.022v-.763H13.606A3.794,3.794,0,0,1,13.741,11.917Zm2.494,0h4.045l-.066,1.993-.842.763-1.856.133-1.281-.763Z" fill="#57729f"/>
        <path id="パス_1328" data-name="パス 1328" d="M28.033,50.137a15.139,15.139,0,0,1-.807,1.4c-.238.363-.474.7-.744,1.06-.2.268-.4.565-.641.832l-.032.032c-.339.4-.675.8-1.011,1.161l-.135.135c-.034.032-.069.066-.1.066-.034.032-.069.032-.1.066a2.6,2.6,0,0,1-.4.231c-.034,0-.069.034-.1.034s-.1.032-.135.032c-.066,0-.1.034-.167.034-.034,0-.1.032-.135.032h-.709a.13.13,0,0,1-.1-.032H22.64c-.034,0-.069-.034-.1-.034s-.069-.032-.1-.032-.032,0-.066-.034c-.034,0-.069-.032-.1-.032s-.034-.034-.069-.034-.032-.032-.066-.032-.034-.034-.069-.034A.122.122,0,0,1,22,54.953c-.034-.034-.069-.034-.1-.066s-.069-.034-.1-.066l-.032-.034-.034-.032c-.034-.034-.066-.034-.066-.066-.034,0-.034-.034-.069-.069-.034,0-.034-.032-.066-.066l-.034-.032-.034-.034-.034-.032c-.032-.034-.066-.066-.066-.1-.034-.032-.069-.066-.069-.1-.032-.034-.032-.066-.066-.133-.034-.034-.034-.066-.066-.135-.034-.032-.034-.066-.069-.133,0-.032-.034-.066-.034-.133,0-.032-.032-.066-.032-.1a.717.717,0,0,1-.034-.268v-.631a.117.117,0,0,1,.034-.1.455.455,0,0,1,.066-.2c.034-.066.034-.133.069-.167,0-.032.032-.066.032-.1a1.155,1.155,0,0,1,.169-.268c.034-.032.034-.066.066-.1.034-.066.1-.1.135-.167a15.976,15.976,0,0,0,1.247-1.5c0-.032.034-.032.034-.066a15.335,15.335,0,0,0,1.181-1.858c.1-.2.2-.4.3-.6a13.9,13.9,0,0,0,.27-10.991,22.575,22.575,0,0,0-4.315-7.37,2.088,2.088,0,0,1,.135-2.99,2.164,2.164,0,0,1,3.034.133,28.52,28.52,0,0,1,5.294,8.934A17.908,17.908,0,0,1,28.033,50.137Z" fill="#7da8ff"/>
        <path id="パス_1329" data-name="パス 1329" d="M26.482,52.594c.27-.363.506-.7.744-1.06a15.14,15.14,0,0,0,.808-1.4l-3.574-2.389-1.482,2.457c0,.032-.034.032-.034.066-.371.5-.808.994-1.247,1.493a.845.845,0,0,0-.135.167l.641.9,1.72,2.423.167.233a1.647,1.647,0,0,0,.609-.464l1.178-1.5.034-.032Z" fill="#b0dbff"/>
        <path id="パス_1330" data-name="パス 1330" d="M26.482,52.594l-3.571-2.322c-.371.5-.81.994-1.247,1.492a.7.7,0,0,0-.135.167c-.034.032-.034.066-.069.1-.066.1-.1.167-.169.268,0,.032-.032.066-.032.1a.539.539,0,0,0-.069.167c-.032.066-.032.133-.066.2a.121.121,0,0,1-.034.1v.631c0,.1.034.164.034.265,0,.032.034.066.034.1s.032.066.032.132a.254.254,0,0,0,.069.135c.032.032.032.1.066.132s.034.066.069.133c.032.032.032.066.066.1s.069.066.069.1a.031.031,0,0,0,.032.032l.034.034.034.034c0,.032.034.032.066.066s.034.032.069.066.066.032.066.066l.034.032.034.034a.031.031,0,0,1,.032.032c.034,0,.034.034.069.034.034.032.066.032.1.066a.123.123,0,0,1,.069.032c.032,0,.032.034.066.034a1.635,1.635,0,0,0,1.787.366,1.671,1.671,0,0,0,.606-.466l1.181-1.492.032-.034Z" fill="#ffaa83"/>
        <path id="パス_1331" data-name="パス 1331" d="M1.945,50.272a15.437,15.437,0,0,0,.808,1.394c.236.363.471.7.741,1.061.2.268.4.565.641.832l.034.032c.336.4.675.8,1.011,1.164.034.032.066.066.135.132.034.032.066.066.1.066.034.032.069.032.1.066a2.617,2.617,0,0,0,.4.231c.034,0,.069.034.1.034s.1.034.135.034c.069,0,.1.032.169.032.034,0,.1.034.135.034h.707a.119.119,0,0,0,.1-.034h.069c.034,0,.066-.032.1-.032s.069-.034.1-.034.034,0,.069-.034c.034,0,.066-.032.1-.032s.034-.034.066-.034.034-.032.069-.032.034-.034.066-.034a.123.123,0,0,0,.069-.032c.034-.034.066-.034.1-.066s.069-.034.1-.066l.034-.034.034-.032c.032-.034.066-.034.066-.066.034,0,.034-.034.069-.066.032,0,.032-.034.066-.066l.034-.034.034-.034.032-.032c.034-.034.069-.066.069-.1.034-.032.066-.066.066-.1.034-.034.034-.066.069-.133.032-.034.032-.066.066-.133.034-.034.034-.066.069-.135,0-.032.032-.066.032-.133,0-.032.034-.066.034-.1a.712.712,0,0,0,.034-.265v-.631a.121.121,0,0,0-.034-.1.489.489,0,0,0-.066-.2c-.034-.066-.034-.132-.069-.167,0-.032-.034-.066-.034-.1a1.141,1.141,0,0,0-.167-.268c-.034-.032-.034-.066-.069-.1-.032-.066-.1-.1-.135-.167a16.675,16.675,0,0,1-1.247-1.493c0-.034-.032-.034-.032-.066a15.556,15.556,0,0,1-1.181-1.861c-.1-.2-.2-.4-.3-.6a13.921,13.921,0,0,1-.27-10.991A25.65,25.65,0,0,1,9.8,29.252a2.086,2.086,0,0,0-.133-2.99,2.164,2.164,0,0,0-3.034.133A29.441,29.441,0,0,0,1.3,35.328C-.652,40.741-.382,45.789,1.945,50.272Z" fill="#7da8ff"/>
        <path id="パス_1332" data-name="パス 1332" d="M3.493,52.727c-.27-.363-.506-.7-.741-1.061a15.421,15.421,0,0,1-.808-1.394L5.516,47.88,7,50.338c0,.032.032.032.032.066.371.5.81.994,1.247,1.493a.7.7,0,0,1,.135.167l-.641.9L6.056,55.385l-.169.231a1.639,1.639,0,0,1-.606-.464L4.1,53.657l-.034-.032Z" fill="#b0dbff"/>
        <path id="パス_1333" data-name="パス 1333" d="M3.493,52.727,7.067,50.4c.371.5.81.994,1.247,1.493a.766.766,0,0,1,.135.167c.034.032.034.066.069.1.066.1.1.164.167.265,0,.032.034.066.034.1a.521.521,0,0,1,.066.167c.034.066.034.132.069.2a.122.122,0,0,0,.034.1v.631c0,.1-.034.165-.034.265,0,.032-.034.066-.034.1s-.034.069-.034.135a.25.25,0,0,1-.066.132c-.034.032-.034.1-.066.133s-.034.066-.069.133c-.034.032-.034.066-.066.1s-.069.069-.069.1a.034.034,0,0,1-.034.034l-.032.032-.034.034c0,.032-.034.032-.069.066l-.066.066c-.034.032-.066.032-.066.066l-.034.032-.034.034s-.034,0-.034.032c-.032,0-.032.034-.066.034-.034.032-.069.032-.1.066a.123.123,0,0,0-.069.032c-.034,0-.034.034-.066.034a1.584,1.584,0,0,1-2.393-.1L4.168,53.692l-.034-.034Z" fill="#ffaa83"/>
      </g>
    </g>
  </g>
</svg>
