<svg xmlns="http://www.w3.org/2000/svg" xmlns:xlink="http://www.w3.org/1999/xlink" width="45" height="45" viewBox="0 0 45 45">
  <defs>
    <clipPath id="clip-path">
      <rect id="長方形_146" data-name="長方形 146" width="40" height="40" transform="translate(1055 281)" fill="#fff" stroke="#707070" stroke-width="1"/>
    </clipPath>
  </defs>
  <g id="mem02" transform="translate(-1060 -400)">
    <rect id="長方形_148" data-name="長方形 148" width="45" height="45" rx="3" transform="translate(1060 400)" fill="#ffd54a"/>
    <g id="mem02-2" data-name="mem02" transform="translate(8 124)" clip-path="url(#clip-path)">
      <g id="mem02-3" data-name="mem02" transform="translate(1055 283.55)">
        <path id="パス_1334" data-name="パス 1334" d="M25.924,82.329c.874.394-.566,1.047-.916,1.091-1,.131-1.878-.61-2.706-1.091a.864.864,0,0,1-.087-.481,1.3,1.3,0,0,1,1.222-.394h.087C24.136,81.674,25.008,81.936,25.924,82.329Z" fill="#fcb692"/>
        <path id="パス_1335" data-name="パス 1335" d="M30.42,86.562c0,.828-1.134,1.528-2.575,1.528h-.306c-1,.131-2.662-.872-4.059-2.488-1.7-1.965-2.4-4.15-1.572-4.891a1.074,1.074,0,0,1,.656-.219c1-.044,2.575.916,3.928,2.488.088.087.131.175.219.262a12.538,12.538,0,0,1,1.178,1.791C29.329,85.078,30.42,85.734,30.42,86.562Z" fill="#f46c58"/>
        <path id="パス_1336" data-name="パス 1336" d="M22.871,87.176h-.787a.392.392,0,0,1-.394-.394V81.717a.39.39,0,0,1,.394-.391h.787a.389.389,0,0,1,.391.391v5.066A.391.391,0,0,1,22.871,87.176Z" fill="#f46c58"/>
        <path id="パス_1337" data-name="パス 1337" d="M27.367,85.43c-.481.435-2.752-.743-4.017-2.184a2.494,2.494,0,0,1-.7-2.794c1-.044,2.575.918,3.928,2.488.087.088.131.175.219.262C27.452,84.252,27.715,85.124,27.367,85.43Z" fill="#fcb692"/>
        <path id="パス_1338" data-name="パス 1338" d="M22.346,60.891a2.312,2.312,0,0,0-1.965-.435A2.607,2.607,0,0,0,18.721,63.6l3.493,16.81.306,1.484a1.411,1.411,0,0,0,.653.918,1.5,1.5,0,0,0,1.049.216h.044a1.469,1.469,0,0,0,.872-.566,1.409,1.409,0,0,0,.262-1.006L23.392,62.813A2.816,2.816,0,0,0,22.346,60.891Z" fill="#fcb692"/>
        <path id="パス_1339" data-name="パス 1339" d="M17.5,40.763a3.719,3.719,0,0,0-2.444,1.572,3.426,3.426,0,0,0-.525,2.75l3.843,17.333a2.373,2.373,0,0,0,2.793,1.572,2.375,2.375,0,0,0,2.094-2.357L21.777,43.951a3.452,3.452,0,0,0-1.4-2.49A3.794,3.794,0,0,0,17.5,40.763Z" fill="#fcb692"/>
        <path id="パス_1340" data-name="パス 1340" d="M12.263,82.154c-.874.393.566,1.047.916,1.091,1,.131,1.878-.61,2.706-1.091a.865.865,0,0,0,.087-.481,1.293,1.293,0,0,0-1.222-.391h-.087A14.838,14.838,0,0,0,12.263,82.154Z" fill="#fcb692"/>
        <path id="パス_1341" data-name="パス 1341" d="M7.723,86.346c0,.831,1.134,1.528,2.575,1.528H10.6c1,.131,2.662-.872,4.059-2.488,1.7-1.965,2.4-4.147,1.571-4.891a1.073,1.073,0,0,0-.656-.219c-1-.044-2.575.918-3.928,2.49-.088.087-.131.173-.219.26a12.879,12.879,0,0,0-1.178,1.791C8.813,84.862,7.723,85.561,7.723,86.346Z" fill="#f46c58"/>
        <path id="パス_1342" data-name="パス 1342" d="M15.275,87h.785a.392.392,0,0,0,.393-.394V81.542a.391.391,0,0,0-.393-.391h-.785a.391.391,0,0,0-.394.391v5.066A.392.392,0,0,0,15.275,87Z" fill="#f46c58"/>
        <path id="パス_1343" data-name="パス 1343" d="M10.78,85.255c.479.437,2.75-.743,4.015-2.184a2.5,2.5,0,0,0,.7-2.794c-1.006-.044-2.577.918-3.93,2.49-.088.087-.131.173-.219.26C10.692,84.033,10.43,84.949,10.78,85.255Z" fill="#fcb692"/>
        <path id="パス_1344" data-name="パス 1344" d="M11.519,60.846a2.211,2.211,0,0,1,1.834-.829,2.646,2.646,0,0,1,2.269,2.75l-.044,17.158v1.528a1.611,1.611,0,0,1-.435,1.049,1.63,1.63,0,0,1-1.006.435h-.044a1.353,1.353,0,0,1-.96-.391,1.564,1.564,0,0,1-.481-.962L10.91,62.9A2.632,2.632,0,0,1,11.519,60.846Z" fill="#fcb692"/>
        <path id="パス_1345" data-name="パス 1345" d="M11.914,40.938a3.706,3.706,0,0,1,2.75,1,3.562,3.562,0,0,1,1.091,2.575l-.087,17.77a2.354,2.354,0,0,1-2.4,2.14,2.318,2.318,0,0,1-2.531-1.834L8.464,45a3.522,3.522,0,0,1,.831-2.75A3.481,3.481,0,0,1,11.914,40.938Z" fill="#fcb692"/>
        <path id="パス_1346" data-name="パス 1346" d="M23.35,61.984H8.03a.14.14,0,0,1-.131-.131V43.034a6.474,6.474,0,0,1,6.459-6.46h2.577a6.474,6.474,0,0,1,6.459,6.46V61.9C23.481,61.941,23.437,61.984,23.35,61.984Z" fill="#804b4c"/>
        <path id="パス_1347" data-name="パス 1347" d="M23.393,40.588A4.768,4.768,0,0,0,22.083,38.1c-.088-.131-.219-.262-.306-.394-.262-.306-.566-.612-.872-.918a8.945,8.945,0,0,0-1-.741,7.519,7.519,0,0,0-1.44-.743,3.922,3.922,0,0,0-1.006-.3,2.19,2.19,0,0,0-.522-.088l-1.049-.131h-.61a8.174,8.174,0,0,0-7.03,5.5c-.131.393-.216.306-.26.743,0,.173-.044.3-.044.479h7.2l.7-.916.743.916h6.809c0-.175.044-.306.044-.479S23.393,40.719,23.393,40.588Z" fill="#c65347"/>
        <path id="パス_1348" data-name="パス 1348" d="M21.6,16.313V11.119c-.087-3.056-1.309-2.578-2.968-3.406A2.534,2.534,0,0,0,17.5,7.45H13.747a2.692,2.692,0,0,0-1.137.262c-1.657.829-2.881.306-2.968,3.406v5.194A2.877,2.877,0,0,0,7.68,18.845v1.7c0,1.528,1.528,3.931,3.36,3.931h9.08c1.834,0,3.362-2.4,3.362-3.931v-1.7A2.627,2.627,0,0,0,21.6,16.313Z" fill="rgba(96,57,19,0.69)"/>
        <path id="パス_1349" data-name="パス 1349" d="M24.965,14.173v5.5a11.542,11.542,0,0,1-.525,3.537v.044a9.3,9.3,0,0,1-1.657,3.054A7.247,7.247,0,0,1,21.3,27.664a5.377,5.377,0,0,1-3.012.96H13.135a5.516,5.516,0,0,1-3.056-.96A7.189,7.189,0,0,1,8.6,26.309a10.055,10.055,0,0,1-1.659-3.1v-.044a11.463,11.463,0,0,1-.522-3.494V13.692c.173-4.322,2.4-7.947,5.412-9.082a5.361,5.361,0,0,1,2.053-.394h3.665a5.143,5.143,0,0,1,2.009.394c3.012,1.135,5.237,4.76,5.412,9.082Z" fill="#804b4c"/>
        <path id="パス_1350" data-name="パス 1350" d="M21.472,14.3v5.457a17.877,17.877,0,0,1-.347,3.494V23.3a12.493,12.493,0,0,1-1.006,3.056,5.2,5.2,0,0,1-.916,1.356,2.64,2.64,0,0,1-1.878.96H14.138a2.56,2.56,0,0,1-1.875-.96,5.26,5.26,0,0,1-.918-1.356A12.542,12.542,0,0,1,10.3,23.3v-.041a17.2,17.2,0,0,1-.35-3.494V13.823c.087-4.278,1.484-7.86,3.362-8.994a2.271,2.271,0,0,1,1.266-.394h2.271a2.276,2.276,0,0,1,1.266.394c1.875,1.135,3.274,4.716,3.359,8.994Z" fill="rgba(93,37,35,0.56)"/>
        <path id="パス_1351" data-name="パス 1351" d="M19.553,27.184l.131.131,1.266,1.091.828.7,1.137.96,1.309,1.091,1.484,1.266,1.091.918c.087.044.131.131.219.175a2.058,2.058,0,0,0,2.75-.087,2.174,2.174,0,0,0-.219-2.925.153.153,0,0,1-.044-.087l-1-1.05-1.309-1.353-1.049-1.091-1.265-1.353-.653-.7-1.093-1.135a4.945,4.945,0,0,0-.522-.479,3.617,3.617,0,0,0-1.309-.612c-.087,0-.131-.044-.175-.044h-.044a2.587,2.587,0,0,0-2.052.656,2.269,2.269,0,0,0-.566,1.919.413.413,0,0,0,.041.219,3.7,3.7,0,0,0,.656,1.4Z" fill="#f46c58"/>
        <path id="パス_1352" data-name="パス 1352" d="M11.3,27.49l-.131.087-1.353.96-.872.656-1.178.872-1.4,1L4.8,32.206l-1.137.829c-.085.044-.129.087-.216.131A2.1,2.1,0,0,1,.693,32.9a2.149,2.149,0,0,1,.393-2.882c.044,0,.044-.044.087-.044l1.091-.96,1.4-1.266L4.8,26.7l1.353-1.266.7-.654,1.18-1.049a4.742,4.742,0,0,1,.566-.437,3.192,3.192,0,0,1,1.353-.479c.087,0,.131,0,.175-.044h.044a2.569,2.569,0,0,1,1.178.175,2.277,2.277,0,0,1,.831.61,2.147,2.147,0,0,1,.391,1.922c0,.087-.044.131-.044.219a3.04,3.04,0,0,1-.785,1.353A1.048,1.048,0,0,1,11.3,27.49Z" fill="#f46c58"/>
        <path id="パス_1353" data-name="パス 1353" d="M18.113,26.659c-.656-.087-1.309-.131-2.009-.175H13.7a10.808,10.808,0,0,1-4.627-.916c.087.7.219,1.4.35,2.1.435,2.4,1.875,6.592,1.875,8.951v.044c0,.085.044.129.087.216a.5.5,0,0,0,.481.262h7.683a.585.585,0,0,0,.479-.262c.044-.044.044-.131.087-.216v-.044c0-2.359,1.441-6.55,1.878-8.951.088-.437.175-.875.219-1.312A11.852,11.852,0,0,1,18.113,26.659Z" fill="#c65347"/>
        <path id="パス_1354" data-name="パス 1354" d="M22.478,24.129v.306l-.044.479c-.087,1.093-.262,2.184-.437,3.319l-.262.875a3.571,3.571,0,0,1-3.447,2.182H13.135a3.619,3.619,0,0,1-3.449-2.182L9.3,27.71c-.131-.962-.219-1.922-.306-2.927l-.044-.391v-.306a.554.554,0,0,1,.044-.262c.044-.087.044-.175.087-.262a.915.915,0,0,1,.175-.262,1.572,1.572,0,0,1,.391-.348l1.44-.612,2.184-.96c.087-.044.219-.044.306-.087h.35l1.178.044h1.222l1.178-.044h.35a1.027,1.027,0,0,1,.35.087l2.181.96.568.262.916.393c.044,0,.044.044.087.044a1.446,1.446,0,0,1,.525.61A1.765,1.765,0,0,0,22.478,24.129Z" fill="#f46c58"/>
        <path id="パス_1355" data-name="パス 1355" d="M20.207,21.554H11.171l.131-.219.481-.874h7.945Z" fill="#b9f1fe"/>
        <path id="パス_1356" data-name="パス 1356" d="M12.873,21.292h5.762l-3.359,5.676-2.49-5.676Z" fill="#fcb692"/>
        <path id="パス_1357" data-name="パス 1357" d="M16.016,26.923l-.306.262-.347-.262L11.87,24.567l.612-1.528h-.044l-1.747-.787.348-.7.131-.219.481-.875h.743l.479.088.35.787.131.219.131.3L15.71,26.27Z" fill="#ebf3fc"/>
        <path id="パス_1358" data-name="パス 1358" d="M18.94,23.038l.568,1.528-3.493,2.357-.306.262-.347-.262.347-.654,2.184-4.412.131-.3.131-.219.347-.787.481-.088h.743l.479.875.131.219.393.7Z" fill="#ebf3fc"/>
        <path id="パス_1359" data-name="パス 1359" d="M13.879,19.195v3.012a1.358,1.358,0,0,0,1.353,1.353h.741a1.358,1.358,0,0,0,1.353-1.353V19.195Z" fill="#fcb692"/>
        <path id="パス_1360" data-name="パス 1360" d="M17.326,18.585v3.84c-1-.393-2.269-.916-3.447-1.441V18.541h3.447Z" fill="#f9a183"/>
        <path id="パス_1361" data-name="パス 1361" d="M13.879,18.452v3.187a1.406,1.406,0,0,0,1.4,1.4h.785a1.406,1.406,0,0,0,1.4-1.4V18.452Z" fill="#fcb692"/>
        <path id="パス_1362" data-name="パス 1362" d="M17.5,17.8v4.059c-1.047-.435-2.4-1-3.622-1.484V17.8Z" fill="#f9a183"/>
        <path id="パス_1363" data-name="パス 1363" d="M7.2,13.913H24.18A3.426,3.426,0,0,0,24.4,13.3a5.946,5.946,0,0,0,.216-1.528V7.713a5.3,5.3,0,0,0-.087-.829V6.84a3.625,3.625,0,0,0-.26-.918,4.718,4.718,0,0,0-.306-.7,6.6,6.6,0,0,0-1.178-1.7,3.777,3.777,0,0,0-.612-.568,2.5,2.5,0,0,1-.35-.306,6.788,6.788,0,0,0-2.4-1.135,6.142,6.142,0,0,0-1.965-.306H13.965A7.575,7.575,0,0,0,12,1.469c-.262.087-.568.175-.831.262a9.948,9.948,0,0,0-1.484.785.346.346,0,0,1-.173.175,4.647,4.647,0,0,0-.481.394c-.044,0-.044.044-.087.044a7.763,7.763,0,0,0-.96,1.091,7.247,7.247,0,0,0-.918,1.834c-.044.087-.044.219-.087.306v.087A5.894,5.894,0,0,0,6.8,7.713v4.06A5.85,5.85,0,0,0,7.023,13.3,1.876,1.876,0,0,0,7.2,13.913Z" fill="#804b4c"/>
        <path id="パス_1364" data-name="パス 1364" d="M9.6,12.558a1.81,1.81,0,0,0-1.047-.393,1.7,1.7,0,0,0-1.7,1.7,1.679,1.679,0,0,0,1.7,1.7A1.48,1.48,0,0,0,9.6,15.177Z" fill="#fcb692"/>
        <path id="パス_1365" data-name="パス 1365" d="M21.734,12.558a1.822,1.822,0,0,1,1.049-.393,1.7,1.7,0,0,1,1.7,1.7,1.677,1.677,0,0,1-1.7,1.7,1.489,1.489,0,0,1-1.049-.393Z" fill="#fcb692"/>
        <path id="パス_1366" data-name="パス 1366" d="M22.172,14.042,22,8.757l-.044-.479a3.639,3.639,0,0,0-3.622-3.45H13.049a3.666,3.666,0,0,0-3.622,3.45l-.044.479-.175,5.284a5.243,5.243,0,0,0,5.412,5.5h2.1A5.3,5.3,0,0,0,22.172,14.042Z" fill="#fcb692"/>
        <path id="パス_1367" data-name="パス 1367" d="M24.485,6.665V9.937H18.635A7.347,7.347,0,0,1,13.967,8.28a5.844,5.844,0,0,1-.918-.875,6.594,6.594,0,0,1-1.4-2.313c0-.044-.044-.087-.044-.131a7.318,7.318,0,0,1-.35-1.31,5.767,5.767,0,0,1-.087-1.222V1.249A1.175,1.175,0,0,1,12.351.071h5.543a6.615,6.615,0,0,1,4.977,2.272c.085.087.129.173.216.216a6.42,6.42,0,0,1,1.353,3.1C24.441,6.009,24.485,6.315,24.485,6.665Z" fill="#804b4c"/>
        <path id="パス_1368" data-name="パス 1368" d="M15.8,14.521h-.219a.567.567,0,0,1,0-1.134H15.8a.579.579,0,0,1,.568.568A.609.609,0,0,1,15.8,14.521Z" fill="#f9a183"/>
        <path id="パス_1369" data-name="パス 1369" d="M9.513,2.688,9.6,2.513c.044,0,.044.044.087.044C9.773,2.688,9.426,2.863,9.513,2.688Z" fill="rgba(176,89,60,0.33)"/>
        <path id="パス_1370" data-name="パス 1370" d="M22.215,14.477a1.008,1.008,0,0,1,.306-.96,1.154,1.154,0,0,1,.959-.35l-.087.437a.633.633,0,0,0-.566.219.6.6,0,0,0-.175.566Z" fill="#f9a183"/>
        <path id="パス_1371" data-name="パス 1371" d="M9.3,14.477a1.009,1.009,0,0,0-.306-.96,1.157,1.157,0,0,0-.96-.35l.085.437a.639.639,0,0,1,.568.219.6.6,0,0,1,.175.566Z" fill="#f9a183"/>
        <path id="パス_1372" data-name="パス 1372" d="M11.214,12.777c0,.129.044.26.044.347A.824.824,0,0,0,12,13.78c.437,0,.741-.481.741-1.047a1.165,1.165,0,0,0-.131-.525.733.733,0,0,0-.654-.481C11.52,11.727,11.214,12.208,11.214,12.777Z" fill="rgba(103,65,58,0.8)"/>
        <path id="パス_1373" data-name="パス 1373" d="M12.742,10.9a3.151,3.151,0,0,0-2.007.262c-.087-.219-.131-.437-.219-.612a3.85,3.85,0,0,1,2.313-.306C12.785,10.461,12.785,10.68,12.742,10.9Z" fill="rgba(128,75,76,0.69)"/>
        <path id="パス_1374" data-name="パス 1374" d="M20.162,12.777c0,.129-.044.26-.044.347a.822.822,0,0,1-.741.656c-.437,0-.743-.481-.743-1.047a1.165,1.165,0,0,1,.131-.525.738.738,0,0,1,.656-.481C19.858,11.727,20.162,12.208,20.162,12.777Z" fill="rgba(103,65,58,0.8)"/>
        <path id="パス_1375" data-name="パス 1375" d="M18.634,10.9a3.158,3.158,0,0,1,2.009.262c.087-.219.131-.437.219-.612a3.857,3.857,0,0,0-2.315-.306A3.376,3.376,0,0,1,18.634,10.9Z" fill="rgba(128,75,76,0.69)"/>
        <path id="パス_1376" data-name="パス 1376" d="M27.8,32.118a.638.638,0,0,0,.262.391.607.607,0,0,0,.481.087.548.548,0,0,0,.391-.306l4.977-8.339a.285.285,0,1,0-.481-.306L27.89,31.637A.608.608,0,0,0,27.8,32.118Z" fill="#f5bfb3"/>
        <path id="パス_1377" data-name="パス 1377" d="M27.279,31.377a1.873,1.873,0,0,0,2.181,1.441,1.822,1.822,0,0,0,1.134-.829l2.1-3.537,2.881-4.8a1.436,1.436,0,0,0-.481-2.007,1.461,1.461,0,0,0-2.006.391L29.9,26.661l-2.359,3.362A1.8,1.8,0,0,0,27.279,31.377Z" fill="#fcb692"/>
        <path id="パス_1378" data-name="パス 1378" d="M26.623,33.122a2.054,2.054,0,0,0,1.528.96,2.137,2.137,0,0,0,2.1-1l4.015-6.463.131-.262-3.012-1.919L31.12,24.3,26.711,30.85A1.97,1.97,0,0,0,26.623,33.122Z" fill="#f46c58"/>
        <path id="パス_1379" data-name="パス 1379" d="M31.688,23.473l3.1,2.009a.33.33,0,0,1,.085.437l-.61.96a.329.329,0,0,1-.437.087l-3.1-2.009a.326.326,0,0,1-.087-.435l.612-.962A.348.348,0,0,1,31.688,23.473Z" fill="#ebf3fc"/>
        <path id="パス_1380" data-name="パス 1380" d="M2.309,31.333a.6.6,0,0,0-.479.044.7.7,0,0,0-.306.394.6.6,0,0,0,.044.479L6.546,40.59a.282.282,0,0,0,.391.087.353.353,0,0,0,.131-.393L2.659,31.639A.585.585,0,0,0,2.309,31.333Z" fill="#f5bfb3"/>
        <path id="パス_1381" data-name="パス 1381" d="M3.227,31.2A1.9,1.9,0,0,0,.912,32.467a1.939,1.939,0,0,0,.175,1.4l2.1,3.537,2.881,4.8a1.521,1.521,0,0,0,2.006.566,1.5,1.5,0,0,0,.612-1.963L6.152,35.786,4.318,32.119A2.23,2.23,0,0,0,3.227,31.2Z" fill="#fcb692"/>
        <path id="パス_1382" data-name="パス 1382" d="M1.961,29.8a2.142,2.142,0,0,0-1.572.875A2.115,2.115,0,0,0,.3,32.992l3.8,6.594.175.26L7.417,38.1l.262-.175L4.012,30.939A2.208,2.208,0,0,0,1.961,29.8Z" fill="#f46c58"/>
        <path id="パス_1383" data-name="パス 1383" d="M8.071,38.884,4.8,40.631a.259.259,0,0,1-.393-.131l-.568-1a.259.259,0,0,1,.131-.393L7.2,37.313a.259.259,0,0,1,.393.131l.566,1A.329.329,0,0,1,8.071,38.884Z" fill="#ebf3fc"/>
        <path id="パス_1384" data-name="パス 1384" d="M18.244,16.05a2.631,2.631,0,0,1-5.152,0,.452.452,0,0,1,.35-.522H17.85C18.156,15.615,18.331,15.833,18.244,16.05Z" fill="#b03d47"/>
        <path id="パス_1385" data-name="パス 1385" d="M17.893,15.527a2.548,2.548,0,0,1-2.184,1.178,2.731,2.731,0,0,1-2.225-1.178h4.409Z" fill="#fffefe"/>
        <path id="パス_1386" data-name="パス 1386" d="M39.98,21.072a.477.477,0,0,0-.612-.394l-1.963.394-.131-.175L39.2,19.456a.509.509,0,0,0,.087-.741.546.546,0,0,0-.743-.087l-1.878,1.4-.262-.35,1.18-1.659a.507.507,0,0,0-.131-.741.549.549,0,0,0-.743.129l-1.353,1.878a1.921,1.921,0,0,1-.61.568l-.393.262-.044-1.181a.7.7,0,0,0-1.4.087S33,21.247,33,21.291a7.057,7.057,0,0,0,.087,1.353,1.719,1.719,0,0,0,2.531,1l2.4-1.572,1.484-.3C39.849,21.64,40.068,21.378,39.98,21.072Z" fill="#fcb692"/>
        <path id="パス_1387" data-name="パス 1387" d="M34.395,22.294a.155.155,0,1,1-.219-.219,1.328,1.328,0,0,0,.088-1.746h0l.219-.173.044.044A1.6,1.6,0,0,1,34.395,22.294Z" fill="#f9a183"/>
        <path id="パス_1388" data-name="パス 1388" d="M6.063,42.335a1.988,1.988,0,0,0,.96,1.135,1.768,1.768,0,0,0,1.222.35,1.889,1.889,0,0,0,.962-.525,1.928,1.928,0,0,1,.872-.481,1.974,1.974,0,0,1,1.44.656.5.5,0,0,0,.306.131.24.24,0,0,0,.219-.131.6.6,0,0,0,.044-.481,1.662,1.662,0,0,0-.525-.741c-.044-.044-.087-.044-.087-.087a6.055,6.055,0,0,0-.916-.481c-.087-.044-.175-.087-.131-.175.175-.566,1.747.962,2.094.437s-1.047-1.222-1.744-1.441c-.131-.044-.306,0-.394-.088a.227.227,0,0,1,.175-.087c.479-.088,1.091.087,1.528-.306v-.044c.087-.175.044-.3-.044-.347L12,39.584c-.175-.219-.568-.219-.874-.219a7.533,7.533,0,0,0-2.4.391,5.111,5.111,0,0,0-1.878.962C6.5,41.069,5.932,41.766,6.063,42.335Z" fill="#fcb692"/>
      </g>
    </g>
  </g>
</svg>
