<svg xmlns="http://www.w3.org/2000/svg" width="50" height="50" viewBox="0 0 50 50">
  <g id="compare_icon02" transform="translate(-147 -717)">
    <rect id="長方形_69" data-name="長方形 69" width="50" height="50" transform="translate(147 717)" fill="none"/>
    <g id="グループ_30" data-name="グループ 30" transform="translate(1 0)">
      <g id="フリーの握手アイコン" transform="translate(147.928 725.928)">
        <path id="パス_492" data-name="パス 492" d="M35,78.954l-4.518,4.518.42.436c-.3.242-.6.477-.9.687a7.061,7.061,0,0,1-1.239.738.788.788,0,0,1-.27.032,9.817,9.817,0,0,1-1.256-.148,12.82,12.82,0,0,0-1.941-.173,7.826,7.826,0,0,0-2.1.281,7.876,7.876,0,0,0-2.1-.281,12.625,12.625,0,0,0-1.942.173,9.793,9.793,0,0,1-1.256.148.744.744,0,0,1-.268-.032,7.348,7.348,0,0,1-1.337-.808c-.265-.192-.534-.4-.8-.62l.419-.435L11.4,78.954,0,90.758l4.518,4.518,1.323-1.37L8.76,96.454a6.588,6.588,0,0,0,.413,1.388c.116.279.242.547.372.8a2.969,2.969,0,0,0,2.009,4.467,2.977,2.977,0,0,0,2.981,2.949c.038,0,.077-.006.116-.007a2.973,2.973,0,0,0,2.959,2.63c.1,0,.2-.01.3-.02a2.713,2.713,0,0,0,4.123,1.974l1.354-.843a5.445,5.445,0,0,0,.841.448,4.532,4.532,0,0,0,1.754.373,3.448,3.448,0,0,0,2-.613A3.7,3.7,0,0,0,29,108.888c.043,0,.077.009.122.01a3.034,3.034,0,0,0,.894-.137,4.57,4.57,0,0,0,.938-.42,3.254,3.254,0,0,0,1.587-1.978,2.666,2.666,0,0,0,.53-.227,3.038,3.038,0,0,0,1.233-1.4,3.935,3.935,0,0,0,.349-1.618c0-.052-.007-.1-.009-.155a3.745,3.745,0,0,0,1.046-.647,3.377,3.377,0,0,0,.759-.942,2.56,2.56,0,0,0,.321-1.212,2.14,2.14,0,0,0-.189-.885,2.175,2.175,0,0,0-.156-.26,10.655,10.655,0,0,0,.654-1.373,6.227,6.227,0,0,0,.334-1.191L40.451,93.8l1.427,1.477L46.4,90.758ZM12.573,100.836l-.052.033a.811.811,0,0,1-.857-1.376l1.79-1.112a.807.807,0,0,1,1.116.261l.922-.573-.922.573a.8.8,0,0,1,.122.424.819.819,0,0,1-.194.522l-1.537.955A3.01,3.01,0,0,0,12.573,100.836Zm2.39,2.927a.8.8,0,0,1-.426.122.805.805,0,0,1-.62-1.328l1.538-.957a2.967,2.967,0,0,0,.385-.291l.056-.034a.793.793,0,0,1,.425-.122.81.81,0,0,1,.429,1.5Zm4.862,1.512-1.788,1.111a.794.794,0,0,1-.426.122.811.811,0,0,1-.43-1.5l1.79-1.112a.79.79,0,0,1,.425-.122.81.81,0,0,1,.429,1.5Zm2.771,1.813a.529.529,0,0,1,.082.284.544.544,0,0,1-.258.464l-1.535.953a.521.521,0,0,1-.285.082.542.542,0,0,1-.289-1h0l1.536-.955a.525.525,0,0,1,.285-.083.539.539,0,0,1,.462.256l.922-.572Zm11.936-6.738a1.39,1.39,0,0,1-.486.491,1.438,1.438,0,0,1-.746.223,1.033,1.033,0,0,0-.262.038,2.987,2.987,0,0,1-.462-.141,4.848,4.848,0,0,1-1.225-.735c-.156-.126-.28-.239-.363-.318l-.091-.091-.02-.021,0,0h0a.814.814,0,0,0-1.2,1.1,6.955,6.955,0,0,0,1.106.934,6.037,6.037,0,0,0,1.2.645c.107.042.218.081.332.116a1.058,1.058,0,0,0,.12.2l0,0a.887.887,0,0,1,.046.324,1.7,1.7,0,0,1-.261.909.724.724,0,0,1-.231.224.578.578,0,0,1-.3.073h-.052c-.031,0-.06,0-.091.005h0a3.344,3.344,0,0,1-1.848-.631,4.645,4.645,0,0,1-.566-.452c-.064-.06-.113-.111-.144-.141l-.032-.034-.005-.007h0a.814.814,0,0,0-1.228,1.068h0a5.811,5.811,0,0,0,1.061.914,5.428,5.428,0,0,0,1.659.766c-.007.019-.012.038-.021.058a1.178,1.178,0,0,1-.541.586,2.485,2.485,0,0,1-.5.229.815.815,0,0,1-.258.041,2.787,2.787,0,0,1-.528-.076.953.953,0,0,0-.144-.016c-.018-.007-.035-.014-.054-.024a4.68,4.68,0,0,1-.841-.551c-.122-.1-.225-.185-.3-.248l-.08-.072-.018-.018,0,0a.814.814,0,1,0-1.125,1.177,8.5,8.5,0,0,0,.84.689c.085.06.18.122.274.182a1.564,1.564,0,0,1-.407.453,1.277,1.277,0,0,1-.756.221,2.381,2.381,0,0,1-.911-.2,3.231,3.231,0,0,1-.315-.165,2.705,2.705,0,0,0-2.38-3.4c0-.03.005-.059.005-.089a2.979,2.979,0,0,0-.449-1.572v0a2.978,2.978,0,0,0-2.535-1.41c-.038,0-.077.007-.116.008a2.975,2.975,0,0,0-.426-1.222h0a2.969,2.969,0,0,0-2-1.354,2.974,2.974,0,0,0-.447-1.542h0a2.981,2.981,0,0,0-4.106-.959l-1.046.65c-.025-.057-.057-.113-.08-.171a3.738,3.738,0,0,1-.309-1.161l-.024-.458-3.5-3.053,6.631-6.868c.339.278.687.553,1.043.811A9.284,9.284,0,0,0,16.8,87.339a2.844,2.844,0,0,0,1.1.2,10.981,10.981,0,0,0,1.579-.173c.034-.006.069-.009.1-.014A17.429,17.429,0,0,0,17.7,89.265c-.449.527-.827,1.023-1.127,1.429s-.525.728-.625.856a3.569,3.569,0,0,0-.71,2.181,3.362,3.362,0,0,0,.686,2.092,2.725,2.725,0,0,0,.964.77,3.009,3.009,0,0,0,1.3.283,4.743,4.743,0,0,0,1.822-.41A33.8,33.8,0,0,1,25.652,94.7c.78-.174,1.432-.295,1.886-.371l.228-.038,6.821,5.88h0l0,0A.449.449,0,0,1,34.532,100.349Zm.789-4.954-.024.458a3.485,3.485,0,0,1-.251,1.015c-.076.2-.169.4-.266.6l-5.974-5.149a1.09,1.09,0,0,0-.846-.255,37.716,37.716,0,0,0-8.794,2.4,2.562,2.562,0,0,1-.978.239.814.814,0,0,1-.366-.07.608.608,0,0,1-.282-.291,1.374,1.374,0,0,1-.132-.611,1.433,1.433,0,0,1,.252-.847c.169-.218.375-.516.66-.9A21.463,21.463,0,0,1,20,89.951a10.99,10.99,0,0,1,2.308-1.906,5.641,5.641,0,0,1,2.992-.83,10.689,10.689,0,0,1,1.619.148,10.991,10.991,0,0,0,1.578.173,2.857,2.857,0,0,0,1.1-.2H29.6a9.284,9.284,0,0,0,1.775-1.054c.354-.256.7-.533,1.041-.81l6.528,6.76Z" transform="translate(0 -78.954)" fill="#92d3df"/>
      </g>
      <g id="フリーの握手アイコン-2" data-name="フリーの握手アイコン" transform="translate(147 725)">
        <path id="パス_492-2" data-name="パス 492" d="M35,78.954l-4.518,4.518.42.436c-.3.242-.6.477-.9.687a7.061,7.061,0,0,1-1.239.738.788.788,0,0,1-.27.032,9.817,9.817,0,0,1-1.256-.148,12.82,12.82,0,0,0-1.941-.173,7.826,7.826,0,0,0-2.1.281,7.876,7.876,0,0,0-2.1-.281,12.625,12.625,0,0,0-1.942.173,9.793,9.793,0,0,1-1.256.148.744.744,0,0,1-.268-.032,7.348,7.348,0,0,1-1.337-.808c-.265-.192-.534-.4-.8-.62l.419-.435L11.4,78.954,0,90.758l4.518,4.518,1.323-1.37L8.76,96.454a6.588,6.588,0,0,0,.413,1.388c.116.279.242.547.372.8a2.969,2.969,0,0,0,2.009,4.467,2.977,2.977,0,0,0,2.981,2.949c.038,0,.077-.006.116-.007a2.973,2.973,0,0,0,2.959,2.63c.1,0,.2-.01.3-.02a2.713,2.713,0,0,0,4.123,1.974l1.354-.843a5.445,5.445,0,0,0,.841.448,4.532,4.532,0,0,0,1.754.373,3.448,3.448,0,0,0,2-.613A3.7,3.7,0,0,0,29,108.888c.043,0,.077.009.122.01a3.034,3.034,0,0,0,.894-.137,4.57,4.57,0,0,0,.938-.42,3.254,3.254,0,0,0,1.587-1.978,2.666,2.666,0,0,0,.53-.227,3.038,3.038,0,0,0,1.233-1.4,3.935,3.935,0,0,0,.349-1.618c0-.052-.007-.1-.009-.155a3.745,3.745,0,0,0,1.046-.647,3.377,3.377,0,0,0,.759-.942,2.56,2.56,0,0,0,.321-1.212,2.14,2.14,0,0,0-.189-.885,2.175,2.175,0,0,0-.156-.26,10.655,10.655,0,0,0,.654-1.373,6.227,6.227,0,0,0,.334-1.191L40.451,93.8l1.427,1.477L46.4,90.758ZM12.573,100.836l-.052.033a.811.811,0,0,1-.857-1.376l1.79-1.112a.807.807,0,0,1,1.116.261l.922-.573-.922.573a.8.8,0,0,1,.122.424.819.819,0,0,1-.194.522l-1.537.955A3.01,3.01,0,0,0,12.573,100.836Zm2.39,2.927a.8.8,0,0,1-.426.122.805.805,0,0,1-.62-1.328l1.538-.957a2.967,2.967,0,0,0,.385-.291l.056-.034a.793.793,0,0,1,.425-.122.81.81,0,0,1,.429,1.5Zm4.862,1.512-1.788,1.111a.794.794,0,0,1-.426.122.811.811,0,0,1-.43-1.5l1.79-1.112a.79.79,0,0,1,.425-.122.81.81,0,0,1,.429,1.5Zm2.771,1.813a.529.529,0,0,1,.082.284.544.544,0,0,1-.258.464l-1.535.953a.521.521,0,0,1-.285.082.542.542,0,0,1-.289-1h0l1.536-.955a.525.525,0,0,1,.285-.083.539.539,0,0,1,.462.256l.922-.572Zm11.936-6.738a1.39,1.39,0,0,1-.486.491,1.438,1.438,0,0,1-.746.223,1.033,1.033,0,0,0-.262.038,2.987,2.987,0,0,1-.462-.141,4.848,4.848,0,0,1-1.225-.735c-.156-.126-.28-.239-.363-.318l-.091-.091-.02-.021,0,0h0a.814.814,0,0,0-1.2,1.1,6.955,6.955,0,0,0,1.106.934,6.037,6.037,0,0,0,1.2.645c.107.042.218.081.332.116a1.058,1.058,0,0,0,.12.2l0,0a.887.887,0,0,1,.046.324,1.7,1.7,0,0,1-.261.909.724.724,0,0,1-.231.224.578.578,0,0,1-.3.073h-.052c-.031,0-.06,0-.091.005h0a3.344,3.344,0,0,1-1.848-.631,4.645,4.645,0,0,1-.566-.452c-.064-.06-.113-.111-.144-.141l-.032-.034-.005-.007h0a.814.814,0,0,0-1.228,1.068h0a5.811,5.811,0,0,0,1.061.914,5.428,5.428,0,0,0,1.659.766c-.007.019-.012.038-.021.058a1.178,1.178,0,0,1-.541.586,2.485,2.485,0,0,1-.5.229.815.815,0,0,1-.258.041,2.787,2.787,0,0,1-.528-.076.953.953,0,0,0-.144-.016c-.018-.007-.035-.014-.054-.024a4.68,4.68,0,0,1-.841-.551c-.122-.1-.225-.185-.3-.248l-.08-.072-.018-.018,0,0a.814.814,0,1,0-1.125,1.177,8.5,8.5,0,0,0,.84.689c.085.06.18.122.274.182a1.564,1.564,0,0,1-.407.453,1.277,1.277,0,0,1-.756.221,2.381,2.381,0,0,1-.911-.2,3.231,3.231,0,0,1-.315-.165,2.705,2.705,0,0,0-2.38-3.4c0-.03.005-.059.005-.089a2.979,2.979,0,0,0-.449-1.572v0a2.978,2.978,0,0,0-2.535-1.41c-.038,0-.077.007-.116.008a2.975,2.975,0,0,0-.426-1.222h0a2.969,2.969,0,0,0-2-1.354,2.974,2.974,0,0,0-.447-1.542h0a2.981,2.981,0,0,0-4.106-.959l-1.046.65c-.025-.057-.057-.113-.08-.171a3.738,3.738,0,0,1-.309-1.161l-.024-.458-3.5-3.053,6.631-6.868c.339.278.687.553,1.043.811A9.284,9.284,0,0,0,16.8,87.339a2.844,2.844,0,0,0,1.1.2,10.981,10.981,0,0,0,1.579-.173c.034-.006.069-.009.1-.014A17.429,17.429,0,0,0,17.7,89.265c-.449.527-.827,1.023-1.127,1.429s-.525.728-.625.856a3.569,3.569,0,0,0-.71,2.181,3.362,3.362,0,0,0,.686,2.092,2.725,2.725,0,0,0,.964.77,3.009,3.009,0,0,0,1.3.283,4.743,4.743,0,0,0,1.822-.41A33.8,33.8,0,0,1,25.652,94.7c.78-.174,1.432-.295,1.886-.371l.228-.038,6.821,5.88h0l0,0A.449.449,0,0,1,34.532,100.349Zm.789-4.954-.024.458a3.485,3.485,0,0,1-.251,1.015c-.076.2-.169.4-.266.6l-5.974-5.149a1.09,1.09,0,0,0-.846-.255,37.716,37.716,0,0,0-8.794,2.4,2.562,2.562,0,0,1-.978.239.814.814,0,0,1-.366-.07.608.608,0,0,1-.282-.291,1.374,1.374,0,0,1-.132-.611,1.433,1.433,0,0,1,.252-.847c.169-.218.375-.516.66-.9A21.463,21.463,0,0,1,20,89.951a10.99,10.99,0,0,1,2.308-1.906,5.641,5.641,0,0,1,2.992-.83,10.689,10.689,0,0,1,1.619.148,10.991,10.991,0,0,0,1.578.173,2.857,2.857,0,0,0,1.1-.2H29.6a9.284,9.284,0,0,0,1.775-1.054c.354-.256.7-.533,1.041-.81l6.528,6.76Z" transform="translate(0 -78.954)" fill="#2c7b8c"/>
      </g>
    </g>
  </g>
</svg>
