<svg xmlns="http://www.w3.org/2000/svg" width="50" height="50" viewBox="0 0 50 50">
  <g id="compare_icon03" transform="translate(-217 -717)">
    <rect id="長方形_70" data-name="長方形 70" width="50" height="50" transform="translate(217 717)" fill="none"/>
    <g id="分析のフリーアイコン" transform="translate(219 676.548)">
      <circle id="楕円形_25" data-name="楕円形 25" cx="3.184" cy="3.184" r="3.184" transform="translate(32.264 52.451)" fill="#2c7b8c"/>
      <path id="パス_493" data-name="パス 493" d="M28.916,180.384l-3.722,6.4a2.439,2.439,0,0,0-1.189.088l-6.631-8.217a3.146,3.146,0,0,0,.37-1.46,3.184,3.184,0,1,0-5.731,1.895L3.514,194a3.093,3.093,0,0,0-.33-.033,3.211,3.211,0,1,0,2.546,1.29l8.5-14.909a3.1,3.1,0,0,0,.33.033,3.176,3.176,0,0,0,.833-.124l6.63,8.217a3.146,3.146,0,0,0-.37,1.459,3.184,3.184,0,1,0,5.747-1.875l3.716-6.394A10.753,10.753,0,0,1,28.916,180.384Z" transform="translate(0 -116.045)" fill="#2c7b8c"/>
      <path id="パス_494" data-name="パス 494" d="M309.988,63.168l-2.507-2.382.114-.175a9.181,9.181,0,1,0-2.737,2.738l.175-.114,2.4,2.519a1.749,1.749,0,0,0,1.333.7,1.846,1.846,0,0,0,1.3-.6,1.9,1.9,0,0,0,.619-1.418A1.74,1.74,0,0,0,309.988,63.168Zm-6.348-3.773a5.318,5.318,0,1,1,0-7.521A5.286,5.286,0,0,1,303.64,59.395Z" transform="translate(-264.449)" fill="#58b5c9"/>
    </g>
  </g>
</svg>
