<svg xmlns="http://www.w3.org/2000/svg" width="50" height="50" viewBox="0 0 50 50">
  <g id="compare_icon01" transform="translate(-77 -717)">
    <rect id="長方形_68" data-name="長方形 68" width="50" height="50" transform="translate(77 717)" fill="none"/>
    <g id="マネーアイコン_円" data-name="マネーアイコン　円" transform="translate(49.422 719)">
      <path id="パス_495" data-name="パス 495" d="M297.231,8.412l5.639,1.5a.4.4,0,0,1,.3.3l1.487,5.64a.366.366,0,0,0,.356.282.36.36,0,0,0,.353-.282l1.49-5.64a.389.389,0,0,1,.3-.3l5.64-1.5a.356.356,0,0,0,0-.7l-5.64-1.5a.391.391,0,0,1-.3-.3l-1.49-5.64A.363.363,0,0,0,305.013,0a.369.369,0,0,0-.356.283l-1.487,5.64a.4.4,0,0,1-.3.3l-5.639,1.5a.356.356,0,0,0,0,.7Z" transform="translate(-240.384)" fill="#d9d9d9"/>
      <path id="パス_496" data-name="パス 496" d="M37.026,102.225l1.062,4.03a.261.261,0,0,0,.508,0l1.062-4.03a.283.283,0,0,1,.216-.214l4.03-1.068a.257.257,0,0,0,.2-.251.254.254,0,0,0-.2-.248l-4.03-1.069a.282.282,0,0,1-.216-.213L38.6,95.13a.261.261,0,0,0-.508,0l-1.062,4.032a.284.284,0,0,1-.216.213l-4.029,1.069a.252.252,0,0,0-.2.248.256.256,0,0,0,.2.251l4.029,1.068A.285.285,0,0,1,37.026,102.225Z" transform="translate(0 -86.317)" fill="#d9d9d9"/>
      <path id="パス_497" data-name="パス 497" d="M38.113,367.563v3.63a4.571,4.571,0,0,0,.359,1.761,6.529,6.529,0,0,0,1.077,1.712,9.129,9.129,0,0,0,.672.7v-5.809c-.159-.119-.313-.238-.464-.359A11.321,11.321,0,0,1,38.113,367.563Z" transform="translate(-5.033 -334.214)" fill="#2c7b8c"/>
      <path id="パス_498" data-name="パス 498" d="M79.92,407.674a17.625,17.625,0,0,0,1.847,1.054c.288.143.587.279.892.411v-6.177a22.158,22.158,0,0,1-2.739-1.32Z" transform="translate(-43.047 -365.201)" fill="#2c7b8c"/>
      <path id="パス_499" data-name="パス 499" d="M127.7,422.979v6.19h-.1a30.1,30.1,0,0,0,3.892,1.09V423.97c-.9-.181-1.772-.389-2.607-.626C128.482,423.228,128.086,423.107,127.7,422.979Z" transform="translate(-86.402 -384.602)" fill="#2c7b8c"/>
      <path id="パス_500" data-name="パス 500" d="M189.088,443.447a39.374,39.374,0,0,0,5.479.493v-6.327a41.176,41.176,0,0,1-5.479-.465Z" transform="translate(-142.31 -397.486)" fill="#2c7b8c"/>
      <path id="パス_501" data-name="パス 501" d="M268.065,443.651a39.227,39.227,0,0,0,5.69-.526v-6.289a41.575,41.575,0,0,1-5.69.5Z" transform="translate(-214.121 -397.202)" fill="#2c7b8c"/>
      <path id="パス_502" data-name="パス 502" d="M349.352,429.491c.664-.145,1.313-.3,1.935-.48q.966-.275,1.858-.6v-6.223a32.38,32.38,0,0,1-3.793,1.021Z" transform="translate(-288.033 -383.884)" fill="#2c7b8c"/>
      <path id="パス_503" data-name="パス 503" d="M409.734,401.641v6.173a17.811,17.811,0,0,0,2.741-1.518v-6.012c-.419.247-.855.484-1.313.712S410.227,401.437,409.734,401.641Z" transform="translate(-342.936 -363.967)" fill="#2c7b8c"/>
      <path id="パス_504" data-name="パス 504" d="M457.416,369.481h.1v5.7a6.937,6.937,0,0,0,1.536-2.208,4.544,4.544,0,0,0,.36-1.761V367.58c-.052.063-.1.126-.156.189A12,12,0,0,1,457.416,369.481Z" transform="translate(-386.292 -334.229)" fill="#2c7b8c"/>
      <path id="パス_505" data-name="パス 505" d="M77.793,213.882a4.474,4.474,0,0,0,0-3.519,6.422,6.422,0,0,0-1.077-1.712,13.2,13.2,0,0,0-4.2-3.074,33.3,33.3,0,0,0-14.379-2.936,37.493,37.493,0,0,0-10.153,1.335,20.191,20.191,0,0,0-7.156,3.447,7.712,7.712,0,0,0-2.351,2.941,4.491,4.491,0,0,0,0,3.519,6.511,6.511,0,0,0,1.077,1.712,13.2,13.2,0,0,0,4.2,3.075,33.3,33.3,0,0,0,14.379,2.937,37.475,37.475,0,0,0,10.155-1.336,20.2,20.2,0,0,0,7.156-3.446A7.726,7.726,0,0,0,77.793,213.882Zm-17.346,4.026H55.781L56,215.2l-3.978.029.243-2,3.9-.053.106-1.464-3.853.064.228-1.872,2.742-.062-2.628-4.542L55.8,205.2l2.314,3.735,2.316-3.735,3.034.106-2.628,4.542,2.744.062.228,1.872-3.853-.064.1,1.464,3.9.053.243,2-3.978-.029Zm14.316-4.787-2.648.7a.183.183,0,0,0-.142.142l-.7,2.647a.171.171,0,0,1-.333,0l-.7-2.647a.183.183,0,0,0-.142-.142l-2.647-.7a.167.167,0,0,1,0-.328l2.647-.7a.188.188,0,0,0,.142-.14l.7-2.648a.171.171,0,0,1,.333,0l.7,2.648a.188.188,0,0,0,.142.14l2.648.7a.168.168,0,0,1,0,.328Z" transform="translate(-5.033 -184.254)" fill="#58b5c9"/>
    </g>
  </g>
</svg>
