<svg width="34" height="35" viewBox="0 0 34 35" fill="none" xmlns="http://www.w3.org/2000/svg">
<path d="M17.0007 0.583252C26.0762 0.583252 33.4341 8.15747 33.4341 17.4999C33.4341 26.8424 26.0762 34.4166 17.0007 34.4166C7.9252 34.4166 0.567383 26.8424 0.567383 17.4999C0.567383 8.15747 7.9252 0.583252 17.0007 0.583252Z" fill="#4DAAF5"/>
<path d="M26.5161 16.3334C26.9632 16.3334 27.3909 16.1511 27.7052 15.8276L27.7247 15.8066C28.3799 15.1303 28.3799 14.0365 27.7247 13.3593L27.7052 13.3393C27.3909 13.0157 26.9632 12.8334 26.5161 12.8334H22.6805C22.0536 12.8334 21.5471 12.3111 21.5471 11.6667V5.25008C21.5471 4.63029 21.3081 4.03784 20.8831 3.60034C19.9977 2.68888 18.5606 2.68888 17.6779 3.60034C17.2529 4.03784 17.0138 4.63029 17.0138 5.25008V10.017C17.0138 10.3269 16.8943 10.6231 16.6818 10.8419L12.4805 15.1667V26.8334H26.2044H25.0711H26.6339C27.0854 26.8334 27.5166 26.6484 27.8354 26.3203C28.4994 25.6367 28.4994 24.5292 27.8354 23.8457C27.5166 23.5175 27.0854 23.3334 26.6339 23.3334C27.0854 23.3334 27.5166 23.1484 27.8354 22.8203C28.4994 22.1367 28.4994 21.0292 27.8354 20.3457C27.5166 20.0175 27.0854 19.8334 26.6339 19.8334C27.0854 19.8334 27.5166 19.6484 27.8354 19.3203C28.4994 18.6367 28.4994 17.5292 27.8354 16.8457C27.5166 16.5175 27.0854 16.3334 26.6339 16.3334H26.5161Z" fill="#F5DBCD"/>
<path d="M7.94681 12.8334H11.3468C11.971 12.8334 12.4801 13.3547 12.4801 14V26.8334C12.4801 27.4778 11.971 28 11.3468 28H7.94681C7.31993 28 6.81348 27.4778 6.81348 26.8334V14C6.81348 13.3547 7.31993 12.8334 7.94681 12.8334Z" fill="#3F51B4"/>
<path d="M27.8342 22.8202C28.4983 22.1366 28.4983 21.0292 27.8342 20.3456C27.5154 20.0175 27.0842 19.8334 26.6327 19.8334C27.0842 19.8334 27.5154 19.6483 27.8342 19.3202C28.4983 18.6366 28.4983 17.5292 27.8342 16.8456C27.5154 16.5175 27.0842 16.3334 26.6327 16.3334H26.5149C26.9621 16.3334 27.3897 16.1511 27.704 15.8275L27.7235 15.8066C28.3787 15.1302 28.3787 14.0365 27.7235 13.3593L27.704 13.3392C27.3897 13.0157 26.9621 12.8334 26.5149 12.8334H26.4662C24.7662 18.4088 21.4796 23.2577 17.1543 26.8334H26.2033H25.0699H26.6327C27.0842 26.8334 27.5154 26.6483 27.8342 26.3202C28.4983 25.6366 28.4983 24.5292 27.8342 23.8456C27.5154 23.5175 27.0842 23.3334 26.6327 23.3334C27.0842 23.3334 27.5154 23.1483 27.8342 22.8202Z" fill="#F2D2C0"/>
<path d="M26.6328 23.9166C26.9356 23.9166 27.219 24.0369 27.4341 24.2584C27.6484 24.4789 27.7661 24.7706 27.7661 25.0832C27.7661 25.395 27.6484 25.6866 27.4341 25.9081C27.219 26.1287 26.9356 26.2499 26.6328 26.2499H13.0461V15.4081L17.0809 11.2537C17.4023 10.9237 17.5794 10.4835 17.5794 10.0168V5.24991C17.5794 4.78233 17.7539 4.34301 18.077 4.01215C18.7393 3.32856 19.8169 3.32856 20.4809 4.01215C20.8023 4.34301 20.9794 4.78233 20.9794 5.24991V11.6666C20.9794 12.6327 21.7409 13.4166 22.6794 13.4166H26.5151C26.8143 13.4166 27.0932 13.5351 27.3234 13.772C27.5333 13.9881 27.6484 14.2779 27.6484 14.5832C27.6484 14.8886 27.5333 15.1775 27.3031 15.4145C27.0932 15.6314 26.8143 15.7499 26.5151 15.7499H24.3794V16.9166H26.6328C26.9356 16.9166 27.219 17.0369 27.4341 17.2584C27.6484 17.4789 27.7661 17.7706 27.7661 18.0832C27.7661 18.395 27.6484 18.6866 27.4341 18.9081C27.2234 19.1241 26.9312 19.2499 26.6328 19.2499H24.3794V20.4166H26.6328C26.9356 20.4166 27.219 20.5369 27.4341 20.7584C27.6484 20.9789 27.7661 21.2706 27.7661 21.5832C27.7661 21.895 27.6484 22.1866 27.4341 22.4081C27.2234 22.6241 26.9312 22.7499 26.6328 22.7499H24.3794V23.9166H26.6328ZM11.9128 26.8332C11.9128 27.1541 11.6578 27.4166 11.3461 27.4166H7.94609C7.63177 27.4166 7.37943 27.1541 7.37943 26.8332V13.9999C7.37943 13.6782 7.63177 13.4166 7.94609 13.4166H11.3461C11.6578 13.4166 11.9128 13.6782 11.9128 13.9999V26.8332ZM28.8995 21.5832C28.8995 20.9589 28.6648 20.3728 28.2354 19.9335C28.2 19.8943 28.1557 19.867 28.1159 19.8332C28.1557 19.7986 28.2 19.7713 28.2354 19.733C28.6648 19.2927 28.8995 18.7076 28.8995 18.0832C28.8995 17.4589 28.6648 16.8728 28.2354 16.4335C28.1823 16.3788 28.1247 16.3241 28.0672 16.2758C28.0867 16.2576 28.1044 16.2375 28.1247 16.2193C28.5497 15.7818 28.7817 15.2003 28.7817 14.5832C28.7817 13.9653 28.5497 13.3847 28.1044 12.9262C27.6794 12.4887 27.1154 12.2499 26.5151 12.2499H22.6794C22.3651 12.2499 22.1128 11.9874 22.1128 11.6666V5.24991C22.1128 4.47061 21.8161 3.73871 21.2822 3.18728C20.1781 2.05069 18.3807 2.05069 17.274 3.18728C16.7401 3.73871 16.4461 4.47061 16.4461 5.24991V10.0168C16.4461 10.1718 16.3859 10.3194 16.2796 10.4288L13.024 13.7812C12.9177 12.9198 12.2094 12.2499 11.3461 12.2499H7.94609C7.00755 12.2499 6.24609 13.0338 6.24609 13.9999V26.8332C6.24609 27.7994 7.00755 28.5832 7.94609 28.5832H11.3461C12.0828 28.5832 12.7052 28.0929 12.9398 27.4166H26.6328C27.2393 27.4166 27.8078 27.1723 28.2354 26.733C28.6648 26.2927 28.8995 25.7076 28.8995 25.0832C28.8995 24.4589 28.6648 23.8728 28.2354 23.4335C28.2 23.3943 28.1557 23.367 28.1159 23.3332C28.1557 23.2986 28.2 23.2713 28.2354 23.233C28.6648 22.7927 28.8995 22.2076 28.8995 21.5832Z" fill="black"/>
<path d="M17 33.8333C8.24943 33.8333 1.13333 26.507 1.13333 17.5C1.13333 8.49206 8.24943 1.16667 17 1.16667C25.7497 1.16667 32.8667 8.49206 32.8667 17.5C32.8667 26.507 25.7497 33.8333 17 33.8333ZM17 0C7.62521 0 0 7.84948 0 17.5C0 27.1496 7.62521 35 17 35C26.3739 35 34 27.1496 34 17.5C34 7.84948 26.3739 0 17 0Z" fill="black"/>
</svg>
