<svg xmlns="http://www.w3.org/2000/svg" width="100" height="100" viewBox="0 0 100 100">
  <g id="icon06" transform="translate(-173 -1902)">
    <rect id="長方形_96" data-name="長方形 96" width="100" height="100" transform="translate(173 1902)" fill="none"/>
    <path id="file-alt-regular" d="M56.25,48.438v5.469a2.351,2.351,0,0,1-2.344,2.344H21.094a2.351,2.351,0,0,1-2.344-2.344V48.438a2.351,2.351,0,0,1,2.344-2.344H53.906A2.351,2.351,0,0,1,56.25,48.438ZM53.906,62.5H21.094a2.351,2.351,0,0,0-2.344,2.344v5.469a2.351,2.351,0,0,0,2.344,2.344H53.906a2.351,2.351,0,0,0,2.344-2.344V64.844A2.351,2.351,0,0,0,53.906,62.5ZM75,25.762V90.625A9.377,9.377,0,0,1,65.625,100H9.375A9.377,9.377,0,0,1,0,90.625V9.375A9.377,9.377,0,0,1,9.375,0H49.238a9.375,9.375,0,0,1,6.621,2.754L72.246,19.141A9.341,9.341,0,0,1,75,25.762ZM50,10.137V25H64.863L50,10.137ZM65.625,90.625V34.375H45.313a4.676,4.676,0,0,1-4.687-4.687V9.375H9.375v81.25Z" transform="translate(186 1902)" fill="#ffc107"/>
  </g>
</svg>
