<svg xmlns="http://www.w3.org/2000/svg" width="84.869" height="88.243" viewBox="0 0 84.869 88.243">
  <g id="icon09" transform="translate(-119 -2162.999)">
    <path id="file-alt-regular" d="M63.652,42.742v4.826A2.423,2.423,0,0,1,61,49.636H23.869a2.423,2.423,0,0,1-2.652-2.068V42.742a2.423,2.423,0,0,1,2.652-2.068H61a2.423,2.423,0,0,1,2.652,2.068ZM61,55.151H23.869a2.423,2.423,0,0,0-2.652,2.068v4.826a2.423,2.423,0,0,0,2.652,2.068H61a2.423,2.423,0,0,0,2.652-2.068V57.22A2.423,2.423,0,0,0,61,55.151ZM84.869,22.733V79.969c0,4.567-4.752,8.273-10.609,8.273H10.609C4.752,88.242,0,84.537,0,79.969V8.273C0,3.7,4.752,0,10.609,0H55.717A12.284,12.284,0,0,1,63.21,2.43L81.753,16.89A7.46,7.46,0,0,1,84.869,22.733ZM56.579,8.945V22.061H73.4ZM74.26,79.969V30.333H51.275c-2.939,0-5.3-1.844-5.3-4.136V8.273H10.609v71.7Z" transform="translate(119 2163)" fill="#58b5c9"/>
    <rect id="長方形_99" data-name="長方形 99" width="17" height="10" rx="3" transform="translate(140 2183)" fill="#58b5c9"/>
  </g>
</svg>
