<svg xmlns="http://www.w3.org/2000/svg" width="100" height="100" viewBox="0 0 100 100">
  <g id="icon01" transform="translate(-40 -1758)">
    <rect id="長方形_91" data-name="長方形 91" width="100" height="100" transform="translate(40 1758)" fill="none"/>
    <g id="surface950898" transform="translate(8.163 1738)">
      <path id="パス_521" data-name="パス 521" d="M81.438,26a25.224,25.224,0,0,0-25.15,25.15C56.289,54,51.351,63.826,54.1,72.6c.861,4.6,5.867,5.707,9.653,5.376,2.692.613-4.112-13.078-4.112-12.575A21.776,21.776,0,0,0,99.21,77.976,12.578,12.578,0,0,0,111.618,65.4c.435-6.269-4.628-20.326-8.383-26.827A25.118,25.118,0,0,0,81.438,26Zm15.11,24.818a2.655,2.655,0,0,1,1.574.585,2.453,2.453,0,0,1,.5,3.268c-.5.838-1.007,1.593-1.593,2.431a1.725,1.725,0,0,0-.251,1.677,16.169,16.169,0,0,1,1.341,7.545,16.736,16.736,0,0,1-33.45-.922,1.612,1.612,0,0,1,1.677-1.593H72.3a28.069,28.069,0,0,0,8.133-1.174,24.336,24.336,0,0,0,12.825-8.969c.336-.5.671-1.007,1.007-1.593A2.5,2.5,0,0,1,96.548,50.818ZM81.438,91.39a38.428,38.428,0,0,0-33.281,19.365,2.516,2.516,0,1,0,4.359,2.515,33.247,33.247,0,0,1,57.845,0,2.525,2.525,0,0,0,2.179,1.257,2.36,2.36,0,0,0,1.257-.336,2.565,2.565,0,0,0,.922-3.437A38.428,38.428,0,0,0,81.438,91.39Zm0,0" fill="#fd9999"/>
    </g>
  </g>
</svg>
