<svg xmlns="http://www.w3.org/2000/svg" width="100" height="100" viewBox="0 0 100 100">
  <g id="icon03" transform="translate(-306 -1758)">
    <rect id="長方形_93" data-name="長方形 93" width="100" height="100" transform="translate(306 1758)" fill="none"/>
    <path id="hand-point-right-regular" d="M83.75,52.625H66.919a22.563,22.563,0,0,0,.425-4.375c0-9.358-6.85-16.25-17.969-16.25-8.85,0-11.133,9.48-14.787,15.387a48.066,48.066,0,0,1-5.049,6.495l-.026.029-.025.029c-2.992,3.413-4.535,4.623-5.895,4.623h-.523A6.608,6.608,0,0,0,18.75,57H6.25C2.8,57,0,59.518,0,62.625v45c0,3.107,2.8,5.625,6.25,5.625h12.5a6.608,6.608,0,0,0,4.32-1.562h.523c5.6,0,13.113,7.812,24.844,7.812H52.6c12.215,0,19.3-7.55,19.52-17.8a18.136,18.136,0,0,0,3.122-12.264,18.193,18.193,0,0,0,1.549-4.309H83.75a16.25,16.25,0,1,0,0-32.5Zm0,23.125H65.971A8.811,8.811,0,0,1,65,87.674c2.193,3.837.329,8.911-2.524,10.474,1.274,7.642-1.968,11.978-9.883,11.978h-4.16c-8.885,0-15.08-7.014-23.437-7.749V67.854c4.929-.579,8.392-4.145,11.538-7.734a56.733,56.733,0,0,0,6.015-7.788c2.828-4.568,5.1-10.957,6.821-10.957,4.565,0,8.594,1.719,8.594,6.875,0,6.875-5.156,10.366-5.156,13.75H83.75a7.107,7.107,0,0,1,6.875,6.875A7,7,0,0,1,83.75,75.75Zm-66.562,25A4.688,4.688,0,1,1,12.5,96.063,4.687,4.687,0,0,1,17.188,100.75Z" transform="translate(306 1732)" fill="#1a4473"/>
  </g>
</svg>
