<svg xmlns="http://www.w3.org/2000/svg" width="100" height="100" viewBox="0 0 100 100">
  <g id="icon02" transform="translate(-173 -1758)">
    <rect id="長方形_92" data-name="長方形 92" width="100" height="100" transform="translate(173 1758)" fill="none"/>
    <path id="icons8-ユーザ男性" d="M53.289,21.9A21.059,21.059,0,0,0,32.233,42.957,2.7,2.7,0,0,0,34.979,45.7h4.944c10.528,0,21.239,0,28.929-6.866v.091a10.436,10.436,0,0,0,1.007-1.007,2.747,2.747,0,0,1,3.846-.275,2.792,2.792,0,0,1,.182,4.029l-1.282,1.282A2.365,2.365,0,0,0,73.43,46.8a10.463,10.463,0,0,0,2.929.642,2.776,2.776,0,0,1,2.473,2.746v6.224a18.267,18.267,0,1,1-36.528.458,2.747,2.747,0,1,0-5.493-.091,23.818,23.818,0,0,0,47.606,1.191V41.217A12.793,12.793,0,0,0,73.063,28.491l-.367-.549A14.36,14.36,0,0,0,61.071,21.9Zm7.324,63.26a41.964,41.964,0,0,0-36.344,21.148,2.8,2.8,0,0,0,1.007,3.753,2.584,2.584,0,0,0,1.373.367,2.654,2.654,0,0,0,2.38-1.373,36.307,36.307,0,0,1,63.169,0,2.748,2.748,0,1,0,4.76-2.746A41.964,41.964,0,0,0,60.613,85.161Z" transform="translate(162.081 1742.1)" fill="#70b8d9"/>
  </g>
</svg>
