<svg xmlns="http://www.w3.org/2000/svg" width="100" height="100" viewBox="0 0 100 100">
  <g id="icon07" transform="translate(-306 -1898)">
    <rect id="長方形_97" data-name="長方形 97" width="100" height="100" transform="translate(306 1898)" fill="none"/>
    <path id="exclamation-circle-solid" d="M108,58A50,50,0,1,1,58,8,50,50,0,0,1,108,58ZM58,68.081a9.274,9.274,0,1,0,9.274,9.274A9.274,9.274,0,0,0,58,68.081ZM49.195,34.745l1.5,27.419a2.419,2.419,0,0,0,2.416,2.287h9.787a2.419,2.419,0,0,0,2.416-2.287l1.5-27.419a2.419,2.419,0,0,0-2.416-2.551H51.61a2.419,2.419,0,0,0-2.416,2.551Z" transform="translate(298 1890)" fill="#d52626"/>
  </g>
</svg>
