<svg xmlns="http://www.w3.org/2000/svg" width="100" height="100" viewBox="0 0 100 100">
  <g id="icon08" transform="translate(-441 -1898)">
    <rect id="長方形_98" data-name="長方形 98" width="100" height="100" transform="translate(441 1898)" fill="none"/>
    <path id="search-solid" d="M98.623,86.456,79.152,66.986a4.684,4.684,0,0,0-3.32-1.367H72.649a40.6,40.6,0,1,0-7.031,7.031v3.183a4.684,4.684,0,0,0,1.367,3.32L86.456,98.623a4.668,4.668,0,0,0,6.62,0L98.6,93.1A4.709,4.709,0,0,0,98.623,86.456Zm-58-20.838a25,25,0,1,1,25-25A24.983,24.983,0,0,1,40.621,65.619Z" transform="translate(441 1898)" fill="#8bc34a"/>
  </g>
</svg>
