<svg xmlns="http://www.w3.org/2000/svg" width="100" height="100" viewBox="0 0 100 100">
  <g id="icon04" transform="translate(-439 -1758)">
    <rect id="長方形_94" data-name="長方形 94" width="100" height="100" transform="translate(439 1758)" fill="none"/>
    <path id="thumbs-up-regular" d="M91.068,55.994A18.469,18.469,0,0,0,93.75,46.26,17,17,0,0,0,76.988,29.545H69.863a24.938,24.938,0,0,0,1.729-9.09C71.592,6.238,64.23,0,52.984,0,40.952,0,41.638,18.542,38.969,21.211c-4.443,4.443-9.69,12.978-13.43,16.289H6.25A6.25,6.25,0,0,0,0,43.75V90.625a6.25,6.25,0,0,0,6.25,6.25h12.5A6.253,6.253,0,0,0,24.8,92.2c8.693.2,14.66,7.8,34.727,7.8l4.34,0c15.062,0,21.872-7.7,22.059-18.619A18.831,18.831,0,0,0,89.313,68.3,18.14,18.14,0,0,0,91.068,55.994ZM79.008,66.508c2.453,4.127.246,9.65-2.723,11.244,1.5,9.527-3.439,12.871-10.375,12.871H58.523c-13.992,0-23.053-7.387-33.523-7.387V46.875h2.133c5.539,0,13.277-13.846,18.465-19.035,5.539-5.539,3.693-14.771,7.387-18.465,9.232,0,9.232,6.441,9.232,11.08,0,7.65-5.539,11.078-5.539,18.465H76.988a7.628,7.628,0,0,1,7.387,7.387c.018,3.691-2.5,7.385-4.35,7.385,2.635,2.843,3.2,8.835-1.018,12.816ZM17.188,84.375A4.688,4.688,0,1,1,12.5,79.688,4.687,4.687,0,0,1,17.188,84.375Z" transform="translate(442 1758)" fill="#1a4473"/>
  </g>
</svg>
