<svg xmlns="http://www.w3.org/2000/svg" width="100" height="100" viewBox="0 0 100 100">
  <g id="icon05" transform="translate(-40 -1898)">
    <rect id="長方形_95" data-name="長方形 95" width="100" height="100" transform="translate(40 1898)" fill="none"/>
    <path id="thumbs-down-regular" d="M91.068,44.006a18.139,18.139,0,0,0-1.756-12.3,18.832,18.832,0,0,0-3.387-13.084C85.739,7.7,78.929,0,63.867,0l-4.34,0C39.3,0,33.007,7.813,25,7.813H22.882A6.225,6.225,0,0,0,18.75,6.25H6.25A6.25,6.25,0,0,0,0,12.5V59.375a6.25,6.25,0,0,0,6.25,6.25h12.5A6.246,6.246,0,0,0,24.162,62.5h1.377c3.739,3.311,8.987,11.846,13.43,16.289C41.638,81.458,40.952,100,52.984,100c11.246,0,18.607-6.237,18.607-20.455a24.938,24.938,0,0,0-1.729-9.09h7.125A17,17,0,0,0,93.75,53.74a18.469,18.469,0,0,0-2.682-9.734ZM12.5,57.813a4.687,4.687,0,1,1,4.688-4.687A4.687,4.687,0,0,1,12.5,57.813ZM76.988,61.08H56.678c0,7.387,5.539,10.814,5.539,18.465,0,4.639,0,11.08-9.232,11.08C49.291,86.932,51.137,77.7,45.6,72.16,40.41,66.971,32.672,53.125,27.133,53.125H25V16.764c10.471,0,19.531-7.387,33.523-7.387H65.91c6.936,0,11.879,3.344,10.375,12.871,2.969,1.594,5.176,7.117,2.723,11.244,4.215,3.981,3.652,9.974,1.018,12.816,1.846,0,4.367,3.693,4.35,7.385A7.628,7.628,0,0,1,76.988,61.08Z" transform="translate(43 1898)" fill="#1a4473"/>
  </g>
</svg>
