<svg xmlns="http://www.w3.org/2000/svg" xmlns:xlink="http://www.w3.org/1999/xlink" width="65" height="65" viewBox="0 0 65 65">
  <defs>
    <clipPath id="clip-path">
      <circle id="楕円形_4" data-name="楕円形 4" cx="32.5" cy="32.5" r="32.5" transform="translate(131 99)" fill="#fff" stroke="#707070" stroke-width="1"/>
    </clipPath>
    <clipPath id="clip-path-2">
      <rect id="長方形_3" data-name="長方形 3" width="47" height="151.876" transform="translate(9 10)" fill="#fff"/>
    </clipPath>
  </defs>
  <g id="mem02" transform="translate(-131 -99)" clip-path="url(#clip-path)">
    <g id="mem02-2" data-name="mem02" transform="translate(131 99)">
      <circle id="楕円形_2" data-name="楕円形 2" cx="32.5" cy="32.5" r="32.5" fill="#ff5a5a"/>
      <g id="グループ_3" data-name="グループ 3" clip-path="url(#clip-path-2)">
        <path id="パス_116" data-name="パス 116" d="M21.08,44.557A3.836,3.836,0,0,1,18.5,41.045a22.8,22.8,0,0,1,.61-4.575,24.166,24.166,0,0,0,.583-3.742c.144-1.58.226-3.485.226-5.7-.2-6.083,1.4-10.493,3.92-12.906a13.683,13.683,0,0,1,8.794-3.437,12.433,12.433,0,0,1,4.932.761L39.949,12.5a7.887,7.887,0,0,1,1.981,1.669A13.465,13.465,0,0,1,45.4,22.361c.062.864.1,2.882.065,4.664a32.227,32.227,0,0,0,1.5,10.134,10.8,10.8,0,0,1,.593,3.458,3.82,3.82,0,0,1-3.718,3.722Z" fill="#957f6e"/>
        <path id="パス_117" data-name="パス 117" d="M37.416,41.2c-.015-.1-.03-.209-.049-.317a13.405,13.405,0,0,1-.208-2.113c2.456-1.058,4.432-4.363,4.775-5.3.052-.158.158-.456.252-.809l.2-.031a2.476,2.476,0,0,0,1.151-.519,3.729,3.729,0,0,0,.965-1.268,5.874,5.874,0,0,0,.6-3.113,1.964,1.964,0,0,0-.206-.788,1.386,1.386,0,0,0-1-.662,1.467,1.467,0,0,0-1.175.343A8.826,8.826,0,0,1,39.6,23.7a11.241,11.241,0,0,1-2.109-4.887,15.767,15.767,0,0,1-6.562,4.078,11.511,11.511,0,0,1-2.106.358,23.2,23.2,0,0,1-2.655,1.807c-.528.312-2.513,1.226-3.221,1.514a1.452,1.452,0,0,0-1.1-.286,1.386,1.386,0,0,0-1,.663,1.958,1.958,0,0,0-.206.788,5.873,5.873,0,0,0,.6,3.113,3.729,3.729,0,0,0,.965,1.268,2.473,2.473,0,0,0,1.152.52l.375.057a9.988,9.988,0,0,0,1.9,3.717,8.452,8.452,0,0,0,3.046,2.4,13.707,13.707,0,0,1-.209,2.083c-.028.166-.049.319-.073.477a14.935,14.935,0,0,0,3.682,2.413c.089.041.188.09.217.183h1.075c.029-.093.128-.142.217-.183a14.866,14.866,0,0,0,4.292-2.991" fill="#fff"/>
        <path id="パス_118" data-name="パス 118" d="M34.664,79.552a4.893,4.893,0,0,0,1.919,2.333c1.805.808,7.633.606,9.57.209-.171-1.564-.622-4.77-1.03-7.873l-.015-.124c1.816-1.054,3.759-2.247,5.319-3.332,1.5-1.042,3.526-2.3,4.482-4.238s.043-3.6-.835-6.111c-.925-2.646-2.815-8.166-3.874-10.867a5.791,5.791,0,0,0-1.911-2.844,9.875,9.875,0,0,0-2.083-1.244c-1.611-.8-5.038-2.345-6.662-3.208l-.272-.144a68.726,68.726,0,0,1-2.085,6.923c-1.808,5.072-3.123,8.526-4.574,12.01-.5-1.4-.909-2.816-1.35-4.229-.674-2.169-4.029-13.275-4.448-14.646l-.107-.348-.923.437c-1.929.914-5.106,2.5-6.715,3.3-.3.147-1.451.836-1.725.975a4.189,4.189,0,0,0-.655.366,5.293,5.293,0,0,0-1.911,2.846c-1.059,2.7-2.95,8.22-3.872,10.867-.881,2.513-1.792,4.174-.837,6.111s2.985,3.2,4.482,4.238c1.521,1.058,3.406,2.218,5.183,3.253l-.007.057c-.407,3.094-.854,6.282-1.025,7.834,1.371.3,7.714.677,9.935-.114a5.4,5.4,0,0,0,2.132-1.349Z" fill="#bdbdbd"/>
        <path id="パス_119" data-name="パス 119" d="M27.106,41.534c-.12.153-.233.312-.34.472l.05.162c.419,1.371,3.774,12.476,4.449,14.645.427,1.371.826,2.744,1.3,4.1l.276-.43c1.362-3.3,2.631-6.651,4.343-11.453.956-2.68,1.694-5.286,2-6.57a7.047,7.047,0,0,0-1.307-1.676,14.869,14.869,0,0,1-4.292,2.991c-.089.04-.188.089-.217.183a.347.347,0,0,0,.05.243H32.251a.347.347,0,0,0,.05-.243c-.029-.093-.128-.142-.217-.183a14.869,14.869,0,0,1-4.292-2.991A6.22,6.22,0,0,0,27.106,41.534Z" fill="#fff"/>
        <path id="パス_120" data-name="パス 120" d="M29.082,41.426a21.131,21.131,0,0,0,.289-2.622A.685.685,0,0,0,28,38.8a13.574,13.574,0,0,1-.115,1.471l.024-.182c-.044.324-.1.646-.149.97a.754.754,0,0,0,.069.528.685.685,0,0,0,.938.246.659.659,0,0,0,.315-.411Z" fill="#211715"/>
        <path id="パス_121" data-name="パス 121" d="M36.473,38.79a19.991,19.991,0,0,0,.281,2.594.686.686,0,0,0,1.253.164.8.8,0,0,0,.069-.528c-.046-.307-.1-.612-.143-.919l.024.182a13.274,13.274,0,0,1-.114-1.493.685.685,0,0,0-1.371,0Z" fill="#211715"/>
        <path id="パス_122" data-name="パス 122" d="M39.672,41.924a7.963,7.963,0,0,0-1.3-1.624.7.7,0,0,0-.969,0,13.943,13.943,0,0,1-2.3,1.864c-.405.263-.822.507-1.252.728s-.992.37-1.133.884a1.2,1.2,0,0,0,.308,1.043c.281.373.577.734.872,1.095.564.689,1.138,1.371,1.7,2.061a.692.692,0,0,0,.969,0,18.74,18.74,0,0,0,2.617-3.523c.461-.754-.724-1.444-1.184-.692a17.172,17.172,0,0,1-2.4,3.245h.969c-.469-.576-.947-1.146-1.42-1.72-.266-.323-.532-.646-.793-.974-.073-.091-.142-.178-.211-.271a1.585,1.585,0,0,0-.093-.132c-.064-.069.023-.091.012.049l-.094.346q-.185.151-.029.063l.1-.046c.1-.047.2-.1.3-.144q.305-.151.6-.318.614-.343,1.194-.742A15.641,15.641,0,0,0,38.37,41.27H37.4a6.53,6.53,0,0,1,1.087,1.346c.464.748,1.65.061,1.184-.692Z" fill="#211715"/>
        <path id="パス_123" data-name="パス 123" d="M27.365,42.342a6.281,6.281,0,0,1,.913-1.072h-.97a15.7,15.7,0,0,0,2.232,1.848q.58.4,1.194.741.274.152.553.293.149.074.3.146l.15.069q.155.088-.029-.063l-.094-.346c-.01-.125.08-.124.012-.049a1.206,1.206,0,0,0-.075.107c-.074.1-.149.2-.229.3-.261.328-.527.651-.793.974-.473.574-.951,1.143-1.42,1.72h.969A13.74,13.74,0,0,1,28.4,44.9a.7.7,0,0,0-.938-.246.692.692,0,0,0-.246.938,15.629,15.629,0,0,0,1.9,2.386.69.69,0,0,0,.969,0c.551-.677,1.112-1.344,1.666-2.019.3-.365.6-.731.883-1.106a1.232,1.232,0,0,0,.332-1.074c-.137-.5-.674-.651-1.083-.859a14.281,14.281,0,0,1-1.252-.722,13.944,13.944,0,0,1-2.349-1.9.7.7,0,0,0-.97,0,7.9,7.9,0,0,0-1.127,1.35.686.686,0,0,0,1.184.692Z" fill="#211715"/>
        <path id="パス_124" data-name="パス 124" d="M39.2,42.845c1.39.735,2.825,1.387,4.247,2.056.674.317,1.349.633,2.02.96a11.412,11.412,0,0,1,2.34,1.331c.675.558,1.65-.407.969-.969a20.89,20.89,0,0,0-4.524-2.451c-1.46-.685-2.932-1.354-4.359-2.108-.779-.411-1.474.771-.692,1.184Z" fill="#211715"/>
        <path id="パス_125" data-name="パス 125" d="M31.808,64.771a1.8,1.8,0,0,0-.247-.928,1.636,1.636,0,0,0-.9-.694,1.928,1.928,0,0,0-1.183.008,1.65,1.65,0,0,0-.9.717,1.873,1.873,0,0,0-.007,1.852,1.824,1.824,0,0,0,2.052.747,1.731,1.731,0,0,0,1.187-1.7.685.685,0,1,0-1.371,0,1.46,1.46,0,0,1-.013.189l.024-.182a1.359,1.359,0,0,1-.087.319l.069-.163a1.118,1.118,0,0,1-.13.225l.107-.139a.992.992,0,0,1-.158.159l.137-.107a.983.983,0,0,1-.186.11l.164-.069a1.115,1.115,0,0,1-.259.072l.182-.024a1.515,1.515,0,0,1-.377,0l.182.025a1.275,1.275,0,0,1-.3-.078l.164.069a1.069,1.069,0,0,1-.214-.122l.137.107a1.014,1.014,0,0,1-.176-.175l.107.139a1.063,1.063,0,0,1-.128-.22l.069.163a1.117,1.117,0,0,1-.072-.267l.024.182a1.354,1.354,0,0,1,0-.329l-.024.182a1.309,1.309,0,0,1,.089-.327l-.069.164a1.06,1.06,0,0,1,.118-.2l-.107.139a.981.981,0,0,1,.167-.167l-.139.107a1.045,1.045,0,0,1,.194-.113l-.164.069a1.263,1.263,0,0,1,.3-.081l-.182.025a1.466,1.466,0,0,1,.355,0l-.182-.024a1.271,1.271,0,0,1,.3.077l-.164-.068a1.012,1.012,0,0,1,.215.123l-.139-.107a.948.948,0,0,1,.146.145l-.107-.139a.989.989,0,0,1,.124.21l-.069-.164a1.174,1.174,0,0,1,.075.277l-.024-.182a1.453,1.453,0,0,1,.012.177.685.685,0,1,0,1.371,0Z" fill="#211715"/>
        <path id="パス_126" data-name="パス 126" d="M38.629,41.849a56.41,56.41,0,0,1-2.1,7c-.928,2.609-1.878,5.209-2.879,7.792q-.713,1.838-1.464,3.661a.689.689,0,0,0,.48.843.7.7,0,0,0,.843-.48q1.368-3.319,2.612-6.687c1.042-2.8,2.085-5.611,2.945-8.475.326-1.086.649-2.181.887-3.29.184-.86-1.137-1.228-1.322-.364Z" fill="#211715"/>
        <path id="パス_127" data-name="パス 127" d="M25.441,41.665c-1.62.768-3.227,1.567-4.832,2.365-.658.327-1.325.639-1.973.983-.553.294-1.079.637-1.634.928-.782.409-.09,1.592.692,1.184.555-.29,1.081-.635,1.634-.928.649-.343,1.316-.656,1.973-.983,1.606-.8,3.212-1.6,4.832-2.365.8-.377.1-1.56-.692-1.184Z" fill="#211715"/>
        <path id="パス_128" data-name="パス 128" d="M26.155,42.351c.859,2.812,1.705,5.628,2.559,8.442q.731,2.411,1.466,4.82c.623,2.039,1.209,4.1,1.953,6.1a13.678,13.678,0,0,1,.941,4.738,34.838,34.838,0,0,1-.364,4.373.689.689,0,0,0,.685.685.7.7,0,0,0,.685-.685c.329-2.738.614-5.449-.171-8.143-.445-1.533-1.052-3.022-1.522-4.55q-.365-1.189-.731-2.377-1.527-4.98-3.028-9.968-.575-1.9-1.151-3.8c-.257-.841-1.581-.483-1.322.364Z" fill="#211715"/>
        <path id="パス_129" data-name="パス 129" d="M26.147,41.383a12.812,12.812,0,0,0-2.514,1.724,12.267,12.267,0,0,0-2,2.054.694.694,0,0,0,.107.831q.632.732,1.254,1.474.25.3.5.6.108.131.213.263c.1.128-.047-.069.056.073l.246-.938a5.757,5.757,0,0,0-1.093.835c-.5.537-.3,1.147.048,1.709s.675,1.1,1.007,1.658c1.178,1.974,2.348,3.953,3.547,5.915.558.913,1.114,1.829,1.714,2.715.491.727,1.679.042,1.184-.692-2.132-3.155-3.964-6.515-5.942-9.767-.061-.1-.121-.2-.183-.3s-.247-.542-.323-.56c.134.03-.267.433.027.181.08-.069.159-.134.243-.2.15-.112.308-.214.464-.317a.692.692,0,0,0,.246-.938c-.682-.939-1.478-1.808-2.234-2.687l.107.831A10.951,10.951,0,0,1,24.6,44.076a11.349,11.349,0,0,1,2.236-1.51c.791-.39.1-1.573-.692-1.183Z" fill="#211715"/>
        <path id="パス_130" data-name="パス 130" d="M38.784,42.566a11.338,11.338,0,0,1,2.236,1.51A10.92,10.92,0,0,1,42.8,45.853l.107-.831c-.757.878-1.553,1.748-2.234,2.686a.695.695,0,0,0,.246.938c.122.08.817.587.8.6-.087.069.031-.331-.088-.212a2.788,2.788,0,0,0-.251.425c-.048.076-.1.152-.142.228-.369.6-.727,1.207-1.087,1.811-1.122,1.885-2.24,3.77-3.386,5.638-.508.829-1.015,1.659-1.56,2.465-.5.733.692,1.419,1.184.692,2.2-3.256,4.042-6.737,6.125-10.064.323-.516.735-1.152.34-1.744a4.19,4.19,0,0,0-1.244-1.024l.246.938c.1-.141-.047.055.056-.073l.213-.262q.247-.3.5-.6.622-.741,1.254-1.474a.7.7,0,0,0,.107-.831,12.252,12.252,0,0,0-2-2.054,12.8,12.8,0,0,0-2.513-1.724c-.788-.389-1.484.793-.692,1.183Z" fill="#211715"/>
        <path id="パス_131" data-name="パス 131" d="M46.538,46.319c-.371,4.528-1.163,9.035-1.843,13.524q-.364,2.4-.725,4.8a.708.708,0,0,0,.48.843.691.691,0,0,0,.843-.48c.784-5.225,1.635-10.443,2.293-15.685.125-1,.243-2,.325-3,.072-.879-1.3-.875-1.371,0Z" fill="#211715"/>
        <path id="パス_132" data-name="パス 132" d="M16.985,46.522c.38,4.65,1.193,9.279,1.892,13.889q.373,2.456.743,4.913a.69.69,0,0,0,.843.48.7.7,0,0,0,.48-.843c-.772-5.152-1.619-10.3-2.266-15.467-.124-.988-.24-1.978-.32-2.97-.072-.873-1.443-.881-1.371,0Z" fill="#211715"/>
        <path id="パス_133" data-name="パス 133" d="M16.6,63.761c1.437.757,2.8,1.7,4.17,2.563,1.965,1.234,3.924,2.478,5.89,3.711.6.377,1.2.764,1.812,1.119l-.246-.938c-1.2,2.207-2.433,4.4-3.8,6.5l.938-.246c-2.074-.965-4.068-2.135-6.034-3.3-1.261-.746-2.509-1.516-3.728-2.33a30,30,0,0,1-3.2-2.321,5.1,5.1,0,0,1-2.048-3.4c-.044-1.463.712-2.909,1.188-4.257.847-2.4,1.666-4.81,2.522-7.207.446-1.25.893-2.5,1.38-3.738a6.8,6.8,0,0,1,.962-1.843,4.113,4.113,0,0,1,1.289-.96A.686.686,0,0,0,17,45.942a5.966,5.966,0,0,0-1.375.966,5.379,5.379,0,0,0-.981,1.439,37.388,37.388,0,0,0-1.457,3.711c-.932,2.573-1.823,5.163-2.725,7.75A26.254,26.254,0,0,0,9.07,64.062a5.228,5.228,0,0,0,1.206,4.23,14.883,14.883,0,0,0,3.372,2.875c1.188.816,2.385,1.611,3.613,2.365a74.233,74.233,0,0,0,7.407,4.127.706.706,0,0,0,.938-.246c1.368-2.108,2.6-4.3,3.8-6.5a.7.7,0,0,0-.246-.936c-1.429-.826-2.81-1.745-4.205-2.626-1.957-1.234-3.913-2.475-5.88-3.694-.589-.365-1.173-.751-1.786-1.074-.78-.411-1.474.772-.692,1.183Z" fill="#211715"/>
        <path id="パス_134" data-name="パス 134" d="M47.693,62.383c-1.437.757-2.8,1.7-4.17,2.563-1.965,1.234-3.925,2.478-5.89,3.711-.6.377-1.2.764-1.812,1.119a.7.7,0,0,0-.246.938c1.2,2.207,2.433,4.4,3.8,6.5a.707.707,0,0,0,.938.246,70.616,70.616,0,0,0,6.262-3.436c1.271-.757,2.529-1.536,3.753-2.366a29.516,29.516,0,0,0,3.365-2.491,6.459,6.459,0,0,0,2.272-3.828,9.517,9.517,0,0,0-.957-4.349c-.919-2.5-1.751-5.029-2.643-7.537-.467-1.314-.937-2.628-1.442-3.928a9.68,9.68,0,0,0-.986-2.053,7.76,7.76,0,0,0-1.165-1.256c-.648-.6-1.62.371-.969.97a7.519,7.519,0,0,1,.9.91,7.02,7.02,0,0,1,.835,1.634c.42,1.065.808,2.143,1.195,3.221.864,2.407,1.7,4.826,2.538,7.241A22.056,22.056,0,0,1,54.6,64.289a4.2,4.2,0,0,1-1.413,3.468,20.244,20.244,0,0,1-3.153,2.451c-1.147.793-2.326,1.538-3.519,2.26a72.945,72.945,0,0,1-6.891,3.813l.938.246c-1.367-2.108-2.6-4.3-3.8-6.5l-.246.938c1.429-.826,2.81-1.745,4.205-2.626C42.676,67.1,44.63,65.86,46.6,64.641c.588-.365,1.173-.751,1.786-1.074.781-.411.089-1.6-.692-1.184Z" fill="#211715"/>
        <path id="パス_135" data-name="パス 135" d="M41.684,31.542a5.5,5.5,0,0,1-.322,1.486c-.021.065-.168.451-.076.243q-.069.157-.146.31a12.574,12.574,0,0,1-1.085,1.744,7.248,7.248,0,0,1-3.827,3.034c-.859.2-.5,1.523.364,1.322,1.943-.456,3.45-2.044,4.592-3.592a8.355,8.355,0,0,0,1.869-4.547c.034-.882-1.337-.881-1.371,0Z" fill="#211715"/>
        <path id="パス_136" data-name="パス 136" d="M23.5,26.144A2.167,2.167,0,0,0,20.8,26a2.9,2.9,0,0,0-.844,2.7c.156,1.879,1.146,4.219,3.219,4.59a.7.7,0,0,0,.843-.48.692.692,0,0,0-.48-.843c-1.337-.24-1.943-1.683-2.163-2.884a4.9,4.9,0,0,1-.068-.954,1.886,1.886,0,0,1,.132-.842.751.751,0,0,1,1.1-.18.7.7,0,0,0,.969,0,.691.691,0,0,0,0-.969Z" fill="#211715"/>
        <path id="パス_137" data-name="パス 137" d="M22.757,31.466a11.447,11.447,0,0,0,2.44,5.48,8.182,8.182,0,0,0,5.338,3.032.69.69,0,0,0,.685-.685.7.7,0,0,0-.685-.685,6.948,6.948,0,0,1-4.459-2.738,10.2,10.2,0,0,1-2-4.767.691.691,0,0,0-.843-.48.7.7,0,0,0-.48.843Z" fill="#211715"/>
        <path id="パス_138" data-name="パス 138" d="M21.262,43.9a3.171,3.171,0,0,1-2.07-3.064,20.8,20.8,0,0,1,.617-4.33,41.85,41.85,0,0,0,.78-10.255,19.491,19.491,0,0,1,1.692-8.78,10.194,10.194,0,0,1,1.979-2.8,11.473,11.473,0,0,1,3.153-2.084,13.069,13.069,0,0,1,9.97-.48.691.691,0,0,0,.843-.48.7.7,0,0,0-.48-.843,12.926,12.926,0,0,0-4.189-.769,14.363,14.363,0,0,0-5.5.829A12.239,12.239,0,0,0,21.6,15.864,18.9,18.9,0,0,0,19.24,24.9c-.076,1.953.007,3.909-.093,5.865a30.369,30.369,0,0,1-.6,5.117,21.473,21.473,0,0,0-.733,5.278A4.593,4.593,0,0,0,20.9,45.218a.691.691,0,0,0,.843-.48.7.7,0,0,0-.48-.843Z" fill="#211715"/>
        <path id="パス_139" data-name="パス 139" d="M31.159,19.776c-1.924,2.937-5.243,4.81-8.315,6.1a.708.708,0,0,0-.48.843.69.69,0,0,0,.843.48c3.514-1.474,7-3.465,9.134-6.73.485-.74-.7-1.428-1.184-.692Z" fill="#211715"/>
        <path id="パス_140" data-name="パス 140" d="M28.665,24.07A15.039,15.039,0,0,0,33.8,22.41a13.619,13.619,0,0,0,4.136-3.069c.569-.67-.4-1.643-.969-.969a12.467,12.467,0,0,1-3.731,2.788,13.318,13.318,0,0,1-4.573,1.54.707.707,0,0,0-.685.685.69.69,0,0,0,.685.685Z" fill="#211715"/>
        <path id="パス_141" data-name="パス 141" d="M43.068,26.038a8.9,8.9,0,0,1-3.283-3.281,11.16,11.16,0,0,1-1.6-3.9c-.174-.864-1.5-.5-1.322.364a12.316,12.316,0,0,0,1.811,4.345,10.171,10.171,0,0,0,3.7,3.657c.784.4,1.479-.783.692-1.184Z" fill="#211715"/>
        <path id="パス_142" data-name="パス 142" d="M39.6,13.1a9.2,9.2,0,0,1,2.456,2.228,11.245,11.245,0,0,1,1.791,3.214,13.89,13.89,0,0,1,.86,3.69c.1,1.165.092,2.344.09,3.513a44.034,44.034,0,0,0,.559,7.779c.274,1.561.764,3.033,1.175,4.558a5.493,5.493,0,0,1,.033,3.816,3.071,3.071,0,0,1-2.716,1.761.686.686,0,0,0,0,1.371,4.29,4.29,0,0,0,3.266-1.516,4.671,4.671,0,0,0,1.124-3.355c-.093-1.98-.876-3.8-1.305-5.717a33.4,33.4,0,0,1-.777-7.562A25.267,25.267,0,0,0,45.42,18.9a13.633,13.633,0,0,0-2.053-4.109,16.447,16.447,0,0,0-1.487-1.628,7.024,7.024,0,0,0-1.586-1.246c-.772-.428-1.464.754-.692,1.184Z" fill="#211715"/>
        <path id="パス_143" data-name="パス 143" d="M43.207,27.113a.757.757,0,0,1,1.071.141,1.618,1.618,0,0,1,.155.823,4.915,4.915,0,0,1-.069,1.011c-.219,1.2-.826,2.645-2.162,2.885a.691.691,0,0,0-.48.843.7.7,0,0,0,.843.48c2.073-.372,3.063-2.711,3.219-4.59a2.906,2.906,0,0,0-.844-2.7,2.165,2.165,0,0,0-2.7.141.691.691,0,0,0,0,.97.7.7,0,0,0,.969,0Z" fill="#211715"/>
        <path id="パス_144" data-name="パス 144" d="M30.98,34.721a4.137,4.137,0,0,0,1.993.465,3.284,3.284,0,0,0,2.05-.621.685.685,0,0,0,0-.97.707.707,0,0,0-.969,0c.237-.184-.009,0-.083.034-.058.03-.213.078,0,.005-.055.018-.107.041-.162.059-.146.047-.312.051-.453.1.072-.026.111-.013.008,0l-.133.011q-.161.01-.322.009c-.1,0-.192,0-.288-.01l-.132-.011-.075-.008.063.008c-.016.017-.189-.034-.217-.04-.069-.015-.137-.034-.206-.054s-.117-.039-.176-.059c-.154-.052.144.069,0,0-.073-.034-.144-.068-.215-.107a.685.685,0,1,0-.692,1.184Z" fill="#211715"/>
        <path id="パス_145" data-name="パス 145" d="M32.538,30.14a8.961,8.961,0,0,1,.209.96l-.025-.182a.568.568,0,0,1,0,.132l.024-.182a.319.319,0,0,1-.014.059l.069-.164a.206.206,0,0,1-.021.038l.107-.139a.211.211,0,0,1-.031.031L33,30.586a.567.567,0,0,1-.076.041l.164-.069a.555.555,0,0,1-.128.037l.182-.025a.5.5,0,0,1-.12,0l.182.024c-.045-.006-.09-.017-.135-.023a.523.523,0,0,0-.274-.012.506.506,0,0,0-.255.082.685.685,0,0,0-.246.938.656.656,0,0,0,.411.315c.12.016.237.046.36.052a1.184,1.184,0,0,0,.552-.134.839.839,0,0,0,.452-.548,1.292,1.292,0,0,0,0-.568c-.052-.308-.124-.615-.2-.917a.685.685,0,0,0-.843-.48.7.7,0,0,0-.411.315.719.719,0,0,0-.069.528Z" fill="#211715"/>
        <path id="パス_146" data-name="パス 146" d="M27.66,27.375c-.16.52-.056,1.716.929,1.816,1.3-.008,1.371-1.454.933-2.134A1.031,1.031,0,0,0,27.66,27.375Z" fill="#211715"/>
        <path id="パス_147" data-name="パス 147" d="M38.084,27.375c.16.52.056,1.716-.929,1.816-1.3-.008-1.371-1.454-.933-2.134A1.031,1.031,0,0,1,38.084,27.375Z" fill="#211715"/>
      </g>
    </g>
  </g>
</svg>
