<svg xmlns="http://www.w3.org/2000/svg" xmlns:xlink="http://www.w3.org/1999/xlink" width="65" height="65" viewBox="0 0 65 65">
  <defs>
    <clipPath id="clip-path">
      <circle id="楕円形_3" data-name="楕円形 3" cx="32.5" cy="32.5" r="32.5" transform="translate(39 99)" fill="#fff" stroke="#707070" stroke-width="1"/>
    </clipPath>
    <clipPath id="clip-path-2">
      <rect id="長方形_2" data-name="長方形 2" width="49" height="142.335" transform="translate(8 9)" fill="#fff"/>
    </clipPath>
  </defs>
  <g id="mem01" transform="translate(-39 -99)" clip-path="url(#clip-path)">
    <g id="mem01-2" data-name="mem01" transform="translate(39 99)">
      <circle id="楕円形_1" data-name="楕円形 1" cx="32.5" cy="32.5" r="32.5" fill="#299591"/>
      <g id="グループ_2" data-name="グループ 2" clip-path="url(#clip-path-2)">
        <path id="パス_75" data-name="パス 75" d="M41.908,24.51a1.388,1.388,0,0,1,1.111-.325,1.311,1.311,0,0,1,.943.627,1.852,1.852,0,0,1,.194.746A5.557,5.557,0,0,1,43.59,28.5a3.54,3.54,0,0,1-.913,1.2,2.343,2.343,0,0,1-1.089.491l-.186.029c-.091.333-.19.616-.239.766a11.311,11.311,0,0,1-4.082,4.795c.008.527.048,1.135.115,1.712a13.991,13.991,0,0,1-4.023,2.8c-.084.038-.177.084-.2.172a.319.319,0,0,0,.045.224l-1.382,0a.326.326,0,0,0,.045-.227c-.027-.088-.121-.134-.2-.172A14.044,14.044,0,0,1,27.6,37.645a17.664,17.664,0,0,0,.16-2.077,8.713,8.713,0,0,1-2.018-1.807,9.448,9.448,0,0,1-1.8-3.514l-.355-.055A2.343,2.343,0,0,1,22.5,29.7a3.537,3.537,0,0,1-.913-1.2,5.556,5.556,0,0,1-.567-2.946,1.852,1.852,0,0,1,.194-.746,1.311,1.311,0,0,1,.943-.627,1.388,1.388,0,0,1,1.112.325A8.737,8.737,0,0,1,32.5,16.644,8.969,8.969,0,0,1,41.908,24.51Z" fill="#fff"/>
        <path id="パス_76" data-name="パス 76" d="M32.988,56.336q-.11.255-.217.495l-.287-.621c-1.117-2.411-3.189-7.25-4.7-11.587-.757-2.169-1.432-4-1.851-5.244-3.059,1.269-5.331,2.294-8.1,3.535a10.646,10.646,0,0,0-1.406.61,1.6,1.6,0,0,0-.439.255,4.965,4.965,0,0,0-2.075,2.791c-1.1,2.813-3.3,8.976-4.268,11.731-.915,2.616-1.545,4.1-.549,6.115s3.107,3.327,4.665,4.411c1.543,1.073,3.447,2.248,5.255,3.3-.461,4.357-.807,7.255-1.167,11.848,2.119.445,8.214.677,10.229-.225,2.239-1,3.915-7.114,4.389-9.667l.108.009c.82,4.257,2.333,9.106,4.311,9.829,2.148.785,8.455.6,10.7.144-.375-4.8-.734-7.748-1.222-12.39,1.678-.988,3.406-2.063,4.828-3.052,1.559-1.084,3.671-2.395,4.665-4.411s.475-3.5-.439-6.115c-.963-2.755-3.274-8.918-4.377-11.731a5.478,5.478,0,0,0-2.075-2.791s-.044-.041-.105-.1a11.61,11.61,0,0,0-1.33-.562c-2.8-1.208-5.343-2.42-8.705-3.783l-.444-.161c-.236,1.272-.788,4.035-1.506,6.449A105.815,105.815,0,0,1,32.988,56.336Z" fill="#bdbdbd"/>
        <path id="パス_77" data-name="パス 77" d="M30.022,57.384c-1.974-2.2-7.915-10.588-7.838-11.029a4.7,4.7,0,0,1,1.343-1.545A25.179,25.179,0,0,1,21.694,42.5c-.247-.335,3.016-3.2,3.973-3.778.346,1.173,1.166,3.187,2.115,5.907,1.515,4.336,3.588,9.176,4.7,11.587l.337.507c-.242.545-.47,1.037-.681,1.462-.121.255-.247.495-.364.746l-1.437-1.209C30.25,57.632,30.143,57.52,30.022,57.384Z" fill="#bdbdbd"/>
        <path id="パス_78" data-name="パス 78" d="M32.889,61.2,31.363,63.31c-.087-.986-.139-1.662-.14-1.835a6.3,6.3,0,0,1,.918-3.3,91.756,91.756,0,0,0,4.732-12.76c.869-2.917,1.492-6.084,1.611-6.78.84.468,4.478,3.459,4.236,3.8-.33.458-1.366,1.632-1.918,2.221a5.037,5.037,0,0,1,1.44,1.62c.08.454-5.744,10.077-6.907,11.55Z" fill="#bdbdbd"/>
        <path id="パス_79" data-name="パス 79" d="M37.992,38.361a6.021,6.021,0,0,0-.78-.882,14,14,0,0,1-4.039,2.815c-.084.038-.177.084-.2.172a.325.325,0,0,0,.047.228H31.63a.325.325,0,0,0,.047-.228c-.027-.088-.121-.134-.2-.172a14,14,0,0,1-4.039-2.815,6.911,6.911,0,0,0-1.408,1.9s-.021.04-.061.11c.422,1.242,1.079,3.029,1.814,5.135,1.515,4.336,3.588,9.176,4.7,11.586l.291.614a102.924,102.924,0,0,0,4.1-11.405c.722-2.423,1.274-5.2,1.509-6.467C38.262,38.753,38.133,38.554,37.992,38.361Z" fill="#fff"/>
        <path id="パス_80" data-name="パス 80" d="M33.233,41a2.72,2.72,0,0,1-.217-.306c-.5,0-.9,0-1.385,0a13.021,13.021,0,0,1-.835,1.079l-.212.258c.079.4.145.7.239,1.106l.061.251a2.225,2.225,0,0,1,.091.556c0,.118-.427,3.614-.826,6.876.9,2.185,1.748,4.125,2.336,5.392l.287.621c.643-1.449,1.38-3.31,2.12-5.379l-.022-.146c-.5-3.328-1.07-7.114-1.068-7.3a3.366,3.366,0,0,1,.219-.989c.04-.124.128-.446.215-.776l-.386-.469C33.6,41.471,33.385,41.2,33.233,41Z" fill="#6dbf6b"/>
        <path id="パス_81" data-name="パス 81" d="M27.157,35.59a18.818,18.818,0,0,1-.165,2.113.606.606,0,0,0,1.034.428A.713.713,0,0,0,28.2,37.7a18.818,18.818,0,0,0,.165-2.113.606.606,0,1,0-1.212,0Z" fill="#211715"/>
        <path id="パス_82" data-name="パス 82" d="M36.475,35.792a17.52,17.52,0,0,0,.151,2,.667.667,0,0,0,.178.428.606.606,0,0,0,.857,0,.579.579,0,0,0,.177-.428,17.52,17.52,0,0,1-.152-2,.606.606,0,0,0-1.212,0Z" fill="#211715"/>
        <path id="パス_83" data-name="パス 83" d="M31.1,44.524c.873,0,1.745-.019,2.618-.02a.606.606,0,0,0,0-1.212c-.872,0-1.745.019-2.618.02a.606.606,0,1,0,0,1.212Z" fill="#211715"/>
        <path id="パス_84" data-name="パス 84" d="M29.992,42.159c.088.444.182.886.291,1.326a1.759,1.759,0,0,1,.073.593c-.039.456-.105.911-.159,1.365q-.317,2.646-.643,5.292a.609.609,0,0,0,.606.606.621.621,0,0,0,.606-.606q.329-2.693.654-5.386c.052-.437.123-.876.151-1.315a2.7,2.7,0,0,0-.105-.808c-.11-.461-.214-.923-.306-1.388-.151-.764-1.319-.441-1.168.322Z" fill="#211715"/>
        <path id="パス_85" data-name="パス 85" d="M33.094,40.084l-1.552,0a.606.606,0,1,0,0,1.212l1.552,0a.606.606,0,0,0,0-1.212Z" fill="#211715"/>
        <path id="パス_86" data-name="パス 86" d="M35.456,51.146q-.407-2.726-.813-5.453-.07-.477-.138-.954l-.047-.335c0-.015-.028-.208-.008-.056-.006-.044-.012-.087-.017-.131a5.012,5.012,0,0,1,.381-1.767.606.606,0,0,0-1.168-.322,5.847,5.847,0,0,0-.429,2.052c.065.548.151,1.1.23,1.641.275,1.883.561,3.764.842,5.646a.61.61,0,0,0,.745.424.621.621,0,0,0,.424-.745Z" fill="#211715"/>
        <path id="パス_87" data-name="パス 87" d="M35.943,44.218a18.032,18.032,0,0,0,2.535-3.437q.273-.452.547-.9a.879.879,0,0,0,.189-.577,1.584,1.584,0,0,0-.248-.545,7.363,7.363,0,0,0-1.327-1.7.617.617,0,0,0-.857,0,13.162,13.162,0,0,1-2.172,1.76c-.381.247-.774.477-1.178.685-.383.2-.919.338-1.049.809a1.1,1.1,0,0,0,.287.952c.262.348.539.685.815,1.022.531.649,1.071,1.29,1.6,1.939a.61.61,0,0,0,.857,0,.62.62,0,0,0,0-.857c-.442-.543-.891-1.079-1.336-1.619-.25-.3-.5-.608-.746-.916-.069-.087-.139-.174-.2-.264-.029-.039-.056-.087-.087-.124-.054-.063.013-.075.006.026l-.083.306q-.152.124-.013.045l.094-.043.283-.136q.287-.143.568-.3.578-.322,1.124-.7a14.64,14.64,0,0,0,2.093-1.733h-.857A6.619,6.619,0,0,1,38.1,39.686v-.612a22.477,22.477,0,0,1-3.01,4.287A.606.606,0,0,0,35.943,44.218Z" fill="#211715"/>
        <path id="パス_88" data-name="パス 88" d="M29.559,43.361a22.488,22.488,0,0,1-3.01-4.287v.612a6.615,6.615,0,0,1,1.313-1.779h-.857A14.678,14.678,0,0,0,29.1,39.639q.545.375,1.124.7.257.144.521.276.141.071.283.137l.141.065c.091.052.087.037-.014-.045l-.083-.306c-.007-.086.065-.1.006-.026-.026.03-.047.068-.07.1-.071.1-.146.192-.222.287-.245.308-.5.612-.746.916-.445.54-.895,1.076-1.336,1.619a.623.623,0,0,0,0,.857.61.61,0,0,0,.857,0c.518-.636,1.047-1.265,1.568-1.9.28-.341.559-.682.826-1.033a1.126,1.126,0,0,0,.309-.981c-.126-.457-.628-.594-1-.785a13.6,13.6,0,0,1-1.179-.68,13.172,13.172,0,0,1-2.218-1.79.617.617,0,0,0-.857,0,7.334,7.334,0,0,0-1.3,1.658,2.33,2.33,0,0,0-.263.512.811.811,0,0,0,.178.658q.273.451.547.9A18.032,18.032,0,0,0,28.7,44.218.606.606,0,0,0,29.559,43.361Z" fill="#211715"/>
        <path id="パス_89" data-name="パス 89" d="M18.178,58.773q.137,1.714.26,3.43a.606.606,0,1,0,1.212,0q-.125-1.715-.26-3.43a.606.606,0,0,0-1.212,0Z" fill="#211715"/>
        <path id="パス_90" data-name="パス 90" d="M16.172,44.006c.513,3.583,1.252,7.139,1.644,10.738.146,1.34.255,2.684.364,4.029.06.772,1.274.779,1.212,0-.168-2.094-.352-4.183-.658-6.262-.3-2.009-.631-4.012-.955-6.016-.152-.936-.3-1.871-.437-2.81a.61.61,0,0,0-.745-.424.622.622,0,0,0-.424.745Z" fill="#211715"/>
        <path id="パス_91" data-name="パス 91" d="M23.1,39.922q-1.85.8-3.687,1.622c-.63.281-1.255.58-1.891.848a7.059,7.059,0,0,0-1.58.733.625.625,0,0,0-.217.829.61.61,0,0,0,.829.217,7.509,7.509,0,0,1,1.58-.733c.632-.277,1.26-.565,1.891-.848q1.839-.822,3.688-1.622a.609.609,0,0,0,.218-.829.622.622,0,0,0-.829-.217Z" fill="#211715"/>
        <path id="パス_92" data-name="パス 92" d="M34.075,61.81a1.364,1.364,0,0,1,.011-.169l-.022.161a1.137,1.137,0,0,1,.071-.264l-.061.144a.917.917,0,0,1,.069-.131c.011-.018.024-.035.036-.052-.109.166-.071.091-.032.049.018-.018.036-.035.055-.053.066-.061-.134.091-.052.04a1.165,1.165,0,0,1,.144-.079l-.145.061a1.17,1.17,0,0,1,.282-.075l-.161.022a1.32,1.32,0,0,1,.331,0l-.161-.021a1.15,1.15,0,0,1,.254.068l-.145-.061a1.389,1.389,0,0,1,.147.079c.083.048-.119-.1-.049-.04.019.018.039.035.057.054a.532.532,0,0,0,.052.058c-.022-.016-.1-.139-.042-.051a1.032,1.032,0,0,1,.074.138l-.061-.145a1.264,1.264,0,0,1,.084.312L34.79,61.7a1.284,1.284,0,0,1,0,.317l.022-.161a1.074,1.074,0,0,1-.068.255l.061-.145a1.01,1.01,0,0,1-.074.142c-.011.017-.024.034-.035.051.11-.171.069-.085.028-.042-.02.021-.041.04-.061.061-.066.062.134-.093.053-.04a1.128,1.128,0,0,1-.162.091l.145-.061a1.15,1.15,0,0,1-.278.076l.161-.021a1.4,1.4,0,0,1-.325,0l.161.022a1.032,1.032,0,0,1-.246-.064l.145.061a1.133,1.133,0,0,1-.141-.076c-.08-.049.135.116.037.028-.019-.017-.036-.034-.053-.053-.039-.042-.072-.116.035.05-.013-.02-.028-.04-.04-.061a1.066,1.066,0,0,1-.07-.137l.061.145a1.279,1.279,0,0,1-.083-.305l.021.161a1.434,1.434,0,0,1-.013-.182.606.606,0,1,0-1.212,0,1.62,1.62,0,0,0,.792,1.45,1.668,1.668,0,0,0,1.965-.331,1.545,1.545,0,0,0,.363-.757,1.8,1.8,0,0,0-.071-.907,1.533,1.533,0,0,0-.643-.806,1.753,1.753,0,0,0-1.16-.184,1.47,1.47,0,0,0-.977.613,1.613,1.613,0,0,0-.27.923.606.606,0,0,0,1.212,0Z" fill="#211715"/>
        <path id="パス_93" data-name="パス 93" d="M25.082,38.893c.281.928.636,1.834.973,2.743.489,1.316.954,2.639,1.429,3.96.934,2.6,1.969,5.163,3.053,7.7.461,1.079.932,2.153,1.424,3.218a.611.611,0,0,0,.829.217.62.62,0,0,0,.217-.829c-.96-2.076-1.851-4.184-2.7-6.306-1.047-2.608-1.961-5.261-2.936-7.895-.385-1.038-.8-2.072-1.117-3.133a.606.606,0,0,0-1.168.322Z" fill="#211715"/>
        <path id="パス_94" data-name="パス 94" d="M39.6,40.1c1.6.667,3.188,1.373,4.773,2.08.729.325,1.458.651,2.19.969A11.007,11.007,0,0,1,48.8,44.17a.61.61,0,0,0,.829-.217.621.621,0,0,0-.218-.829A10.972,10.972,0,0,0,47.172,42.1c-.771-.337-1.54-.68-2.308-1.023-1.641-.733-3.285-1.459-4.945-2.151a.61.61,0,0,0-.745.424.622.622,0,0,0,.424.746Z" fill="#211715"/>
        <path id="パス_95" data-name="パス 95" d="M47.946,43.6c-.685,4.327-1.448,8.666-1.811,13.036-.141,1.7-.258,3.411-.37,5.117-.051.779,1.161.776,1.212,0,.171-2.613.309-5.24.643-7.839.286-2.224.632-4.442.974-6.659q.257-1.666.521-3.334a.624.624,0,0,0-.424-.745.61.61,0,0,0-.745.424Z" fill="#211715"/>
        <path id="パス_96" data-name="パス 96" d="M25.391,38.177a12.769,12.769,0,0,0-1.729,1.33,22.483,22.483,0,0,0-1.834,1.712c-.366.39-.99,1-.658,1.584a10.637,10.637,0,0,0,.86,1.157,13.959,13.959,0,0,0,1.068,1.28v-.857a9.142,9.142,0,0,0-1.073,1.074,1.544,1.544,0,0,0-.447.922,1.7,1.7,0,0,0,.3.761c.453.8.979,1.554,1.495,2.31,1.48,2.171,3.017,4.307,4.622,6.388a20.7,20.7,0,0,0,1.919,2.31c.561.542,1.419-.314.857-.857a17.107,17.107,0,0,1-1.527-1.805c-.7-.9-1.435-1.885-2.132-2.84-1.351-1.852-2.707-3.718-3.917-5.667-.155-.25-.286-.515-.437-.766-.009-.015.043.165.016.026-.015-.074.027.188.017.128.027.157-.064.111.025.051.016-.011.126-.174.135-.185.1-.123.21-.236.32-.349.219-.224.451-.435.686-.643a.613.613,0,0,0,0-.857c-.627-.642-1.071-1.424-1.664-2.09-.193-.217,0,.117-.022.283.013-.086-.085.136-.023.047.028-.04.169-.251.089-.148a7.268,7.268,0,0,1,.6-.654c.545-.549,1.124-1.067,1.716-1.566A9.729,9.729,0,0,1,26,39.222a.606.606,0,0,0-.612-1.046Z" fill="#211715"/>
        <path id="パス_97" data-name="パス 97" d="M38.2,39.179a11.864,11.864,0,0,1,1.376,1.007c.627.5,1.243,1.022,1.829,1.575.221.208.435.421.636.649.025.028.14.2.044.051.013.02.061.068.061.089s.02.034.029.052q-.061-.16-.035-.079a.517.517,0,0,1,.055-.39l-.051.069a8.361,8.361,0,0,0-.8.949q-.478.547-.973,1.08a.613.613,0,0,0,0,.857,10.421,10.421,0,0,1,1.067,1.03c.051.061.207.268.2.27s0-.354,0-.192a.337.337,0,0,1-.032.093c-.042.119.074-.151-.008.017-.059.121-.115.242-.177.362-.417.818-.88,1.614-1.341,2.408q-1.836,3.162-3.8,6.25c-.285.448-.573.895-.868,1.336-.111.165-.222.33-.337.493-.043.061-.085.121-.129.18-.019.026-.039.052-.057.078-.091.128.067-.085.009-.012a.626.626,0,0,0,0,.857.61.61,0,0,0,.857,0,52.886,52.886,0,0,0,3.345-5.174c1.171-1.922,2.38-3.847,3.393-5.859a3.486,3.486,0,0,0,.323-.751,1.238,1.238,0,0,0-.363-1.012A9.128,9.128,0,0,0,41.23,44.23v.857c.564-.6,1.117-1.223,1.639-1.864.195-.239.467-.5.467-.826a1,1,0,0,0-.226-.58,14.564,14.564,0,0,0-2.8-2.587,13.449,13.449,0,0,0-1.5-1.1A.606.606,0,0,0,38.2,39.18Z" fill="#211715"/>
        <path id="パス_98" data-name="パス 98" d="M32.567,69.363c-.247-2.293-.483-4.588-.671-6.886a8.434,8.434,0,0,1-.019-1.852,7.527,7.527,0,0,1,.857-2.283,60.373,60.373,0,0,0,2.332-5.6c.916-2.467,1.757-4.968,2.49-7.5a60.378,60.378,0,0,0,1.511-6.438.623.623,0,0,0-.424-.745.611.611,0,0,0-.745.424,78.119,78.119,0,0,1-3.7,13.118c-.717,1.981-1.471,3.959-2.379,5.861a14,14,0,0,0-.978,2.225,6.687,6.687,0,0,0-.193,2.279c.182,2.468.445,4.932.711,7.393a.624.624,0,0,0,.606.606.61.61,0,0,0,.606-.606Z" fill="#211715"/>
        <path id="パス_99" data-name="パス 99" d="M15.94,61.24c1.5.792,2.927,1.78,4.365,2.684,2.032,1.277,4.059,2.563,6.092,3.838.631.4,1.257.8,1.9,1.175l-.217-.829c-1.248,2.3-2.532,4.577-3.956,6.771l.829-.217A73.2,73.2,0,0,1,18.5,71.126c-1.324-.788-2.635-1.6-3.912-2.462a26.55,26.55,0,0,1-3.463-2.581,5.346,5.346,0,0,1-1.934-3.7,13.328,13.328,0,0,1,1.149-4.255q1.328-3.786,2.708-7.553c.471-1.285.939-2.572,1.443-3.844a5.337,5.337,0,0,1,1.051-1.815,4.576,4.576,0,0,1,.513-.442,8.864,8.864,0,0,1,.915-.554.606.606,0,0,0-.612-1.046,7.338,7.338,0,0,0-.8.469c-.225.172-.456.337-.669.524a4.906,4.906,0,0,0-1.09,1.459,34.075,34.075,0,0,0-1.456,3.668q-1.49,4.02-2.908,8.066a26.637,26.637,0,0,0-1.353,4.26,5.6,5.6,0,0,0,1.057,4.337,14.227,14.227,0,0,0,3.552,3.17c1.259.869,2.529,1.717,3.832,2.519a77.3,77.3,0,0,0,7.818,4.362.624.624,0,0,0,.829-.217c1.424-2.194,2.708-4.474,3.956-6.771a.617.617,0,0,0-.217-.829c-1.5-.864-2.941-1.827-4.4-2.749-2.025-1.277-4.047-2.559-6.082-3.82-.618-.383-1.232-.788-1.876-1.128C15.862,59.83,15.249,60.876,15.94,61.24Z" fill="#211715"/>
        <path id="パス_100" data-name="パス 100" d="M48.4,59.991c-1.5.792-2.927,1.78-4.365,2.684C42,63.952,39.972,65.238,37.94,66.513c-.631.4-1.257.8-1.9,1.175a.617.617,0,0,0-.217.829c1.248,2.3,2.532,4.577,3.956,6.771a.625.625,0,0,0,.829.217,73.889,73.889,0,0,0,6.653-3.657c1.347-.8,2.681-1.636,3.976-2.521a25.483,25.483,0,0,0,3.608-2.75,6.808,6.808,0,0,0,2.131-4.05A10.9,10.9,0,0,0,56,57.937c-.883-2.521-1.823-5.023-2.766-7.522-.5-1.339-1.013-2.677-1.533-4.01a7.9,7.9,0,0,0-1.1-2.11,10.5,10.5,0,0,0-1.208-1.146c-.576-.525-1.434.33-.857.857a13.212,13.212,0,0,1,1.068.978,5.462,5.462,0,0,1,.879,1.61c.426,1.082.838,2.169,1.25,3.256.954,2.517,1.9,5.038,2.8,7.573a18.986,18.986,0,0,1,1.223,4.061,4.853,4.853,0,0,1-1.3,3.734,17.413,17.413,0,0,1-3.413,2.773c-1.208.834-2.437,1.625-3.69,2.387a76.225,76.225,0,0,1-7.364,4.085l.829.217c-1.424-2.194-2.708-4.473-3.956-6.771l-.217.829c1.5-.864,2.94-1.827,4.4-2.749,2.025-1.277,4.047-2.559,6.082-3.82.618-.383,1.232-.788,1.876-1.128.69-.364.079-1.41-.612-1.046Z" fill="#211715"/>
        <path id="パス_101" data-name="パス 101" d="M23.234,24.448c.3.308.465-.322.578-.568.18-.392.443-.964.636-1.349.106-.212.259-.523.353-.74s.2-.455.316-.678a13.736,13.736,0,0,1,.745-1.306,1.732,1.732,0,0,1,.476-.54c.584-.383,1.386-.074,2.1-.127a7.773,7.773,0,0,0,2.178-.862,5,5,0,0,1,3.556-.044c.5.025.962,0,1.413,0A8.947,8.947,0,0,1,37.1,18.3a4.812,4.812,0,0,1,3.189,2.348,11.4,11.4,0,0,1,1.151,2.545,8.837,8.837,0,0,1,.215.966c.017.109.03.221.04.331.007.074.082.1.257-.018l-.024.033a1.377,1.377,0,0,1,1.1-.324,11.611,11.611,0,0,0-.167-6.844,6.063,6.063,0,0,0-2.6-3.32l-1.313-1.161a6,6,0,0,0-3.441-2.8c-1.7-.606-6.641-.709-8.3.729L25.5,11.952a7.717,7.717,0,0,0-3.819,5.092,12.33,12.33,0,0,0,.235,7.2,1.363,1.363,0,0,1,1.337.262Z" fill="#7a7473"/>
        <path id="パス_102" data-name="パス 102" d="M39.468,12.551C37.635,8.94,32.79,8.6,29.283,9.289a5.469,5.469,0,0,0-2.509,1.069c-.6.5.263,1.355.857.857a4.389,4.389,0,0,1,1.753-.711,12.31,12.31,0,0,1,2.4-.257,9.029,9.029,0,0,1,4.344.732,5.107,5.107,0,0,1,2.3,2.184C38.775,13.859,39.82,13.245,39.468,12.551Z" fill="#211715"/>
        <path id="パス_103" data-name="パス 103" d="M25.19,11.429a8.327,8.327,0,0,0-4.137,5.609,14.311,14.311,0,0,0-.4,3.6,10.357,10.357,0,0,0,.541,3.446c.267.727,1.439.412,1.169-.322a11.291,11.291,0,0,1-.167-6.3,7.2,7.2,0,0,1,3.6-4.99c.705-.331.091-1.377-.612-1.046Z" fill="#211715"/>
        <path id="パス_104" data-name="パス 104" d="M34.128,17.855a4.744,4.744,0,0,0-3.789-.114,11.546,11.546,0,0,1-1.7.755,17.951,17.951,0,0,1-1.854-.005A2.028,2.028,0,0,0,25.3,19.56a13.642,13.642,0,0,0-.948,1.755c-.231.515-.471,1.021-.7,1.537-.117.268-.265.515-.4.774-.044.087-.078.179-.118.267-.02.046-.042.091-.066.137q-.155.228.269-.111l.306.083.011.019c-.59-.5-1.451.35-.857.857a.824.824,0,0,0,1.351-.3c.239-.47.479-.943.683-1.431.212-.507.454-1,.691-1.5a8.793,8.793,0,0,1,.969-1.7c.364-.452,1.08-.217,1.575-.194a3.731,3.731,0,0,0,1.836-.456,5.668,5.668,0,0,1,1.721-.659,3.492,3.492,0,0,1,1.886.27.624.624,0,0,0,.829-.218.611.611,0,0,0-.217-.829Z" fill="#211715"/>
        <path id="パス_105" data-name="パス 105" d="M30.366,16.175a4.246,4.246,0,0,1,3.088.507A4.178,4.178,0,0,1,35.1,18.613c.354.7,1.4.083,1.046-.612a5.367,5.367,0,0,0-2.152-2.407,5.519,5.519,0,0,0-3.949-.589C29.283,15.178,29.6,16.346,30.366,16.175Z" fill="#211715"/>
        <path id="パス_106" data-name="パス 106" d="M37.052,18.742a4.7,4.7,0,0,1,2.933,2.6,9.46,9.46,0,0,1,.911,2.175c.051.2.1.391.135.59s.032.4.087.581A.73.73,0,0,0,42.255,25a.606.606,0,0,0-.612-1.046c.007.024-.009.03-.048.021h.322l-.035-.009.267.156-.021-.022.156.267c-.082-.29-.118-.764-.208-1.118a8.085,8.085,0,0,0-.355-1.067,12.829,12.829,0,0,0-1.085-2.112,5.427,5.427,0,0,0-3.263-2.492C36.617,17.391,36.293,18.559,37.052,18.742Z" fill="#211715"/>
        <path id="パス_107" data-name="パス 107" d="M39.952,14.54a5.951,5.951,0,0,1,2.592,3.827,10.947,10.947,0,0,1-.062,5.5.606.606,0,0,0,1.168.322,12.18,12.18,0,0,0,.036-6.249,7.107,7.107,0,0,0-3.122-4.447A.606.606,0,0,0,39.952,14.54Z" fill="#211715"/>
        <path id="パス_108" data-name="パス 108" d="M42.336,24.936a.759.759,0,0,1,1.08.142,1.583,1.583,0,0,1,.152.8,4.712,4.712,0,0,1-.066.969c-.21,1.151-.8,2.529-2.076,2.759a.611.611,0,0,0-.424.745.619.619,0,0,0,.745.424c1.942-.348,2.868-2.542,3.015-4.3a2.715,2.715,0,0,0-.777-2.52,2.006,2.006,0,0,0-2.507.127.61.61,0,0,0,0,.857.619.619,0,0,0,.857,0Z" fill="#211715"/>
        <path id="パス_109" data-name="パス 109" d="M40.967,29.156a5.248,5.248,0,0,1-.306,1.417c-.027.084-.061.166-.084.25-.011.038-.061.145.007-.011-.043.1-.091.2-.138.294a11.9,11.9,0,0,1-1.027,1.65,6.9,6.9,0,0,1-3.647,2.89c-.757.178-.437,1.347.322,1.168a8.118,8.118,0,0,0,4.321-3.379,7.866,7.866,0,0,0,1.763-4.28C42.209,28.376,41,28.378,40.967,29.156Z" fill="#211715"/>
        <path id="パス_110" data-name="パス 110" d="M23.695,24.08a2.006,2.006,0,0,0-2.506-.127,2.713,2.713,0,0,0-.777,2.52c.146,1.76,1.072,3.954,3.014,4.3a.623.623,0,0,0,.746-.424.611.611,0,0,0-.424-.746c-1.279-.229-1.866-1.608-2.076-2.759a4.671,4.671,0,0,1-.068-.915,1.819,1.819,0,0,1,.131-.818.754.754,0,0,1,1.1-.179.622.622,0,0,0,.857,0,.61.61,0,0,0,0-.857Z" fill="#211715"/>
        <path id="パス_111" data-name="パス 111" d="M23.058,29.073a10.789,10.789,0,0,0,2.3,5.166,7.7,7.7,0,0,0,5.021,2.856.609.609,0,0,0,.606-.606.62.62,0,0,0-.606-.606,6.61,6.61,0,0,1-4.249-2.6,9.692,9.692,0,0,1-1.9-4.529.611.611,0,0,0-.745-.424.62.62,0,0,0-.424.746Z" fill="#211715"/>
        <path id="パス_112" data-name="パス 112" d="M30.873,32.129a3.874,3.874,0,0,0,1.865.434,3.065,3.065,0,0,0,1.908-.576.606.606,0,0,0,0-.857.625.625,0,0,0-.857,0c.208-.162-.021,0-.087.04s-.193.07-.007.009c-.051.017-.1.039-.151.056-.065.021-.132.039-.2.054-.036.008-.212.018-.23.043.021-.029.119-.014,0,0l-.126.011q-.151.009-.3.008c-.091,0-.182,0-.273-.01l-.125-.01-.071-.008.048.006a1.143,1.143,0,0,1-.4-.089c-.056-.017-.111-.037-.166-.056-.14-.048.121.059-.005,0-.069-.032-.136-.066-.2-.1a.606.606,0,1,0-.612,1.046Z" fill="#211715"/>
        <path id="パス_113" data-name="パス 113" d="M32.366,27.818a8.426,8.426,0,0,1,.2.907l-.021-.161a.558.558,0,0,1,0,.125l.021-.161a.272.272,0,0,1-.014.056l.061-.145a.238.238,0,0,1-.02.036l.095-.123a.2.2,0,0,1-.03.03l.123-.095a.6.6,0,0,1-.072.038l.145-.061a.527.527,0,0,1-.121.035l.161-.021a.48.48,0,0,1-.114,0l.161.021c-.043-.006-.085-.016-.128-.022a.459.459,0,0,0-.242-.011.45.45,0,0,0-.225.072.606.606,0,0,0-.217.829.579.579,0,0,0,.362.278c.11.015.217.043.329.047a1.078,1.078,0,0,0,.5-.121.753.753,0,0,0,.408-.493,1.178,1.178,0,0,0,0-.515c-.049-.292-.117-.581-.192-.868a.606.606,0,0,0-.745-.424.613.613,0,0,0-.364.278.636.636,0,0,0-.061.467Z" fill="#211715"/>
        <path id="パス_114" data-name="パス 114" d="M27.71,25.214c-.151.492-.053,1.624.878,1.72,1.232-.008,1.3-1.375.883-2.019A.975.975,0,0,0,27.71,25.214Z" fill="#211715"/>
        <path id="パス_115" data-name="パス 115" d="M37.573,25.214c.152.492.053,1.624-.878,1.72-1.232-.008-1.3-1.375-.883-2.019A.975.975,0,0,1,37.573,25.214Z" fill="#211715"/>
      </g>
    </g>
  </g>
</svg>
