<svg xmlns="http://www.w3.org/2000/svg" width="70" height="70" viewBox="0 0 70 70">
  <g id="icon06" transform="translate(-852 -484)">
    <rect id="長方形_48" data-name="長方形 48" width="70" height="70" transform="translate(852 484)" fill="none"/>
    <path id="パス_532" data-name="パス 532" d="M887.338,526.666a16.188,16.188,0,0,0,5.061,1.371,20.049,20.049,0,0,0,4.227.282v10.143s8.859-4.608,9.6-6.23,0-14.1,0-14.1Z" fill="#ffa2dc"/>
    <path id="パス_528" data-name="パス 528" d="M27.979,0,55,12.273,28.2,24,0,12.618Z" transform="translate(860 502)" fill="none" stroke="#535353" stroke-linecap="round" stroke-linejoin="round" stroke-width="2"/>
    <path id="パス_529" data-name="パス 529" d="M3556.17,285v9.392" transform="translate(-2643 234)" fill="none" stroke="#535353" stroke-linecap="round" stroke-width="2"/>
    <g id="グループ_38" data-name="グループ 38" transform="translate(393 234)">
      <path id="パス_530" data-name="パス 530" d="M3511.4,284.014v14.248s18.579,18.6,37.814.191" transform="translate(-3036)" fill="none" stroke="#535353" stroke-linecap="round" stroke-width="2"/>
      <path id="パス_531" data-name="パス 531" d="M3511.4,284.014v14.248" transform="translate(-2998)" fill="none" stroke="#535353" stroke-linecap="round" stroke-width="2"/>
    </g>
  </g>
</svg>
