<svg xmlns="http://www.w3.org/2000/svg" width="70" height="70" viewBox="0 0 70 70">
  <g id="icon09" transform="translate(-607 -572)">
    <rect id="長方形_50" data-name="長方形 50" width="70" height="70" transform="translate(607 572)" fill="none"/>
    <path id="パス_1220" data-name="パス 1220" d="M2.5,0h43a2.5,2.5,0,0,1,0,5H2.5a2.5,2.5,0,0,1,0-5Z" transform="translate(619 625)" fill="#ffa2dc"/>
    <path id="パス_536" data-name="パス 536" d="M3293.061,359.235h7.724s3.521.738,3.928,2.607,0,25.776,0,25.776-.835,3.386-2.582,3.688-12.23,0-12.23,0H3273.15v-3.688s-.5-1.393,2.057-1.277,14.7,0,14.7,0,3.193.157,3.159-2.746S3293.061,359.235,3293.061,359.235Z" transform="translate(-2643 234)" fill="#d9d9d9"/>
    <path id="パス_535" data-name="パス 535" d="M3282.783,364.779h4.21" transform="translate(-2643 234)" fill="none" stroke="#535353" stroke-linecap="round" stroke-width="2"/>
    <path id="パス_533" data-name="パス 533" d="M3265.437,386.3V363.08s.239-3.756,3.864-3.739,31.035,0,31.035,0,4.508.189,4.53,3.739,0,23.218,0,23.218-.462,4.561-4.53,4.555-9.948,0-9.948,0" transform="translate(-2643 234)" fill="none" stroke="#535353" stroke-linecap="round" stroke-linejoin="round" stroke-width="2"/>
    <path id="パス_534" data-name="パス 534" d="M3279.344,390.853h-15.719s-2.318-.035-2.244,2.037a2.776,2.776,0,0,0,2.116,2.538l45.527-.142" transform="translate(-2643 234)" fill="none" stroke="#535353" stroke-linecap="round" stroke-linejoin="round" stroke-width="2"/>
  </g>
</svg>
