<svg xmlns="http://www.w3.org/2000/svg" width="70" height="70" viewBox="0 0 70 70">
  <g id="icon05" transform="translate(-685 -484)">
    <rect id="長方形_42" data-name="長方形 42" width="70" height="70" transform="translate(685 484)" fill="none"/>
    <g id="ヘアサロンアイコン2" transform="translate(680.613 497)">
      <path id="パス_422" data-name="パス 422" d="M221.265,314.7a1.667,1.667,0,0,1-.018-.812,10.67,10.67,0,0,1,1.526-4.132,4.835,4.835,0,0,0-2.7-1.639l-.26-.03c-.457,1.18-1.16,2.767-1.677,4.219a2.311,2.311,0,0,1-.609,1.037,5.945,5.945,0,0,1-1.3.417,5.42,5.42,0,1,0,5.38,1.4A1.324,1.324,0,0,1,221.265,314.7Zm-3.518,7.188a2.928,2.928,0,1,1,2.928-2.928A2.928,2.928,0,0,1,217.747,321.891Z" transform="translate(-175.281 -280.484)" fill="#d9d9d9"/>
      <path id="パス_419" data-name="パス 419" d="M221.265,314.7a1.667,1.667,0,0,1-.018-.812,10.67,10.67,0,0,1,1.526-4.132,4.835,4.835,0,0,0-2.7-1.639l-.26-.03c-.457,1.18-1.16,2.767-1.677,4.219a2.311,2.311,0,0,1-.609,1.037,5.945,5.945,0,0,1-1.3.417,5.42,5.42,0,1,0,5.38,1.4A1.324,1.324,0,0,1,221.265,314.7Zm-3.518,7.188a2.928,2.928,0,1,1,2.928-2.928A2.928,2.928,0,0,1,217.747,321.891Z" transform="translate(-176.281 -281.484)" fill="#ffa2dc"/>
      <path id="パス_420" data-name="パス 420" d="M317.416,40.737a5.417,5.417,0,0,0-2.81-8.459,5.966,5.966,0,0,1-1.3-.417,2.314,2.314,0,0,1-.608-1.037c-.746-2.093-1.881-4.472-2.1-5.5,0,0-1.464-19.472-1.757-21.961S308.111,0,307.232,0s-1.318.878-1.611,3.366-1.757,21.961-1.757,21.961,4.612.511,5.723,7.079a1.651,1.651,0,0,1-.019.812,1.316,1.316,0,0,1-.342.463,5.417,5.417,0,0,0,6.659,8.436,9.451,9.451,0,0,0,3.4,2.1l.879-1.611A7.255,7.255,0,0,1,317.416,40.737ZM307.232,24.449a1.025,1.025,0,1,1,1.024-1.025A1.025,1.025,0,0,1,307.232,24.449Zm5.856,15.958a2.928,2.928,0,1,1,2.928-2.928A2.928,2.928,0,0,1,313.088,40.407Z" transform="translate(-259.911)" fill="#535353"/>
      <path id="パス_421" data-name="パス 421" d="M30.414,4.532h-9.87a1.159,1.159,0,0,0-1.157,1.157V8a.973.973,0,0,0,.972.972h7.074a1.666,1.666,0,0,1,0,3.333H20.359a.973.973,0,0,0-.972.972v1.022a.973.973,0,0,0,.972.972h7.074a1.666,1.666,0,0,1,0,3.332H20.359a.973.973,0,0,0-.972.972v1.023a.973.973,0,0,0,.972.972h7.074a1.666,1.666,0,1,1,0,3.331H20.359a.973.973,0,0,0-.972.972v1.023a.973.973,0,0,0,.972.972h7.074a1.666,1.666,0,1,1,0,3.331H20.359a.973.973,0,0,0-.972.972V33.19a.973.973,0,0,0,.972.972h7.074a1.666,1.666,0,1,1,0,3.331H20.359a.973.973,0,0,0-.972.972v1.023a.973.973,0,0,0,.972.972h7.074a1.666,1.666,0,1,1,0,3.331H20.359a.973.973,0,0,0-.972.972v2.044a1.159,1.159,0,0,0,1.157,1.157h9.87a3.017,3.017,0,0,0,3.014-3.014V7.546A3.017,3.017,0,0,0,30.414,4.532Z" transform="translate(0 -4.141)" fill="#535353"/>
    </g>
  </g>
</svg>
