<svg xmlns="http://www.w3.org/2000/svg" width="70" height="70" viewBox="0 0 70 70">
  <g id="icon02" transform="translate(-525 -484)">
    <rect id="長方形_39" data-name="長方形 39" width="70" height="70" transform="translate(525 484)" fill="none"/>
    <g id="グループ_12" data-name="グループ 12" transform="translate(-127 -11.5)">
      <g id="グループ_11" data-name="グループ 11" transform="translate(54.5 19)">
        <line id="線_1" data-name="線 1" y1="13" x2="25" transform="translate(607.5 488.5)" fill="none" stroke="#535353" stroke-linecap="round" stroke-width="3"/>
        <line id="線_2" data-name="線 2" x1="25" y1="13" transform="translate(632.5 488.5)" fill="none" stroke="#535353" stroke-linecap="round" stroke-width="3"/>
      </g>
      <path id="合体_17" data-name="合体 17" d="M-1470,30V4h.077c.691-2.25,5.99-4,12.424-4,5.161,0,9.592,1.127,11.5,2.734,1.908-1.607,6.339-2.734,11.5-2.734,6.434,0,11.732,1.75,12.424,4h.077V30Z" transform="translate(2133 522)" fill="#fff"/>
      <rect id="長方形_47" data-name="長方形 47" width="8" height="24" transform="translate(683 525.5)" fill="#d9d9d9"/>
      <ellipse id="楕円形_7" data-name="楕円形 7" cx="12" cy="3" rx="12" ry="3" transform="translate(663 546)" fill="#ffa2dc"/>
      <ellipse id="楕円形_8" data-name="楕円形 8" cx="12" cy="3" rx="12" ry="3" transform="translate(687 546)" fill="#ffa2dc"/>
      <g id="合体_12" data-name="合体 12" transform="translate(2133 522)" fill="none" stroke-linecap="round" stroke-linejoin="round">
        <path d="M-1470,30V4h.077c.691-2.25,5.99-4,12.424-4,5.161,0,9.592,1.127,11.5,2.734,1.908-1.607,6.339-2.734,11.5-2.734,6.434,0,11.732,1.75,12.424,4h.077V30Z" stroke="none"/>
        <path d="M -1425 26.99970054626465 L -1425 4.970761775970459 C -1425.34375 4.706456184387207 -1426.169799804688 4.239060401916504 -1427.71630859375 3.813940286636353 C -1429.625732421875 3.289060354232788 -1432.034912109375 3.000000238418579 -1434.500122070312 3.000000238418579 C -1439.753295898438 3.000000238418579 -1443.099731445312 4.21284008026123 -1444.0673828125 5.028050422668457 C -1445.184326171875 5.968999862670898 -1446.81640625 5.968950748443604 -1447.933349609375 5.027920246124268 C -1448.900756835938 4.212760448455811 -1452.246826171875 3.000000238418579 -1457.499633789062 3.000000238418579 C -1459.96484375 3.000000238418579 -1462.3740234375 3.289060354232788 -1464.283447265625 3.813940286636353 C -1465.829956054688 4.239068508148193 -1466.656005859375 4.706459045410156 -1466.999755859375 4.970762729644775 L -1466.999755859375 26.99970054626465 L -1425 26.99970054626465 M -1422 29.99970054626465 L -1469.999755859375 29.99970054626465 L -1469.999755859375 3.999600172042847 L -1469.923217773438 3.999600172042847 C -1469.23193359375 1.750070214271545 -1463.933715820312 2.731323149873788e-07 -1457.499633789062 2.731323149873788e-07 C -1452.33837890625 2.731323149873788e-07 -1447.907592773438 1.126640319824219 -1446.000244140625 2.733730316162109 C -1444.092651367188 1.126640319824219 -1439.661376953125 2.731323149873788e-07 -1434.500122070312 2.731323149873788e-07 C -1428.066040039062 2.731323149873788e-07 -1422.767822265625 1.750070214271545 -1422.076538085938 3.999600172042847 L -1422 3.999600172042847 L -1422 29.99970054626465 Z" stroke="none" fill="#535353"/>
      </g>
      <path id="パス_415" data-name="パス 415" d="M0,0V27.175" transform="translate(687 526)" fill="none" stroke="#535353" stroke-linecap="round" stroke-width="3"/>
    </g>
  </g>
</svg>
