<svg xmlns="http://www.w3.org/2000/svg" width="70" height="70" viewBox="0 0 70 70">
  <g id="icon07" transform="translate(-443 -572)">
    <rect id="長方形_38" data-name="長方形 38" width="70" height="70" transform="translate(443 572)" fill="none"/>
    <g id="エプロンのアイコン素材_1" data-name="エプロンのアイコン素材 1" transform="translate(411.311 586.127)">
      <rect id="長方形_64" data-name="長方形 64" width="17" height="17" transform="translate(58.689 18.873)" fill="#fff"/>
      <path id="パス_425" data-name="パス 425" d="M148.469.546A.545.545,0,0,0,147.924,0h-2.4a.546.546,0,0,0-.546.546V8.112h3.49Z" transform="translate(-86.954)" fill="#535353"/>
      <path id="パス_426" data-name="パス 426" d="M328.241.546A.545.545,0,0,0,327.7,0h-2.4a.546.546,0,0,0-.546.546V8.112h3.49V.546Z" transform="translate(-251.888)" fill="#535353"/>
      <path id="パス_427" data-name="パス 427" d="M84.175,128.508H83.8a7.442,7.442,0,0,1-7.443-7.443v-6.206H58.026v6.2a7.447,7.447,0,0,1-7.447,7.447h-.314l-.049,0v0H50.2l3.109,18.337a.953.953,0,0,0,.939.794h25.88a.952.952,0,0,0,.94-.794l2.682-15.839.423-2.484h0Zm-12.843-2.149h.841v2.9h-.841Zm2.71,5.888a6.854,6.854,0,0,1-13.707,0v-2.367H74.042Z" transform="translate(0 -105.379)" fill="#535353"/>
      <path id="パス_428" data-name="パス 428" d="M193.789,313.869a16.44,16.44,0,0,1,3.322-4.03.286.286,0,0,0-.184-.5h-4.444a.286.286,0,0,0-.286.286v.856a5.761,5.761,0,0,0,1.124,3.427A.281.281,0,0,0,193.789,313.869Z" transform="translate(-130.275 -283.804)" fill="#ffa2dc"/>
    </g>
  </g>
</svg>
