<svg xmlns="http://www.w3.org/2000/svg" xmlns:xlink="http://www.w3.org/1999/xlink" width="65" height="65" viewBox="0 0 65 65">
  <defs>
    <clipPath id="clip-path">
      <rect id="長方形_132" data-name="長方形 132" width="65" height="65" transform="translate(282 99)" fill="#fff" stroke="#707070" stroke-width="1"/>
    </clipPath>
    <clipPath id="clip-path-2">
      <rect id="長方形_131" data-name="長方形 131" width="49" height="151.875" transform="translate(8 14)" fill="#fff"/>
    </clipPath>
  </defs>
  <g id="mem01" transform="translate(-282 -99)" clip-path="url(#clip-path)">
    <g id="mem01-2" data-name="mem01" transform="translate(282 99)">
      <rect id="長方形_130" data-name="長方形 130" width="65" height="65" fill="#7cc6c6"/>
      <g id="グループ_51" data-name="グループ 51" clip-path="url(#clip-path-2)">
        <path id="パス_1051" data-name="パス 1051" d="M43.239,30.595a1.47,1.47,0,0,1,1.177-.344,1.39,1.39,0,0,1,1,.664,1.963,1.963,0,0,1,.206.79,5.889,5.889,0,0,1-.6,3.121,3.742,3.742,0,0,1-.967,1.27,1.172,1.172,0,0,1-1.449.134,8.8,8.8,0,0,1-.383,1.383,12.034,12.034,0,0,1-4.059,4.845v.022a18.5,18.5,0,0,0,.246,2.684c.14.8.1,1.515,1.208,1.916.073.027,1.307.6,1.473.67,0,0-1.073,5.032-8.067,5.032-7.233,0-7.022-5.425-7.022-5.425.139-.058.685-.249.76-.278,1.112-.4,1.067-1.115,1.206-1.914a21.216,21.216,0,0,0,.246-2.7,8.649,8.649,0,0,1-2.3-1.962,9.97,9.97,0,0,1-2.011-4.055,1.345,1.345,0,0,1-1.417-.353,3.747,3.747,0,0,1-.967-1.27,5.885,5.885,0,0,1-.6-3.121,1.957,1.957,0,0,1,.206-.79,1.39,1.39,0,0,1,1-.664,1.471,1.471,0,0,1,1.178.344s-.919-8.855,9.573-8.855S43.239,30.595,43.239,30.595Z" fill="#fff"/>
        <path id="パス_1052" data-name="パス 1052" d="M26.174,47.979a9.28,9.28,0,0,0,1.324-.534,2.092,2.092,0,0,0,.966-1.348,18.966,18.966,0,0,0,.4-3.634.647.647,0,1,0-1.293,0c-.019.594-.058,1.188-.12,1.778-.047.448-.108.869-.2,1.355a2.819,2.819,0,0,1-.065.282c-.012.041-.026.082-.04.123-.046.143.065-.092-.018.032-.029.043-.053.09-.082.134.051-.076.023-.026-.02.016-.015.014-.133.12-.088.086s-.079.05-.092.058a7.691,7.691,0,0,1-1.015.4.667.667,0,0,0-.453.8.651.651,0,0,0,.8.453Z" fill="#211715"/>
        <path id="パス_1053" data-name="パス 1053" d="M37.516,42.479a19.411,19.411,0,0,0,.226,2.6,4.216,4.216,0,0,0,.465,1.729,2.094,2.094,0,0,0,.816.714c.11.055.225.1.339.147.253.1-.09-.05-.027-.015s.149.067.221.1c.4.182.8.371,1.205.55a.667.667,0,0,0,.885-.232.652.652,0,0,0-.232-.885c-.367-.162-.73-.334-1.1-.5-.174-.08-.348-.156-.524-.232a1.893,1.893,0,0,1-.335-.176c-.153-.1.054.065-.067-.058-.028-.027-.055-.056-.081-.085.036.05.041.056.016.019-.036-.053-.065-.109-.1-.165.053.1,0,.007-.015-.046a2.616,2.616,0,0,1-.085-.348c-.05-.271-.088-.546-.131-.818a16.859,16.859,0,0,1-.189-2.3.647.647,0,0,0-1.293,0Z" fill="#211715"/>
        <path id="パス_1054" data-name="パス 1054" d="M16.672,51.275a12.262,12.262,0,0,0-1.013.9,10.759,10.759,0,0,0-1.83,2.956c-.955,2.208-3.388,8.837-4.555,11.86a7.808,7.808,0,0,0,.841,7.7c1.544,1.983,5.975,3.4,8.062,4.11q.736.252,1.437.479c-.035.591-.071,1.076-.1,1.382-.049.474-.544,9.867-.533,9.17,5.755,0,24.667.021,28.72.021-.072-1.434-.3-7.7-.362-9.031a2.714,2.714,0,0,0-.011-.279c-.042-.4-.094-1.114-.148-1.963.433-.081.838-.162,1.208-.245,1.759-.388,5.213-1.279,6.712-2.528,1.467-1.223,1.419-4.1.894-7.107-.552-3.169-2.449-11.731-2.959-13.553a6.811,6.811,0,0,0-1.811-3.194,5.428,5.428,0,0,0-.735-.5l-.145-.079-.012-.01a10.416,10.416,0,0,0-1.536-.871,80.228,80.228,0,0,0-8.372-4.074,7.958,7.958,0,0,0-1.62-2.19,16.051,16.051,0,0,1-4.63,3.227c-.1.043-.2.1-.234.2H33.1c-.031-.1-.138-.154-.233-.2a16.049,16.049,0,0,1-4.63-3.227,8.033,8.033,0,0,0-1.681,2.314A81.751,81.751,0,0,0,18.2,50.428a9.224,9.224,0,0,0-1.453.81" fill="#fff"/>
        <path id="パス_1055" data-name="パス 1055" d="M26.2,45.994c-1.7.705-3.395,1.425-5.06,2.213q-1.175.557-2.328,1.16a16.744,16.744,0,0,0-2.4,1.313.667.667,0,0,0-.232.885.651.651,0,0,0,.885.232,16.064,16.064,0,0,1,2.271-1.247q1.153-.607,2.328-1.167c1.6-.763,3.233-1.461,4.873-2.141a.668.668,0,0,0,.453-.8.65.65,0,0,0-.8-.453Z" fill="#211715"/>
        <path id="パス_1056" data-name="パス 1056" d="M17.854,60.982c.391,3.109.789,6.218,1.149,9.331.076.66.167,1.321.182,1.986.021.961-.009,1.924-.038,2.884-.1,3.324-.358,6.641-.542,9.962-.087,1.567-.117,3.15-.271,4.712a.651.651,0,0,0,.647.647.661.661,0,0,0,.647-.647c.129-1.326.157-2.665.231-3.993.09-1.632.172-3.266.277-4.9s.215-3.254.274-4.886a34.857,34.857,0,0,0-.037-5.093c-.369-3.34-.806-6.674-1.226-10.007a.667.667,0,0,0-.647-.647.65.65,0,0,0-.647.647Z" fill="#211715"/>
        <path id="パス_1057" data-name="パス 1057" d="M48.334,89.928c-.087-.867-.081-1.752-.114-2.623q-.081-2.17-.158-4.339c-.09-2.486-.285-4.963-.42-7.447q-.062-1.144-.121-2.289c-.023-.448-.08-.911-.06-1.36.032-.718.155-1.441.241-2.154.328-2.7.681-5.39,1.032-8.083.283-2.166.586-4.333.848-6.5a.651.651,0,0,0-.647-.647.662.662,0,0,0-.647.647c-.555,4.6-1.213,9.193-1.783,13.794-.109.877-.221,1.753-.309,2.632a18.484,18.484,0,0,0,.09,2.8c.136,2.577.356,5.152.451,7.73q.087,2.357.171,4.716c.039,1.038.029,2.093.133,3.127a.665.665,0,0,0,.647.647.651.651,0,0,0,.647-.647Z" fill="#211715"/>
        <path id="パス_1058" data-name="パス 1058" d="M31.98,51.313l3.385-.776q.05-.243.1-.485.054-.278.111-.556l-.892-.875c-.7,0-1.587,0-2.315,0-.259.255-.566.555-.88.863.123.506.215.978.407,1.565C31.923,51.132,31.952,51.223,31.98,51.313Z" fill="#6dbf6b"/>
        <path id="パス_1059" data-name="パス 1059" d="M35.04,51.338c-.974,0-1.947-.021-2.921-.022a.647.647,0,0,0,0,1.293c.974,0,1.947.021,2.921.022a.647.647,0,1,0,0-1.293Z" fill="#211715"/>
        <path id="パス_1060" data-name="パス 1060" d="M34.68,47.97q-1.157,0-2.315,0a.647.647,0,0,0,0,1.293c.772,0,1.544,0,2.315,0a.647.647,0,0,0,0-1.293Z" fill="#211715"/>
        <path id="パス_1061" data-name="パス 1061" d="M36.138,55.584c-.129-1.072-.261-2.144-.384-3.216a1.823,1.823,0,0,1,.023-.722c.162-.655.286-1.317.42-1.978a.663.663,0,0,0-.453-.8.653.653,0,0,0-.8.453c-.133.661-.259,1.323-.42,1.978a2.767,2.767,0,0,0-.074,1.02c.125,1.088.259,2.175.388,3.262a.667.667,0,0,0,.647.647.65.65,0,0,0,.647-.647Z" fill="#211715"/>
        <path id="パス_1062" data-name="パス 1062" d="M30.862,49.648c.138.578.277,1.15.456,1.716a2.16,2.16,0,0,1,.125.97.725.725,0,0,1-.009.072l-.039.279q-.05.353-.1.707-.136.942-.277,1.882a.668.668,0,0,0,.453.8.651.651,0,0,0,.8-.453c.162-1.094.332-2.187.472-3.283a2.808,2.808,0,0,0-.124-1.161c-.182-.622-.353-1.238-.5-1.868-.194-.808-1.442-.467-1.247.344Z" fill="#211715"/>
        <path id="パス_1063" data-name="パス 1063" d="M37.307,51.254c1.31-1.786,2.009-3.059,3.107-4.847a7.92,7.92,0,0,0-1.614-2.18,16.049,16.049,0,0,1-4.63,3.227c-.1.043-.2.1-.234.2a.371.371,0,0,0,.054.261C34.05,48.037,36.869,50.715,37.307,51.254Z" fill="#fff"/>
        <path id="パス_1064" data-name="パス 1064" d="M29.735,51.254c-1.309-1.786-2.009-3.059-3.107-4.847a7.914,7.914,0,0,1,1.613-2.18,16.052,16.052,0,0,0,4.63,3.227c.1.043.2.1.234.2a.37.37,0,0,1-.053.261C32.991,48.037,30.172,50.715,29.735,51.254Z" fill="#fff"/>
        <path id="パス_1065" data-name="パス 1065" d="M37.864,51.58c.891-1.219,1.684-2.5,2.464-3.787.191-.316.391-.628.576-.949.266-.462.063-.8-.182-1.216a8.363,8.363,0,0,0-1.464-1.859.659.659,0,0,0-.915,0,15.189,15.189,0,0,1-2.635,2.112,15.552,15.552,0,0,1-1.451.817c-.506.25-1.108.515-.952,1.212a2.476,2.476,0,0,0,.834,1.081c.485.478.972.953,1.457,1.431a17.85,17.85,0,0,1,1.253,1.288.651.651,0,0,0,.914,0,.661.661,0,0,0,0-.915,24.648,24.648,0,0,0-1.8-1.826c-.338-.332-.679-.663-1.014-1-.117-.116-.234-.231-.348-.349-.032-.035-.065-.073-.1-.106-.1-.093.086.086.082.132l-.088.326q-.144.12,0,.035l.1-.048c.121-.057.243-.115.362-.175q.316-.157.623-.329.661-.369,1.285-.8a16.789,16.789,0,0,0,2.389-1.978h-.915a7.61,7.61,0,0,1,1.513,2.049v-.653c-1.005,1.638-1.972,3.293-3.107,4.847a.651.651,0,0,0,.232.885.661.661,0,0,0,.885-.232Z" fill="#211715"/>
        <path id="パス_1066" data-name="パス 1066" d="M30.293,50.928c-1.135-1.552-2.1-3.208-3.107-4.847v.653a7.609,7.609,0,0,1,1.513-2.05h-.915a16.73,16.73,0,0,0,2.387,1.978q.6.412,1.233.769.308.174.623.333.18.091.363.176l.155.072q.147.085,0-.035l-.088-.326c0-.044.194-.23.09-.14-.034.03-.065.069-.1.1-.111.115-.226.228-.34.341-.343.34-.69.679-1.035,1.016a24.65,24.65,0,0,0-1.8,1.826.665.665,0,0,0,0,.915.651.651,0,0,0,.914,0,34.905,34.905,0,0,1,2.527-2.54,5.274,5.274,0,0,0,.887-.927A.933.933,0,0,0,33.2,46.9c-.488-.25-.98-.48-1.452-.761A15.29,15.29,0,0,1,28.7,43.77a.659.659,0,0,0-.915,0,8.338,8.338,0,0,0-1.435,1.808c-.233.391-.491.762-.245,1.211.187.342.408.67.61,1,.779,1.291,1.573,2.569,2.463,3.787a.666.666,0,0,0,.885.232.652.652,0,0,0,.233-.884Z" fill="#211715"/>
        <path id="パス_1067" data-name="パス 1067" d="M40.445,47.122c1.675.7,3.318,1.466,4.934,2.292.761.388,1.516.789,2.268,1.194A17.4,17.4,0,0,1,50,51.922a.65.65,0,0,0,.885-.232.663.663,0,0,0-.232-.885A17.515,17.515,0,0,0,48.3,49.491c-.792-.427-1.588-.848-2.39-1.256q-2.514-1.28-5.121-2.36a.651.651,0,0,0-.8.453.663.663,0,0,0,.453.8Z" fill="#211715"/>
        <path id="パス_1068" data-name="パス 1068" d="M22.407,68.742c-1.157-2.185-4.287-8.548-5.674-11.183.544-.286,2.277-1.12,2.938-1.4" fill="#fff"/>
        <path id="パス_1069" data-name="パス 1069" d="M22.965,68.416c-1.561-2.954-3.013-5.966-4.524-8.946-.379-.748-.76-1.495-1.15-2.237l-.232.885c.453-.237.915-.458,1.377-.679q.4-.194.811-.382c.114-.052.226-.1.341-.156l.188-.084c.015-.007.16-.069.067-.03a.669.669,0,0,0,.453-.8.651.651,0,0,0-.8-.453c-1.049.442-2.084.934-3.092,1.461a.658.658,0,0,0-.232.885c1.6,3.035,3.095,6.122,4.644,9.18.34.67.679,1.339,1.03,2,.388.736,1.506.083,1.116-.653Z" fill="#211715"/>
        <path id="パス_1070" data-name="パス 1070" d="M26.227,84.536c-1.964-8.528-5-21.545-7.01-30.287,6.061-1.4,17.816-4.1,21.861-5.028h0c2.564,11.048,4.768,20.934,6.9,30.211-4.369,1.006-17.433,4.106-21.757,5.1Z" fill="#79c6e0"/>
        <path id="パス_1071" data-name="パス 1071" d="M26.851,84.364Q24.092,72.379,21.3,60.4q-.732-3.162-1.461-6.324l-.453.8q9.12-2.1,18.241-4.195l3.621-.833-.5-.065h0l-.3-.388c1.854,7.988,3.658,15.987,5.479,23.983q.71,3.115,1.425,6.228l.453-.8c-5.946,1.37-11.88,2.791-17.82,4.185q-1.968.462-3.937.918l.5.065c-.7-.447-1.354.671-.653,1.117.28.177.645.032.94-.036l.823-.191,1.9-.445q2.3-.538,4.591-1.079L44.109,81q2.024-.475,4.049-.944a.657.657,0,0,0,.453-.8c-1.868-8.113-3.689-16.237-5.552-24.352q-.369-1.605-.739-3.211-.188-.815-.377-1.63c-.108-.468-.121-1.314-.689-1.471a1.761,1.761,0,0,0-.806.106l-.725.167-1.726.4-8.958,2.06-9.991,2.3a.658.658,0,0,0-.453.8q2.772,12.04,5.575,24.073.72,3.106,1.435,6.213C25.791,85.519,27.038,85.175,26.851,84.364Z" fill="#211715"/>
        <path id="パス_1072" data-name="パス 1072" d="M43.573,77.161c-1.512-6.567-3.848-16.59-5.4-23.322Z" fill="#fff"/>
        <path id="パス_1073" data-name="パス 1073" d="M43.9,76.6l.3.388q-2.128-9.24-4.279-18.475-.561-2.423-1.119-4.847c-.187-.811-1.434-.468-1.247.344q2.18,9.465,4.382,18.924l.567,2.454L42.78,76.6c.088.38.109.895.467,1.122.7.448,1.354-.672.653-1.117Z" fill="#211715"/>
        <path id="パス_1074" data-name="パス 1074" d="M48.492,68.861c-1.775.4-3.6.63-5.4.905q-3.586.55-7.176,1.065l-2.528.367a.644.644,0,0,0-.475.623c.225,2.475.638,4.95,1.01,7.407.058.384.1.78.191,1.159a.651.651,0,0,0,.624.475c2.673-.2,5.343-.564,8-.929A47.414,47.414,0,0,0,52.5,77.849c1.617-.586,3.33-1.308,4.02-3,.776-1.9.447-4.211.115-6.174-.51-3.01-1.2-6-1.863-8.973-.319-1.425-.637-2.852-1-4.266a6.9,6.9,0,0,0-2.965-4.541.647.647,0,0,0-.653,1.117,3.908,3.908,0,0,1,1.558,1.621,8.553,8.553,0,0,1,.788,2.052c.293,1.132.55,2.272.808,3.411.674,2.965,1.33,5.938,1.9,8.926a16.267,16.267,0,0,1,.4,5.255,3.265,3.265,0,0,1-.9,2.019,6.53,6.53,0,0,1-1.9,1.061,39.507,39.507,0,0,1-9.326,2.179c-2.9.42-5.82.813-8.74,1.035l.623.475c-.31-1.281-.412-2.643-.6-3.945-.2-1.439-.429-2.826-.56-4.275l-.475.624c4.216-.618,8.439-1.208,12.642-1.895.822-.134,1.649-.259,2.461-.442s.468-1.432-.344-1.247Z" fill="#211715"/>
        <path id="パス_1075" data-name="パス 1075" d="M18.181,69.309c5.076,1.8,10.244,3.335,15.372,4.984l-.453-.8c-.611,2.9-1.458,5.743-2.15,8.623l.8-.453A111.939,111.939,0,0,1,20.39,78.853c-1.487-.469-2.971-.965-4.433-1.508a20.032,20.032,0,0,1-4.009-1.9,5.682,5.682,0,0,1-2.436-3.427,8.376,8.376,0,0,1,.508-5.173c1.022-2.665,2.009-5.344,3.029-8.009.263-.686.528-1.372.8-2.056.22-.557.42-1.056.618-1.5a10.117,10.117,0,0,1,1.15-1.981,8.573,8.573,0,0,1,1.513-1.565c.644-.528-.276-1.438-.915-.914a9.855,9.855,0,0,0-2.6,3.236c-.543,1.1-.97,2.261-1.413,3.4C11.11,60.265,10.067,63.1,9,65.913a11.211,11.211,0,0,0-.964,5.07,7.362,7.362,0,0,0,2.1,4.679,13.062,13.062,0,0,0,3.9,2.3c1.3.552,2.639,1.01,3.977,1.466a108.749,108.749,0,0,0,13.4,3.488.658.658,0,0,0,.8-.453c.692-2.88,1.538-5.723,2.15-8.622a.663.663,0,0,0-.453-.8C28.769,71.4,23.6,69.861,18.525,68.061c-.786-.278-1.124.97-.344,1.247Z" fill="#211715"/>
        <path id="パス_1076" data-name="パス 1076" d="M43.233,30.561c-.188.127-.267.1-.275.019-.011-.117-.024-.237-.042-.353a9.6,9.6,0,0,0-.229-1.031,12.181,12.181,0,0,0-1.229-2.716,5.121,5.121,0,0,0-3.281-2.66l-2.14-.279a30.416,30.416,0,0,1-12.715,7.071,1.461,1.461,0,0,0-1.193-.361,1.335,1.335,0,0,0-.251.062c-.884-1.912-.878-5.326-.25-7.682A8.238,8.238,0,0,1,25.7,17.2l1.822-1.246c2.371-1.584,6.8-1.5,8.611-.857a7.1,7.1,0,0,1,3.922,3.067l1.4,1.239a6.475,6.475,0,0,1,2.771,3.544,12.4,12.4,0,0,1,.178,7.305,1.473,1.473,0,0,0-1.17.346" fill="#7a7473"/>
        <path id="パス_1077" data-name="パス 1077" d="M40.617,17.835a7.609,7.609,0,0,0-4.942-3.543,13.654,13.654,0,0,0-5.529-.016A8.232,8.232,0,0,0,27.2,15.392c-.694.453-.046,1.574.653,1.117a10.082,10.082,0,0,1,6.215-1.157c2.086.169,4.438,1.189,5.434,3.136.379.741,1.5.088,1.117-.653Z" fill="#211715"/>
        <path id="パス_1078" data-name="パス 1078" d="M42.009,35.709a5.381,5.381,0,0,1-.323,1.471l-.071.208c0,.011-.072.192-.027.08s-.03.065-.039.082c-.022.046-.044.091-.067.137a12,12,0,0,1-1.038,1.67,7.623,7.623,0,0,1-3.7,3.035.647.647,0,0,0,.344,1.247,8.978,8.978,0,0,0,4.422-3.557,8.04,8.04,0,0,0,1.793-4.37c.034-.832-1.259-.831-1.293,0Z" fill="#211715"/>
        <path id="パス_1079" data-name="パス 1079" d="M23.1,35.776a11.22,11.22,0,0,0,2.188,4.974,7.857,7.857,0,0,0,4.737,3.035.667.667,0,0,0,.8-.453.652.652,0,0,0-.453-.8c-3.412-.533-5.433-3.98-6.021-7.1a.652.652,0,0,0-.8-.453.66.66,0,0,0-.453.8Z" fill="#211715"/>
        <path id="パス_1080" data-name="パス 1080" d="M43.7,31.052a.795.795,0,0,1,1.161.189,1.871,1.871,0,0,1,.137.837,4.96,4.96,0,0,1-.071,1,5.246,5.246,0,0,1-.7,1.857c-.243.386-.645.931-1.125.8a.647.647,0,0,0-.344,1.247,2.332,2.332,0,0,0,2.475-1.229,6.265,6.265,0,0,0,1.017-2.822,3.213,3.213,0,0,0-.642-2.8,2.134,2.134,0,0,0-2.818.012.651.651,0,0,0,0,.914.661.661,0,0,0,.914,0Z" fill="#211715"/>
        <path id="パス_1081" data-name="パス 1081" d="M23.763,30.138a2.137,2.137,0,0,0-2.818-.012A3.276,3.276,0,0,0,20.312,33a6.168,6.168,0,0,0,1.067,2.83,2.587,2.587,0,0,0,2.56,1.287c.813-.179.469-1.426-.344-1.247-.479.106-.984-.509-1.215-.857a5.167,5.167,0,0,1-.748-1.889,4.933,4.933,0,0,1-.082-.982,1.967,1.967,0,0,1,.138-.905.795.795,0,0,1,1.16-.189.664.664,0,0,0,.915,0,.652.652,0,0,0,0-.914Z" fill="#211715"/>
        <path id="パス_1082" data-name="パス 1082" d="M25.377,16.638a8.885,8.885,0,0,0-4.416,5.987,15.269,15.269,0,0,0-.426,3.843,11.046,11.046,0,0,0,.578,3.68c.285.776,1.536.439,1.247-.344a12.054,12.054,0,0,1-.179-6.723,7.691,7.691,0,0,1,3.848-5.326c.753-.354.1-1.469-.653-1.117Z" fill="#211715"/>
        <path id="パス_1083" data-name="パス 1083" d="M41.133,19.959A6.353,6.353,0,0,1,43.9,24.044a11.685,11.685,0,0,1-.067,5.872.647.647,0,0,0,1.247.344,13,13,0,0,0,.038-6.67,7.585,7.585,0,0,0-3.332-4.747A.647.647,0,0,0,41.133,19.959Z" fill="#211715"/>
        <path id="パス_1084" data-name="パス 1084" d="M38.006,24.444a5.013,5.013,0,0,1,3.13,2.772,10.075,10.075,0,0,1,.972,2.322c.054.209.1.418.144.629s.035.426.093.621a.779.779,0,0,0,1.215.332A.647.647,0,0,0,42.906,30c.007.026-.009.032-.05.022H43.2l-.037-.009.285.167-.023-.024.166.285c-.087-.309-.125-.816-.222-1.193a8.623,8.623,0,0,0-.379-1.139,13.682,13.682,0,0,0-1.158-2.254A5.793,5.793,0,0,0,38.35,23.2C37.541,23,37.2,24.249,38.006,24.444Z" fill="#211715"/>
        <path id="パス_1085" data-name="パス 1085" d="M35.756,22.919A29.868,29.868,0,0,1,23.18,29.98a.647.647,0,0,0,.344,1.247A31.25,31.25,0,0,0,36.67,23.834C37.274,23.259,36.359,22.346,35.756,22.919Z" fill="#211715"/>
        <path id="パス_1086" data-name="パス 1086" d="M31.421,38.731a4.131,4.131,0,0,0,1.99.464,3.27,3.27,0,0,0,2.037-.614.647.647,0,0,0,0-.914.667.667,0,0,0-.915,0c.222-.173-.022.005-.093.042-.055.029-.206.074-.008.01-.055.018-.108.042-.163.06s-.14.041-.211.058c-.038.009-.226.019-.246.047.022-.031.127-.015,0,0l-.134.011c-.108.007-.217.01-.323.009s-.194,0-.291-.01l-.133-.011-.076-.008.051.007a1.216,1.216,0,0,1-.427-.1c-.06-.018-.118-.039-.177-.06-.15-.051.129.063-.006,0-.073-.034-.146-.07-.217-.108a.647.647,0,1,0-.653,1.117Z" fill="#211715"/>
        <path id="パス_1087" data-name="パス 1087" d="M33.014,34.131a8.976,8.976,0,0,1,.211.967l-.023-.172a.6.6,0,0,1,0,.134l.023-.172a.3.3,0,0,1-.015.06l.065-.155a.273.273,0,0,1-.021.038l.1-.129a.205.205,0,0,1-.032.032l.131-.1a.632.632,0,0,1-.077.041l.155-.065a.567.567,0,0,1-.129.038l.172-.023a.5.5,0,0,1-.121,0l.172.023c-.046-.007-.09-.018-.136-.024a.491.491,0,0,0-.259-.012.48.48,0,0,0-.24.077.646.646,0,0,0-.232.885.62.62,0,0,0,.388.3c.117.016.231.045.351.05a1.147,1.147,0,0,0,.534-.129.8.8,0,0,0,.435-.526,1.255,1.255,0,0,0,0-.55c-.053-.312-.125-.621-.205-.926a.648.648,0,0,0-1.183-.155.679.679,0,0,0-.065.5Z" fill="#211715"/>
        <path id="パス_1088" data-name="パス 1088" d="M28.044,31.351c-.162.525-.056,1.733.938,1.835,1.315-.008,1.385-1.468.942-2.155A1.041,1.041,0,0,0,28.044,31.351Z" fill="#211715"/>
        <path id="パス_1089" data-name="パス 1089" d="M38.572,31.351c.162.525.056,1.733-.938,1.835-1.315-.008-1.385-1.468-.942-2.155A1.041,1.041,0,0,1,38.572,31.351Z" fill="#211715"/>
      </g>
    </g>
  </g>
</svg>
