<svg xmlns="http://www.w3.org/2000/svg" xmlns:xlink="http://www.w3.org/1999/xlink" width="65" height="65" viewBox="0 0 65 65">
  <defs>
    <clipPath id="clip-path">
      <rect id="長方形_135" data-name="長方形 135" width="65" height="65" transform="translate(374 99)" fill="#fff" stroke="#707070" stroke-width="1"/>
    </clipPath>
    <clipPath id="clip-path-2">
      <rect id="長方形_134" data-name="長方形 134" width="46" height="162.102" transform="translate(10 12)" fill="#fff"/>
    </clipPath>
  </defs>
  <g id="mem02" transform="translate(-374 -99)" clip-path="url(#clip-path)">
    <g id="mem02-2" data-name="mem02" transform="translate(374 99)">
      <rect id="長方形_133" data-name="長方形 133" width="65" height="65" fill="#ffdf58"/>
      <g id="グループ_52" data-name="グループ 52" clip-path="url(#clip-path-2)">
        <path id="パス_1090" data-name="パス 1090" d="M40.81,47.311c-.1-.042-1.227-.48-1.293-.5-1-.361-.96-1-1.087-1.723a13.865,13.865,0,0,1-.219-2.728c2.632-1.092,4.753-4.641,5.122-5.64.055-.167.168-.483.27-.858l.207-.031a2.623,2.623,0,0,0,1.219-.548,3.957,3.957,0,0,0,1.024-1.343,6.226,6.226,0,0,0,.634-3.3,2.074,2.074,0,0,0-.217-.835,1.47,1.47,0,0,0-1.056-.7,1.556,1.556,0,0,0-1.243.366s-.409-9.153-11.062-9.153c-9.425,0-9.818,9.15-9.818,9.15a1.556,1.556,0,0,0-1.243-.366,1.469,1.469,0,0,0-1.056.7,2.081,2.081,0,0,0-.218.835,6.222,6.222,0,0,0,.633,3.3,3.958,3.958,0,0,0,1.024,1.342,2.623,2.623,0,0,0,1.219.548l.4.061a10.583,10.583,0,0,0,2.016,3.938,9.063,9.063,0,0,0,3.1,2.48,13.688,13.688,0,0,1-.217,2.779c-.126.719-.086,1.362-1.086,1.723-.066.024-.532.177-.724.243,0,0,.1,5.274,6.219,5.274S40.81,47.311,40.81,47.311Z" fill="#fff"/>
        <path id="パス_1091" data-name="パス 1091" d="M21.258,36.157a4.45,4.45,0,0,1,.624-1.452,3.343,3.343,0,0,0,.549.571,2.623,2.623,0,0,0,1.219.548l.4.061a10.576,10.576,0,0,0,2.016,3.938,10.264,10.264,0,0,0,1.713,1.645c-.245.965-1.583,1.88-3.224,2.13a5.7,5.7,0,0,1-3.725-.649,1.243,1.243,0,0,1-.411-.361.363.363,0,0,1-.064-.179c0-.026.005-.129.037-.139.8-.272,1.02-1.1.981-1.94s-.256-1.708-.269-2.551a7.779,7.779,0,0,1,.054-1.06A5.572,5.572,0,0,1,21.258,36.157Z" fill="#957f6e"/>
        <path id="パス_1092" data-name="パス 1092" d="M28.434,42.848c-.006.295-.02.589-.045.883-.011.133-.024.266-.039.4-.007.066-.015.133-.024.2s-.007.053,0,0l-.011.079c-.059.4-.1.81-.2,1.2-.009.037-.019.073-.03.108s-.07.132-.008.037c.08-.122-.094.14-.087.146-.011-.015.124-.132.013-.021l-.088.086c-.113.11.125-.068-.023.013-.043.023-.084.05-.128.073s-.127.057-.034.021c-.034.014-.068.026-.1.036l-.183.061-.506.169a.733.733,0,0,0,.39,1.414,7.536,7.536,0,0,0,1.2-.45,2.019,2.019,0,0,0,.956-1.175,7.9,7.9,0,0,0,.226-1.248,15.773,15.773,0,0,0,.183-2.033.731.731,0,1,0-1.462,0Z" fill="#211715"/>
        <path id="パス_1093" data-name="パス 1093" d="M37.479,42.848a18.282,18.282,0,0,0,.264,2.532,2.79,2.79,0,0,0,.559,1.5,3.068,3.068,0,0,0,1.3.743c.339.132.678.26,1.015.4a.731.731,0,0,0,.9-.512A.753.753,0,0,0,41,46.6c-.3-.121-.6-.235-.9-.351l-.379-.146c-.029-.011-.058-.021-.087-.032.124.051-.073-.043-.1-.056-.041-.024-.2-.154-.064-.033-.036-.037-.073-.073-.112-.107-.11-.1.066.123,0-.005-.022-.041-.046-.081-.068-.122-.068-.12.04.155,0-.019-.013-.053-.031-.1-.043-.158-.049-.209-.073-.423-.107-.635a14.425,14.425,0,0,1-.2-2.093.731.731,0,0,0-1.462,0Z" fill="#211715"/>
        <path id="パス_1094" data-name="パス 1094" d="M24.98,47.112A32.1,32.1,0,0,0,18.1,50.359,6.927,6.927,0,0,0,16.5,52.4a8.244,8.244,0,0,0-.926,1.718c-.89,2.06-3.163,8.249-4.253,11.072a7.29,7.29,0,0,0,.785,7.188c1.441,1.85,5.577,3.17,7.527,3.837,2.418.827,4.541,1.439,6.693,1.972l8.77-.655c1.18-.088,8.955-.914,12.74-1.751,1.642-.363,4.867-1.194,6.266-2.36,1.37-1.142,1.325-3.826.835-6.636-.516-2.958-2.286-10.952-2.763-12.653a6.362,6.362,0,0,0-1.69-2.982,1.557,1.557,0,0,0-.2-.158,5.644,5.644,0,0,0-1.767-1.112,80.335,80.335,0,0,0-8.032-3.929A7.707,7.707,0,0,0,38.9,43.809a15.549,15.549,0,0,1-4.488,3.126c-.093.042-.2.094-.227.191h-.8c-.03-.1-.133-.149-.226-.191a15.547,15.547,0,0,1-4.488-3.126,8.068,8.068,0,0,0-1.805,2.613C26.273,46.634,25.637,46.866,24.98,47.112Z" fill="#fff"/>
        <path id="パス_1095" data-name="パス 1095" d="M39.9,46.412c-.512.872-5.239,7.328-6.2,8.328,0,0-.071.073-.192.2-.5-.68-1.155-1.527-1.557-1.962-1.282-1.538-4.359-5.526-4.666-6.41l-.128-.258-.246.09a48.676,48.676,0,0,0-8.245,3.572c.3,1.28,1.772,11.245,2.36,15.271l.388,5.423-.752,4.659c-.307,1.958-.857,5.484-.929,5.933l-1.1,6.229-.031.172a50.122,50.122,0,0,0,10.112.385,2.867,2.867,0,0,0,1.16-.279,2.236,2.236,0,0,0,.878-.932c.654-1.276,2.084-4.069,2.928-6.234l.089.162a54.215,54.215,0,0,0,3.174,6.073,2.164,2.164,0,0,0,2.038,1.21,43.743,43.743,0,0,0,9.523-.4l-.019-.133-.911-6.232C47,77.06,46.362,72.294,46.5,71.394c.976-6.6,1.853-12.318,2.44-16.945l.594-4.033V50.4c-.329-.189-.675-.332-1.022-.521a80.173,80.173,0,0,0-8.1-3.96" fill="#645d5c"/>
        <path id="パス_1096" data-name="パス 1096" d="M48.826,50.221c-.725,4.927-1.383,9.864-2.114,14.79-.3,2.033-.614,4.063-.906,6.1a13.1,13.1,0,0,0,.148,3.242c.293,2.671.65,5.338,1.038,8l.783,5.357a.736.736,0,0,0,.9.512.75.75,0,0,0,.512-.9c-.578-3.953-1.17-7.9-1.645-11.872a30.142,30.142,0,0,1-.331-3.723,15.14,15.14,0,0,1,.282-2.084q.222-1.5.445-2.994c.521-3.5,1.042-7,1.511-10.507q.087-.652.171-1.3c.011-.084.021-.17.032-.256-.016.124-.01.071-.006.045.006-.045.013-.09.02-.135l.194-1.322.376-2.552a.755.755,0,0,0-.512-.9.736.736,0,0,0-.9.512Z" fill="#211715"/>
        <path id="パス_1097" data-name="パス 1097" d="M16.963,53.1A6.042,6.042,0,0,1,18.6,50.894a16.617,16.617,0,0,1,2.523-1.411c1.94-.914,3.965-1.64,5.979-2.376.878-.32.5-1.734-.389-1.41-2.176.795-4.363,1.585-6.456,2.584a14.892,14.892,0,0,0-2.59,1.493,7.038,7.038,0,0,0-1.97,2.592c-.4.846.861,1.59,1.263.738Z" fill="#211715"/>
        <path id="パス_1098" data-name="パス 1098" d="M17.962,50.155c.28,1.194.5,2.4.72,3.609.136.737.266,1.474.387,2.213.1.646.169,1.028.225,1.59a.752.752,0,0,0,.731.731.737.737,0,0,0,.731-.731c-.136-1.374-.4-2.739-.646-4.095-.227-1.238-.451-2.48-.738-3.706-.215-.916-1.625-.528-1.41.389Z" fill="#211715"/>
        <path id="パス_1099" data-name="パス 1099" d="M39.269,46.043c-.6,1-1.336,1.933-2.02,2.873-.961,1.32-2.021,2.754-2.966,3.966-.354.454-.7.923-1.1,1.34-.649.682.384,1.718,1.034,1.034a34.337,34.337,0,0,0,2.453-3.112q1.51-2.011,2.971-4.06c.3-.427.621-.852.89-1.3A.732.732,0,0,0,39.269,46.043Z" fill="#211715"/>
        <path id="パス_1100" data-name="パス 1100" d="M26.58,46.764a6.524,6.524,0,0,0,.765,1.353c.441.654.909,1.292,1.382,1.924.909,1.215,1.824,2.44,2.822,3.583.526.6,1.01,1.243,1.477,1.893.1.141.2.282.3.425a.7.7,0,0,0,.083.124c.11.092-.062-.129-.03-.234a.687.687,0,0,0,.015.193c.039.61.042,1.223.055,1.833.1,5.052.11,10.106.133,15.159.008,1.781.019,3.562.019,5.343a.732.732,0,0,0,1.462,0c0-4.168-.031-8.336-.062-12.5-.018-2.468-.037-4.936-.08-7.4-.013-.727-.022-1.454-.053-2.18-.007-.15-.013-.3-.029-.451-.073-.665-.755-1.332-1.145-1.843-1.037-1.362-2.167-2.651-3.205-4.013-.548-.72-1.091-1.446-1.609-2.189-.2-.293-.405-.585-.594-.888-.073-.115-.143-.23-.208-.348-.026-.048-.05-.1-.077-.146-.1-.178.021.073-.011-.018C27.667,45.5,26.253,45.879,26.58,46.764Z" fill="#211715"/>
        <path id="パス_1101" data-name="パス 1101" d="M40.215,46.628c1.645.685,3.263,1.442,4.851,2.253q1.118.571,2.222,1.17a17.417,17.417,0,0,1,2.3,1.266.736.736,0,0,0,1-.263.749.749,0,0,0-.263-1,17.479,17.479,0,0,0-2.3-1.267c-.782-.421-1.568-.836-2.36-1.239q-2.484-1.264-5.062-2.33a.736.736,0,0,0-.9.512.75.75,0,0,0,.512.9Z" fill="#211715"/>
        <path id="パス_1102" data-name="パス 1102" d="M30.6,50.006a18.543,18.543,0,0,1-3.5-4.086,7.677,7.677,0,0,1,1.564-2.111,15.543,15.543,0,0,0,4.488,3.126c.093.042.2.094.226.191a.359.359,0,0,1-.052.254C33.27,47.5,31.215,49.424,30.6,50.006Z" fill="#fff"/>
        <path id="パス_1103" data-name="パス 1103" d="M37.284,50.287a28.14,28.14,0,0,0,3.181-4.367A7.684,7.684,0,0,0,38.9,43.809a15.549,15.549,0,0,1-4.488,3.126c-.093.042-.2.094-.227.191a.361.361,0,0,0,.052.254C34.295,47.5,36.563,49.676,37.284,50.287Z" fill="#fff"/>
        <path id="パス_1104" data-name="パス 1104" d="M31.121,49.489a20.167,20.167,0,0,1-3.388-3.938v.738a7.265,7.265,0,0,1,1.45-1.965H28.149a16.379,16.379,0,0,0,2.332,1.932q.591.407,1.217.759.3.171.615.327c.094.047.188.093.283.138l.188.087q.165.094-.037-.073l-.1-.369c-.005-.071.129-.222.132-.224a.827.827,0,0,0-.079.084c-.083.087-.169.171-.256.256-.261.256-.525.509-.791.761-.522.5-1.048.99-1.572,1.487-.684.649.352,1.682,1.034,1.034.788-.749,1.586-1.486,2.361-2.248.418-.41.871-.925.512-1.551-.229-.4-.744-.541-1.133-.743q-.624-.325-1.221-.709a14.556,14.556,0,0,1-2.453-1.98.745.745,0,0,0-1.034,0,8.2,8.2,0,0,0-1.456,1.857,2.664,2.664,0,0,0-.3.578.911.911,0,0,0,.19.75q.3.475.63.928a24.056,24.056,0,0,0,2.869,3.12C30.768,51.173,31.8,50.14,31.121,49.489Z" fill="#211715"/>
        <path id="パス_1105" data-name="パス 1105" d="M37.8,50.8a28.772,28.772,0,0,0,2.615-3.437c.209-.321.423-.642.615-.974.275-.475.082-.835-.169-1.262a8.178,8.178,0,0,0-1.446-1.841.744.744,0,0,0-1.034,0,14.476,14.476,0,0,1-2.273,1.862q-.607.4-1.248.746a3.556,3.556,0,0,0-1.216.72c-.484.627-.014,1.212.427,1.651.421.42.851.831,1.283,1.24.463.439.926.881,1.412,1.295a.75.75,0,0,0,1.034,0,.738.738,0,0,0,0-1.034c-.612-.521-1.191-1.082-1.772-1.637-.291-.278-.581-.558-.866-.841-.095-.094-.19-.189-.282-.286-.028-.03-.055-.064-.085-.091-.071-.063.125.152.12.211l-.1.369q-.2.165-.037.073l.144-.067q.17-.08.337-.163.292-.146.58-.307.638-.357,1.243-.773a16.371,16.371,0,0,0,2.333-1.932H38.382a7.279,7.279,0,0,1,1.45,1.965v-.74a29.752,29.752,0,0,1-3.065,4.217.749.749,0,0,0,0,1.034.739.739,0,0,0,1.034,0Z" fill="#211715"/>
        <path id="パス_1106" data-name="パス 1106" d="M20.31,63.777c0,.532.054,1.069.081,1.6q.047.943.091,1.887a.731.731,0,1,0,1.462,0q-.044-.944-.091-1.887c-.026-.531-.08-1.069-.08-1.6a.731.731,0,1,0-1.463,0Z" fill="#211715"/>
        <path id="パス_1107" data-name="パス 1107" d="M19.083,54.94c-.748.518-2.282,1.674-2.857,2.067C18.2,59.9,21.02,63.77,23.457,67.328L22.38,64.205C21.219,60.945,20.091,57.775,19.083,54.94Z" fill="#fff"/>
        <path id="パス_1108" data-name="パス 1108" d="M24.088,66.88c-2.377-3.465-4.863-6.853-7.231-10.321l-.262,1c1-.685,1.942-1.438,2.939-2.123.771-.529.04-1.8-.738-1.263-1,.684-1.943,1.438-2.939,2.123a.742.742,0,0,0-.262,1c2.37,3.469,4.856,6.856,7.231,10.321C23.354,68.389,24.622,67.659,24.088,66.88Z" fill="#211715"/>
        <path id="パス_1109" data-name="パス 1109" d="M29.062,82.981c-3-8.456-7.61-21.36-10.684-30.028,6.011-2.131,17.669-6.258,21.679-7.678h0c3.9,10.952,7.306,20.765,10.566,29.963-4.333,1.536-17.276,6.224-21.563,7.744Z" fill="#79c6e0"/>
        <path id="パス_1110" data-name="パス 1110" d="M29.767,82.705q-4.218-11.9-8.465-23.784Q20.19,55.8,19.083,52.677l-.512.9q9.014-3.2,18.029-6.386L40.25,45.9l-.563-.073h0l-.336-.439c2.825,7.924,5.6,15.865,8.392,23.8q1.085,3.083,2.176,6.163l.512-.9c-5.887,2.088-11.755,4.227-17.633,6.338q-1.964.705-3.93,1.406l.563.073c-.844-.409-1.586.852-.738,1.263.527.256,1.3-.188,1.819-.373l1.83-.656,4.618-1.661,9.81-3.532q2.025-.727,4.05-1.449a.741.741,0,0,0,.512-.9c-2.86-8.067-5.674-16.151-8.528-24.22q-.563-1.593-1.129-3.184L41.1,45.941c-.168-.473-.282-1.3-.849-1.455-.445-.122-1.129.263-1.549.411l-1.716.608L28.1,48.653q-4.959,1.755-9.917,3.514a.741.741,0,0,0-.512.9q4.238,11.952,8.5,23.894,1.091,3.066,2.179,6.134C28.669,83.975,30.083,83.6,29.767,82.705Z" fill="#211715"/>
        <path id="パス_1111" data-name="パス 1111" d="M45.823,73.239c-2.309-6.511-5.861-16.447-8.226-23.123Z" fill="#fff"/>
        <path id="パス_1112" data-name="パス 1112" d="M46.192,72.607l.336.439Q43.285,63.9,40.02,54.761q-.861-2.418-1.718-4.838c-.313-.881-1.726-.5-1.41.389q3.34,9.42,6.7,18.832.43,1.206.858,2.413.212.6.423,1.193c.124.349.219.948.58,1.123.844.409,1.586-.852.738-1.263Z" fill="#211715"/>
        <path id="パス_1113" data-name="パス 1113" d="M47.9,66.811c-1.661.377-3.369.589-5.05.846q-3.343.512-6.691.993l-2.36.343a.728.728,0,0,0-.537.7c.13,1.423.36,2.841.558,4.256.175,1.247.274,2.549.569,3.775a.736.736,0,0,0,.705.537c2.539-.193,5.076-.537,7.6-.885a43.186,43.186,0,0,0,9.119-1.968c1.527-.564,3.111-1.261,3.75-2.868.716-1.8.418-3.94.107-5.791-.475-2.825-1.122-5.631-1.748-8.423-.3-1.326-.592-2.654-.93-3.971a6.575,6.575,0,0,0-2.825-4.31.732.732,0,0,0-.738,1.263,3.624,3.624,0,0,1,1.439,1.522,7.972,7.972,0,0,1,.7,1.86c.276,1.068.519,2.145.763,3.221.622,2.742,1.228,5.488,1.752,8.249a14.9,14.9,0,0,1,.366,4.894,2.915,2.915,0,0,1-.787,1.78,6.078,6.078,0,0,1-1.814,1,37.851,37.851,0,0,1-8.685,2.011c-2.674.385-5.371.748-8.067.953l.7.537c-.287-1.194-.384-2.461-.555-3.676-.188-1.341-.4-2.615-.52-3.966l-.537.705c3.936-.577,7.877-1.128,11.8-1.769.768-.125,1.54-.241,2.3-.413.918-.208.529-1.619-.389-1.41Z" fill="#211715"/>
        <path id="パス_1114" data-name="パス 1114" d="M19.6,67.476c4.741,1.679,9.564,3.113,14.351,4.653l-.512-.9c-.571,2.706-1.361,5.361-2.007,8.05l.9-.512a104.7,104.7,0,0,1-10.606-2.63,31.953,31.953,0,0,1-7.82-3.151,5.162,5.162,0,0,1-2.227-3.078,7.72,7.72,0,0,1,.467-4.848c.944-2.465,1.857-4.941,2.8-7.406q.37-.966.748-1.929.156-.394.316-.786c.128-.312.133-.329.251-.6a9.585,9.585,0,0,1,1.094-1.888,7.836,7.836,0,0,1,1.385-1.426c.728-.6-.312-1.627-1.034-1.034a9.309,9.309,0,0,0-2.457,3.067c-.506,1.03-.907,2.121-1.322,3.188-1.017,2.621-1.989,5.26-2.988,7.888a10.524,10.524,0,0,0-.9,4.81,7.038,7.038,0,0,0,1.946,4.382,11.965,11.965,0,0,0,3.677,2.194c1.237.526,2.506.963,3.778,1.4a101.757,101.757,0,0,0,12.509,3.257.744.744,0,0,0,.9-.512c.646-2.689,1.435-5.344,2.007-8.05a.75.75,0,0,0-.512-.9c-4.787-1.54-9.61-2.974-14.351-4.653-.889-.315-1.271,1.1-.389,1.41Z" fill="#211715"/>
        <path id="パス_1115" data-name="パス 1115" d="M45.81,22.6c-.039-.23-.08-.442-.119-.633a11.966,11.966,0,0,0-12.028-9.208,11.968,11.968,0,0,0-12.028,9.208,15.085,15.085,0,0,0,.009,5.021l.536,2.1a1.545,1.545,0,0,1,1.111.376c2.215-1.536,5.971-4.2,7.916-5.877-.16.993-.728,2.681-.012,2.508a13.565,13.565,0,0,0,7.588-4.267A20.974,20.974,0,0,0,40.2,25.608c.627,1.074,2.446,3.492,3.974,3.853a1.556,1.556,0,0,1,1.243-.366,1.531,1.531,0,0,1,.194.042C46.386,27.337,46.123,24.424,45.81,22.6Z" fill="#957f6e"/>
        <path id="パス_1116" data-name="パス 1116" d="M22.343,26.835a12.776,12.776,0,0,1-.11-3.955,9.46,9.46,0,0,1,1.294-3.805,11.561,11.561,0,0,1,6.456-5.121,13.982,13.982,0,0,1,4.209-.483,10.6,10.6,0,0,1,4.129.835,11.554,11.554,0,0,1,5.926,5.615,12.747,12.747,0,0,1,1.042,4.227,10.041,10.041,0,0,1-.38,4.78.736.736,0,0,0,.512.9.75.75,0,0,0,.9-.512,10.45,10.45,0,0,0,.475-4.708,16.332,16.332,0,0,0-.815-4.311A12.815,12.815,0,0,0,39.829,13.4a12.576,12.576,0,0,0-4.522-1.344,21.071,21.071,0,0,0-2.369-.052,11.968,11.968,0,0,0-2.4.284,13.059,13.059,0,0,0-7.678,5.132,11.114,11.114,0,0,0-1.987,4.667,14.1,14.1,0,0,0,.059,5.132c.2.918,1.614.53,1.41-.389Z" fill="#211715"/>
        <path id="パス_1117" data-name="パス 1117" d="M38.122,22.176a15.088,15.088,0,0,0,2.044,4.712c.936,1.292,2.188,2.861,3.809,3.278a.732.732,0,0,0,.389-1.41,3.913,3.913,0,0,1-1.6-1.058A12.078,12.078,0,0,1,41.324,26a13.93,13.93,0,0,1-1.792-4.216A.732.732,0,0,0,38.122,22.176Z" fill="#211715"/>
        <path id="パス_1118" data-name="パス 1118" d="M38.3,21.27a11.179,11.179,0,0,1-4.665,3.3q-.691.274-1.4.489-.393.119-.792.219a1.362,1.362,0,0,0-.363.089q-.252.037.2.14a.276.276,0,0,1,.3.194c-.006,0-.022.085,0-.058.011-.073,0-.149.012-.223.016-.146.048-.292.078-.439.081-.4.18-.8.249-1.207a.738.738,0,0,0-1.222-.712,95.714,95.714,0,0,1-7.767,5.765c-.768.533-.037,1.8.738,1.263A99.429,99.429,0,0,0,31.724,24.1L30.5,23.39c-.146.848-.6,1.9-.321,2.759a1,1,0,0,0,1.207.649,13.5,13.5,0,0,0,1.8-.509A13.117,13.117,0,0,0,39.329,22.3a.754.754,0,0,0,0-1.034.736.736,0,0,0-1.034,0Z" fill="#211715"/>
        <path id="パス_1119" data-name="パス 1119" d="M21.115,34.559a6.353,6.353,0,0,0-.722,3.62c.054.695.2,1.38.244,2.075a1.578,1.578,0,0,1-.248,1.183c-.17.172-.415.2-.572.393a.97.97,0,0,0-.146.871A2.186,2.186,0,0,0,21,43.863a6.731,6.731,0,0,0,3.819.433,5.068,5.068,0,0,0,3.348-1.938c.542-.772-.726-1.5-1.263-.738a3.86,3.86,0,0,1-2.757,1.3,5.417,5.417,0,0,1-1.824-.136,4.487,4.487,0,0,1-.7-.235q-.167-.076-.326-.168-.11-.063-.216-.134-.144-.165.008.09l-.1.369.031-.064-.439.336c1.445-.556,1.623-1.991,1.451-3.361-.185-1.469-.422-2.965.341-4.319a.732.732,0,0,0-1.262-.738Z" fill="#211715"/>
        <path id="パス_1120" data-name="パス 1120" d="M44.685,29.978a.8.8,0,0,1,1.127.149,1.709,1.709,0,0,1,.164.87,5.2,5.2,0,0,1-.073,1.07c-.232,1.272-.873,2.8-2.288,3.053a.738.738,0,0,0-.512.9.747.747,0,0,0,.9.512c2.2-.394,3.25-2.875,3.415-4.869a3.082,3.082,0,0,0-.9-2.868,2.3,2.3,0,0,0-2.871.15.737.737,0,0,0,0,1.034.747.747,0,0,0,1.034,0Z" fill="#211715"/>
        <path id="パス_1121" data-name="パス 1121" d="M43.063,34.668a5.833,5.833,0,0,1-.34,1.572c-.023.07-.179.48-.08.256-.049.11-.1.219-.155.329a13.314,13.314,0,0,1-1.15,1.848,7.671,7.671,0,0,1-4.053,3.213c-.916.215-.528,1.626.389,1.41,2.061-.484,3.66-2.167,4.87-3.809a8.855,8.855,0,0,0,1.982-4.82C44.562,33.727,43.1,33.729,43.063,34.668Z" fill="#211715"/>
        <path id="パス_1122" data-name="パス 1122" d="M23.808,28.944a2.3,2.3,0,0,0-2.871-.15,3.081,3.081,0,0,0-.9,2.868c.166,1.993,1.216,4.475,3.415,4.869a.752.752,0,0,0,.9-.512.737.737,0,0,0-.512-.9c-1.414-.254-2.056-1.782-2.288-3.053a5.164,5.164,0,0,1-.073-1.01,2,2,0,0,1,.139-.889.792.792,0,0,1,1.152-.19.751.751,0,0,0,1.034,0,.737.737,0,0,0,0-1.034Z" fill="#211715"/>
        <path id="パス_1123" data-name="パス 1123" d="M23.007,34.588A12.135,12.135,0,0,0,25.594,40.4a8.675,8.675,0,0,0,5.66,3.214.736.736,0,0,0,.731-.731.748.748,0,0,0-.731-.731,7.356,7.356,0,0,1-4.721-2.9A10.792,10.792,0,0,1,24.417,34.2a.738.738,0,0,0-.9-.512.748.748,0,0,0-.512.9Z" fill="#211715"/>
        <path id="パス_1124" data-name="パス 1124" d="M31.784,38.041a4.393,4.393,0,0,0,2.115.494,3.487,3.487,0,0,0,2.176-.658.731.731,0,0,0,0-1.034.754.754,0,0,0-1.034,0c.253-.2-.007-.006-.087.037-.062.033-.227.084,0,.005-.058.02-.113.044-.171.063-.155.05-.329.056-.48.11.078-.028.12-.014.01,0-.047,0-.094.009-.141.012-.113.007-.227.01-.341.01s-.2,0-.305-.011l-.14-.012-.08-.009.068.009a1.741,1.741,0,0,1-.448-.1c-.063-.019-.124-.041-.186-.063-.164-.056.155.073.006,0-.077-.037-.153-.073-.228-.114a.731.731,0,1,0-.738,1.263Z" fill="#211715"/>
        <path id="パス_1125" data-name="パス 1125" d="M33.432,33.182a9.567,9.567,0,0,1,.222,1.015L33.628,34a.6.6,0,0,1,0,.14l.026-.194a.34.34,0,0,1-.015.063l.073-.175a.271.271,0,0,1-.022.041l.114-.148a.211.211,0,0,1-.033.033l.148-.114a.693.693,0,0,1-.08.042l.174-.073a.607.607,0,0,1-.135.04l.194-.026a.549.549,0,0,1-.127,0l.194.026c-.048-.007-.1-.018-.143-.025a.554.554,0,0,0-.293-.013.543.543,0,0,0-.272.087.731.731,0,0,0-.263,1l.115.148a.731.731,0,0,0,.323.188c.128.017.252.049.382.055a1.259,1.259,0,0,0,.587-.143.893.893,0,0,0,.481-.583,1.373,1.373,0,0,0,0-.6c-.055-.327-.131-.651-.215-.972a.731.731,0,0,0-.9-.512.739.739,0,0,0-.439.336.768.768,0,0,0-.073.563Z" fill="#211715"/>
        <path id="パス_1126" data-name="パス 1126" d="M28.267,30.251c-.17.551-.059,1.819.985,1.926,1.38-.008,1.453-1.541.987-2.261A1.091,1.091,0,0,0,28.267,30.251Z" fill="#211715"/>
        <path id="パス_1127" data-name="パス 1127" d="M39.314,30.252c.169.551.059,1.818-.985,1.926-1.38-.008-1.453-1.541-.987-2.261A1.091,1.091,0,0,1,39.314,30.252Z" fill="#211715"/>
      </g>
    </g>
  </g>
</svg>
