<svg xmlns="http://www.w3.org/2000/svg" xmlns:xlink="http://www.w3.org/1999/xlink" width="65" height="65" viewBox="0 0 65 65">
  <defs>
    <clipPath id="clip-path">
      <path id="パス_1472" data-name="パス 1472" d="M2.287,0h65V65h-65Z" transform="translate(148.713 556)" fill="#fecece"/>
    </clipPath>
    <clipPath id="clip-path-2">
      <rect id="長方形_150" data-name="長方形 150" width="65" height="210.041" transform="translate(0 17)" fill="#fff"/>
    </clipPath>
  </defs>
  <g id="mem02" transform="translate(-151 -556)" clip-path="url(#clip-path)">
    <g id="mem02-2" data-name="mem02" transform="translate(151 543)">
      <path id="パス_1436" data-name="パス 1436" d="M2.287,0h65V101.183h-65Z" transform="translate(-2.287)" fill="#ffcdc1"/>
      <g id="グループ_58" data-name="グループ 58" clip-path="url(#clip-path-2)">
        <path id="パス_1437" data-name="パス 1437" d="M16.706,64.791a5.3,5.3,0,0,1-3.564-4.858,31.529,31.529,0,0,1,.844-6.327,33.431,33.431,0,0,0,.806-5.175c.2-2.185.313-4.82.313-7.886-.28-8.413,1.934-14.512,5.422-17.849a18.923,18.923,0,0,1,12.161-4.754,17.194,17.194,0,0,1,6.82,1.052L42.8,20.463a10.911,10.911,0,0,1,2.739,2.308c2.659,2.569,4.507,7.19,4.806,11.323.085,1.194.142,3.986.09,6.45a44.568,44.568,0,0,0,2.081,14.015,14.935,14.935,0,0,1,.82,4.782,5.283,5.283,0,0,1-5.142,5.147Z" fill="#957f6e"/>
        <path id="パス_1438" data-name="パス 1438" d="M39.3,60.153c-.021-.142-.042-.289-.068-.438a18.525,18.525,0,0,1-.287-2.922c3.4-1.463,6.129-6.034,6.6-7.328.072-.219.219-.63.349-1.119l.273-.042a3.427,3.427,0,0,0,1.592-.718,5.161,5.161,0,0,0,1.335-1.754,8.122,8.122,0,0,0,.829-4.305,2.717,2.717,0,0,0-.284-1.09,1.916,1.916,0,0,0-1.378-.916A2.029,2.029,0,0,0,46.636,40a12.206,12.206,0,0,1-4.322-4.051A15.546,15.546,0,0,1,39.4,29.186c-1.742,2.133-5.621,4.521-9.075,5.64a15.929,15.929,0,0,1-2.913.5,32.083,32.083,0,0,1-3.671,2.5c-.73.432-3.476,1.7-4.455,2.094a2.008,2.008,0,0,0-1.517-.4,1.917,1.917,0,0,0-1.379.916,2.708,2.708,0,0,0-.284,1.09,8.121,8.121,0,0,0,.828,4.305,5.155,5.155,0,0,0,1.335,1.754,3.421,3.421,0,0,0,1.593.719l.518.078a13.811,13.811,0,0,0,2.633,5.14,11.688,11.688,0,0,0,4.213,3.313,18.966,18.966,0,0,1-.289,2.881c-.038.229-.068.441-.1.659a20.659,20.659,0,0,0,5.093,3.337c.123.056.26.124.3.253h1.487c.04-.129.177-.2.3-.253a20.559,20.559,0,0,0,5.935-4.137" fill="#fff"/>
        <path id="パス_1439" data-name="パス 1439" d="M35.493,113.19a6.77,6.77,0,0,0,2.654,3.227c2.5,1.118,10.556.837,13.235.289-.237-2.162-.86-6.6-1.424-10.888l-.021-.172c2.512-1.458,5.2-3.108,7.356-4.608,2.071-1.44,4.877-3.181,6.2-5.86s.06-4.977-1.154-8.451c-1.28-3.66-3.893-11.293-5.358-15.028a8.01,8.01,0,0,0-2.643-3.934,13.661,13.661,0,0,0-2.88-1.721c-2.228-1.106-6.967-3.243-9.214-4.436l-.376-.2a95.083,95.083,0,0,1-2.883,9.574c-2.5,7.014-4.319,11.791-6.326,16.61-.69-1.936-1.257-3.894-1.866-5.849-.932-3-5.572-18.359-6.151-20.255l-.147-.482-1.276.6c-2.668,1.264-7.062,3.46-9.286,4.564-.408.2-2.007,1.156-2.385,1.349a5.807,5.807,0,0,0-.906.507c-1.061.786-1.686,1.5-2.643,3.936C6.531,75.7,3.917,83.336,2.64,87,1.422,90.472.162,92.768,1.483,95.447s4.128,4.42,6.2,5.86c2.1,1.463,4.711,3.068,7.168,4.5l-.01.078c-.563,4.279-1.181,8.687-1.417,10.835,1.9.408,10.669.936,13.739-.158a7.462,7.462,0,0,0,2.948-1.866Z" fill="#bdbdbd"/>
        <path id="パス_1440" data-name="パス 1440" d="M37.7,112.026c.193-.108.385-.218.575-.328a36.479,36.479,0,0,0,3.33-2.295c.267-.193.529-.392.782-.6-1.579-2.477-3.024-5.028-4.427-7.6-1.065.047-2.089-.043-3.282-.062a8.118,8.118,0,0,0-3.218,1.176,2.7,2.7,0,0,0-1.412,2l.226,1.634c-.914.474-1.727.915-2.144,1.165a13.5,13.5,0,0,0-2.1,1.542,2.371,2.371,0,0,0-.466,2.594,1.661,1.661,0,0,0,1.584.8,1.654,1.654,0,0,0,.553,1.558,1.815,1.815,0,0,0,2.034.133c-.263.354.34,1.413,1.242,1.279a8.5,8.5,0,0,0,1.889-.542C33.673,114.137,35.719,113.145,37.7,112.026Z" fill="#fff"/>
        <path id="パス_1441" data-name="パス 1441" d="M25.04,60.611c-.166.212-.323.431-.47.653l.069.224c.579,1.9,5.219,17.255,6.153,20.253.591,1.9,1.143,3.795,1.8,5.673l.382-.594c1.883-4.564,3.639-9.2,6.006-15.84,1.322-3.707,2.342-7.311,2.77-9.086a9.746,9.746,0,0,0-1.808-2.318,20.561,20.561,0,0,1-5.935,4.137c-.123.056-.26.124-.3.253a.479.479,0,0,0,.069.336H32.156a.479.479,0,0,0,.069-.336c-.04-.129-.177-.2-.3-.253a20.562,20.562,0,0,1-5.935-4.137A8.619,8.619,0,0,0,25.04,60.611Z" fill="#fff"/>
        <path id="パス_1442" data-name="パス 1442" d="M27.774,60.461a29.229,29.229,0,0,0,.4-3.626.948.948,0,0,0-1.9,0,18.751,18.751,0,0,1-.159,2.034l.034-.252c-.06.448-.142.893-.206,1.341a1.042,1.042,0,0,0,.095.73.948.948,0,0,0,1.3.34.911.911,0,0,0,.435-.569Z" fill="#211715"/>
        <path id="パス_1443" data-name="パス 1443" d="M38,56.817a27.644,27.644,0,0,0,.389,3.588.948.948,0,0,0,1.732.226,1.1,1.1,0,0,0,.095-.73c-.063-.424-.142-.846-.2-1.271l.034.252a18.36,18.36,0,0,1-.158-2.065.948.948,0,0,0-1.9,0Z" fill="#211715"/>
        <path id="パス_1444" data-name="パス 1444" d="M42.419,61.151a11.024,11.024,0,0,0-1.8-2.246.964.964,0,0,0-1.34,0,19.281,19.281,0,0,1-3.18,2.578c-.561.363-1.138.7-1.731,1.007S32.995,63,32.8,63.713a1.664,1.664,0,0,0,.427,1.443c.388.516.8,1.015,1.206,1.514.781.953,1.574,1.9,2.351,2.851a.957.957,0,0,0,1.341,0,25.915,25.915,0,0,0,3.619-4.872c.638-1.043-1-2-1.637-.957a23.753,23.753,0,0,1-3.322,4.488h1.341c-.649-.8-1.31-1.585-1.964-2.378-.368-.447-.736-.894-1.1-1.347-.1-.126-.2-.246-.291-.375a2.2,2.2,0,0,0-.128-.182c-.088-.095.031-.126.016.067l-.129.479q-.255.209-.041.087l.138-.063c.139-.065.278-.131.416-.2q.422-.209.835-.439.849-.474,1.651-1.026a21.637,21.637,0,0,0,3.087-2.556h-1.34a9.034,9.034,0,0,1,1.5,1.862c.641,1.035,2.282.084,1.637-.957Z" fill="#211715"/>
        <path id="パス_1445" data-name="パス 1445" d="M25.4,61.729a8.685,8.685,0,0,1,1.262-1.483H25.32A21.7,21.7,0,0,0,28.407,62.8q.8.55,1.651,1.024.379.21.765.4.207.1.417.2c.069.032.138.064.207.095q.215.122-.04-.087l-.129-.479c-.014-.174.11-.172.016-.067a1.665,1.665,0,0,0-.1.147c-.1.142-.206.272-.317.41-.361.453-.729.9-1.1,1.347-.654.793-1.315,1.581-1.964,2.378h1.341a19,19,0,0,1-2.331-2.916.97.97,0,0,0-1.3-.34.957.957,0,0,0-.34,1.3,21.61,21.61,0,0,0,2.627,3.3.955.955,0,0,0,1.341,0c.762-.936,1.538-1.859,2.3-2.792.414-.5.827-1.011,1.222-1.53a1.7,1.7,0,0,0,.459-1.485c-.189-.692-.932-.9-1.5-1.188a19.745,19.745,0,0,1-1.732-1A19.286,19.286,0,0,1,26.661,58.9a.966.966,0,0,0-1.341,0,10.931,10.931,0,0,0-1.558,1.867.948.948,0,0,0,1.637.957Z" fill="#211715"/>
        <path id="パス_1446" data-name="パス 1446" d="M41.766,62.424c1.922,1.016,3.906,1.919,5.874,2.844.932.438,1.866.875,2.793,1.327a15.784,15.784,0,0,1,3.236,1.841c.934.771,2.283-.563,1.34-1.341a28.889,28.889,0,0,0-6.256-3.389c-2.019-.948-4.056-1.873-6.028-2.916-1.078-.569-2.038,1.066-.957,1.637Z" fill="#211715"/>
        <path id="パス_1447" data-name="パス 1447" d="M31.542,92.748a2.5,2.5,0,0,0-.342-1.284,2.262,2.262,0,0,0-1.249-.959,2.666,2.666,0,0,0-1.637.011,2.281,2.281,0,0,0-1.242.992,2.59,2.59,0,0,0-.01,2.562A2.522,2.522,0,0,0,29.9,95.1a2.394,2.394,0,0,0,1.641-2.355.948.948,0,0,0-1.9,0,2.029,2.029,0,0,1-.018.262l.034-.252a1.873,1.873,0,0,1-.12.442l.095-.226a1.553,1.553,0,0,1-.18.311l.148-.192a1.376,1.376,0,0,1-.219.22l.19-.148a1.362,1.362,0,0,1-.257.152l.226-.095a1.543,1.543,0,0,1-.358.1l.252-.034a2.1,2.1,0,0,1-.521,0l.252.034a1.765,1.765,0,0,1-.415-.108l.227.095a1.477,1.477,0,0,1-.3-.169l.189.148a1.4,1.4,0,0,1-.244-.242l.148.192a1.471,1.471,0,0,1-.177-.3l.095.226a1.539,1.539,0,0,1-.1-.37l.034.252a1.881,1.881,0,0,1,.006-.456l-.034.252a1.812,1.812,0,0,1,.123-.453l-.095.226a1.471,1.471,0,0,1,.163-.281l-.148.192a1.35,1.35,0,0,1,.231-.231l-.192.148a1.448,1.448,0,0,1,.269-.156l-.226.095a1.736,1.736,0,0,1,.411-.112l-.252.034a2.03,2.03,0,0,1,.492,0l-.252-.034a1.752,1.752,0,0,1,.419.107l-.227-.095a1.4,1.4,0,0,1,.3.171l-.192-.148a1.3,1.3,0,0,1,.2.2l-.148-.192a1.356,1.356,0,0,1,.171.291l-.095-.227a1.629,1.629,0,0,1,.1.383l-.034-.252a2.019,2.019,0,0,1,.017.244.948.948,0,1,0,1.9,0Z" fill="#211715"/>
        <path id="パス_1448" data-name="パス 1448" d="M40.977,61.046a77.993,77.993,0,0,1-2.905,9.68c-1.283,3.608-2.6,7.2-3.981,10.777q-.986,2.541-2.025,5.063a.953.953,0,0,0,.664,1.166.972.972,0,0,0,1.166-.663q1.892-4.59,3.612-9.248c1.441-3.876,2.884-7.759,4.073-11.721.451-1.5.9-3.016,1.227-4.55.255-1.19-1.572-1.7-1.828-.5Z" fill="#211715"/>
        <path id="パス_1449" data-name="パス 1449" d="M22.738,60.793c-2.241,1.063-4.462,2.167-6.683,3.27-.909.452-1.832.883-2.729,1.36-.765.406-1.493.882-2.26,1.283-1.082.565-.124,2.2.957,1.637.767-.4,1.494-.878,2.26-1.284.9-.474,1.819-.908,2.729-1.359,2.221-1.1,4.443-2.208,6.683-3.27,1.1-.521.142-2.158-.957-1.637Z" fill="#211715"/>
        <path id="パス_1450" data-name="パス 1450" d="M23.725,61.741c1.188,3.889,2.358,7.784,3.539,11.675q1.011,3.334,2.027,6.667c.862,2.82,1.672,5.666,2.7,8.432a18.919,18.919,0,0,1,1.3,6.553,48.163,48.163,0,0,1-.5,6.048.953.953,0,0,0,.948.948.971.971,0,0,0,.948-.948c.456-3.786.849-7.536-.237-11.261-.616-2.12-1.455-4.18-2.1-6.293q-.5-1.644-1.011-3.287-2.111-6.888-4.187-13.786-.795-2.626-1.592-5.251c-.355-1.163-2.186-.667-1.828.5Z" fill="#211715"/>
        <path id="パス_1451" data-name="パス 1451" d="M23.714,60.4a17.717,17.717,0,0,0-3.477,2.385,16.962,16.962,0,0,0-2.76,2.841.96.96,0,0,0,.148,1.149q.874,1.013,1.734,2.038.346.413.689.829.149.18.294.363c.142.176-.065-.095.077.1l.34-1.3a7.948,7.948,0,0,0-1.512,1.155c-.685.743-.41,1.586.067,2.364.467.763.934,1.524,1.392,2.293,1.629,2.73,3.248,5.466,4.9,8.18.771,1.263,1.541,2.529,2.37,3.755.68,1.005,2.322.058,1.637-.957-2.949-4.364-5.482-9.01-8.218-13.507-.084-.137-.167-.275-.253-.411-.095-.151-.342-.75-.446-.774.185.042-.369.6.037.25.111-.095.219-.185.337-.272.208-.155.427-.3.642-.438a.957.957,0,0,0,.34-1.3c-.944-1.3-2.044-2.5-3.09-3.715l.148,1.149a15.14,15.14,0,0,1,2.465-2.457,15.7,15.7,0,0,1,3.092-2.089c1.094-.54.135-2.176-.957-1.637Z" fill="#211715"/>
        <path id="パス_1452" data-name="パス 1452" d="M41.193,62.038a15.676,15.676,0,0,1,3.092,2.089,15.109,15.109,0,0,1,2.465,2.457l.148-1.149c-1.047,1.215-2.147,2.417-3.09,3.715a.961.961,0,0,0,.34,1.3c.168.111,1.13.811,1.107.829-.121.095.043-.458-.122-.293a3.838,3.838,0,0,0-.347.588c-.066.105-.132.21-.2.316-.51.829-1,1.669-1.5,2.505-1.552,2.607-3.1,5.214-4.683,7.8-.7,1.146-1.4,2.295-2.157,3.409-.685,1.013.957,1.963,1.637.957,3.041-4.5,5.59-9.317,8.471-13.918.447-.714,1.016-1.593.471-2.412A5.8,5.8,0,0,0,45.1,68.81l.34,1.3c.142-.2-.064.075.077-.1l.294-.363q.342-.417.689-.829.86-1.025,1.734-2.038a.967.967,0,0,0,.148-1.149,16.94,16.94,0,0,0-2.76-2.841A17.7,17.7,0,0,0,42.151,60.4c-1.09-.538-2.052,1.1-.957,1.637Z" fill="#211715"/>
        <path id="パス_1453" data-name="パス 1453" d="M51.913,67.229c-.513,6.263-1.608,12.5-2.549,18.7q-.5,3.318-1,6.635a.979.979,0,0,0,.664,1.166.955.955,0,0,0,1.166-.663c1.084-7.225,2.261-14.442,3.172-21.693.173-1.38.336-2.762.449-4.148.1-1.216-1.8-1.209-1.9,0Z" fill="#211715"/>
        <path id="パス_1454" data-name="パス 1454" d="M11.043,67.509c.526,6.431,1.65,12.832,2.617,19.208q.516,3.4,1.027,6.794a.954.954,0,0,0,1.166.663.972.972,0,0,0,.663-1.166c-1.067-7.125-2.238-14.241-3.134-21.39-.171-1.366-.332-2.735-.443-4.108-.1-1.208-2-1.218-1.9,0Z" fill="#211715"/>
        <path id="パス_1455" data-name="パス 1455" d="M26.861,102.2c.375.059.751.107,1.128.156l.255.033c.047.005.292.038.13.016s.007,0,.044.007l.112.016.251.038a8.507,8.507,0,0,1,.881.184c.129.036.254.079.379.124s-.105-.047-.106-.045.066.032.076.036c.06.03.117.063.174.1a.947.947,0,0,0,1.052-.063.949.949,0,0,0,.344-1,.945.945,0,0,0-.439-.578,4.9,4.9,0,0,0-1.8-.579c-.392-.065-.787-.115-1.181-.165l-.479-.062c-.121-.016.228.031.059.007l-.108-.016-.265-.04a1.031,1.031,0,0,0-.731.094.948.948,0,0,0,.226,1.733Z" fill="#211715"/>
        <path id="パス_1456" data-name="パス 1456" d="M31,104.319c.12-1.028,1.67-1.631,2.55-1.951a7.368,7.368,0,0,1,.887-.254c.109-.024-.095,0,.075-.012q.085-.006.171-.006c.227,0,.456.01.683.018.867.029,1.734.077,2.6.044a.948.948,0,1,0,0-1.9c-.993.038-1.984-.031-2.977-.056a5.757,5.757,0,0,0-2.376.5,8.951,8.951,0,0,0-2.083,1.113,3.57,3.57,0,0,0-1.427,2.5.955.955,0,0,0,.948.948.971.971,0,0,0,.948-.948Z" fill="#211715"/>
        <path id="パス_1457" data-name="パス 1457" d="M10.507,91.351C12.5,92.4,14.374,93.7,16.274,94.9c2.717,1.706,5.427,3.427,8.146,5.133.831.521,1.656,1.056,2.505,1.547l-.34-1.3c-1.659,3.053-3.365,6.081-5.256,9l1.3-.34c-2.868-1.335-5.625-2.953-8.344-4.563-1.744-1.032-3.47-2.1-5.155-3.223A41.447,41.447,0,0,1,4.7,97.94c-1.358-1.2-2.775-2.789-2.832-4.7-.061-2.023.985-4.023,1.643-5.887C4.684,84.038,5.818,80.7,7,77.389c.616-1.729,1.235-3.46,1.909-5.169a9.406,9.406,0,0,1,1.33-2.548,5.689,5.689,0,0,1,1.783-1.327.949.949,0,0,0-.957-1.637,8.248,8.248,0,0,0-1.9,1.336,7.441,7.441,0,0,0-1.357,1.99,51.7,51.7,0,0,0-2.015,5.132C4.5,78.724,3.27,82.306,2.023,85.884A36.3,36.3,0,0,0,.1,91.767a7.23,7.23,0,0,0,1.668,5.849,20.587,20.587,0,0,0,4.664,3.976c1.643,1.129,3.3,2.227,5,3.27a102.725,102.725,0,0,0,10.244,5.708.978.978,0,0,0,1.3-.34c1.892-2.916,3.6-5.943,5.256-9a.965.965,0,0,0-.34-1.294C25.906,98.8,24,97.527,22.067,96.309,19.36,94.6,16.656,92.887,13.935,91.2c-.814-.5-1.622-1.038-2.471-1.485-1.078-.569-2.038,1.067-.957,1.637Z" fill="#211715"/>
        <path id="パス_1458" data-name="パス 1458" d="M53.512,89.445c-1.988,1.047-3.867,2.351-5.767,3.545-2.717,1.706-5.428,3.427-8.146,5.132-.831.521-1.656,1.057-2.506,1.547a.966.966,0,0,0-.34,1.3c1.659,3.053,3.365,6.081,5.256,9a.976.976,0,0,0,1.3.34,97.728,97.728,0,0,0,8.661-4.751c1.757-1.047,3.5-2.125,5.191-3.273a40.807,40.807,0,0,0,4.654-3.445,8.932,8.932,0,0,0,3.143-5.295c.256-2.085-.62-4.1-1.323-6.015C62.36,84.07,61.209,80.569,59.976,77.1c-.646-1.817-1.3-3.635-1.995-5.432a13.388,13.388,0,0,0-1.364-2.839,10.73,10.73,0,0,0-1.611-1.738c-.9-.824-2.241.513-1.34,1.341A10.4,10.4,0,0,1,54.91,69.69a9.708,9.708,0,0,1,1.155,2.26c.581,1.473,1.117,2.963,1.652,4.455,1.2,3.329,2.347,6.674,3.511,10.015a30.509,30.509,0,0,1,1.835,5.661,5.809,5.809,0,0,1-1.954,4.8,28.016,28.016,0,0,1-4.36,3.39c-1.586,1.1-3.217,2.127-4.867,3.125a100.715,100.715,0,0,1-9.531,5.273l1.3.34c-1.891-2.915-3.6-5.943-5.256-9l-.34,1.3c1.976-1.142,3.886-2.414,5.815-3.632,2.708-1.706,5.411-3.422,8.133-5.108.814-.5,1.622-1.038,2.47-1.485,1.08-.569.123-2.206-.956-1.637Z" fill="#211715"/>
        <path id="パス_1459" data-name="パス 1459" d="M45.2,46.792a7.6,7.6,0,0,1-.444,2.055c-.029.091-.233.624-.106.336q-.095.217-.2.429a17.4,17.4,0,0,1-1.5,2.412c-1.3,1.783-3.067,3.674-5.293,4.2-1.187.278-.685,2.107.5,1.828,2.688-.631,4.772-2.827,6.351-4.968A11.554,11.554,0,0,0,47.1,46.792c.047-1.22-1.848-1.218-1.9,0Z" fill="#211715"/>
        <path id="パス_1460" data-name="パス 1460" d="M20.062,39.327a3,3,0,0,0-3.739-.195c-1.163.866-1.28,2.395-1.167,3.737.216,2.6,1.585,5.834,4.452,6.348a.975.975,0,0,0,1.166-.663.957.957,0,0,0-.663-1.166c-1.848-.332-2.687-2.327-2.991-3.989a6.762,6.762,0,0,1-.095-1.32,2.606,2.606,0,0,1,.182-1.164,1.039,1.039,0,0,1,1.517-.249.975.975,0,0,0,1.341,0,.956.956,0,0,0,0-1.341Z" fill="#211715"/>
        <path id="パス_1461" data-name="パス 1461" d="M19.026,46.687A15.83,15.83,0,0,0,22.4,54.265a11.315,11.315,0,0,0,7.383,4.193.954.954,0,0,0,.948-.948.969.969,0,0,0-.948-.948,9.608,9.608,0,0,1-6.167-3.786,14.1,14.1,0,0,1-2.763-6.593.956.956,0,0,0-1.166-.663.969.969,0,0,0-.664,1.166Z" fill="#211715"/>
        <path id="パス_1462" data-name="パス 1462" d="M16.958,63.877A4.386,4.386,0,0,1,14.1,59.64a28.78,28.78,0,0,1,.853-5.988c1.126-4.583,1.117-9.494,1.078-14.182a26.955,26.955,0,0,1,2.34-12.143A14.1,14.1,0,0,1,21.1,23.452a15.865,15.865,0,0,1,4.36-2.883,18.075,18.075,0,0,1,13.789-.663.955.955,0,0,0,1.166-.663.969.969,0,0,0-.663-1.166,17.877,17.877,0,0,0-5.793-1.063,19.863,19.863,0,0,0-7.607,1.146,16.927,16.927,0,0,0-8.933,6.95,26.14,26.14,0,0,0-3.26,12.49c-.105,2.7.01,5.406-.128,8.111a42,42,0,0,1-.825,7.076,29.694,29.694,0,0,0-1.013,7.3,6.352,6.352,0,0,0,4.258,5.621.955.955,0,0,0,1.166-.663.969.969,0,0,0-.664-1.166Z" fill="#211715"/>
        <path id="パス_1463" data-name="パス 1463" d="M30.645,30.52c-2.661,4.062-7.251,6.653-11.5,8.436a.979.979,0,0,0-.663,1.166.954.954,0,0,0,1.166.664c4.859-2.038,9.674-4.792,12.632-9.307.671-1.024-.97-1.975-1.637-.957Z" fill="#211715"/>
        <path id="パス_1464" data-name="パス 1464" d="M27.2,36.458a20.8,20.8,0,0,0,7.1-2.3,18.835,18.835,0,0,0,5.72-4.244c.787-.927-.549-2.273-1.34-1.341a17.242,17.242,0,0,1-5.159,3.856,18.418,18.418,0,0,1-6.324,2.13.978.978,0,0,0-.948.948.954.954,0,0,0,.948.948Z" fill="#211715"/>
        <path id="パス_1465" data-name="パス 1465" d="M47.116,39.181a12.306,12.306,0,0,1-4.541-4.538,15.434,15.434,0,0,1-2.208-5.4c-.241-1.195-2.068-.689-1.828.5a17.034,17.034,0,0,0,2.5,6.009,14.068,14.068,0,0,0,5.116,5.057c1.085.553,2.046-1.083.957-1.637Z" fill="#211715"/>
        <path id="パス_1466" data-name="パス 1466" d="M42.323,21.282a12.715,12.715,0,0,1,3.4,3.081A15.552,15.552,0,0,1,48.2,28.808a19.206,19.206,0,0,1,1.189,5.1c.134,1.611.127,3.242.124,4.859a60.911,60.911,0,0,0,.772,10.759c.379,2.159,1.057,4.194,1.625,6.3.443,1.643.864,3.685.045,5.277A4.247,4.247,0,0,1,48.2,63.544a.948.948,0,0,0,0,1.9,5.932,5.932,0,0,0,4.517-2.1,6.46,6.46,0,0,0,1.554-4.64c-.128-2.739-1.212-5.258-1.805-7.906a46.178,46.178,0,0,1-1.074-10.458c.034-3.716.118-7.452-1.02-11.035a18.854,18.854,0,0,0-2.839-5.683,22.72,22.72,0,0,0-2.056-2.252,9.715,9.715,0,0,0-2.193-1.724c-1.068-.592-2.025,1.043-.957,1.637Z" fill="#211715"/>
        <path id="パス_1467" data-name="パス 1467" d="M47.308,40.668a1.047,1.047,0,0,1,1.481.2A2.238,2.238,0,0,1,49,42a6.8,6.8,0,0,1-.095,1.4c-.3,1.662-1.142,3.658-2.99,3.989a.956.956,0,0,0-.663,1.166.968.968,0,0,0,1.166.664c2.867-.514,4.236-3.749,4.452-6.348.111-1.345-.005-2.868-1.167-3.737a2.995,2.995,0,0,0-3.739.195.956.956,0,0,0,0,1.341.968.968,0,0,0,1.34,0Z" fill="#211715"/>
        <path id="パス_1468" data-name="パス 1468" d="M30.4,51.189a5.721,5.721,0,0,0,2.757.643,4.542,4.542,0,0,0,2.835-.858.948.948,0,0,0,0-1.341.977.977,0,0,0-1.34,0c.327-.255-.012-.006-.115.047-.08.042-.295.109,0,.007-.075.026-.148.057-.224.082-.2.064-.431.071-.626.142.1-.036.153-.019.011,0-.062.006-.123.011-.184.015-.148.01-.3.013-.445.012-.133,0-.266-.005-.4-.014-.061,0-.122-.009-.182-.015l-.1-.011.087.011c-.022.024-.262-.047-.3-.056-.095-.021-.19-.047-.284-.074s-.162-.054-.243-.081c-.213-.073.2.095.007,0-.1-.047-.2-.095-.3-.148a.948.948,0,0,0-.957,1.637Z" fill="#211715"/>
        <path id="パス_1469" data-name="パス 1469" d="M32.553,44.852a12.452,12.452,0,0,1,.29,1.327l-.034-.252a.789.789,0,0,1,.005.183l.034-.252a.444.444,0,0,1-.02.082l.095-.227a.29.29,0,0,1-.029.053l.148-.192a.28.28,0,0,1-.043.043l.19-.148a.8.8,0,0,1-.1.056l.227-.095a.766.766,0,0,1-.177.052l.252-.034a.7.7,0,0,1-.166,0l.252.034c-.063-.008-.124-.024-.187-.032a.725.725,0,0,0-.379-.017.7.7,0,0,0-.352.113.948.948,0,0,0-.34,1.3.908.908,0,0,0,.569.436c.166.022.328.064.5.072a1.639,1.639,0,0,0,.763-.186,1.16,1.16,0,0,0,.625-.758,1.786,1.786,0,0,0-.006-.786c-.072-.427-.171-.85-.28-1.269a.948.948,0,0,0-1.166-.663.963.963,0,0,0-.569.436,1,1,0,0,0-.095.73Z" fill="#211715"/>
        <path id="パス_1470" data-name="パス 1470" d="M25.805,41.029c-.221.719-.077,2.373,1.285,2.512,1.8-.011,1.9-2.01,1.29-2.951A1.426,1.426,0,0,0,25.805,41.029Z" fill="#211715"/>
        <path id="パス_1471" data-name="パス 1471" d="M40.223,41.029c.221.719.077,2.373-1.285,2.512-1.8-.011-1.9-2.01-1.291-2.951A1.426,1.426,0,0,1,40.223,41.029Z" fill="#211715"/>
      </g>
    </g>
  </g>
</svg>
