<svg xmlns="http://www.w3.org/2000/svg" xmlns:xlink="http://www.w3.org/1999/xlink" width="65" height="65" viewBox="0 0 65 65">
  <defs>
    <clipPath id="clip-path">
      <path id="パス_1435" data-name="パス 1435" d="M0,0H65V65H0Z" transform="translate(42 556)" fill="#6f92b9"/>
    </clipPath>
    <clipPath id="clip-path-2">
      <rect id="長方形_149" data-name="長方形 149" width="70.53" height="204.874" transform="translate(-2 15)" fill="#fff"/>
    </clipPath>
  </defs>
  <g id="mem01" transform="translate(-42 -556)" clip-path="url(#clip-path)">
    <g id="mem01-2" data-name="mem01" transform="translate(41 556)">
      <path id="パス_1389" data-name="パス 1389" d="M0,0H70.53V102.143H0Z" transform="translate(-2)" fill="#b5d6fc"/>
      <g id="グループ_57" data-name="グループ 57" transform="translate(0 -12)" clip-path="url(#clip-path-2)">
        <path id="パス_1390" data-name="パス 1390" d="M46.806,37.324a2,2,0,0,1,1.6-.468,1.886,1.886,0,0,1,1.357.9,2.667,2.667,0,0,1,.28,1.074,8,8,0,0,1-.815,4.24A5.093,5.093,0,0,1,47.913,44.8a3.372,3.372,0,0,1-1.568.706l-.268.041c-.131.48-.273.887-.344,1.1-.44,1.191-2.823,5.212-5.875,6.9.012.759.069,1.633.165,2.463a20.137,20.137,0,0,1-5.79,4.031c-.12.055-.255.121-.293.248a.46.46,0,0,0,.065.323c-.722,0-1.3,0-1.99,0a.469.469,0,0,0,.065-.327c-.039-.126-.174-.193-.293-.248a20.214,20.214,0,0,1-5.572-3.812,25.446,25.446,0,0,0,.23-2.989,12.544,12.544,0,0,1-2.905-2.6,13.6,13.6,0,0,1-2.592-5.058l-.511-.078a3.372,3.372,0,0,1-1.567-.706,5.094,5.094,0,0,1-1.315-1.725,8,8,0,0,1-.815-4.24,2.665,2.665,0,0,1,.279-1.074,1.887,1.887,0,0,1,1.357-.9,2,2,0,0,1,1.6.468S20.867,26,33.269,26,46.806,37.324,46.806,37.324Z" fill="#fff"/>
        <path id="パス_1391" data-name="パス 1391" d="M33.968,83.135q-.158.367-.312.712l-.413-.893c-1.607-3.47-4.59-10.436-6.77-16.678-1.09-3.122-2.061-5.756-2.664-7.548-4.4,1.827-7.674,3.3-11.659,5.088a15.308,15.308,0,0,0-2.024.878,2.3,2.3,0,0,0-.632.366,7.146,7.146,0,0,0-2.987,4.018C4.917,73.126,1.75,82,.362,85.963c-1.316,3.766-2.224,5.9-.79,8.8s4.472,4.789,6.715,6.35c2.221,1.544,4.961,3.236,7.564,4.754-.664,6.273-1.161,10.444-1.68,17.054,3.049.64,11.823.975,14.724-.325,3.222-1.443,5.636-10.239,6.317-13.914l.155.013c1.18,6.127,3.357,13.107,6.2,14.148,3.092,1.129,12.17.866,15.4.207-.54-6.913-1.056-11.152-1.759-17.833,2.415-1.423,4.9-2.97,6.95-4.394,2.244-1.56,5.284-3.447,6.715-6.35s.684-5.035-.633-8.8c-1.386-3.965-4.713-12.837-6.3-16.885a7.885,7.885,0,0,0-2.987-4.018s-.064-.058-.152-.144a16.726,16.726,0,0,0-1.915-.809c-4.035-1.739-7.691-3.483-12.53-5.445l-.64-.232c-.34,1.831-1.134,5.808-2.167,9.283A152.3,152.3,0,0,1,33.968,83.135Z" fill="#bdbdbd"/>
        <path id="パス_1392" data-name="パス 1392" d="M29.7,84.642C26.858,81.474,18.307,69.4,18.417,68.768a6.755,6.755,0,0,1,1.933-2.224,36.255,36.255,0,0,1-2.639-3.33c-.355-.483,4.341-4.61,5.719-5.438.5,1.688,1.678,4.587,3.044,8.5,2.18,6.242,5.164,13.207,6.771,16.677l.486.73c-.349.785-.676,1.493-.98,2.1-.174.367-.355.712-.523,1.074l-2.068-1.74C30.026,85,29.873,84.838,29.7,84.642Z" fill="#bdbdbd"/>
        <path id="パス_1393" data-name="パス 1393" d="M33.824,90.141l-2.2,3.033c-.126-1.42-.2-2.393-.2-2.642a9.068,9.068,0,0,1,1.321-4.743,132.062,132.062,0,0,0,6.811-18.366c1.251-4.2,2.147-8.757,2.319-9.759,1.209.673,6.446,4.979,6.1,5.463-.474.66-1.966,2.348-2.761,3.2a7.248,7.248,0,0,1,2.073,2.332c.115.654-8.267,14.5-9.941,16.624Z" fill="#bdbdbd"/>
        <path id="パス_1394" data-name="パス 1394" d="M41.169,57.261a8.663,8.663,0,0,0-1.123-1.27,20.146,20.146,0,0,1-5.813,4.052c-.12.055-.255.121-.293.248a.468.468,0,0,0,.067.328H32.013a.467.467,0,0,0,.067-.328c-.039-.126-.174-.193-.293-.248a20.15,20.15,0,0,1-5.813-4.052,9.946,9.946,0,0,0-2.026,2.737s-.03.058-.087.158c.607,1.788,1.553,4.36,2.61,7.391,2.18,6.242,5.164,13.207,6.771,16.677l.418.884a148.166,148.166,0,0,0,5.9-16.416c1.039-3.488,1.834-7.483,2.171-9.308C41.558,57.825,41.372,57.539,41.169,57.261Z" fill="#fff"/>
        <path id="パス_1395" data-name="パス 1395" d="M34.32,61.06a3.921,3.921,0,0,1-.312-.441c-.724,0-1.3,0-1.994,0a18.783,18.783,0,0,1-1.2,1.553c-.1.121-.2.245-.305.371.113.575.208,1.009.344,1.592l.087.361a3.2,3.2,0,0,1,.131.8c0,.169-.614,5.2-1.188,9.9,1.29,3.145,2.516,5.937,3.362,7.761l.414.894c.926-2.085,1.986-4.764,3.052-7.743l-.031-.21c-.715-4.79-1.541-10.24-1.537-10.508a4.852,4.852,0,0,1,.315-1.424c.058-.178.185-.642.31-1.117-.19-.231-.378-.458-.555-.675C34.854,61.737,34.538,61.346,34.32,61.06Z" fill="#6dbf6b"/>
        <path id="パス_1396" data-name="パス 1396" d="M30.766,102.394c-.785-.5-2.428-.593-3.7-.792-1.45,2.648-2.949,5.271-4.573,7.827.6.423,1.221.82,1.8,1.268,0,0,3.9,2.648,6.676-.514a13.656,13.656,0,0,0,1.657-4.048C33.163,103.783,30.766,102.394,30.766,102.394Z" fill="#fff"/>
        <path id="パス_1397" data-name="パス 1397" d="M35.089,101.307a8.514,8.514,0,0,0-3.422,1.215,2.859,2.859,0,0,0-1.513,2.095s.053.866.109,1.793c-.925.472-1.74.9-2.166,1.155a14.282,14.282,0,0,0-2.236,1.615,2.511,2.511,0,0,0-.518,2.743,1.759,1.759,0,0,0,1.67.86,1.756,1.756,0,0,0,.571,1.657,1.918,1.918,0,0,0,2.152.158c-.281.374.349,1.5,1.3,1.367a8.9,8.9,0,0,0,2.006-.557c.934-.392,3.463-1.594,5.752-2.9a38.481,38.481,0,0,0,3.547-2.4c.507-.359,1-.737,1.466-1.139l-.208-.408c-1.479-2.363-2.858-4.781-4.193-7.219A33.859,33.859,0,0,1,35.089,101.307Z" fill="#fff"/>
        <path id="パス_1398" data-name="パス 1398" d="M25.574,53.272a27.084,27.084,0,0,1-.238,3.042.872.872,0,0,0,1.489.617,1.027,1.027,0,0,0,.256-.617,27.108,27.108,0,0,0,.238-3.042.872.872,0,0,0-1.744,0Z" fill="#211715"/>
        <path id="パス_1399" data-name="パス 1399" d="M38.985,53.564a25.2,25.2,0,0,0,.218,2.873.959.959,0,0,0,.256.617.872.872,0,0,0,1.233,0,.833.833,0,0,0,.256-.617,25.247,25.247,0,0,1-.218-2.873.872.872,0,1,0-1.744,0Z" fill="#211715"/>
        <path id="パス_1400" data-name="パス 1400" d="M31.254,66.133c1.256,0,2.512-.028,3.768-.028a.872.872,0,1,0,0-1.744c-1.256,0-2.512.028-3.768.028a.872.872,0,1,0,0,1.744Z" fill="#211715"/>
        <path id="パス_1401" data-name="パス 1401" d="M29.655,62.729c.127.639.262,1.275.419,1.908a2.532,2.532,0,0,1,.1.854c-.056.656-.151,1.311-.229,1.965q-.456,3.809-.926,7.617a.877.877,0,0,0,.872.872.893.893,0,0,0,.872-.872q.474-3.876.942-7.753c.075-.628.177-1.261.218-1.892a3.881,3.881,0,0,0-.151-1.162c-.159-.664-.308-1.329-.441-2-.218-1.1-1.9-.634-1.682.464Z" fill="#211715"/>
        <path id="パス_1402" data-name="パス 1402" d="M34.12,59.741l-2.234,0a.872.872,0,0,0,0,1.744l2.234,0a.872.872,0,0,0,0-1.744Z" fill="#211715"/>
        <path id="パス_1403" data-name="パス 1403" d="M37.519,75.663q-.585-3.924-1.171-7.848-.1-.686-.2-1.373l-.068-.482c0-.022-.04-.3-.011-.081-.008-.063-.017-.126-.024-.188a7.216,7.216,0,0,1,.548-2.543.873.873,0,0,0-1.682-.464,8.414,8.414,0,0,0-.617,2.954c.093.789.218,1.576.331,2.363.4,2.71.807,5.418,1.211,8.127a.878.878,0,0,0,1.073.61.894.894,0,0,0,.611-1.073Z" fill="#211715"/>
        <path id="パス_1404" data-name="パス 1404" d="M38.221,65.692a25.957,25.957,0,0,0,3.65-4.948q.392-.65.787-1.3a1.264,1.264,0,0,0,.272-.831,2.275,2.275,0,0,0-.356-.785,10.594,10.594,0,0,0-1.91-2.452.887.887,0,0,0-1.233,0A18.944,18.944,0,0,1,36.3,57.91c-.549.356-1.114.686-1.7.986-.552.285-1.323.487-1.509,1.164a1.583,1.583,0,0,0,.412,1.37c.378.5.776.986,1.173,1.472.764.933,1.541,1.856,2.3,2.79a.878.878,0,0,0,1.233,0,.892.892,0,0,0,0-1.233c-.636-.781-1.283-1.553-1.923-2.33-.361-.436-.721-.876-1.074-1.319-.1-.125-.2-.25-.294-.379-.041-.056-.08-.125-.126-.178-.078-.091.019-.108.008.037l-.119.44q-.218.178-.019.065l.135-.062c.137-.064.273-.131.408-.2q.414-.205.817-.431.832-.464,1.618-1a21.075,21.075,0,0,0,3.012-2.495H39.43a9.525,9.525,0,0,1,1.89,2.561v-.88a32.355,32.355,0,0,1-4.333,6.171A.873.873,0,0,0,38.221,65.692Z" fill="#211715"/>
        <path id="パス_1405" data-name="パス 1405" d="M29.032,64.459A32.371,32.371,0,0,1,24.7,58.288v.88a9.525,9.525,0,0,1,1.89-2.561H25.356A21.13,21.13,0,0,0,28.368,59.1q.785.54,1.618,1,.37.207.75.4.2.1.408.2l.2.094c.131.075.125.054-.02-.065l-.119-.44c-.01-.124.094-.139.008-.037-.037.044-.068.1-.1.144-.1.141-.211.277-.319.413-.353.443-.713.882-1.074,1.319-.64.777-1.288,1.549-1.923,2.33a.9.9,0,0,0,0,1.233.878.878,0,0,0,1.233,0c.746-.916,1.507-1.821,2.256-2.735.4-.491.8-.982,1.188-1.487a1.621,1.621,0,0,0,.444-1.411c-.181-.658-.9-.855-1.441-1.129q-.872-.446-1.7-.978a18.967,18.967,0,0,1-3.193-2.577.888.888,0,0,0-1.233,0,10.561,10.561,0,0,0-1.872,2.386,3.352,3.352,0,0,0-.378.736,1.167,1.167,0,0,0,.256.947q.392.649.787,1.3A25.953,25.953,0,0,0,27.8,65.692.872.872,0,0,0,29.032,64.459Z" fill="#211715"/>
        <path id="パス_1406" data-name="パス 1406" d="M12.65,86.643q.2,2.467.375,4.937a.872.872,0,1,0,1.744,0q-.179-2.469-.375-4.937a.872.872,0,0,0-1.744,0Z" fill="#211715"/>
        <path id="パス_1407" data-name="パス 1407" d="M9.763,65.388c.739,5.157,1.8,10.277,2.367,15.457.211,1.929.367,3.864.523,5.8.087,1.111,1.834,1.121,1.744,0-.242-3.014-.507-6.021-.947-9.014-.425-2.892-.909-5.775-1.375-8.66-.218-1.347-.436-2.694-.63-4.045a.878.878,0,0,0-1.073-.61.895.895,0,0,0-.61,1.073Z" fill="#211715"/>
        <path id="パス_1408" data-name="パス 1408" d="M19.737,59.509q-2.662,1.147-5.308,2.335c-.907.405-1.806.835-2.722,1.221A10.16,10.16,0,0,0,9.433,64.12a.9.9,0,0,0-.313,1.193.878.878,0,0,0,1.193.313,10.815,10.815,0,0,1,2.274-1.055c.91-.4,1.814-.814,2.722-1.221q2.647-1.182,5.308-2.335a.877.877,0,0,0,.313-1.193.895.895,0,0,0-1.193-.313Z" fill="#211715"/>
        <path id="パス_1409" data-name="パス 1409" d="M35.531,91.013a1.959,1.959,0,0,1,.017-.243L35.516,91a1.647,1.647,0,0,1,.1-.381l-.087.208a1.33,1.33,0,0,1,.1-.188c.016-.026.035-.05.052-.075-.157.239-.1.131-.047.071.025-.027.052-.05.079-.076.1-.087-.193.131-.075.058a1.677,1.677,0,0,1,.208-.114l-.208.087a1.677,1.677,0,0,1,.406-.108l-.232.031a1.9,1.9,0,0,1,.477,0l-.232-.031a1.654,1.654,0,0,1,.365.1l-.208-.087a2.011,2.011,0,0,1,.211.113c.119.07-.171-.149-.071-.057.027.026.056.05.082.077a.783.783,0,0,0,.074.084c-.031-.023-.144-.2-.061-.073a1.468,1.468,0,0,1,.106.2l-.087-.208a1.818,1.818,0,0,1,.121.449l-.031-.231a1.847,1.847,0,0,1,0,.456l.031-.231a1.55,1.55,0,0,1-.1.368l.087-.208a1.45,1.45,0,0,1-.106.2c-.016.025-.034.048-.05.073.158-.246.1-.123.041-.06-.028.03-.059.058-.087.087-.095.09.192-.134.077-.058a1.625,1.625,0,0,1-.234.131l.208-.087a1.654,1.654,0,0,1-.4.109l.231-.031a2.018,2.018,0,0,1-.467,0l.232.031a1.481,1.481,0,0,1-.354-.092l.208.087a1.65,1.65,0,0,1-.2-.109c-.115-.071.195.167.054.04-.027-.024-.051-.049-.076-.076-.056-.061-.1-.167.05.072-.019-.029-.04-.057-.058-.087a1.521,1.521,0,0,1-.1-.2l.087.208a1.845,1.845,0,0,1-.119-.439l.031.232a2.043,2.043,0,0,1-.018-.262.872.872,0,0,0-1.744,0A2.331,2.331,0,0,0,34.927,93.1a2.4,2.4,0,0,0,2.828-.476,2.224,2.224,0,0,0,.523-1.09,2.6,2.6,0,0,0-.1-1.305,2.207,2.207,0,0,0-.926-1.16,2.523,2.523,0,0,0-1.67-.266,2.117,2.117,0,0,0-1.406.882,2.324,2.324,0,0,0-.389,1.328.872.872,0,0,0,1.744,0Z" fill="#211715"/>
        <path id="パス_1410" data-name="パス 1410" d="M22.587,58.028c.4,1.336.916,2.64,1.4,3.948.7,1.894,1.373,3.8,2.057,5.7,1.345,3.741,2.834,7.432,4.395,11.087.664,1.553,1.342,3.1,2.049,4.632a.879.879,0,0,0,1.193.313.892.892,0,0,0,.313-1.193c-1.381-2.988-2.665-6.023-3.892-9.077-1.507-3.753-2.822-7.572-4.226-11.363-.554-1.495-1.146-2.983-1.608-4.509a.873.873,0,0,0-1.682.464Z" fill="#211715"/>
        <path id="パス_1411" data-name="パス 1411" d="M43.483,59.765c2.307.959,4.59,1.976,6.871,2.994,1.05.468,2.1.937,3.152,1.4a15.845,15.845,0,0,1,3.224,1.467.878.878,0,0,0,1.193-.313.894.894,0,0,0-.313-1.193,15.794,15.794,0,0,0-3.227-1.467c-1.11-.485-2.216-.979-3.322-1.473-2.362-1.055-4.729-2.1-7.117-3.1a.878.878,0,0,0-1.073.61.895.895,0,0,0,.61,1.073Z" fill="#211715"/>
        <path id="パス_1412" data-name="パス 1412" d="M55.5,64.8c-.986,6.229-2.085,12.474-2.606,18.763-.2,2.453-.371,4.909-.532,7.366-.074,1.12,1.671,1.116,1.744,0,.246-3.761.445-7.543.925-11.283.412-3.2.91-6.394,1.4-9.584q.37-2.4.75-4.8a.9.9,0,0,0-.61-1.073.878.878,0,0,0-1.073.61Z" fill="#211715"/>
        <path id="パス_1413" data-name="パス 1413" d="M23.032,57a18.386,18.386,0,0,0-2.489,1.914,32.346,32.346,0,0,0-2.64,2.464c-.527.562-1.425,1.436-.947,2.28a15.323,15.323,0,0,0,1.238,1.665,20.06,20.06,0,0,0,1.537,1.842V65.927a13.143,13.143,0,0,0-1.544,1.545,2.223,2.223,0,0,0-.643,1.327,2.45,2.45,0,0,0,.429,1.095c.651,1.146,1.41,2.237,2.152,3.326,2.13,3.125,4.342,6.2,6.653,9.195a29.784,29.784,0,0,0,2.762,3.325c.808.78,2.043-.452,1.233-1.233a24.616,24.616,0,0,1-2.2-2.6c-1.009-1.289-2.066-2.714-3.068-4.087-1.944-2.666-3.9-5.352-5.638-8.157-.224-.361-.411-.741-.628-1.1-.013-.021.062.237.024.037-.021-.106.038.27.024.185.038.225-.092.16.037.073.023-.016.181-.251.194-.266.142-.177.3-.341.461-.5.316-.322.649-.627.987-.926a.882.882,0,0,0,0-1.233c-.9-.924-1.542-2.049-2.4-3.008-.278-.312,0,.169-.032.408.019-.124-.122.2-.033.067.041-.058.244-.361.129-.213a10.472,10.472,0,0,1,.857-.941c.785-.791,1.618-1.536,2.47-2.254A13.99,13.99,0,0,1,23.913,58.5a.873.873,0,0,0-.88-1.506Z" fill="#211715"/>
        <path id="パス_1414" data-name="パス 1414" d="M41.473,58.437a17.067,17.067,0,0,1,1.981,1.449c.9.724,1.79,1.472,2.632,2.267.317.3.626.606.916.934.036.041.2.282.064.073.019.028.087.1.087.127s.029.049.041.074q-.087-.231-.051-.113a.744.744,0,0,1,.078-.562c-.024.034-.049.067-.074.1A12.027,12.027,0,0,0,46,64.153q-.688.787-1.4,1.555a.882.882,0,0,0,0,1.233,15.009,15.009,0,0,1,1.536,1.482c.074.087.3.386.293.388s0-.51,0-.276a.492.492,0,0,1-.047.134c-.06.171.107-.218-.012.024-.085.174-.166.349-.254.521-.6,1.177-1.267,2.323-1.93,3.466q-2.642,4.552-5.467,9c-.411.645-.825,1.288-1.25,1.923-.159.238-.32.475-.485.71-.062.087-.123.174-.186.259-.027.037-.056.074-.082.112-.131.184.1-.122.014-.017a.9.9,0,0,0,0,1.233.878.878,0,0,0,1.234,0,76.086,76.086,0,0,0,4.814-7.447c1.686-2.766,3.425-5.537,4.883-8.433a5.024,5.024,0,0,0,.464-1.081,1.782,1.782,0,0,0-.523-1.456,13.136,13.136,0,0,0-1.772-1.772v1.233c.812-.87,1.608-1.761,2.36-2.683.28-.344.672-.713.673-1.19a1.445,1.445,0,0,0-.325-.834,20.966,20.966,0,0,0-4.031-3.724,19.346,19.346,0,0,0-2.153-1.577.873.873,0,0,0-.88,1.506Z" fill="#211715"/>
        <path id="パス_1415" data-name="パス 1415" d="M33.361,101.884c-.356-3.3-.695-6.6-.966-9.912a12.142,12.142,0,0,1-.028-2.666A10.834,10.834,0,0,1,33.6,86.021a86.954,86.954,0,0,0,3.356-8.059c1.319-3.551,2.529-7.151,3.584-10.791A86.914,86.914,0,0,0,42.716,57.9a.9.9,0,0,0-.611-1.073.879.879,0,0,0-1.073.61A112.446,112.446,0,0,1,35.7,76.324c-1.032,2.851-2.117,5.7-3.425,8.437a20.145,20.145,0,0,0-1.407,3.2,9.626,9.626,0,0,0-.278,3.281c.262,3.553.641,7.1,1.023,10.641a.9.9,0,0,0,.872.872.878.878,0,0,0,.872-.872Z" fill="#211715"/>
        <path id="パス_1416" data-name="パス 1416" d="M26.843,102.446c.382.058.764.106,1.147.155l.266.035.118.015c.121.016-.174-.024-.055-.007.174.024.349.049.523.077a8.619,8.619,0,0,1,.913.193c.131.037.262.082.392.131.112.041-.065-.023-.083-.036a.589.589,0,0,0,.079.038,2.063,2.063,0,0,1,.18.1.872.872,0,0,0,.88-1.506,5.056,5.056,0,0,0-1.842-.592c-.4-.066-.8-.117-1.2-.169l-.5-.063c-.133-.018-.057-.009.03,0l-.114-.016-.278-.041a.956.956,0,0,0-.672.087.872.872,0,0,0,.208,1.594Z" fill="#211715"/>
        <path id="パス_1417" data-name="パス 1417" d="M39.431,100.472c-2.074.206-4.213-.38-6.206.363-1.822.678-3.666,1.668-3.942,3.782a.875.875,0,0,0,.872.872.893.893,0,0,0,.872-.872,2.151,2.151,0,0,1,1.212-1.417,9.684,9.684,0,0,1,1.954-.855,6.576,6.576,0,0,1,2.289-.111,20.163,20.163,0,0,0,2.949-.018.9.9,0,0,0,.872-.872.878.878,0,0,0-.872-.872Z" fill="#211715"/>
        <path id="パス_1418" data-name="パス 1418" d="M9.428,90.193c2.166,1.14,4.213,2.562,6.283,3.863,2.925,1.838,5.843,3.689,8.768,5.525.908.569,1.81,1.155,2.738,1.691l-.313-1.193c-1.8,3.307-3.644,6.588-5.694,9.747l1.193-.313a105.464,105.464,0,0,1-9.287-5.09c-1.906-1.134-3.793-2.3-5.631-3.543A38.223,38.223,0,0,1,2.5,97.164,7.7,7.7,0,0,1-.284,91.84c-.007-2.093.973-4.183,1.654-6.124q1.911-5.45,3.9-10.872c.678-1.85,1.352-3.7,2.078-5.534A7.682,7.682,0,0,1,8.858,66.7a6.6,6.6,0,0,1,.738-.637,12.753,12.753,0,0,1,1.316-.8.873.873,0,0,0-.88-1.505,10.559,10.559,0,0,0-1.151.675c-.324.248-.657.484-.963.755a7.061,7.061,0,0,0-1.57,2.1,49.041,49.041,0,0,0-2.1,5.28Q2.108,78.353.067,84.177A38.342,38.342,0,0,0-1.88,90.309,8.056,8.056,0,0,0-.358,96.552a20.47,20.47,0,0,0,5.113,4.562c1.813,1.251,3.64,2.472,5.516,3.626a111.221,111.221,0,0,0,11.253,6.279.9.9,0,0,0,1.193-.313c2.049-3.158,3.9-6.439,5.694-9.747a.887.887,0,0,0-.313-1.193c-2.154-1.244-4.233-2.63-6.335-3.957-2.914-1.839-5.825-3.684-8.754-5.5-.889-.551-1.773-1.134-2.7-1.623C9.316,88.164,8.434,89.67,9.428,90.193Z" fill="#211715"/>
        <path id="パス_1419" data-name="パス 1419" d="M56.146,88.4c-2.166,1.14-4.213,2.562-6.283,3.863-2.925,1.839-5.843,3.689-8.768,5.525-.908.57-1.809,1.155-2.738,1.691a.888.888,0,0,0-.313,1.193c1.8,3.308,3.644,6.588,5.694,9.747a.9.9,0,0,0,1.193.312,106.163,106.163,0,0,0,9.577-5.264c1.939-1.158,3.859-2.354,5.722-3.629a36.67,36.67,0,0,0,5.193-3.958,9.8,9.8,0,0,0,3.067-5.829c.233-2.261-.669-4.511-1.4-6.607-1.271-3.629-2.624-7.23-3.981-10.827-.727-1.928-1.458-3.854-2.207-5.772A11.369,11.369,0,0,0,59.317,65.8a15.117,15.117,0,0,0-1.739-1.65c-.828-.755-2.065.475-1.233,1.233a19.045,19.045,0,0,1,1.536,1.408,7.862,7.862,0,0,1,1.264,2.318c.613,1.558,1.206,3.122,1.8,4.687,1.373,3.622,2.733,7.251,4.037,10.9a27.321,27.321,0,0,1,1.76,5.845,6.985,6.985,0,0,1-1.868,5.374,25.055,25.055,0,0,1-4.913,3.991c-1.739,1.2-3.508,2.339-5.311,3.435a109.652,109.652,0,0,1-10.6,5.88l1.193.313c-2.049-3.159-3.9-6.44-5.694-9.747l-.313,1.193c2.153-1.244,4.232-2.63,6.335-3.957,2.914-1.839,5.825-3.684,8.754-5.5.889-.551,1.773-1.134,2.7-1.623.994-.523.113-2.029-.88-1.506Z" fill="#211715"/>
        <path id="パス_1420" data-name="パス 1420" d="M19.927,37.237c.43.443.67-.464.832-.818.259-.564.638-1.387.916-1.942.153-.305.373-.753.508-1.065q.214-.5.455-.976a19.74,19.74,0,0,1,1.072-1.879,2.492,2.492,0,0,1,.686-.777c.841-.552,2-.106,3.022-.184a11.187,11.187,0,0,0,3.135-1.241,7.2,7.2,0,0,1,5.119-.064c.717.037,1.385.005,2.034,0a12.875,12.875,0,0,1,2.178.1,6.927,6.927,0,0,1,4.59,3.379,16.426,16.426,0,0,1,1.657,3.663,12.75,12.75,0,0,1,.31,1.39c.025.157.044.319.057.477.01.107.118.146.371-.026l-.034.048a1.982,1.982,0,0,1,1.577-.466A16.714,16.714,0,0,0,48.17,27a8.726,8.726,0,0,0-3.737-4.779l-1.889-1.672a8.634,8.634,0,0,0-4.953-4.031c-2.442-.872-9.559-1.02-11.952,1.049l-2.456,1.68c-2.74,1.25-4.673,4.244-5.5,7.329-.848,3.179-.856,7.786.338,10.363a1.962,1.962,0,0,1,1.925.377Z" fill="#7a7473"/>
        <path id="パス_1421" data-name="パス 1421" d="M43.295,20.11c-2.639-5.2-9.612-5.683-14.66-4.7a7.87,7.87,0,0,0-3.612,1.538c-.862.722.378,1.951,1.233,1.233a6.314,6.314,0,0,1,2.523-1.023,17.713,17.713,0,0,1,3.448-.37,13,13,0,0,1,6.252,1.054,7.351,7.351,0,0,1,3.309,3.143C42.3,21.993,43.8,21.109,43.295,20.11Z" fill="#211715"/>
        <path id="パス_1422" data-name="パス 1422" d="M22.743,18.5C19.6,19.973,17.6,23.3,16.788,26.57a20.6,20.6,0,0,0-.574,5.183,14.9,14.9,0,0,0,.778,4.961c.385,1.046,2.071.593,1.682-.463a16.252,16.252,0,0,1-.241-9.066c.7-2.925,2.38-5.862,5.189-7.182,1.015-.477.131-1.981-.88-1.506Z" fill="#211715"/>
        <path id="パス_1423" data-name="パス 1423" d="M35.608,27.747a6.829,6.829,0,0,0-5.453-.163,16.621,16.621,0,0,1-2.444,1.087,25.833,25.833,0,0,1-2.668-.008A2.919,2.919,0,0,0,22.9,30.2a19.647,19.647,0,0,0-1.365,2.526c-.332.741-.678,1.469-1,2.212-.168.386-.382.741-.572,1.114-.064.125-.112.257-.17.384-.029.067-.061.131-.1.2q-.224.328.387-.16l.44.119.016.027c-.849-.725-2.088.5-1.233,1.234a1.186,1.186,0,0,0,1.945-.436c.344-.677.69-1.357.983-2.06.305-.73.654-1.446.995-2.16a12.658,12.658,0,0,1,1.4-2.449c.523-.651,1.555-.312,2.267-.279a5.371,5.371,0,0,0,2.643-.656,8.156,8.156,0,0,1,2.476-.948,5.027,5.027,0,0,1,2.715.388.9.9,0,0,0,1.193-.313.879.879,0,0,0-.313-1.193Z" fill="#211715"/>
        <path id="パス_1424" data-name="パス 1424" d="M30.192,25.325a6.112,6.112,0,0,1,4.444.729,6.015,6.015,0,0,1,2.369,2.78c.509,1,2.014.119,1.506-.88a7.726,7.726,0,0,0-3.1-3.464,7.944,7.944,0,0,0-5.685-.847C28.634,23.89,29.1,25.573,30.192,25.325Z" fill="#211715"/>
        <path id="パス_1425" data-name="パス 1425" d="M39.816,29.022c2.017.486,3.256,1.99,4.221,3.737a13.617,13.617,0,0,1,1.311,3.131c.073.281.139.563.194.849.051.27.046.574.125.836a1.05,1.05,0,0,0,1.639.448.873.873,0,0,0-.88-1.506c.01.035-.013.044-.068.03h.464l-.05-.013.385.224-.031-.032.225.385c-.118-.417-.169-1.1-.3-1.609a11.627,11.627,0,0,0-.511-1.536,18.447,18.447,0,0,0-1.562-3.04,7.811,7.811,0,0,0-4.7-3.587C39.19,27.079,38.723,28.759,39.816,29.022Z" fill="#211715"/>
        <path id="パス_1426" data-name="パス 1426" d="M43.991,22.975a8.566,8.566,0,0,1,3.731,5.508,15.757,15.757,0,0,1-.09,7.919.873.873,0,0,0,1.682.464,17.532,17.532,0,0,0,.051-8.995,10.229,10.229,0,0,0-4.494-6.4A.873.873,0,0,0,43.991,22.975Z" fill="#211715"/>
        <path id="パス_1427" data-name="パス 1427" d="M47.422,37.938a1.092,1.092,0,0,1,1.555.2A2.279,2.279,0,0,1,49.2,39.3a6.787,6.787,0,0,1-.1,1.4c-.3,1.657-1.147,3.641-2.988,3.971a.88.88,0,0,0-.611,1.073.891.891,0,0,0,1.073.611c2.8-.5,4.129-3.658,4.339-6.192.108-1.3,0-2.785-1.119-3.627a2.886,2.886,0,0,0-3.608.182.879.879,0,0,0,0,1.233.891.891,0,0,0,1.234,0Z" fill="#211715"/>
        <path id="パス_1428" data-name="パス 1428" d="M45.452,44.013a7.555,7.555,0,0,1-.44,2.04c-.039.12-.087.239-.121.361-.016.055-.087.209.01-.016-.061.143-.131.283-.2.423A17.132,17.132,0,0,1,43.225,49.2c-1.29,1.769-3.04,3.642-5.249,4.16-1.09.256-.63,1.938.464,1.682,2.63-.617,4.672-2.768,6.219-4.863A11.322,11.322,0,0,0,47.2,44.013C47.24,42.891,45.5,42.893,45.452,44.013Z" fill="#211715"/>
        <path id="パス_1429" data-name="パス 1429" d="M20.591,36.705a2.887,2.887,0,0,0-3.608-.182c-1.125.84-1.226,2.33-1.119,3.627.21,2.533,1.543,5.691,4.339,6.192a.9.9,0,0,0,1.073-.61.88.88,0,0,0-.611-1.073c-1.841-.33-2.685-2.314-2.988-3.971a6.72,6.72,0,0,1-.1-1.316,2.619,2.619,0,0,1,.188-1.177,1.086,1.086,0,0,1,1.588-.258.9.9,0,0,0,1.233,0,.878.878,0,0,0,0-1.233Z" fill="#211715"/>
        <path id="パス_1430" data-name="パス 1430" d="M19.674,43.893a15.53,15.53,0,0,0,3.309,7.435,11.082,11.082,0,0,0,7.227,4.11.877.877,0,0,0,.872-.872.892.892,0,0,0-.872-.872,9.515,9.515,0,0,1-6.116-3.746,13.949,13.949,0,0,1-2.737-6.519.88.88,0,0,0-1.073-.61.892.892,0,0,0-.61,1.073Z" fill="#211715"/>
        <path id="パス_1431" data-name="パス 1431" d="M30.923,48.29a5.577,5.577,0,0,0,2.684.625,4.413,4.413,0,0,0,2.747-.828.872.872,0,0,0,0-1.233.9.9,0,0,0-1.234,0c.3-.233-.03.007-.126.057-.075.039-.278.1-.011.014-.074.024-.146.056-.218.08-.094.03-.189.056-.285.078-.051.012-.305.026-.331.062.03-.041.171-.02-.005,0-.06.006-.121.011-.181.015q-.218.013-.436.012c-.131,0-.262-.005-.392-.014-.06,0-.12-.009-.18-.015l-.1-.011.069.009a1.645,1.645,0,0,1-.576-.128c-.081-.024-.159-.053-.239-.08-.2-.069.174.085-.008,0-.1-.047-.2-.1-.293-.146a.872.872,0,0,0-.88,1.506Z" fill="#211715"/>
        <path id="パス_1432" data-name="パス 1432" d="M33.072,42.086a12.163,12.163,0,0,1,.285,1.305l-.031-.232a.8.8,0,0,1,0,.18l.031-.232a.389.389,0,0,1-.02.081l.087-.208a.359.359,0,0,1-.029.052l.136-.177a.281.281,0,0,1-.044.044l.177-.137a.863.863,0,0,1-.1.055l.208-.087a.758.758,0,0,1-.174.051l.232-.031a.688.688,0,0,1-.164,0l.231.031c-.061-.008-.122-.024-.183-.032a.661.661,0,0,0-.349-.015.648.648,0,0,0-.324.1.872.872,0,0,0-.313,1.193.834.834,0,0,0,.521.4c.159.021.312.061.474.068a1.553,1.553,0,0,0,.72-.174,1.083,1.083,0,0,0,.587-.709,1.694,1.694,0,0,0-.006-.741c-.071-.42-.168-.837-.276-1.249a.872.872,0,0,0-1.073-.61.883.883,0,0,0-.523.4.916.916,0,0,0-.087.672Z" fill="#211715"/>
        <path id="パス_1433" data-name="パス 1433" d="M26.369,38.337c-.218.708-.076,2.337,1.264,2.476,1.773-.011,1.868-1.98,1.271-2.906A1.4,1.4,0,0,0,26.369,38.337Z" fill="#211715"/>
        <path id="パス_1434" data-name="パス 1434" d="M40.567,38.337c.218.708.076,2.337-1.264,2.476-1.773-.011-1.868-1.98-1.271-2.906A1.4,1.4,0,0,1,40.567,38.337Z" fill="#211715"/>
      </g>
    </g>
  </g>
</svg>
